{
	"asset":{
		"generator":"Khronos glTF Blender I/O v5.1.20",
		"version":"2.0"
	},
	"scene":0,
	"scenes":[
		{
			"name":"Scene",
			"nodes":[
				26
			]
		}
	],
	"nodes":[
		{
			"name":"\u30dc\u30fc\u30f3.005",
			"rotation":[
				0.16091327369213104,
				2.8454593348214985e-08,
				-0.7855231761932373,
				0.5975452661514282
			],
			"scale":[
				1,
				0.9999999403953552,
				0.9999999403953552
			],
			"translation":[
				0,
				1.6816893815994263,
				0
			]
		},
		{
			"name":"\u30dc\u30fc\u30f3.006",
			"rotation":[
				0.26680564880371094,
				-0.19860850274562836,
				-0.855063796043396,
				0.39778804779052734
			],
			"scale":[
				1.0000001192092896,
				1.0000001192092896,
				1
			],
			"translation":[
				0,
				1.6816893815994263,
				0
			]
		},
		{
			"name":"\u30dc\u30fc\u30f3.007",
			"rotation":[
				0.8134931325912476,
				-1.831750040537372e-08,
				-0.008403785526752472,
				0.5815138816833496
			],
			"scale":[
				0.9999999403953552,
				0.9999999403953552,
				0.9999999403953552
			],
			"translation":[
				0,
				1.6816893815994263,
				0
			]
		},
		{
			"name":"\u30dc\u30fc\u30f3.008",
			"rotation":[
				0.8115522861480713,
				-9.180653570695085e-09,
				0.43799325823783875,
				0.38671013712882996
			],
			"scale":[
				0.9999998807907104,
				0.9999999403953552,
				0.9999997019767761
			],
			"translation":[
				0,
				1.6816893815994263,
				0
			]
		},
		{
			"name":"\u30dc\u30fc\u30f3.009",
			"rotation":[
				0.055002015084028244,
				-2.7182725403918084e-08,
				0.8565390110015869,
				0.5131430625915527
			],
			"scale":[
				0.9999998211860657,
				0.9999998807907104,
				0.9999999403953552
			],
			"translation":[
				0,
				1.6816893815994263,
				0
			]
		},
		{
			"name":"\u30dc\u30fc\u30f3.010",
			"rotation":[
				-0.6004697680473328,
				7.444752014862388e-08,
				0.5514447093009949,
				0.5790896415710449
			],
			"scale":[
				1,
				0.9999999403953552,
				0.9999998807907104
			],
			"translation":[
				0,
				1.6816893815994263,
				0
			]
		},
		{
			"name":"\u30dc\u30fc\u30f3.011",
			"rotation":[
				-0.8424343466758728,
				2.708508262116993e-08,
				0.010179023258388042,
				0.5387028455734253
			],
			"scale":[
				1,
				1,
				1.0000001192092896
			],
			"translation":[
				0,
				1.6816893815994263,
				0
			]
		},
		{
			"name":"\u30dc\u30fc\u30f3.012",
			"rotation":[
				-0.7655329704284668,
				1.9465080214331465e-08,
				-0.48884710669517517,
				0.41831541061401367
			],
			"scale":[
				0.9999997615814209,
				0.9999998807907104,
				0.9999995827674866
			],
			"translation":[
				0,
				1.6816893815994263,
				0
			]
		},
		{
			"children":[
				0,
				1,
				2,
				3,
				4,
				5,
				6,
				7
			],
			"name":"\u30dc\u30fc\u30f3.001",
			"translation":[
				0,
				1,
				0
			]
		},
		{
			"name":"\u30dc\u30fc\u30f3.003",
			"rotation":[
				0.7316186428070068,
				-5.85562389687766e-08,
				-0.016962578520178795,
				0.6815030574798584
			],
			"scale":[
				0.9999998807907104,
				1.0000001192092896,
				0.9999999403953552
			],
			"translation":[
				3.702007234096527e-08,
				0.9328843951225281,
				-1.1175870895385742e-08
			]
		},
		{
			"name":"\u30dc\u30fc\u30f3.004",
			"rotation":[
				-0.696225106716156,
				1.6052094764518188e-08,
				-0.13016149401664734,
				0.7059240341186523
			],
			"scale":[
				0.9999999403953552,
				0.9999999403953552,
				0.9999998211860657
			],
			"translation":[
				3.702007234096527e-08,
				0.9328843951225281,
				-1.1175870895385742e-08
			]
		},
		{
			"children":[
				9,
				10
			],
			"name":"\u30dc\u30fc\u30f3.002",
			"rotation":[
				-0.02927900291979313,
				-4.58643718559415e-08,
				0.7513225078582764,
				0.6592854261398315
			],
			"scale":[
				0.9999998807907104,
				0.9999999403953552,
				0.9999999403953552
			],
			"translation":[
				0,
				1,
				0
			]
		},
		{
			"children":[
				8,
				11
			],
			"name":"\u30dc\u30fc\u30f3",
			"translation":[
				0,
				1.4901161193847656e-08,
				0
			]
		},
		{
			"name":"neutral_bone",
			"rotation":[
				-0.7071067690849304,
				0,
				0,
				0.7071067690849304
			]
		},
		{
			"mesh":0,
			"name":"\u5e73\u9762",
			"skin":0
		},
		{
			"mesh":1,
			"name":"\u5e73\u9762.001",
			"skin":0
		},
		{
			"mesh":2,
			"name":"\u5e73\u9762.002",
			"skin":0
		},
		{
			"mesh":3,
			"name":"\u5e73\u9762.003",
			"skin":0
		},
		{
			"mesh":4,
			"name":"\u5e73\u9762.004",
			"skin":0
		},
		{
			"mesh":5,
			"name":"\u5e73\u9762.005",
			"skin":0
		},
		{
			"mesh":6,
			"name":"\u5e73\u9762.006",
			"skin":0
		},
		{
			"mesh":7,
			"name":"\u5e73\u9762.007",
			"skin":0
		},
		{
			"mesh":8,
			"name":"\u5e73\u9762.008",
			"skin":0
		},
		{
			"mesh":9,
			"name":"\u5e73\u9762.009",
			"skin":0
		},
		{
			"mesh":10,
			"name":"\u7403",
			"skin":0
		},
		{
			"mesh":11,
			"name":"\u7403.001",
			"skin":0
		},
		{
			"children":[
				14,
				15,
				16,
				17,
				18,
				19,
				20,
				21,
				22,
				23,
				24,
				25,
				12,
				13
			],
			"name":"\u30a2\u30fc\u30de\u30c1\u30e5\u30a2",
			"scale":[
				0.7561548352241516,
				0.7561548352241516,
				0.7561548352241516
			],
			"translation":[
				0,
				0.18376612663269043,
				0
			]
		}
	],
	"animations":[
		{
			"channels":[
				{
					"sampler":0,
					"target":{
						"node":12,
						"path":"translation"
					}
				},
				{
					"sampler":1,
					"target":{
						"node":12,
						"path":"rotation"
					}
				},
				{
					"sampler":2,
					"target":{
						"node":12,
						"path":"scale"
					}
				},
				{
					"sampler":3,
					"target":{
						"node":8,
						"path":"translation"
					}
				},
				{
					"sampler":4,
					"target":{
						"node":8,
						"path":"rotation"
					}
				},
				{
					"sampler":5,
					"target":{
						"node":8,
						"path":"scale"
					}
				},
				{
					"sampler":6,
					"target":{
						"node":0,
						"path":"translation"
					}
				},
				{
					"sampler":7,
					"target":{
						"node":0,
						"path":"rotation"
					}
				},
				{
					"sampler":8,
					"target":{
						"node":0,
						"path":"scale"
					}
				},
				{
					"sampler":9,
					"target":{
						"node":1,
						"path":"translation"
					}
				},
				{
					"sampler":10,
					"target":{
						"node":1,
						"path":"rotation"
					}
				},
				{
					"sampler":11,
					"target":{
						"node":1,
						"path":"scale"
					}
				},
				{
					"sampler":12,
					"target":{
						"node":2,
						"path":"translation"
					}
				},
				{
					"sampler":13,
					"target":{
						"node":2,
						"path":"rotation"
					}
				},
				{
					"sampler":14,
					"target":{
						"node":2,
						"path":"scale"
					}
				},
				{
					"sampler":15,
					"target":{
						"node":3,
						"path":"translation"
					}
				},
				{
					"sampler":16,
					"target":{
						"node":3,
						"path":"rotation"
					}
				},
				{
					"sampler":17,
					"target":{
						"node":3,
						"path":"scale"
					}
				},
				{
					"sampler":18,
					"target":{
						"node":4,
						"path":"translation"
					}
				},
				{
					"sampler":19,
					"target":{
						"node":4,
						"path":"rotation"
					}
				},
				{
					"sampler":20,
					"target":{
						"node":4,
						"path":"scale"
					}
				},
				{
					"sampler":21,
					"target":{
						"node":5,
						"path":"translation"
					}
				},
				{
					"sampler":22,
					"target":{
						"node":5,
						"path":"rotation"
					}
				},
				{
					"sampler":23,
					"target":{
						"node":5,
						"path":"scale"
					}
				},
				{
					"sampler":24,
					"target":{
						"node":6,
						"path":"translation"
					}
				},
				{
					"sampler":25,
					"target":{
						"node":6,
						"path":"rotation"
					}
				},
				{
					"sampler":26,
					"target":{
						"node":6,
						"path":"scale"
					}
				},
				{
					"sampler":27,
					"target":{
						"node":7,
						"path":"translation"
					}
				},
				{
					"sampler":28,
					"target":{
						"node":7,
						"path":"rotation"
					}
				},
				{
					"sampler":29,
					"target":{
						"node":7,
						"path":"scale"
					}
				},
				{
					"sampler":30,
					"target":{
						"node":11,
						"path":"translation"
					}
				},
				{
					"sampler":31,
					"target":{
						"node":11,
						"path":"rotation"
					}
				},
				{
					"sampler":32,
					"target":{
						"node":11,
						"path":"scale"
					}
				},
				{
					"sampler":33,
					"target":{
						"node":9,
						"path":"translation"
					}
				},
				{
					"sampler":34,
					"target":{
						"node":9,
						"path":"rotation"
					}
				},
				{
					"sampler":35,
					"target":{
						"node":9,
						"path":"scale"
					}
				},
				{
					"sampler":36,
					"target":{
						"node":10,
						"path":"translation"
					}
				},
				{
					"sampler":37,
					"target":{
						"node":10,
						"path":"rotation"
					}
				},
				{
					"sampler":38,
					"target":{
						"node":10,
						"path":"scale"
					}
				}
			],
			"name":"Attack",
			"samplers":[
				{
					"input":73,
					"interpolation":"STEP",
					"output":74
				},
				{
					"input":73,
					"interpolation":"STEP",
					"output":75
				},
				{
					"input":73,
					"interpolation":"STEP",
					"output":76
				},
				{
					"input":73,
					"interpolation":"STEP",
					"output":77
				},
				{
					"input":73,
					"interpolation":"STEP",
					"output":75
				},
				{
					"input":73,
					"interpolation":"STEP",
					"output":76
				},
				{
					"input":73,
					"interpolation":"STEP",
					"output":78
				},
				{
					"input":79,
					"interpolation":"LINEAR",
					"output":80
				},
				{
					"input":73,
					"interpolation":"STEP",
					"output":81
				},
				{
					"input":73,
					"interpolation":"STEP",
					"output":82
				},
				{
					"input":79,
					"interpolation":"LINEAR",
					"output":83
				},
				{
					"input":73,
					"interpolation":"STEP",
					"output":84
				},
				{
					"input":73,
					"interpolation":"STEP",
					"output":85
				},
				{
					"input":79,
					"interpolation":"LINEAR",
					"output":86
				},
				{
					"input":73,
					"interpolation":"STEP",
					"output":87
				},
				{
					"input":73,
					"interpolation":"STEP",
					"output":88
				},
				{
					"input":79,
					"interpolation":"LINEAR",
					"output":89
				},
				{
					"input":73,
					"interpolation":"LINEAR",
					"output":90
				},
				{
					"input":73,
					"interpolation":"STEP",
					"output":91
				},
				{
					"input":79,
					"interpolation":"LINEAR",
					"output":92
				},
				{
					"input":73,
					"interpolation":"STEP",
					"output":93
				},
				{
					"input":73,
					"interpolation":"STEP",
					"output":94
				},
				{
					"input":79,
					"interpolation":"LINEAR",
					"output":95
				},
				{
					"input":73,
					"interpolation":"STEP",
					"output":96
				},
				{
					"input":73,
					"interpolation":"STEP",
					"output":97
				},
				{
					"input":79,
					"interpolation":"LINEAR",
					"output":98
				},
				{
					"input":73,
					"interpolation":"STEP",
					"output":99
				},
				{
					"input":73,
					"interpolation":"STEP",
					"output":100
				},
				{
					"input":79,
					"interpolation":"LINEAR",
					"output":101
				},
				{
					"input":73,
					"interpolation":"STEP",
					"output":102
				},
				{
					"input":73,
					"interpolation":"STEP",
					"output":77
				},
				{
					"input":73,
					"interpolation":"STEP",
					"output":103
				},
				{
					"input":73,
					"interpolation":"STEP",
					"output":104
				},
				{
					"input":73,
					"interpolation":"STEP",
					"output":105
				},
				{
					"input":79,
					"interpolation":"LINEAR",
					"output":106
				},
				{
					"input":73,
					"interpolation":"STEP",
					"output":107
				},
				{
					"input":73,
					"interpolation":"STEP",
					"output":108
				},
				{
					"input":79,
					"interpolation":"LINEAR",
					"output":109
				},
				{
					"input":73,
					"interpolation":"STEP",
					"output":110
				}
			]
		},
		{
			"channels":[
				{
					"sampler":0,
					"target":{
						"node":12,
						"path":"translation"
					}
				},
				{
					"sampler":1,
					"target":{
						"node":12,
						"path":"rotation"
					}
				},
				{
					"sampler":2,
					"target":{
						"node":12,
						"path":"scale"
					}
				},
				{
					"sampler":3,
					"target":{
						"node":8,
						"path":"translation"
					}
				},
				{
					"sampler":4,
					"target":{
						"node":8,
						"path":"rotation"
					}
				},
				{
					"sampler":5,
					"target":{
						"node":8,
						"path":"scale"
					}
				},
				{
					"sampler":6,
					"target":{
						"node":0,
						"path":"translation"
					}
				},
				{
					"sampler":7,
					"target":{
						"node":0,
						"path":"rotation"
					}
				},
				{
					"sampler":8,
					"target":{
						"node":0,
						"path":"scale"
					}
				},
				{
					"sampler":9,
					"target":{
						"node":1,
						"path":"translation"
					}
				},
				{
					"sampler":10,
					"target":{
						"node":1,
						"path":"rotation"
					}
				},
				{
					"sampler":11,
					"target":{
						"node":1,
						"path":"scale"
					}
				},
				{
					"sampler":12,
					"target":{
						"node":2,
						"path":"translation"
					}
				},
				{
					"sampler":13,
					"target":{
						"node":2,
						"path":"rotation"
					}
				},
				{
					"sampler":14,
					"target":{
						"node":2,
						"path":"scale"
					}
				},
				{
					"sampler":15,
					"target":{
						"node":3,
						"path":"translation"
					}
				},
				{
					"sampler":16,
					"target":{
						"node":3,
						"path":"rotation"
					}
				},
				{
					"sampler":17,
					"target":{
						"node":3,
						"path":"scale"
					}
				},
				{
					"sampler":18,
					"target":{
						"node":4,
						"path":"translation"
					}
				},
				{
					"sampler":19,
					"target":{
						"node":4,
						"path":"rotation"
					}
				},
				{
					"sampler":20,
					"target":{
						"node":4,
						"path":"scale"
					}
				},
				{
					"sampler":21,
					"target":{
						"node":5,
						"path":"translation"
					}
				},
				{
					"sampler":22,
					"target":{
						"node":5,
						"path":"rotation"
					}
				},
				{
					"sampler":23,
					"target":{
						"node":5,
						"path":"scale"
					}
				},
				{
					"sampler":24,
					"target":{
						"node":6,
						"path":"translation"
					}
				},
				{
					"sampler":25,
					"target":{
						"node":6,
						"path":"rotation"
					}
				},
				{
					"sampler":26,
					"target":{
						"node":6,
						"path":"scale"
					}
				},
				{
					"sampler":27,
					"target":{
						"node":7,
						"path":"translation"
					}
				},
				{
					"sampler":28,
					"target":{
						"node":7,
						"path":"rotation"
					}
				},
				{
					"sampler":29,
					"target":{
						"node":7,
						"path":"scale"
					}
				},
				{
					"sampler":30,
					"target":{
						"node":11,
						"path":"translation"
					}
				},
				{
					"sampler":31,
					"target":{
						"node":11,
						"path":"rotation"
					}
				},
				{
					"sampler":32,
					"target":{
						"node":11,
						"path":"scale"
					}
				},
				{
					"sampler":33,
					"target":{
						"node":9,
						"path":"translation"
					}
				},
				{
					"sampler":34,
					"target":{
						"node":9,
						"path":"rotation"
					}
				},
				{
					"sampler":35,
					"target":{
						"node":9,
						"path":"scale"
					}
				},
				{
					"sampler":36,
					"target":{
						"node":10,
						"path":"translation"
					}
				},
				{
					"sampler":37,
					"target":{
						"node":10,
						"path":"rotation"
					}
				},
				{
					"sampler":38,
					"target":{
						"node":10,
						"path":"scale"
					}
				}
			],
			"name":"Attack_Wait",
			"samplers":[
				{
					"input":73,
					"interpolation":"STEP",
					"output":74
				},
				{
					"input":73,
					"interpolation":"STEP",
					"output":75
				},
				{
					"input":73,
					"interpolation":"STEP",
					"output":76
				},
				{
					"input":73,
					"interpolation":"STEP",
					"output":77
				},
				{
					"input":79,
					"interpolation":"LINEAR",
					"output":111
				},
				{
					"input":73,
					"interpolation":"STEP",
					"output":76
				},
				{
					"input":73,
					"interpolation":"STEP",
					"output":78
				},
				{
					"input":79,
					"interpolation":"LINEAR",
					"output":112
				},
				{
					"input":73,
					"interpolation":"STEP",
					"output":81
				},
				{
					"input":73,
					"interpolation":"STEP",
					"output":82
				},
				{
					"input":79,
					"interpolation":"LINEAR",
					"output":113
				},
				{
					"input":73,
					"interpolation":"STEP",
					"output":114
				},
				{
					"input":73,
					"interpolation":"STEP",
					"output":85
				},
				{
					"input":79,
					"interpolation":"LINEAR",
					"output":115
				},
				{
					"input":73,
					"interpolation":"STEP",
					"output":116
				},
				{
					"input":73,
					"interpolation":"STEP",
					"output":88
				},
				{
					"input":79,
					"interpolation":"LINEAR",
					"output":117
				},
				{
					"input":73,
					"interpolation":"LINEAR",
					"output":118
				},
				{
					"input":73,
					"interpolation":"STEP",
					"output":91
				},
				{
					"input":79,
					"interpolation":"LINEAR",
					"output":119
				},
				{
					"input":73,
					"interpolation":"STEP",
					"output":120
				},
				{
					"input":73,
					"interpolation":"STEP",
					"output":94
				},
				{
					"input":79,
					"interpolation":"LINEAR",
					"output":121
				},
				{
					"input":73,
					"interpolation":"STEP",
					"output":122
				},
				{
					"input":73,
					"interpolation":"STEP",
					"output":97
				},
				{
					"input":79,
					"interpolation":"LINEAR",
					"output":123
				},
				{
					"input":73,
					"interpolation":"STEP",
					"output":99
				},
				{
					"input":73,
					"interpolation":"STEP",
					"output":100
				},
				{
					"input":79,
					"interpolation":"LINEAR",
					"output":124
				},
				{
					"input":73,
					"interpolation":"STEP",
					"output":102
				},
				{
					"input":73,
					"interpolation":"STEP",
					"output":77
				},
				{
					"input":73,
					"interpolation":"STEP",
					"output":103
				},
				{
					"input":73,
					"interpolation":"STEP",
					"output":104
				},
				{
					"input":73,
					"interpolation":"STEP",
					"output":105
				},
				{
					"input":79,
					"interpolation":"LINEAR",
					"output":125
				},
				{
					"input":73,
					"interpolation":"STEP",
					"output":107
				},
				{
					"input":73,
					"interpolation":"STEP",
					"output":108
				},
				{
					"input":79,
					"interpolation":"LINEAR",
					"output":126
				},
				{
					"input":73,
					"interpolation":"STEP",
					"output":110
				}
			]
		},
		{
			"channels":[
				{
					"sampler":0,
					"target":{
						"node":12,
						"path":"translation"
					}
				},
				{
					"sampler":1,
					"target":{
						"node":12,
						"path":"rotation"
					}
				},
				{
					"sampler":2,
					"target":{
						"node":12,
						"path":"scale"
					}
				},
				{
					"sampler":3,
					"target":{
						"node":8,
						"path":"translation"
					}
				},
				{
					"sampler":4,
					"target":{
						"node":8,
						"path":"rotation"
					}
				},
				{
					"sampler":5,
					"target":{
						"node":8,
						"path":"scale"
					}
				},
				{
					"sampler":6,
					"target":{
						"node":0,
						"path":"translation"
					}
				},
				{
					"sampler":7,
					"target":{
						"node":0,
						"path":"rotation"
					}
				},
				{
					"sampler":8,
					"target":{
						"node":0,
						"path":"scale"
					}
				},
				{
					"sampler":9,
					"target":{
						"node":1,
						"path":"translation"
					}
				},
				{
					"sampler":10,
					"target":{
						"node":1,
						"path":"rotation"
					}
				},
				{
					"sampler":11,
					"target":{
						"node":1,
						"path":"scale"
					}
				},
				{
					"sampler":12,
					"target":{
						"node":2,
						"path":"translation"
					}
				},
				{
					"sampler":13,
					"target":{
						"node":2,
						"path":"rotation"
					}
				},
				{
					"sampler":14,
					"target":{
						"node":2,
						"path":"scale"
					}
				},
				{
					"sampler":15,
					"target":{
						"node":3,
						"path":"translation"
					}
				},
				{
					"sampler":16,
					"target":{
						"node":3,
						"path":"rotation"
					}
				},
				{
					"sampler":17,
					"target":{
						"node":3,
						"path":"scale"
					}
				},
				{
					"sampler":18,
					"target":{
						"node":4,
						"path":"translation"
					}
				},
				{
					"sampler":19,
					"target":{
						"node":4,
						"path":"rotation"
					}
				},
				{
					"sampler":20,
					"target":{
						"node":4,
						"path":"scale"
					}
				},
				{
					"sampler":21,
					"target":{
						"node":5,
						"path":"translation"
					}
				},
				{
					"sampler":22,
					"target":{
						"node":5,
						"path":"rotation"
					}
				},
				{
					"sampler":23,
					"target":{
						"node":5,
						"path":"scale"
					}
				},
				{
					"sampler":24,
					"target":{
						"node":6,
						"path":"translation"
					}
				},
				{
					"sampler":25,
					"target":{
						"node":6,
						"path":"rotation"
					}
				},
				{
					"sampler":26,
					"target":{
						"node":6,
						"path":"scale"
					}
				},
				{
					"sampler":27,
					"target":{
						"node":7,
						"path":"translation"
					}
				},
				{
					"sampler":28,
					"target":{
						"node":7,
						"path":"rotation"
					}
				},
				{
					"sampler":29,
					"target":{
						"node":7,
						"path":"scale"
					}
				},
				{
					"sampler":30,
					"target":{
						"node":11,
						"path":"translation"
					}
				},
				{
					"sampler":31,
					"target":{
						"node":11,
						"path":"rotation"
					}
				},
				{
					"sampler":32,
					"target":{
						"node":11,
						"path":"scale"
					}
				},
				{
					"sampler":33,
					"target":{
						"node":9,
						"path":"translation"
					}
				},
				{
					"sampler":34,
					"target":{
						"node":9,
						"path":"rotation"
					}
				},
				{
					"sampler":35,
					"target":{
						"node":9,
						"path":"scale"
					}
				},
				{
					"sampler":36,
					"target":{
						"node":10,
						"path":"translation"
					}
				},
				{
					"sampler":37,
					"target":{
						"node":10,
						"path":"rotation"
					}
				},
				{
					"sampler":38,
					"target":{
						"node":10,
						"path":"scale"
					}
				},
				{
					"sampler":39,
					"target":{
						"node":24,
						"path":"translation"
					}
				},
				{
					"sampler":40,
					"target":{
						"node":24,
						"path":"rotation"
					}
				},
				{
					"sampler":41,
					"target":{
						"node":24,
						"path":"scale"
					}
				}
			],
			"name":"Idle",
			"samplers":[
				{
					"input":127,
					"interpolation":"LINEAR",
					"output":128
				},
				{
					"input":127,
					"interpolation":"LINEAR",
					"output":129
				},
				{
					"input":127,
					"interpolation":"LINEAR",
					"output":130
				},
				{
					"input":127,
					"interpolation":"LINEAR",
					"output":131
				},
				{
					"input":127,
					"interpolation":"LINEAR",
					"output":129
				},
				{
					"input":127,
					"interpolation":"LINEAR",
					"output":130
				},
				{
					"input":127,
					"interpolation":"LINEAR",
					"output":132
				},
				{
					"input":127,
					"interpolation":"LINEAR",
					"output":133
				},
				{
					"input":127,
					"interpolation":"LINEAR",
					"output":134
				},
				{
					"input":127,
					"interpolation":"LINEAR",
					"output":135
				},
				{
					"input":127,
					"interpolation":"LINEAR",
					"output":136
				},
				{
					"input":127,
					"interpolation":"LINEAR",
					"output":137
				},
				{
					"input":127,
					"interpolation":"LINEAR",
					"output":138
				},
				{
					"input":127,
					"interpolation":"LINEAR",
					"output":139
				},
				{
					"input":127,
					"interpolation":"LINEAR",
					"output":140
				},
				{
					"input":127,
					"interpolation":"LINEAR",
					"output":141
				},
				{
					"input":127,
					"interpolation":"LINEAR",
					"output":142
				},
				{
					"input":127,
					"interpolation":"LINEAR",
					"output":143
				},
				{
					"input":127,
					"interpolation":"LINEAR",
					"output":144
				},
				{
					"input":127,
					"interpolation":"LINEAR",
					"output":145
				},
				{
					"input":127,
					"interpolation":"LINEAR",
					"output":146
				},
				{
					"input":127,
					"interpolation":"LINEAR",
					"output":147
				},
				{
					"input":127,
					"interpolation":"LINEAR",
					"output":148
				},
				{
					"input":127,
					"interpolation":"LINEAR",
					"output":149
				},
				{
					"input":127,
					"interpolation":"LINEAR",
					"output":150
				},
				{
					"input":127,
					"interpolation":"LINEAR",
					"output":151
				},
				{
					"input":127,
					"interpolation":"LINEAR",
					"output":152
				},
				{
					"input":127,
					"interpolation":"LINEAR",
					"output":153
				},
				{
					"input":127,
					"interpolation":"LINEAR",
					"output":154
				},
				{
					"input":127,
					"interpolation":"LINEAR",
					"output":143
				},
				{
					"input":127,
					"interpolation":"LINEAR",
					"output":131
				},
				{
					"input":127,
					"interpolation":"LINEAR",
					"output":155
				},
				{
					"input":127,
					"interpolation":"LINEAR",
					"output":156
				},
				{
					"input":127,
					"interpolation":"LINEAR",
					"output":157
				},
				{
					"input":127,
					"interpolation":"LINEAR",
					"output":158
				},
				{
					"input":127,
					"interpolation":"LINEAR",
					"output":159
				},
				{
					"input":127,
					"interpolation":"LINEAR",
					"output":160
				},
				{
					"input":127,
					"interpolation":"LINEAR",
					"output":161
				},
				{
					"input":127,
					"interpolation":"LINEAR",
					"output":162
				},
				{
					"input":127,
					"interpolation":"LINEAR",
					"output":163
				},
				{
					"input":127,
					"interpolation":"LINEAR",
					"output":164
				},
				{
					"input":127,
					"interpolation":"LINEAR",
					"output":165
				}
			]
		},
		{
			"channels":[
				{
					"sampler":0,
					"target":{
						"node":12,
						"path":"translation"
					}
				},
				{
					"sampler":1,
					"target":{
						"node":12,
						"path":"rotation"
					}
				},
				{
					"sampler":2,
					"target":{
						"node":12,
						"path":"scale"
					}
				},
				{
					"sampler":3,
					"target":{
						"node":8,
						"path":"translation"
					}
				},
				{
					"sampler":4,
					"target":{
						"node":8,
						"path":"rotation"
					}
				},
				{
					"sampler":5,
					"target":{
						"node":8,
						"path":"scale"
					}
				},
				{
					"sampler":6,
					"target":{
						"node":0,
						"path":"translation"
					}
				},
				{
					"sampler":7,
					"target":{
						"node":0,
						"path":"rotation"
					}
				},
				{
					"sampler":8,
					"target":{
						"node":0,
						"path":"scale"
					}
				},
				{
					"sampler":9,
					"target":{
						"node":1,
						"path":"translation"
					}
				},
				{
					"sampler":10,
					"target":{
						"node":1,
						"path":"rotation"
					}
				},
				{
					"sampler":11,
					"target":{
						"node":1,
						"path":"scale"
					}
				},
				{
					"sampler":12,
					"target":{
						"node":2,
						"path":"translation"
					}
				},
				{
					"sampler":13,
					"target":{
						"node":2,
						"path":"rotation"
					}
				},
				{
					"sampler":14,
					"target":{
						"node":2,
						"path":"scale"
					}
				},
				{
					"sampler":15,
					"target":{
						"node":3,
						"path":"translation"
					}
				},
				{
					"sampler":16,
					"target":{
						"node":3,
						"path":"rotation"
					}
				},
				{
					"sampler":17,
					"target":{
						"node":3,
						"path":"scale"
					}
				},
				{
					"sampler":18,
					"target":{
						"node":4,
						"path":"translation"
					}
				},
				{
					"sampler":19,
					"target":{
						"node":4,
						"path":"rotation"
					}
				},
				{
					"sampler":20,
					"target":{
						"node":4,
						"path":"scale"
					}
				},
				{
					"sampler":21,
					"target":{
						"node":5,
						"path":"translation"
					}
				},
				{
					"sampler":22,
					"target":{
						"node":5,
						"path":"rotation"
					}
				},
				{
					"sampler":23,
					"target":{
						"node":5,
						"path":"scale"
					}
				},
				{
					"sampler":24,
					"target":{
						"node":6,
						"path":"translation"
					}
				},
				{
					"sampler":25,
					"target":{
						"node":6,
						"path":"rotation"
					}
				},
				{
					"sampler":26,
					"target":{
						"node":6,
						"path":"scale"
					}
				},
				{
					"sampler":27,
					"target":{
						"node":7,
						"path":"translation"
					}
				},
				{
					"sampler":28,
					"target":{
						"node":7,
						"path":"rotation"
					}
				},
				{
					"sampler":29,
					"target":{
						"node":7,
						"path":"scale"
					}
				},
				{
					"sampler":30,
					"target":{
						"node":11,
						"path":"translation"
					}
				},
				{
					"sampler":31,
					"target":{
						"node":11,
						"path":"rotation"
					}
				},
				{
					"sampler":32,
					"target":{
						"node":11,
						"path":"scale"
					}
				},
				{
					"sampler":33,
					"target":{
						"node":9,
						"path":"translation"
					}
				},
				{
					"sampler":34,
					"target":{
						"node":9,
						"path":"rotation"
					}
				},
				{
					"sampler":35,
					"target":{
						"node":9,
						"path":"scale"
					}
				},
				{
					"sampler":36,
					"target":{
						"node":10,
						"path":"translation"
					}
				},
				{
					"sampler":37,
					"target":{
						"node":10,
						"path":"rotation"
					}
				},
				{
					"sampler":38,
					"target":{
						"node":10,
						"path":"scale"
					}
				}
			],
			"name":"Walk",
			"samplers":[
				{
					"input":73,
					"interpolation":"STEP",
					"output":74
				},
				{
					"input":73,
					"interpolation":"STEP",
					"output":75
				},
				{
					"input":73,
					"interpolation":"STEP",
					"output":76
				},
				{
					"input":73,
					"interpolation":"STEP",
					"output":77
				},
				{
					"input":73,
					"interpolation":"STEP",
					"output":75
				},
				{
					"input":73,
					"interpolation":"STEP",
					"output":76
				},
				{
					"input":73,
					"interpolation":"STEP",
					"output":78
				},
				{
					"input":73,
					"interpolation":"STEP",
					"output":166
				},
				{
					"input":73,
					"interpolation":"STEP",
					"output":81
				},
				{
					"input":73,
					"interpolation":"STEP",
					"output":82
				},
				{
					"input":73,
					"interpolation":"STEP",
					"output":167
				},
				{
					"input":73,
					"interpolation":"STEP",
					"output":168
				},
				{
					"input":73,
					"interpolation":"STEP",
					"output":85
				},
				{
					"input":73,
					"interpolation":"STEP",
					"output":169
				},
				{
					"input":73,
					"interpolation":"STEP",
					"output":170
				},
				{
					"input":73,
					"interpolation":"STEP",
					"output":88
				},
				{
					"input":73,
					"interpolation":"STEP",
					"output":171
				},
				{
					"input":73,
					"interpolation":"STEP",
					"output":102
				},
				{
					"input":73,
					"interpolation":"STEP",
					"output":91
				},
				{
					"input":73,
					"interpolation":"STEP",
					"output":172
				},
				{
					"input":73,
					"interpolation":"STEP",
					"output":173
				},
				{
					"input":73,
					"interpolation":"STEP",
					"output":94
				},
				{
					"input":73,
					"interpolation":"STEP",
					"output":174
				},
				{
					"input":73,
					"interpolation":"STEP",
					"output":175
				},
				{
					"input":73,
					"interpolation":"STEP",
					"output":97
				},
				{
					"input":73,
					"interpolation":"STEP",
					"output":176
				},
				{
					"input":73,
					"interpolation":"STEP",
					"output":99
				},
				{
					"input":73,
					"interpolation":"STEP",
					"output":100
				},
				{
					"input":73,
					"interpolation":"STEP",
					"output":177
				},
				{
					"input":73,
					"interpolation":"STEP",
					"output":102
				},
				{
					"input":73,
					"interpolation":"STEP",
					"output":77
				},
				{
					"input":73,
					"interpolation":"STEP",
					"output":103
				},
				{
					"input":73,
					"interpolation":"STEP",
					"output":104
				},
				{
					"input":73,
					"interpolation":"STEP",
					"output":105
				},
				{
					"input":79,
					"interpolation":"LINEAR",
					"output":178
				},
				{
					"input":73,
					"interpolation":"STEP",
					"output":107
				},
				{
					"input":73,
					"interpolation":"STEP",
					"output":108
				},
				{
					"input":79,
					"interpolation":"LINEAR",
					"output":179
				},
				{
					"input":73,
					"interpolation":"STEP",
					"output":110
				}
			]
		}
	],
	"materials":[
		{
			"doubleSided":true,
			"name":"\u30de\u30c6\u30ea\u30a2\u30eb",
			"pbrMetallicRoughness":{
				"baseColorTexture":{
					"index":0
				},
				"metallicFactor":0,
				"roughnessFactor":0.5
			}
		}
	],
	"meshes":[
		{
			"name":"\u5e73\u9762.003",
			"primitives":[
				{
					"attributes":{
						"POSITION":0,
						"NORMAL":1,
						"TEXCOORD_0":2,
						"JOINTS_0":3,
						"WEIGHTS_0":4
					},
					"indices":5,
					"material":0
				}
			]
		},
		{
			"name":"\u5e73\u9762.011",
			"primitives":[
				{
					"attributes":{
						"POSITION":7,
						"NORMAL":8,
						"TEXCOORD_0":9,
						"JOINTS_0":10,
						"WEIGHTS_0":11
					},
					"indices":12
				}
			]
		},
		{
			"name":"\u5e73\u9762.002",
			"primitives":[
				{
					"attributes":{
						"POSITION":13,
						"NORMAL":14,
						"TEXCOORD_0":15,
						"JOINTS_0":16,
						"WEIGHTS_0":17
					},
					"indices":18
				}
			]
		},
		{
			"name":"\u5e73\u9762.004",
			"primitives":[
				{
					"attributes":{
						"POSITION":19,
						"NORMAL":20,
						"TEXCOORD_0":21,
						"JOINTS_0":22,
						"WEIGHTS_0":23
					},
					"indices":24
				}
			]
		},
		{
			"name":"\u5e73\u9762.005",
			"primitives":[
				{
					"attributes":{
						"POSITION":25,
						"NORMAL":26,
						"TEXCOORD_0":27,
						"JOINTS_0":28,
						"WEIGHTS_0":29
					},
					"indices":30
				}
			]
		},
		{
			"name":"\u5e73\u9762.006",
			"primitives":[
				{
					"attributes":{
						"POSITION":31,
						"NORMAL":32,
						"TEXCOORD_0":33,
						"JOINTS_0":34,
						"WEIGHTS_0":35
					},
					"indices":36
				}
			]
		},
		{
			"name":"\u5e73\u9762.007",
			"primitives":[
				{
					"attributes":{
						"POSITION":37,
						"NORMAL":38,
						"TEXCOORD_0":39,
						"JOINTS_0":40,
						"WEIGHTS_0":41
					},
					"indices":42
				}
			]
		},
		{
			"name":"\u5e73\u9762.008",
			"primitives":[
				{
					"attributes":{
						"POSITION":43,
						"NORMAL":44,
						"TEXCOORD_0":45,
						"JOINTS_0":46,
						"WEIGHTS_0":47
					},
					"indices":48
				}
			]
		},
		{
			"name":"\u5e73\u9762.009",
			"primitives":[
				{
					"attributes":{
						"POSITION":49,
						"NORMAL":50,
						"TEXCOORD_0":51,
						"JOINTS_0":52,
						"WEIGHTS_0":53
					},
					"indices":54
				}
			]
		},
		{
			"name":"\u5e73\u9762.010",
			"primitives":[
				{
					"attributes":{
						"POSITION":55,
						"NORMAL":56,
						"TEXCOORD_0":57,
						"JOINTS_0":58,
						"WEIGHTS_0":59
					},
					"indices":60
				}
			]
		},
		{
			"name":"\u7403",
			"primitives":[
				{
					"attributes":{
						"POSITION":61,
						"NORMAL":62,
						"TEXCOORD_0":63,
						"JOINTS_0":64,
						"WEIGHTS_0":65
					},
					"indices":66
				}
			]
		},
		{
			"name":"\u7403.001",
			"primitives":[
				{
					"attributes":{
						"POSITION":67,
						"NORMAL":68,
						"TEXCOORD_0":69,
						"JOINTS_0":70,
						"WEIGHTS_0":71
					},
					"indices":72
				}
			]
		}
	],
	"textures":[
		{
			"sampler":0,
			"source":0
		}
	],
	"images":[
		{
			"mimeType":"image/png",
			"name":"FlowerLotus",
			"uri":"FlowerLotus.png"
		}
	],
	"skins":[
		{
			"inverseBindMatrices":6,
			"joints":[
				12,
				8,
				0,
				1,
				2,
				3,
				4,
				5,
				6,
				7,
				11,
				9,
				10,
				13
			],
			"name":"\u30a2\u30fc\u30de\u30c1\u30e5\u30a2"
		}
	],
	"accessors":[
		{
			"bufferView":0,
			"componentType":5126,
			"count":202,
			"max":[
				1.2472858428955078,
				2.5195460319519043,
				0.5762131214141846
			],
			"min":[
				-0.04192078113555908,
				1.5213327407836914,
				-0.6676664352416992
			],
			"type":"VEC3"
		},
		{
			"bufferView":1,
			"componentType":5126,
			"count":202,
			"type":"VEC3"
		},
		{
			"bufferView":2,
			"componentType":5126,
			"count":202,
			"type":"VEC2"
		},
		{
			"bufferView":3,
			"componentType":5121,
			"count":202,
			"type":"VEC4"
		},
		{
			"bufferView":4,
			"componentType":5126,
			"count":202,
			"type":"VEC4"
		},
		{
			"bufferView":5,
			"componentType":5123,
			"count":240,
			"type":"SCALAR"
		},
		{
			"bufferView":6,
			"componentType":5126,
			"count":14,
			"type":"MAT4"
		},
		{
			"bufferView":7,
			"componentType":5126,
			"count":120,
			"max":[
				-0.7145311236381531,
				1.1460177898406982,
				1.1391206979751587
			],
			"min":[
				-0.8476430177688599,
				0.663634717464447,
				0.26848462224006653
			],
			"type":"VEC3"
		},
		{
			"bufferView":8,
			"componentType":5126,
			"count":120,
			"type":"VEC3"
		},
		{
			"bufferView":9,
			"componentType":5126,
			"count":120,
			"type":"VEC2"
		},
		{
			"bufferView":10,
			"componentType":5121,
			"count":120,
			"type":"VEC4"
		},
		{
			"bufferView":11,
			"componentType":5126,
			"count":120,
			"type":"VEC4"
		},
		{
			"bufferView":12,
			"componentType":5123,
			"count":240,
			"type":"SCALAR"
		},
		{
			"bufferView":13,
			"componentType":5126,
			"count":120,
			"max":[
				-0.7032124996185303,
				1.172309160232544,
				-0.2760915756225586
			],
			"min":[
				-0.8415501713752747,
				0.666167140007019,
				-1.1170951128005981
			],
			"type":"VEC3"
		},
		{
			"bufferView":14,
			"componentType":5126,
			"count":120,
			"type":"VEC3"
		},
		{
			"bufferView":15,
			"componentType":5126,
			"count":120,
			"type":"VEC2"
		},
		{
			"bufferView":16,
			"componentType":5121,
			"count":120,
			"type":"VEC4"
		},
		{
			"bufferView":17,
			"componentType":5126,
			"count":120,
			"type":"VEC4"
		},
		{
			"bufferView":18,
			"componentType":5123,
			"count":240,
			"type":"SCALAR"
		},
		{
			"bufferView":19,
			"componentType":5126,
			"count":202,
			"max":[
				0.7108461260795593,
				2.544795274734497,
				-0.04796880483627319
			],
			"min":[
				-0.5330334305763245,
				1.5054439306259155,
				-1.3051631450653076
			],
			"type":"VEC3"
		},
		{
			"bufferView":20,
			"componentType":5126,
			"count":202,
			"type":"VEC3"
		},
		{
			"bufferView":21,
			"componentType":5126,
			"count":202,
			"type":"VEC2"
		},
		{
			"bufferView":22,
			"componentType":5121,
			"count":202,
			"type":"VEC4"
		},
		{
			"bufferView":23,
			"componentType":5126,
			"count":202,
			"type":"VEC4"
		},
		{
			"bufferView":24,
			"componentType":5123,
			"count":240,
			"type":"SCALAR"
		},
		{
			"bufferView":25,
			"componentType":5126,
			"count":202,
			"max":[
				0.7108461260795593,
				2.534883499145508,
				1.4363538026809692
			],
			"min":[
				-0.5330334305763245,
				1.536670207977295,
				0.14714723825454712
			],
			"type":"VEC3"
		},
		{
			"bufferView":26,
			"componentType":5126,
			"count":202,
			"type":"VEC3"
		},
		{
			"bufferView":27,
			"componentType":5126,
			"count":202,
			"type":"VEC2"
		},
		{
			"bufferView":28,
			"componentType":5121,
			"count":202,
			"type":"VEC4"
		},
		{
			"bufferView":29,
			"componentType":5126,
			"count":202,
			"type":"VEC4"
		},
		{
			"bufferView":30,
			"componentType":5123,
			"count":240,
			"type":"SCALAR"
		},
		{
			"bufferView":31,
			"componentType":5126,
			"count":202,
			"max":[
				0.11824530363082886,
				2.5894994735717773,
				0.6175732612609863
			],
			"min":[
				-1.1709612607955933,
				1.5912861824035645,
				-0.6263062953948975
			],
			"type":"VEC3"
		},
		{
			"bufferView":32,
			"componentType":5126,
			"count":202,
			"type":"VEC3"
		},
		{
			"bufferView":33,
			"componentType":5126,
			"count":202,
			"type":"VEC2"
		},
		{
			"bufferView":34,
			"componentType":5121,
			"count":202,
			"type":"VEC4"
		},
		{
			"bufferView":35,
			"componentType":5126,
			"count":202,
			"type":"VEC4"
		},
		{
			"bufferView":36,
			"componentType":5123,
			"count":240,
			"type":"SCALAR"
		},
		{
			"bufferView":37,
			"componentType":5126,
			"count":202,
			"max":[
				1.0337371826171875,
				2.2700533866882324,
				0.9753189086914062
			],
			"min":[
				0.12147635221481323,
				1.416323184967041,
				0.052941739559173584
			],
			"type":"VEC3"
		},
		{
			"bufferView":38,
			"componentType":5126,
			"count":202,
			"type":"VEC3"
		},
		{
			"bufferView":39,
			"componentType":5126,
			"count":202,
			"type":"VEC2"
		},
		{
			"bufferView":40,
			"componentType":5121,
			"count":202,
			"type":"VEC4"
		},
		{
			"bufferView":41,
			"componentType":5126,
			"count":202,
			"type":"VEC4"
		},
		{
			"bufferView":42,
			"componentType":5123,
			"count":240,
			"type":"SCALAR"
		},
		{
			"bufferView":43,
			"componentType":5126,
			"count":202,
			"max":[
				0.8899403810501099,
				2.328561782836914,
				-0.07537573575973511
			],
			"min":[
				-0.020350754261016846,
				1.401010513305664,
				-0.9879976511001587
			],
			"type":"VEC3"
		},
		{
			"bufferView":44,
			"componentType":5126,
			"count":202,
			"type":"VEC3"
		},
		{
			"bufferView":45,
			"componentType":5126,
			"count":202,
			"type":"VEC2"
		},
		{
			"bufferView":46,
			"componentType":5121,
			"count":202,
			"type":"VEC4"
		},
		{
			"bufferView":47,
			"componentType":5126,
			"count":202,
			"type":"VEC4"
		},
		{
			"bufferView":48,
			"componentType":5123,
			"count":240,
			"type":"SCALAR"
		},
		{
			"bufferView":49,
			"componentType":5126,
			"count":202,
			"max":[
				0.04195496439933777,
				2.328561782836914,
				-0.13920018076896667
			],
			"min":[
				-0.8918977975845337,
				1.401010513305664,
				-0.9853175282478333
			],
			"type":"VEC3"
		},
		{
			"bufferView":50,
			"componentType":5126,
			"count":202,
			"type":"VEC3"
		},
		{
			"bufferView":51,
			"componentType":5126,
			"count":202,
			"type":"VEC2"
		},
		{
			"bufferView":52,
			"componentType":5121,
			"count":202,
			"type":"VEC4"
		},
		{
			"bufferView":53,
			"componentType":5126,
			"count":202,
			"type":"VEC4"
		},
		{
			"bufferView":54,
			"componentType":5123,
			"count":240,
			"type":"SCALAR"
		},
		{
			"bufferView":55,
			"componentType":5126,
			"count":202,
			"max":[
				-0.031162530183792114,
				2.2075202465057373,
				1.0894927978515625
			],
			"min":[
				-0.8810712099075317,
				1.3823771476745605,
				0.1019778847694397
			],
			"type":"VEC3"
		},
		{
			"bufferView":56,
			"componentType":5126,
			"count":202,
			"type":"VEC3"
		},
		{
			"bufferView":57,
			"componentType":5126,
			"count":202,
			"type":"VEC2"
		},
		{
			"bufferView":58,
			"componentType":5121,
			"count":202,
			"type":"VEC4"
		},
		{
			"bufferView":59,
			"componentType":5126,
			"count":202,
			"type":"VEC4"
		},
		{
			"bufferView":60,
			"componentType":5123,
			"count":240,
			"type":"SCALAR"
		},
		{
			"bufferView":61,
			"componentType":5126,
			"count":2020,
			"max":[
				0.6238453984260559,
				2.164254903793335,
				0.6238451600074768
			],
			"min":[
				-0.6238449811935425,
				0.9165637493133545,
				-0.6238455772399902
			],
			"type":"VEC3"
		},
		{
			"bufferView":62,
			"componentType":5126,
			"count":2020,
			"type":"VEC3"
		},
		{
			"bufferView":63,
			"componentType":5126,
			"count":2020,
			"type":"VEC2"
		},
		{
			"bufferView":64,
			"componentType":5121,
			"count":2020,
			"type":"VEC4"
		},
		{
			"bufferView":65,
			"componentType":5126,
			"count":2020,
			"type":"VEC4"
		},
		{
			"bufferView":66,
			"componentType":5123,
			"count":2880,
			"type":"SCALAR"
		},
		{
			"bufferView":67,
			"componentType":5126,
			"count":1532,
			"max":[
				0.802686333656311,
				1.091111660003662,
				0.8026861548423767
			],
			"min":[
				-0.8026858568191528,
				-0.06118583679199219,
				-0.8026865124702454
			],
			"type":"VEC3"
		},
		{
			"bufferView":68,
			"componentType":5126,
			"count":1532,
			"type":"VEC3"
		},
		{
			"bufferView":69,
			"componentType":5126,
			"count":1532,
			"type":"VEC2"
		},
		{
			"bufferView":70,
			"componentType":5121,
			"count":1532,
			"type":"VEC4"
		},
		{
			"bufferView":71,
			"componentType":5126,
			"count":1532,
			"type":"VEC4"
		},
		{
			"bufferView":72,
			"componentType":5123,
			"count":2208,
			"type":"SCALAR"
		},
		{
			"bufferView":73,
			"componentType":5126,
			"count":2,
			"max":[
				2
			],
			"min":[
				0.041666666666666664
			],
			"type":"SCALAR"
		},
		{
			"bufferView":74,
			"componentType":5126,
			"count":2,
			"type":"VEC3"
		},
		{
			"bufferView":75,
			"componentType":5126,
			"count":2,
			"type":"VEC4"
		},
		{
			"bufferView":76,
			"componentType":5126,
			"count":2,
			"type":"VEC3"
		},
		{
			"bufferView":77,
			"componentType":5126,
			"count":2,
			"type":"VEC3"
		},
		{
			"bufferView":78,
			"componentType":5126,
			"count":2,
			"type":"VEC3"
		},
		{
			"bufferView":79,
			"componentType":5126,
			"count":48,
			"max":[
				2
			],
			"min":[
				0.041666666666666664
			],
			"type":"SCALAR"
		},
		{
			"bufferView":80,
			"componentType":5126,
			"count":48,
			"type":"VEC4"
		},
		{
			"bufferView":81,
			"componentType":5126,
			"count":2,
			"type":"VEC3"
		},
		{
			"bufferView":82,
			"componentType":5126,
			"count":2,
			"type":"VEC3"
		},
		{
			"bufferView":83,
			"componentType":5126,
			"count":48,
			"type":"VEC4"
		},
		{
			"bufferView":84,
			"componentType":5126,
			"count":2,
			"type":"VEC3"
		},
		{
			"bufferView":85,
			"componentType":5126,
			"count":2,
			"type":"VEC3"
		},
		{
			"bufferView":86,
			"componentType":5126,
			"count":48,
			"type":"VEC4"
		},
		{
			"bufferView":87,
			"componentType":5126,
			"count":2,
			"type":"VEC3"
		},
		{
			"bufferView":88,
			"componentType":5126,
			"count":2,
			"type":"VEC3"
		},
		{
			"bufferView":89,
			"componentType":5126,
			"count":48,
			"type":"VEC4"
		},
		{
			"bufferView":90,
			"componentType":5126,
			"count":2,
			"type":"VEC3"
		},
		{
			"bufferView":91,
			"componentType":5126,
			"count":2,
			"type":"VEC3"
		},
		{
			"bufferView":92,
			"componentType":5126,
			"count":48,
			"type":"VEC4"
		},
		{
			"bufferView":93,
			"componentType":5126,
			"count":2,
			"type":"VEC3"
		},
		{
			"bufferView":94,
			"componentType":5126,
			"count":2,
			"type":"VEC3"
		},
		{
			"bufferView":95,
			"componentType":5126,
			"count":48,
			"type":"VEC4"
		},
		{
			"bufferView":96,
			"componentType":5126,
			"count":2,
			"type":"VEC3"
		},
		{
			"bufferView":97,
			"componentType":5126,
			"count":2,
			"type":"VEC3"
		},
		{
			"bufferView":98,
			"componentType":5126,
			"count":48,
			"type":"VEC4"
		},
		{
			"bufferView":99,
			"componentType":5126,
			"count":2,
			"type":"VEC3"
		},
		{
			"bufferView":100,
			"componentType":5126,
			"count":2,
			"type":"VEC3"
		},
		{
			"bufferView":101,
			"componentType":5126,
			"count":48,
			"type":"VEC4"
		},
		{
			"bufferView":102,
			"componentType":5126,
			"count":2,
			"type":"VEC3"
		},
		{
			"bufferView":103,
			"componentType":5126,
			"count":2,
			"type":"VEC4"
		},
		{
			"bufferView":104,
			"componentType":5126,
			"count":2,
			"type":"VEC3"
		},
		{
			"bufferView":105,
			"componentType":5126,
			"count":2,
			"type":"VEC3"
		},
		{
			"bufferView":106,
			"componentType":5126,
			"count":48,
			"type":"VEC4"
		},
		{
			"bufferView":107,
			"componentType":5126,
			"count":2,
			"type":"VEC3"
		},
		{
			"bufferView":108,
			"componentType":5126,
			"count":2,
			"type":"VEC3"
		},
		{
			"bufferView":109,
			"componentType":5126,
			"count":48,
			"type":"VEC4"
		},
		{
			"bufferView":110,
			"componentType":5126,
			"count":2,
			"type":"VEC3"
		},
		{
			"bufferView":111,
			"componentType":5126,
			"count":48,
			"type":"VEC4"
		},
		{
			"bufferView":112,
			"componentType":5126,
			"count":48,
			"type":"VEC4"
		},
		{
			"bufferView":113,
			"componentType":5126,
			"count":48,
			"type":"VEC4"
		},
		{
			"bufferView":114,
			"componentType":5126,
			"count":2,
			"type":"VEC3"
		},
		{
			"bufferView":115,
			"componentType":5126,
			"count":48,
			"type":"VEC4"
		},
		{
			"bufferView":116,
			"componentType":5126,
			"count":2,
			"type":"VEC3"
		},
		{
			"bufferView":117,
			"componentType":5126,
			"count":48,
			"type":"VEC4"
		},
		{
			"bufferView":118,
			"componentType":5126,
			"count":2,
			"type":"VEC3"
		},
		{
			"bufferView":119,
			"componentType":5126,
			"count":48,
			"type":"VEC4"
		},
		{
			"bufferView":120,
			"componentType":5126,
			"count":2,
			"type":"VEC3"
		},
		{
			"bufferView":121,
			"componentType":5126,
			"count":48,
			"type":"VEC4"
		},
		{
			"bufferView":122,
			"componentType":5126,
			"count":2,
			"type":"VEC3"
		},
		{
			"bufferView":123,
			"componentType":5126,
			"count":48,
			"type":"VEC4"
		},
		{
			"bufferView":124,
			"componentType":5126,
			"count":48,
			"type":"VEC4"
		},
		{
			"bufferView":125,
			"componentType":5126,
			"count":48,
			"type":"VEC4"
		},
		{
			"bufferView":126,
			"componentType":5126,
			"count":48,
			"type":"VEC4"
		},
		{
			"bufferView":127,
			"componentType":5126,
			"count":1,
			"max":[
				0.041666666666666664
			],
			"min":[
				0.041666666666666664
			],
			"type":"SCALAR"
		},
		{
			"bufferView":128,
			"componentType":5126,
			"count":1,
			"type":"VEC3"
		},
		{
			"bufferView":129,
			"componentType":5126,
			"count":1,
			"type":"VEC4"
		},
		{
			"bufferView":130,
			"componentType":5126,
			"count":1,
			"type":"VEC3"
		},
		{
			"bufferView":131,
			"componentType":5126,
			"count":1,
			"type":"VEC3"
		},
		{
			"bufferView":132,
			"componentType":5126,
			"count":1,
			"type":"VEC3"
		},
		{
			"bufferView":133,
			"componentType":5126,
			"count":1,
			"type":"VEC4"
		},
		{
			"bufferView":134,
			"componentType":5126,
			"count":1,
			"type":"VEC3"
		},
		{
			"bufferView":135,
			"componentType":5126,
			"count":1,
			"type":"VEC3"
		},
		{
			"bufferView":136,
			"componentType":5126,
			"count":1,
			"type":"VEC4"
		},
		{
			"bufferView":137,
			"componentType":5126,
			"count":1,
			"type":"VEC3"
		},
		{
			"bufferView":138,
			"componentType":5126,
			"count":1,
			"type":"VEC3"
		},
		{
			"bufferView":139,
			"componentType":5126,
			"count":1,
			"type":"VEC4"
		},
		{
			"bufferView":140,
			"componentType":5126,
			"count":1,
			"type":"VEC3"
		},
		{
			"bufferView":141,
			"componentType":5126,
			"count":1,
			"type":"VEC3"
		},
		{
			"bufferView":142,
			"componentType":5126,
			"count":1,
			"type":"VEC4"
		},
		{
			"bufferView":143,
			"componentType":5126,
			"count":1,
			"type":"VEC3"
		},
		{
			"bufferView":144,
			"componentType":5126,
			"count":1,
			"type":"VEC3"
		},
		{
			"bufferView":145,
			"componentType":5126,
			"count":1,
			"type":"VEC4"
		},
		{
			"bufferView":146,
			"componentType":5126,
			"count":1,
			"type":"VEC3"
		},
		{
			"bufferView":147,
			"componentType":5126,
			"count":1,
			"type":"VEC3"
		},
		{
			"bufferView":148,
			"componentType":5126,
			"count":1,
			"type":"VEC4"
		},
		{
			"bufferView":149,
			"componentType":5126,
			"count":1,
			"type":"VEC3"
		},
		{
			"bufferView":150,
			"componentType":5126,
			"count":1,
			"type":"VEC3"
		},
		{
			"bufferView":151,
			"componentType":5126,
			"count":1,
			"type":"VEC4"
		},
		{
			"bufferView":152,
			"componentType":5126,
			"count":1,
			"type":"VEC3"
		},
		{
			"bufferView":153,
			"componentType":5126,
			"count":1,
			"type":"VEC3"
		},
		{
			"bufferView":154,
			"componentType":5126,
			"count":1,
			"type":"VEC4"
		},
		{
			"bufferView":155,
			"componentType":5126,
			"count":1,
			"type":"VEC4"
		},
		{
			"bufferView":156,
			"componentType":5126,
			"count":1,
			"type":"VEC3"
		},
		{
			"bufferView":157,
			"componentType":5126,
			"count":1,
			"type":"VEC3"
		},
		{
			"bufferView":158,
			"componentType":5126,
			"count":1,
			"type":"VEC4"
		},
		{
			"bufferView":159,
			"componentType":5126,
			"count":1,
			"type":"VEC3"
		},
		{
			"bufferView":160,
			"componentType":5126,
			"count":1,
			"type":"VEC3"
		},
		{
			"bufferView":161,
			"componentType":5126,
			"count":1,
			"type":"VEC4"
		},
		{
			"bufferView":162,
			"componentType":5126,
			"count":1,
			"type":"VEC3"
		},
		{
			"bufferView":163,
			"componentType":5126,
			"count":1,
			"type":"VEC3"
		},
		{
			"bufferView":164,
			"componentType":5126,
			"count":1,
			"type":"VEC4"
		},
		{
			"bufferView":165,
			"componentType":5126,
			"count":1,
			"type":"VEC3"
		},
		{
			"bufferView":166,
			"componentType":5126,
			"count":2,
			"type":"VEC4"
		},
		{
			"bufferView":167,
			"componentType":5126,
			"count":2,
			"type":"VEC4"
		},
		{
			"bufferView":168,
			"componentType":5126,
			"count":2,
			"type":"VEC3"
		},
		{
			"bufferView":169,
			"componentType":5126,
			"count":2,
			"type":"VEC4"
		},
		{
			"bufferView":170,
			"componentType":5126,
			"count":2,
			"type":"VEC3"
		},
		{
			"bufferView":171,
			"componentType":5126,
			"count":2,
			"type":"VEC4"
		},
		{
			"bufferView":172,
			"componentType":5126,
			"count":2,
			"type":"VEC4"
		},
		{
			"bufferView":173,
			"componentType":5126,
			"count":2,
			"type":"VEC3"
		},
		{
			"bufferView":174,
			"componentType":5126,
			"count":2,
			"type":"VEC4"
		},
		{
			"bufferView":175,
			"componentType":5126,
			"count":2,
			"type":"VEC3"
		},
		{
			"bufferView":176,
			"componentType":5126,
			"count":2,
			"type":"VEC4"
		},
		{
			"bufferView":177,
			"componentType":5126,
			"count":2,
			"type":"VEC4"
		},
		{
			"bufferView":178,
			"componentType":5126,
			"count":48,
			"type":"VEC4"
		},
		{
			"bufferView":179,
			"componentType":5126,
			"count":48,
			"type":"VEC4"
		}
	],
	"bufferViews":[
		{
			"buffer":0,
			"byteLength":2424,
			"byteOffset":0,
			"target":34962
		},
		{
			"buffer":0,
			"byteLength":2424,
			"byteOffset":2424,
			"target":34962
		},
		{
			"buffer":0,
			"byteLength":1616,
			"byteOffset":4848,
			"target":34962
		},
		{
			"buffer":0,
			"byteLength":808,
			"byteOffset":6464,
			"target":34962
		},
		{
			"buffer":0,
			"byteLength":3232,
			"byteOffset":7272,
			"target":34962
		},
		{
			"buffer":0,
			"byteLength":480,
			"byteOffset":10504,
			"target":34963
		},
		{
			"buffer":0,
			"byteLength":896,
			"byteOffset":10984
		},
		{
			"buffer":0,
			"byteLength":1440,
			"byteOffset":11880,
			"target":34962
		},
		{
			"buffer":0,
			"byteLength":1440,
			"byteOffset":13320,
			"target":34962
		},
		{
			"buffer":0,
			"byteLength":960,
			"byteOffset":14760,
			"target":34962
		},
		{
			"buffer":0,
			"byteLength":480,
			"byteOffset":15720,
			"target":34962
		},
		{
			"buffer":0,
			"byteLength":1920,
			"byteOffset":16200,
			"target":34962
		},
		{
			"buffer":0,
			"byteLength":480,
			"byteOffset":18120,
			"target":34963
		},
		{
			"buffer":0,
			"byteLength":1440,
			"byteOffset":18600,
			"target":34962
		},
		{
			"buffer":0,
			"byteLength":1440,
			"byteOffset":20040,
			"target":34962
		},
		{
			"buffer":0,
			"byteLength":960,
			"byteOffset":21480,
			"target":34962
		},
		{
			"buffer":0,
			"byteLength":480,
			"byteOffset":22440,
			"target":34962
		},
		{
			"buffer":0,
			"byteLength":1920,
			"byteOffset":22920,
			"target":34962
		},
		{
			"buffer":0,
			"byteLength":480,
			"byteOffset":24840,
			"target":34963
		},
		{
			"buffer":0,
			"byteLength":2424,
			"byteOffset":25320,
			"target":34962
		},
		{
			"buffer":0,
			"byteLength":2424,
			"byteOffset":27744,
			"target":34962
		},
		{
			"buffer":0,
			"byteLength":1616,
			"byteOffset":30168,
			"target":34962
		},
		{
			"buffer":0,
			"byteLength":808,
			"byteOffset":31784,
			"target":34962
		},
		{
			"buffer":0,
			"byteLength":3232,
			"byteOffset":32592,
			"target":34962
		},
		{
			"buffer":0,
			"byteLength":480,
			"byteOffset":35824,
			"target":34963
		},
		{
			"buffer":0,
			"byteLength":2424,
			"byteOffset":36304,
			"target":34962
		},
		{
			"buffer":0,
			"byteLength":2424,
			"byteOffset":38728,
			"target":34962
		},
		{
			"buffer":0,
			"byteLength":1616,
			"byteOffset":41152,
			"target":34962
		},
		{
			"buffer":0,
			"byteLength":808,
			"byteOffset":42768,
			"target":34962
		},
		{
			"buffer":0,
			"byteLength":3232,
			"byteOffset":43576,
			"target":34962
		},
		{
			"buffer":0,
			"byteLength":480,
			"byteOffset":46808,
			"target":34963
		},
		{
			"buffer":0,
			"byteLength":2424,
			"byteOffset":47288,
			"target":34962
		},
		{
			"buffer":0,
			"byteLength":2424,
			"byteOffset":49712,
			"target":34962
		},
		{
			"buffer":0,
			"byteLength":1616,
			"byteOffset":52136,
			"target":34962
		},
		{
			"buffer":0,
			"byteLength":808,
			"byteOffset":53752,
			"target":34962
		},
		{
			"buffer":0,
			"byteLength":3232,
			"byteOffset":54560,
			"target":34962
		},
		{
			"buffer":0,
			"byteLength":480,
			"byteOffset":57792,
			"target":34963
		},
		{
			"buffer":0,
			"byteLength":2424,
			"byteOffset":58272,
			"target":34962
		},
		{
			"buffer":0,
			"byteLength":2424,
			"byteOffset":60696,
			"target":34962
		},
		{
			"buffer":0,
			"byteLength":1616,
			"byteOffset":63120,
			"target":34962
		},
		{
			"buffer":0,
			"byteLength":808,
			"byteOffset":64736,
			"target":34962
		},
		{
			"buffer":0,
			"byteLength":3232,
			"byteOffset":65544,
			"target":34962
		},
		{
			"buffer":0,
			"byteLength":480,
			"byteOffset":68776,
			"target":34963
		},
		{
			"buffer":0,
			"byteLength":2424,
			"byteOffset":69256,
			"target":34962
		},
		{
			"buffer":0,
			"byteLength":2424,
			"byteOffset":71680,
			"target":34962
		},
		{
			"buffer":0,
			"byteLength":1616,
			"byteOffset":74104,
			"target":34962
		},
		{
			"buffer":0,
			"byteLength":808,
			"byteOffset":75720,
			"target":34962
		},
		{
			"buffer":0,
			"byteLength":3232,
			"byteOffset":76528,
			"target":34962
		},
		{
			"buffer":0,
			"byteLength":480,
			"byteOffset":79760,
			"target":34963
		},
		{
			"buffer":0,
			"byteLength":2424,
			"byteOffset":80240,
			"target":34962
		},
		{
			"buffer":0,
			"byteLength":2424,
			"byteOffset":82664,
			"target":34962
		},
		{
			"buffer":0,
			"byteLength":1616,
			"byteOffset":85088,
			"target":34962
		},
		{
			"buffer":0,
			"byteLength":808,
			"byteOffset":86704,
			"target":34962
		},
		{
			"buffer":0,
			"byteLength":3232,
			"byteOffset":87512,
			"target":34962
		},
		{
			"buffer":0,
			"byteLength":480,
			"byteOffset":90744,
			"target":34963
		},
		{
			"buffer":0,
			"byteLength":2424,
			"byteOffset":91224,
			"target":34962
		},
		{
			"buffer":0,
			"byteLength":2424,
			"byteOffset":93648,
			"target":34962
		},
		{
			"buffer":0,
			"byteLength":1616,
			"byteOffset":96072,
			"target":34962
		},
		{
			"buffer":0,
			"byteLength":808,
			"byteOffset":97688,
			"target":34962
		},
		{
			"buffer":0,
			"byteLength":3232,
			"byteOffset":98496,
			"target":34962
		},
		{
			"buffer":0,
			"byteLength":480,
			"byteOffset":101728,
			"target":34963
		},
		{
			"buffer":0,
			"byteLength":24240,
			"byteOffset":102208,
			"target":34962
		},
		{
			"buffer":0,
			"byteLength":24240,
			"byteOffset":126448,
			"target":34962
		},
		{
			"buffer":0,
			"byteLength":16160,
			"byteOffset":150688,
			"target":34962
		},
		{
			"buffer":0,
			"byteLength":8080,
			"byteOffset":166848,
			"target":34962
		},
		{
			"buffer":0,
			"byteLength":32320,
			"byteOffset":174928,
			"target":34962
		},
		{
			"buffer":0,
			"byteLength":5760,
			"byteOffset":207248,
			"target":34963
		},
		{
			"buffer":0,
			"byteLength":18384,
			"byteOffset":213008,
			"target":34962
		},
		{
			"buffer":0,
			"byteLength":18384,
			"byteOffset":231392,
			"target":34962
		},
		{
			"buffer":0,
			"byteLength":12256,
			"byteOffset":249776,
			"target":34962
		},
		{
			"buffer":0,
			"byteLength":6128,
			"byteOffset":262032,
			"target":34962
		},
		{
			"buffer":0,
			"byteLength":24512,
			"byteOffset":268160,
			"target":34962
		},
		{
			"buffer":0,
			"byteLength":4416,
			"byteOffset":292672,
			"target":34963
		},
		{
			"buffer":0,
			"byteLength":8,
			"byteOffset":297088
		},
		{
			"buffer":0,
			"byteLength":24,
			"byteOffset":297096
		},
		{
			"buffer":0,
			"byteLength":32,
			"byteOffset":297120
		},
		{
			"buffer":0,
			"byteLength":24,
			"byteOffset":297152
		},
		{
			"buffer":0,
			"byteLength":24,
			"byteOffset":297176
		},
		{
			"buffer":0,
			"byteLength":24,
			"byteOffset":297200
		},
		{
			"buffer":0,
			"byteLength":192,
			"byteOffset":297224
		},
		{
			"buffer":0,
			"byteLength":768,
			"byteOffset":297416
		},
		{
			"buffer":0,
			"byteLength":24,
			"byteOffset":298184
		},
		{
			"buffer":0,
			"byteLength":24,
			"byteOffset":298208
		},
		{
			"buffer":0,
			"byteLength":768,
			"byteOffset":298232
		},
		{
			"buffer":0,
			"byteLength":24,
			"byteOffset":299000
		},
		{
			"buffer":0,
			"byteLength":24,
			"byteOffset":299024
		},
		{
			"buffer":0,
			"byteLength":768,
			"byteOffset":299048
		},
		{
			"buffer":0,
			"byteLength":24,
			"byteOffset":299816
		},
		{
			"buffer":0,
			"byteLength":24,
			"byteOffset":299840
		},
		{
			"buffer":0,
			"byteLength":768,
			"byteOffset":299864
		},
		{
			"buffer":0,
			"byteLength":24,
			"byteOffset":300632
		},
		{
			"buffer":0,
			"byteLength":24,
			"byteOffset":300656
		},
		{
			"buffer":0,
			"byteLength":768,
			"byteOffset":300680
		},
		{
			"buffer":0,
			"byteLength":24,
			"byteOffset":301448
		},
		{
			"buffer":0,
			"byteLength":24,
			"byteOffset":301472
		},
		{
			"buffer":0,
			"byteLength":768,
			"byteOffset":301496
		},
		{
			"buffer":0,
			"byteLength":24,
			"byteOffset":302264
		},
		{
			"buffer":0,
			"byteLength":24,
			"byteOffset":302288
		},
		{
			"buffer":0,
			"byteLength":768,
			"byteOffset":302312
		},
		{
			"buffer":0,
			"byteLength":24,
			"byteOffset":303080
		},
		{
			"buffer":0,
			"byteLength":24,
			"byteOffset":303104
		},
		{
			"buffer":0,
			"byteLength":768,
			"byteOffset":303128
		},
		{
			"buffer":0,
			"byteLength":24,
			"byteOffset":303896
		},
		{
			"buffer":0,
			"byteLength":32,
			"byteOffset":303920
		},
		{
			"buffer":0,
			"byteLength":24,
			"byteOffset":303952
		},
		{
			"buffer":0,
			"byteLength":24,
			"byteOffset":303976
		},
		{
			"buffer":0,
			"byteLength":768,
			"byteOffset":304000
		},
		{
			"buffer":0,
			"byteLength":24,
			"byteOffset":304768
		},
		{
			"buffer":0,
			"byteLength":24,
			"byteOffset":304792
		},
		{
			"buffer":0,
			"byteLength":768,
			"byteOffset":304816
		},
		{
			"buffer":0,
			"byteLength":24,
			"byteOffset":305584
		},
		{
			"buffer":0,
			"byteLength":768,
			"byteOffset":305608
		},
		{
			"buffer":0,
			"byteLength":768,
			"byteOffset":306376
		},
		{
			"buffer":0,
			"byteLength":768,
			"byteOffset":307144
		},
		{
			"buffer":0,
			"byteLength":24,
			"byteOffset":307912
		},
		{
			"buffer":0,
			"byteLength":768,
			"byteOffset":307936
		},
		{
			"buffer":0,
			"byteLength":24,
			"byteOffset":308704
		},
		{
			"buffer":0,
			"byteLength":768,
			"byteOffset":308728
		},
		{
			"buffer":0,
			"byteLength":24,
			"byteOffset":309496
		},
		{
			"buffer":0,
			"byteLength":768,
			"byteOffset":309520
		},
		{
			"buffer":0,
			"byteLength":24,
			"byteOffset":310288
		},
		{
			"buffer":0,
			"byteLength":768,
			"byteOffset":310312
		},
		{
			"buffer":0,
			"byteLength":24,
			"byteOffset":311080
		},
		{
			"buffer":0,
			"byteLength":768,
			"byteOffset":311104
		},
		{
			"buffer":0,
			"byteLength":768,
			"byteOffset":311872
		},
		{
			"buffer":0,
			"byteLength":768,
			"byteOffset":312640
		},
		{
			"buffer":0,
			"byteLength":768,
			"byteOffset":313408
		},
		{
			"buffer":0,
			"byteLength":4,
			"byteOffset":314176
		},
		{
			"buffer":0,
			"byteLength":12,
			"byteOffset":314180
		},
		{
			"buffer":0,
			"byteLength":16,
			"byteOffset":314192
		},
		{
			"buffer":0,
			"byteLength":12,
			"byteOffset":314208
		},
		{
			"buffer":0,
			"byteLength":12,
			"byteOffset":314220
		},
		{
			"buffer":0,
			"byteLength":12,
			"byteOffset":314232
		},
		{
			"buffer":0,
			"byteLength":16,
			"byteOffset":314244
		},
		{
			"buffer":0,
			"byteLength":12,
			"byteOffset":314260
		},
		{
			"buffer":0,
			"byteLength":12,
			"byteOffset":314272
		},
		{
			"buffer":0,
			"byteLength":16,
			"byteOffset":314284
		},
		{
			"buffer":0,
			"byteLength":12,
			"byteOffset":314300
		},
		{
			"buffer":0,
			"byteLength":12,
			"byteOffset":314312
		},
		{
			"buffer":0,
			"byteLength":16,
			"byteOffset":314324
		},
		{
			"buffer":0,
			"byteLength":12,
			"byteOffset":314340
		},
		{
			"buffer":0,
			"byteLength":12,
			"byteOffset":314352
		},
		{
			"buffer":0,
			"byteLength":16,
			"byteOffset":314364
		},
		{
			"buffer":0,
			"byteLength":12,
			"byteOffset":314380
		},
		{
			"buffer":0,
			"byteLength":12,
			"byteOffset":314392
		},
		{
			"buffer":0,
			"byteLength":16,
			"byteOffset":314404
		},
		{
			"buffer":0,
			"byteLength":12,
			"byteOffset":314420
		},
		{
			"buffer":0,
			"byteLength":12,
			"byteOffset":314432
		},
		{
			"buffer":0,
			"byteLength":16,
			"byteOffset":314444
		},
		{
			"buffer":0,
			"byteLength":12,
			"byteOffset":314460
		},
		{
			"buffer":0,
			"byteLength":12,
			"byteOffset":314472
		},
		{
			"buffer":0,
			"byteLength":16,
			"byteOffset":314484
		},
		{
			"buffer":0,
			"byteLength":12,
			"byteOffset":314500
		},
		{
			"buffer":0,
			"byteLength":12,
			"byteOffset":314512
		},
		{
			"buffer":0,
			"byteLength":16,
			"byteOffset":314524
		},
		{
			"buffer":0,
			"byteLength":16,
			"byteOffset":314540
		},
		{
			"buffer":0,
			"byteLength":12,
			"byteOffset":314556
		},
		{
			"buffer":0,
			"byteLength":12,
			"byteOffset":314568
		},
		{
			"buffer":0,
			"byteLength":16,
			"byteOffset":314580
		},
		{
			"buffer":0,
			"byteLength":12,
			"byteOffset":314596
		},
		{
			"buffer":0,
			"byteLength":12,
			"byteOffset":314608
		},
		{
			"buffer":0,
			"byteLength":16,
			"byteOffset":314620
		},
		{
			"buffer":0,
			"byteLength":12,
			"byteOffset":314636
		},
		{
			"buffer":0,
			"byteLength":12,
			"byteOffset":314648
		},
		{
			"buffer":0,
			"byteLength":16,
			"byteOffset":314660
		},
		{
			"buffer":0,
			"byteLength":12,
			"byteOffset":314676
		},
		{
			"buffer":0,
			"byteLength":32,
			"byteOffset":314688
		},
		{
			"buffer":0,
			"byteLength":32,
			"byteOffset":314720
		},
		{
			"buffer":0,
			"byteLength":24,
			"byteOffset":314752
		},
		{
			"buffer":0,
			"byteLength":32,
			"byteOffset":314776
		},
		{
			"buffer":0,
			"byteLength":24,
			"byteOffset":314808
		},
		{
			"buffer":0,
			"byteLength":32,
			"byteOffset":314832
		},
		{
			"buffer":0,
			"byteLength":32,
			"byteOffset":314864
		},
		{
			"buffer":0,
			"byteLength":24,
			"byteOffset":314896
		},
		{
			"buffer":0,
			"byteLength":32,
			"byteOffset":314920
		},
		{
			"buffer":0,
			"byteLength":24,
			"byteOffset":314952
		},
		{
			"buffer":0,
			"byteLength":32,
			"byteOffset":314976
		},
		{
			"buffer":0,
			"byteLength":32,
			"byteOffset":315008
		},
		{
			"buffer":0,
			"byteLength":768,
			"byteOffset":315040
		},
		{
			"buffer":0,
			"byteLength":768,
			"byteOffset":315808
		}
	],
	"samplers":[
		{
			"magFilter":9729,
			"minFilter":9987
		}
	],
	"buffers":[
		{
			"byteLength":316576,
			"uri":"FlowerLotus.bin"
		}
	]
}
