{
	"asset":{
		"generator":"Khronos glTF Blender I/O v5.1.20",
		"version":"2.0"
	},
	"scene":0,
	"scenes":[
		{
			"name":"Scene",
			"nodes":[
				0
			]
		}
	],
	"nodes":[
		{
			"mesh":0,
			"name":"\u5e73\u9762.004"
		}
	],
	"materials":[
		{
			"doubleSided":true,
			"name":"\u30de\u30c6\u30ea\u30a2\u30eb.003",
			"pbrMetallicRoughness":{
				"baseColorFactor":[
					0.07150721549987793,
					0.00014311945415101945,
					0.0045226020738482475,
					1
				],
				"metallicFactor":0,
				"roughnessFactor":0.5
			}
		}
	],
	"meshes":[
		{
			"name":"\u5e73\u9762.005",
			"primitives":[
				{
					"attributes":{
						"POSITION":0,
						"NORMAL":1,
						"TEXCOORD_0":2
					},
					"indices":3,
					"material":0
				}
			]
		}
	],
	"accessors":[
		{
			"bufferView":0,
			"componentType":5126,
			"count":214,
			"max":[
				0.7108462452888489,
				0.7302263975143433,
				0.7074066400527954
			],
			"min":[
				-0.5330334901809692,
				-0.3884674310684204,
				-0.8002951741218567
			],
			"type":"VEC3"
		},
		{
			"bufferView":1,
			"componentType":5126,
			"count":214,
			"type":"VEC3"
		},
		{
			"bufferView":2,
			"componentType":5126,
			"count":214,
			"type":"VEC2"
		},
		{
			"bufferView":3,
			"componentType":5123,
			"count":240,
			"type":"SCALAR"
		}
	],
	"bufferViews":[
		{
			"buffer":0,
			"byteLength":2568,
			"byteOffset":0,
			"target":34962
		},
		{
			"buffer":0,
			"byteLength":2568,
			"byteOffset":2568,
			"target":34962
		},
		{
			"buffer":0,
			"byteLength":1712,
			"byteOffset":5136,
			"target":34962
		},
		{
			"buffer":0,
			"byteLength":480,
			"byteOffset":6848,
			"target":34963
		}
	],
	"buffers":[
		{
			"byteLength":7328,
			"uri":"Lotus_Bullet.bin"
		}
	]
}
