{
	"asset":{
		"generator":"Khronos glTF Blender I/O v5.1.19",
		"version":"2.0"
	},
	"scene":0,
	"scenes":[
		{
			"name":"Scene",
			"nodes":[
				32
			]
		}
	],
	"nodes":[
		{
			"name":"Bone.006",
			"rotation":[
				-0.015159349888563156,
				-1.3928237903304552e-12,
				-1.3625798374050646e-06,
				0.999885082244873
			],
			"translation":[
				2.1782398107461631e-10,
				0.09328890591859818,
				-2.730334358602704e-08
			]
		},
		{
			"children":[
				0
			],
			"name":"Bone.005",
			"rotation":[
				0.09134975075721741,
				-1.0651517168280833e-10,
				8.209673069359269e-06,
				0.9958188533782959
			],
			"translation":[
				6.548361852765083e-11,
				0.11530768126249313,
				6.225491233635694e-09
			]
		},
		{
			"children":[
				1
			],
			"name":"Bone.004",
			"rotation":[
				0.06684679538011551,
				0.0006946788635104895,
				-0.013089985586702824,
				0.9976771473884583
			],
			"scale":[
				1.0000001192092896,
				0.9999998807907104,
				0.9999998211860657
			],
			"translation":[
				3.470631781965494e-09,
				0.135819211602211,
				-1.2400050763972104e-08
			]
		},
		{
			"name":"Bone.012",
			"rotation":[
				0.006180515047162771,
				-5.262897673219413e-08,
				0.017701586708426476,
				0.9998242259025574
			],
			"translation":[
				-2.9802322387695312e-08,
				0.40211012959480286,
				-3.725290298461914e-08
			]
		},
		{
			"children":[
				3
			],
			"name":"Bone.011",
			"rotation":[
				-0.003275229362770915,
				-8.295182851725258e-08,
				-0.009380565024912357,
				0.999950647354126
			],
			"scale":[
				0.9999999403953552,
				0.9999998211860657,
				1
			],
			"translation":[
				-1.4156103134155273e-07,
				0.09014004468917847,
				-5.4016709327697754e-08
			]
		},
		{
			"children":[
				4
			],
			"name":"Bone.010",
			"rotation":[
				8.370642899535596e-05,
				2.7567148208618164e-07,
				0.00023974827490746975,
				1
			],
			"translation":[
				2.7567148208618164e-07,
				0.1086624264717102,
				-1.0244548320770264e-07
			]
		},
		{
			"children":[
				5
			],
			"name":"Bone.009",
			"rotation":[
				0.012076959013938904,
				5.16648839266054e-08,
				0.03458957374095917,
				0.99932861328125
			],
			"translation":[
				-5.550682544708252e-07,
				0.42132478952407837,
				2.2351741790771484e-08
			]
		},
		{
			"children":[
				6
			],
			"name":"Bone.008",
			"rotation":[
				0.08277960866689682,
				0.0003913798718713224,
				-0.02777361124753952,
				0.9961807131767273
			],
			"translation":[
				-2.421438694000244e-08,
				0.22051827609539032,
				-2.2351741790771484e-08
			]
		},
		{
			"children":[
				7
			],
			"name":"Bone.007",
			"rotation":[
				-0.12262861430644989,
				0.0248065534979105,
				-0.7405773997306824,
				0.6602212190628052
			],
			"scale":[
				0.9999999403953552,
				0.9999999403953552,
				0.9999998807907104
			],
			"translation":[
				3.470631781965494e-09,
				0.135819211602211,
				-1.2400050763972104e-08
			]
		},
		{
			"name":"Bone.024",
			"rotation":[
				-0.006180499214679003,
				6.653577599990967e-08,
				-0.017701594159007072,
				0.9998242259025574
			],
			"scale":[
				1,
				1,
				1.0000001192092896
			],
			"translation":[
				-2.1979212760925293e-07,
				0.40211012959480286,
				6.705522537231445e-08
			]
		},
		{
			"children":[
				9
			],
			"name":"Bone.023",
			"rotation":[
				0.003275215160101652,
				-5.981313933034471e-08,
				0.009380566887557507,
				0.999950647354126
			],
			"scale":[
				0.9999999403953552,
				0.9999997019767761,
				1
			],
			"translation":[
				-3.241002559661865e-07,
				0.09013994038105011,
				7.82310962677002e-08
			]
		},
		{
			"children":[
				10
			],
			"name":"Bone.022",
			"rotation":[
				-8.37067054817453e-05,
				2.236629370599985e-07,
				-0.00023974833311513066,
				1
			],
			"translation":[
				3.46451997756958e-07,
				0.10866247117519379,
				-8.381903171539307e-08
			]
		},
		{
			"children":[
				11
			],
			"name":"Bone.021",
			"rotation":[
				-0.012076965533196926,
				-1.2756042622186214e-07,
				-0.034589577466249466,
				0.99932861328125
			],
			"scale":[
				1,
				0.9999999403953552,
				1
			],
			"translation":[
				7.450580596923828e-09,
				0.42132481932640076,
				3.91155481338501e-08
			]
		},
		{
			"children":[
				12
			],
			"name":"Bone.020",
			"rotation":[
				0.027872934937477112,
				0.7787028551101685,
				-0.08274621516466141,
				0.6212874054908752
			],
			"scale":[
				0.9999998807907104,
				0.9999999403953552,
				1
			],
			"translation":[
				8.66129994392395e-08,
				0.22051823139190674,
				5.21540641784668e-08
			]
		},
		{
			"children":[
				13
			],
			"name":"Bone.019",
			"rotation":[
				0.6427658796310425,
				-0.6475946307182312,
				0.3534789979457855,
				0.2062181979417801
			],
			"scale":[
				0.9999998807907104,
				0.9999999403953552,
				0.9999998211860657
			],
			"translation":[
				0.007070560473948717,
				0.13563504815101624,
				-2.156448499590624e-05
			]
		},
		{
			"children":[
				2,
				8,
				14
			],
			"name":"Bone.003",
			"rotation":[
				-0.001537321018986404,
				-0.0015037792036309838,
				0.013022584840655327,
				0.9999129176139832
			],
			"scale":[
				1,
				0.9999998211860657,
				0.9999998807907104
			],
			"translation":[
				1.2023217640130639e-15,
				0.1511811763048172,
				-3.725290298461914e-09
			]
		},
		{
			"children":[
				15
			],
			"name":"Bone.002",
			"rotation":[
				-0.11480541527271271,
				5.588063759076199e-16,
				-2.7371740429771307e-08,
				0.9933879971504211
			],
			"scale":[
				1,
				1,
				0.9999999403953552
			],
			"translation":[
				-1.2994589200690358e-16,
				0.17684698104858398,
				1.862645149230957e-09
			]
		},
		{
			"children":[
				16
			],
			"name":"Bone.001",
			"rotation":[
				-0.04402696713805199,
				2.628226005970194e-14,
				-1.049684694720554e-08,
				0.999030351638794
			],
			"scale":[
				1,
				1.0000001192092896,
				1.0000001192092896
			],
			"translation":[
				-3.9968028886505635e-15,
				0.18819642066955566,
				9.313225746154785e-09
			]
		},
		{
			"name":"Bone.018",
			"rotation":[
				-0.004009327385574579,
				-0.027580944821238518,
				-0.6371950507164001,
				0.7701985239982605
			],
			"scale":[
				0.9999998807907104,
				0.9999999403953552,
				1
			],
			"translation":[
				-6.9267116487026215e-09,
				0.8590599298477173,
				2.4068867787718773e-08
			]
		},
		{
			"children":[
				18
			],
			"name":"Bone.017",
			"rotation":[
				-0.03535836189985275,
				0.005499775521457195,
				-0.008515281602740288,
				0.999323308467865
			],
			"scale":[
				1,
				1,
				1.0000001192092896
			],
			"translation":[
				6.752088665962219e-09,
				0.07930579036474228,
				-2.4001545639862343e-08
			]
		},
		{
			"children":[
				19
			],
			"name":"Bone.016",
			"rotation":[
				0.006624001078307629,
				-5.859258817508817e-05,
				0.10201232135295868,
				0.9947611093521118
			],
			"scale":[
				1,
				0.9999998807907104,
				0.9999998807907104
			],
			"translation":[
				-9.19681042432785e-09,
				0.09221605211496353,
				7.799040524503198e-09
			]
		},
		{
			"children":[
				20
			],
			"name":"Bone.015",
			"rotation":[
				0.057549986988306046,
				0.003417396917939186,
				-0.03421837463974953,
				0.9977502226829529
			],
			"scale":[
				1,
				1,
				1.0000001192092896
			],
			"translation":[
				-8.476490620523691e-10,
				0.6368460059165955,
				1.0354369806009345e-08
			]
		},
		{
			"children":[
				21
			],
			"name":"Bone.014",
			"rotation":[
				-0.5811334848403931,
				-0.007205250672996044,
				-0.010061129927635193,
				0.8137142062187195
			],
			"scale":[
				1,
				0.9999999403953552,
				0.9999999403953552
			],
			"translation":[
				-2.597132287007753e-09,
				0.1820632368326187,
				3.856854391415254e-08
			]
		},
		{
			"children":[
				22
			],
			"name":"Bone.013",
			"rotation":[
				-0.604049801826477,
				-0.44738978147506714,
				-0.5475788116455078,
				0.3675917983055115
			],
			"scale":[
				0.9999998807907104,
				1,
				0.9999999403953552
			],
			"translation":[
				-3.552713678800501e-15,
				-3.67872416973114e-08,
				1.862645149230957e-08
			]
		},
		{
			"name":"Bone.030",
			"rotation":[
				0.0034490583930164576,
				0.02825809456408024,
				-0.6371983289718628,
				0.770173966884613
			],
			"scale":[
				0.9999999403953552,
				0.9999999403953552,
				1
			],
			"translation":[
				8.221832104027271e-09,
				0.859059751033783,
				-5.238689482212067e-09
			]
		},
		{
			"children":[
				24
			],
			"name":"Bone.029",
			"rotation":[
				0.035233523696660995,
				0.006975000724196434,
				-0.009017961099743843,
				0.9993140697479248
			],
			"scale":[
				0.9999998807907104,
				0.9999998807907104,
				0.9999998807907104
			],
			"translation":[
				-6.984919309616089e-09,
				0.07930582016706467,
				8.847564458847046e-09
			]
		},
		{
			"children":[
				25
			],
			"name":"Bone.028",
			"rotation":[
				-0.006279220804572105,
				-0.0231623537838459,
				0.10203413665294647,
				0.9944913983345032
			],
			"scale":[
				1,
				0.9999999403953552,
				0.9999999403953552
			],
			"translation":[
				4.307366907596588e-09,
				0.09221591055393219,
				1.4901161193847656e-08
			]
		},
		{
			"children":[
				26
			],
			"name":"Bone.027",
			"rotation":[
				-0.05721409246325493,
				0.006788341794162989,
				-0.03477712348103523,
				0.997732937335968
			],
			"scale":[
				1,
				0.9999998807907104,
				1
			],
			"translation":[
				-2.142769517377019e-09,
				0.6368457078933716,
				4.2637111619114876e-09
			]
		},
		{
			"children":[
				27
			],
			"name":"Bone.026",
			"rotation":[
				0.5811309814453125,
				0.0070052482187747955,
				-0.010203929618000984,
				0.813715934753418
			],
			"scale":[
				0.9999999403953552,
				1.0000001192092896,
				1
			],
			"translation":[
				1.2219727452134066e-09,
				0.18206319212913513,
				8.114228933209233e-08
			]
		},
		{
			"children":[
				28
			],
			"name":"Bone.025",
			"rotation":[
				0.5475786328315735,
				-0.367591917514801,
				0.6040499210357666,
				0.4473896920681
			],
			"translation":[
				-3.552713678800501e-15,
				-3.67872416973114e-08,
				1.862645149230957e-08
			]
		},
		{
			"children":[
				17,
				23,
				29
			],
			"name":"Bone",
			"rotation":[
				0.0691257044672966,
				1.1892412032921129e-07,
				8.240428783778952e-09,
				0.997607946395874
			],
			"scale":[
				1,
				0.9999999403953552,
				0.9999999403953552
			],
			"translation":[
				0,
				1.6517438888549805,
				-0.0531342439353466
			]
		},
		{
			"mesh":0,
			"name":"momo",
			"skin":0
		},
		{
			"children":[
				31,
				30
			],
			"name":"Armature"
		}
	],
	"animations":[
		{
			"channels":[
				{
					"sampler":0,
					"target":{
						"node":30,
						"path":"translation"
					}
				},
				{
					"sampler":1,
					"target":{
						"node":30,
						"path":"rotation"
					}
				},
				{
					"sampler":2,
					"target":{
						"node":30,
						"path":"scale"
					}
				},
				{
					"sampler":3,
					"target":{
						"node":17,
						"path":"translation"
					}
				},
				{
					"sampler":4,
					"target":{
						"node":17,
						"path":"rotation"
					}
				},
				{
					"sampler":5,
					"target":{
						"node":17,
						"path":"scale"
					}
				},
				{
					"sampler":6,
					"target":{
						"node":16,
						"path":"translation"
					}
				},
				{
					"sampler":7,
					"target":{
						"node":16,
						"path":"rotation"
					}
				},
				{
					"sampler":8,
					"target":{
						"node":16,
						"path":"scale"
					}
				},
				{
					"sampler":9,
					"target":{
						"node":15,
						"path":"translation"
					}
				},
				{
					"sampler":10,
					"target":{
						"node":15,
						"path":"rotation"
					}
				},
				{
					"sampler":11,
					"target":{
						"node":15,
						"path":"scale"
					}
				},
				{
					"sampler":12,
					"target":{
						"node":2,
						"path":"translation"
					}
				},
				{
					"sampler":13,
					"target":{
						"node":2,
						"path":"rotation"
					}
				},
				{
					"sampler":14,
					"target":{
						"node":2,
						"path":"scale"
					}
				},
				{
					"sampler":15,
					"target":{
						"node":1,
						"path":"translation"
					}
				},
				{
					"sampler":16,
					"target":{
						"node":1,
						"path":"rotation"
					}
				},
				{
					"sampler":17,
					"target":{
						"node":1,
						"path":"scale"
					}
				},
				{
					"sampler":18,
					"target":{
						"node":0,
						"path":"translation"
					}
				},
				{
					"sampler":19,
					"target":{
						"node":0,
						"path":"rotation"
					}
				},
				{
					"sampler":20,
					"target":{
						"node":0,
						"path":"scale"
					}
				},
				{
					"sampler":21,
					"target":{
						"node":8,
						"path":"translation"
					}
				},
				{
					"sampler":22,
					"target":{
						"node":8,
						"path":"rotation"
					}
				},
				{
					"sampler":23,
					"target":{
						"node":8,
						"path":"scale"
					}
				},
				{
					"sampler":24,
					"target":{
						"node":7,
						"path":"translation"
					}
				},
				{
					"sampler":25,
					"target":{
						"node":7,
						"path":"rotation"
					}
				},
				{
					"sampler":26,
					"target":{
						"node":7,
						"path":"scale"
					}
				},
				{
					"sampler":27,
					"target":{
						"node":6,
						"path":"translation"
					}
				},
				{
					"sampler":28,
					"target":{
						"node":6,
						"path":"rotation"
					}
				},
				{
					"sampler":29,
					"target":{
						"node":6,
						"path":"scale"
					}
				},
				{
					"sampler":30,
					"target":{
						"node":5,
						"path":"translation"
					}
				},
				{
					"sampler":31,
					"target":{
						"node":5,
						"path":"rotation"
					}
				},
				{
					"sampler":32,
					"target":{
						"node":5,
						"path":"scale"
					}
				},
				{
					"sampler":33,
					"target":{
						"node":4,
						"path":"translation"
					}
				},
				{
					"sampler":34,
					"target":{
						"node":4,
						"path":"rotation"
					}
				},
				{
					"sampler":35,
					"target":{
						"node":4,
						"path":"scale"
					}
				},
				{
					"sampler":36,
					"target":{
						"node":3,
						"path":"translation"
					}
				},
				{
					"sampler":37,
					"target":{
						"node":3,
						"path":"rotation"
					}
				},
				{
					"sampler":38,
					"target":{
						"node":3,
						"path":"scale"
					}
				},
				{
					"sampler":39,
					"target":{
						"node":14,
						"path":"translation"
					}
				},
				{
					"sampler":40,
					"target":{
						"node":14,
						"path":"rotation"
					}
				},
				{
					"sampler":41,
					"target":{
						"node":14,
						"path":"scale"
					}
				},
				{
					"sampler":42,
					"target":{
						"node":13,
						"path":"translation"
					}
				},
				{
					"sampler":43,
					"target":{
						"node":13,
						"path":"rotation"
					}
				},
				{
					"sampler":44,
					"target":{
						"node":13,
						"path":"scale"
					}
				},
				{
					"sampler":45,
					"target":{
						"node":12,
						"path":"translation"
					}
				},
				{
					"sampler":46,
					"target":{
						"node":12,
						"path":"rotation"
					}
				},
				{
					"sampler":47,
					"target":{
						"node":12,
						"path":"scale"
					}
				},
				{
					"sampler":48,
					"target":{
						"node":11,
						"path":"translation"
					}
				},
				{
					"sampler":49,
					"target":{
						"node":11,
						"path":"rotation"
					}
				},
				{
					"sampler":50,
					"target":{
						"node":11,
						"path":"scale"
					}
				},
				{
					"sampler":51,
					"target":{
						"node":10,
						"path":"translation"
					}
				},
				{
					"sampler":52,
					"target":{
						"node":10,
						"path":"rotation"
					}
				},
				{
					"sampler":53,
					"target":{
						"node":10,
						"path":"scale"
					}
				},
				{
					"sampler":54,
					"target":{
						"node":9,
						"path":"translation"
					}
				},
				{
					"sampler":55,
					"target":{
						"node":9,
						"path":"rotation"
					}
				},
				{
					"sampler":56,
					"target":{
						"node":9,
						"path":"scale"
					}
				},
				{
					"sampler":57,
					"target":{
						"node":23,
						"path":"translation"
					}
				},
				{
					"sampler":58,
					"target":{
						"node":23,
						"path":"rotation"
					}
				},
				{
					"sampler":59,
					"target":{
						"node":23,
						"path":"scale"
					}
				},
				{
					"sampler":60,
					"target":{
						"node":22,
						"path":"translation"
					}
				},
				{
					"sampler":61,
					"target":{
						"node":22,
						"path":"rotation"
					}
				},
				{
					"sampler":62,
					"target":{
						"node":22,
						"path":"scale"
					}
				},
				{
					"sampler":63,
					"target":{
						"node":21,
						"path":"translation"
					}
				},
				{
					"sampler":64,
					"target":{
						"node":21,
						"path":"rotation"
					}
				},
				{
					"sampler":65,
					"target":{
						"node":21,
						"path":"scale"
					}
				},
				{
					"sampler":66,
					"target":{
						"node":20,
						"path":"translation"
					}
				},
				{
					"sampler":67,
					"target":{
						"node":20,
						"path":"rotation"
					}
				},
				{
					"sampler":68,
					"target":{
						"node":20,
						"path":"scale"
					}
				},
				{
					"sampler":69,
					"target":{
						"node":19,
						"path":"translation"
					}
				},
				{
					"sampler":70,
					"target":{
						"node":19,
						"path":"rotation"
					}
				},
				{
					"sampler":71,
					"target":{
						"node":19,
						"path":"scale"
					}
				},
				{
					"sampler":72,
					"target":{
						"node":18,
						"path":"translation"
					}
				},
				{
					"sampler":73,
					"target":{
						"node":18,
						"path":"rotation"
					}
				},
				{
					"sampler":74,
					"target":{
						"node":18,
						"path":"scale"
					}
				},
				{
					"sampler":75,
					"target":{
						"node":29,
						"path":"translation"
					}
				},
				{
					"sampler":76,
					"target":{
						"node":29,
						"path":"rotation"
					}
				},
				{
					"sampler":77,
					"target":{
						"node":29,
						"path":"scale"
					}
				},
				{
					"sampler":78,
					"target":{
						"node":28,
						"path":"translation"
					}
				},
				{
					"sampler":79,
					"target":{
						"node":28,
						"path":"rotation"
					}
				},
				{
					"sampler":80,
					"target":{
						"node":28,
						"path":"scale"
					}
				},
				{
					"sampler":81,
					"target":{
						"node":27,
						"path":"translation"
					}
				},
				{
					"sampler":82,
					"target":{
						"node":27,
						"path":"rotation"
					}
				},
				{
					"sampler":83,
					"target":{
						"node":27,
						"path":"scale"
					}
				},
				{
					"sampler":84,
					"target":{
						"node":26,
						"path":"translation"
					}
				},
				{
					"sampler":85,
					"target":{
						"node":26,
						"path":"rotation"
					}
				},
				{
					"sampler":86,
					"target":{
						"node":26,
						"path":"scale"
					}
				},
				{
					"sampler":87,
					"target":{
						"node":25,
						"path":"translation"
					}
				},
				{
					"sampler":88,
					"target":{
						"node":25,
						"path":"rotation"
					}
				},
				{
					"sampler":89,
					"target":{
						"node":25,
						"path":"scale"
					}
				},
				{
					"sampler":90,
					"target":{
						"node":24,
						"path":"translation"
					}
				},
				{
					"sampler":91,
					"target":{
						"node":24,
						"path":"rotation"
					}
				},
				{
					"sampler":92,
					"target":{
						"node":24,
						"path":"scale"
					}
				}
			],
			"name":"ArmatureAction",
			"samplers":[
				{
					"input":7,
					"interpolation":"STEP",
					"output":8
				},
				{
					"input":7,
					"interpolation":"STEP",
					"output":9
				},
				{
					"input":7,
					"interpolation":"STEP",
					"output":10
				},
				{
					"input":7,
					"interpolation":"STEP",
					"output":11
				},
				{
					"input":7,
					"interpolation":"STEP",
					"output":12
				},
				{
					"input":7,
					"interpolation":"STEP",
					"output":13
				},
				{
					"input":7,
					"interpolation":"STEP",
					"output":14
				},
				{
					"input":7,
					"interpolation":"STEP",
					"output":15
				},
				{
					"input":7,
					"interpolation":"STEP",
					"output":16
				},
				{
					"input":7,
					"interpolation":"STEP",
					"output":17
				},
				{
					"input":7,
					"interpolation":"STEP",
					"output":18
				},
				{
					"input":7,
					"interpolation":"STEP",
					"output":19
				},
				{
					"input":7,
					"interpolation":"STEP",
					"output":20
				},
				{
					"input":7,
					"interpolation":"STEP",
					"output":21
				},
				{
					"input":7,
					"interpolation":"STEP",
					"output":22
				},
				{
					"input":7,
					"interpolation":"STEP",
					"output":23
				},
				{
					"input":7,
					"interpolation":"STEP",
					"output":24
				},
				{
					"input":7,
					"interpolation":"STEP",
					"output":25
				},
				{
					"input":7,
					"interpolation":"STEP",
					"output":26
				},
				{
					"input":7,
					"interpolation":"STEP",
					"output":27
				},
				{
					"input":7,
					"interpolation":"STEP",
					"output":25
				},
				{
					"input":7,
					"interpolation":"STEP",
					"output":28
				},
				{
					"input":7,
					"interpolation":"STEP",
					"output":29
				},
				{
					"input":7,
					"interpolation":"STEP",
					"output":30
				},
				{
					"input":7,
					"interpolation":"STEP",
					"output":31
				},
				{
					"input":7,
					"interpolation":"STEP",
					"output":32
				},
				{
					"input":7,
					"interpolation":"STEP",
					"output":30
				},
				{
					"input":7,
					"interpolation":"STEP",
					"output":33
				},
				{
					"input":7,
					"interpolation":"STEP",
					"output":34
				},
				{
					"input":7,
					"interpolation":"STEP",
					"output":25
				},
				{
					"input":7,
					"interpolation":"STEP",
					"output":35
				},
				{
					"input":7,
					"interpolation":"STEP",
					"output":36
				},
				{
					"input":7,
					"interpolation":"STEP",
					"output":37
				},
				{
					"input":7,
					"interpolation":"STEP",
					"output":38
				},
				{
					"input":39,
					"interpolation":"LINEAR",
					"output":40
				},
				{
					"input":7,
					"interpolation":"STEP",
					"output":41
				},
				{
					"input":7,
					"interpolation":"LINEAR",
					"output":42
				},
				{
					"input":7,
					"interpolation":"LINEAR",
					"output":43
				},
				{
					"input":7,
					"interpolation":"LINEAR",
					"output":44
				},
				{
					"input":7,
					"interpolation":"STEP",
					"output":45
				},
				{
					"input":7,
					"interpolation":"STEP",
					"output":46
				},
				{
					"input":7,
					"interpolation":"STEP",
					"output":47
				},
				{
					"input":7,
					"interpolation":"STEP",
					"output":48
				},
				{
					"input":7,
					"interpolation":"STEP",
					"output":49
				},
				{
					"input":7,
					"interpolation":"STEP",
					"output":50
				},
				{
					"input":7,
					"interpolation":"STEP",
					"output":51
				},
				{
					"input":7,
					"interpolation":"STEP",
					"output":52
				},
				{
					"input":7,
					"interpolation":"STEP",
					"output":50
				},
				{
					"input":7,
					"interpolation":"STEP",
					"output":53
				},
				{
					"input":7,
					"interpolation":"STEP",
					"output":54
				},
				{
					"input":7,
					"interpolation":"STEP",
					"output":13
				},
				{
					"input":7,
					"interpolation":"STEP",
					"output":55
				},
				{
					"input":39,
					"interpolation":"LINEAR",
					"output":56
				},
				{
					"input":7,
					"interpolation":"LINEAR",
					"output":57
				},
				{
					"input":7,
					"interpolation":"LINEAR",
					"output":58
				},
				{
					"input":7,
					"interpolation":"LINEAR",
					"output":59
				},
				{
					"input":7,
					"interpolation":"LINEAR",
					"output":60
				},
				{
					"input":7,
					"interpolation":"STEP",
					"output":61
				},
				{
					"input":7,
					"interpolation":"STEP",
					"output":62
				},
				{
					"input":7,
					"interpolation":"STEP",
					"output":63
				},
				{
					"input":7,
					"interpolation":"STEP",
					"output":64
				},
				{
					"input":7,
					"interpolation":"STEP",
					"output":65
				},
				{
					"input":7,
					"interpolation":"STEP",
					"output":66
				},
				{
					"input":7,
					"interpolation":"STEP",
					"output":67
				},
				{
					"input":7,
					"interpolation":"STEP",
					"output":68
				},
				{
					"input":7,
					"interpolation":"STEP",
					"output":69
				},
				{
					"input":7,
					"interpolation":"STEP",
					"output":70
				},
				{
					"input":7,
					"interpolation":"STEP",
					"output":71
				},
				{
					"input":7,
					"interpolation":"STEP",
					"output":72
				},
				{
					"input":7,
					"interpolation":"STEP",
					"output":73
				},
				{
					"input":7,
					"interpolation":"STEP",
					"output":74
				},
				{
					"input":7,
					"interpolation":"STEP",
					"output":25
				},
				{
					"input":7,
					"interpolation":"STEP",
					"output":75
				},
				{
					"input":7,
					"interpolation":"STEP",
					"output":76
				},
				{
					"input":7,
					"interpolation":"STEP",
					"output":77
				},
				{
					"input":7,
					"interpolation":"STEP",
					"output":78
				},
				{
					"input":7,
					"interpolation":"STEP",
					"output":79
				},
				{
					"input":7,
					"interpolation":"STEP",
					"output":25
				},
				{
					"input":7,
					"interpolation":"STEP",
					"output":80
				},
				{
					"input":7,
					"interpolation":"STEP",
					"output":81
				},
				{
					"input":7,
					"interpolation":"STEP",
					"output":82
				},
				{
					"input":7,
					"interpolation":"STEP",
					"output":83
				},
				{
					"input":7,
					"interpolation":"STEP",
					"output":84
				},
				{
					"input":7,
					"interpolation":"STEP",
					"output":85
				},
				{
					"input":7,
					"interpolation":"STEP",
					"output":86
				},
				{
					"input":7,
					"interpolation":"STEP",
					"output":87
				},
				{
					"input":7,
					"interpolation":"STEP",
					"output":88
				},
				{
					"input":7,
					"interpolation":"STEP",
					"output":89
				},
				{
					"input":7,
					"interpolation":"STEP",
					"output":90
				},
				{
					"input":7,
					"interpolation":"STEP",
					"output":47
				},
				{
					"input":7,
					"interpolation":"STEP",
					"output":91
				},
				{
					"input":7,
					"interpolation":"STEP",
					"output":92
				},
				{
					"input":7,
					"interpolation":"STEP",
					"output":93
				}
			]
		}
	],
	"meshes":[
		{
			"name":"Cylinder.001",
			"primitives":[
				{
					"attributes":{
						"POSITION":0,
						"NORMAL":1,
						"TEXCOORD_0":2,
						"JOINTS_0":3,
						"WEIGHTS_0":4
					},
					"indices":5
				}
			]
		}
	],
	"skins":[
		{
			"inverseBindMatrices":6,
			"joints":[
				30,
				17,
				16,
				15,
				2,
				1,
				0,
				8,
				7,
				6,
				5,
				4,
				3,
				14,
				13,
				12,
				11,
				10,
				9,
				23,
				22,
				21,
				20,
				19,
				18,
				29,
				28,
				27,
				26,
				25,
				24
			],
			"name":"Armature"
		}
	],
	"accessors":[
		{
			"bufferView":0,
			"componentType":5126,
			"count":2552,
			"max":[
				1.3745485544204712,
				2.8447906970977783,
				0.21780575811862946
			],
			"min":[
				-1.3745485544204712,
				-0.17727208137512207,
				-0.3078399896621704
			],
			"type":"VEC3"
		},
		{
			"bufferView":1,
			"componentType":5126,
			"count":2552,
			"type":"VEC3"
		},
		{
			"bufferView":2,
			"componentType":5126,
			"count":2552,
			"type":"VEC2"
		},
		{
			"bufferView":3,
			"componentType":5121,
			"count":2552,
			"type":"VEC4"
		},
		{
			"bufferView":4,
			"componentType":5126,
			"count":2552,
			"type":"VEC4"
		},
		{
			"bufferView":5,
			"componentType":5123,
			"count":7812,
			"type":"SCALAR"
		},
		{
			"bufferView":6,
			"componentType":5126,
			"count":31,
			"type":"MAT4"
		},
		{
			"bufferView":7,
			"componentType":5126,
			"count":2,
			"max":[
				3
			],
			"min":[
				0
			],
			"type":"SCALAR"
		},
		{
			"bufferView":8,
			"componentType":5126,
			"count":2,
			"type":"VEC3"
		},
		{
			"bufferView":9,
			"componentType":5126,
			"count":2,
			"type":"VEC4"
		},
		{
			"bufferView":10,
			"componentType":5126,
			"count":2,
			"type":"VEC3"
		},
		{
			"bufferView":11,
			"componentType":5126,
			"count":2,
			"type":"VEC3"
		},
		{
			"bufferView":12,
			"componentType":5126,
			"count":2,
			"type":"VEC4"
		},
		{
			"bufferView":13,
			"componentType":5126,
			"count":2,
			"type":"VEC3"
		},
		{
			"bufferView":14,
			"componentType":5126,
			"count":2,
			"type":"VEC3"
		},
		{
			"bufferView":15,
			"componentType":5126,
			"count":2,
			"type":"VEC4"
		},
		{
			"bufferView":16,
			"componentType":5126,
			"count":2,
			"type":"VEC3"
		},
		{
			"bufferView":17,
			"componentType":5126,
			"count":2,
			"type":"VEC3"
		},
		{
			"bufferView":18,
			"componentType":5126,
			"count":2,
			"type":"VEC4"
		},
		{
			"bufferView":19,
			"componentType":5126,
			"count":2,
			"type":"VEC3"
		},
		{
			"bufferView":20,
			"componentType":5126,
			"count":2,
			"type":"VEC3"
		},
		{
			"bufferView":21,
			"componentType":5126,
			"count":2,
			"type":"VEC4"
		},
		{
			"bufferView":22,
			"componentType":5126,
			"count":2,
			"type":"VEC3"
		},
		{
			"bufferView":23,
			"componentType":5126,
			"count":2,
			"type":"VEC3"
		},
		{
			"bufferView":24,
			"componentType":5126,
			"count":2,
			"type":"VEC4"
		},
		{
			"bufferView":25,
			"componentType":5126,
			"count":2,
			"type":"VEC3"
		},
		{
			"bufferView":26,
			"componentType":5126,
			"count":2,
			"type":"VEC3"
		},
		{
			"bufferView":27,
			"componentType":5126,
			"count":2,
			"type":"VEC4"
		},
		{
			"bufferView":28,
			"componentType":5126,
			"count":2,
			"type":"VEC3"
		},
		{
			"bufferView":29,
			"componentType":5126,
			"count":2,
			"type":"VEC4"
		},
		{
			"bufferView":30,
			"componentType":5126,
			"count":2,
			"type":"VEC3"
		},
		{
			"bufferView":31,
			"componentType":5126,
			"count":2,
			"type":"VEC3"
		},
		{
			"bufferView":32,
			"componentType":5126,
			"count":2,
			"type":"VEC4"
		},
		{
			"bufferView":33,
			"componentType":5126,
			"count":2,
			"type":"VEC3"
		},
		{
			"bufferView":34,
			"componentType":5126,
			"count":2,
			"type":"VEC4"
		},
		{
			"bufferView":35,
			"componentType":5126,
			"count":2,
			"type":"VEC3"
		},
		{
			"bufferView":36,
			"componentType":5126,
			"count":2,
			"type":"VEC4"
		},
		{
			"bufferView":37,
			"componentType":5126,
			"count":2,
			"type":"VEC3"
		},
		{
			"bufferView":38,
			"componentType":5126,
			"count":2,
			"type":"VEC3"
		},
		{
			"bufferView":39,
			"componentType":5126,
			"count":73,
			"max":[
				3
			],
			"min":[
				0
			],
			"type":"SCALAR"
		},
		{
			"bufferView":40,
			"componentType":5126,
			"count":73,
			"type":"VEC4"
		},
		{
			"bufferView":41,
			"componentType":5126,
			"count":2,
			"type":"VEC3"
		},
		{
			"bufferView":42,
			"componentType":5126,
			"count":2,
			"type":"VEC3"
		},
		{
			"bufferView":43,
			"componentType":5126,
			"count":2,
			"type":"VEC4"
		},
		{
			"bufferView":44,
			"componentType":5126,
			"count":2,
			"type":"VEC3"
		},
		{
			"bufferView":45,
			"componentType":5126,
			"count":2,
			"type":"VEC3"
		},
		{
			"bufferView":46,
			"componentType":5126,
			"count":2,
			"type":"VEC4"
		},
		{
			"bufferView":47,
			"componentType":5126,
			"count":2,
			"type":"VEC3"
		},
		{
			"bufferView":48,
			"componentType":5126,
			"count":2,
			"type":"VEC3"
		},
		{
			"bufferView":49,
			"componentType":5126,
			"count":2,
			"type":"VEC4"
		},
		{
			"bufferView":50,
			"componentType":5126,
			"count":2,
			"type":"VEC3"
		},
		{
			"bufferView":51,
			"componentType":5126,
			"count":2,
			"type":"VEC3"
		},
		{
			"bufferView":52,
			"componentType":5126,
			"count":2,
			"type":"VEC4"
		},
		{
			"bufferView":53,
			"componentType":5126,
			"count":2,
			"type":"VEC3"
		},
		{
			"bufferView":54,
			"componentType":5126,
			"count":2,
			"type":"VEC4"
		},
		{
			"bufferView":55,
			"componentType":5126,
			"count":2,
			"type":"VEC3"
		},
		{
			"bufferView":56,
			"componentType":5126,
			"count":73,
			"type":"VEC4"
		},
		{
			"bufferView":57,
			"componentType":5126,
			"count":2,
			"type":"VEC3"
		},
		{
			"bufferView":58,
			"componentType":5126,
			"count":2,
			"type":"VEC3"
		},
		{
			"bufferView":59,
			"componentType":5126,
			"count":2,
			"type":"VEC4"
		},
		{
			"bufferView":60,
			"componentType":5126,
			"count":2,
			"type":"VEC3"
		},
		{
			"bufferView":61,
			"componentType":5126,
			"count":2,
			"type":"VEC3"
		},
		{
			"bufferView":62,
			"componentType":5126,
			"count":2,
			"type":"VEC4"
		},
		{
			"bufferView":63,
			"componentType":5126,
			"count":2,
			"type":"VEC3"
		},
		{
			"bufferView":64,
			"componentType":5126,
			"count":2,
			"type":"VEC3"
		},
		{
			"bufferView":65,
			"componentType":5126,
			"count":2,
			"type":"VEC4"
		},
		{
			"bufferView":66,
			"componentType":5126,
			"count":2,
			"type":"VEC3"
		},
		{
			"bufferView":67,
			"componentType":5126,
			"count":2,
			"type":"VEC3"
		},
		{
			"bufferView":68,
			"componentType":5126,
			"count":2,
			"type":"VEC4"
		},
		{
			"bufferView":69,
			"componentType":5126,
			"count":2,
			"type":"VEC3"
		},
		{
			"bufferView":70,
			"componentType":5126,
			"count":2,
			"type":"VEC3"
		},
		{
			"bufferView":71,
			"componentType":5126,
			"count":2,
			"type":"VEC4"
		},
		{
			"bufferView":72,
			"componentType":5126,
			"count":2,
			"type":"VEC3"
		},
		{
			"bufferView":73,
			"componentType":5126,
			"count":2,
			"type":"VEC3"
		},
		{
			"bufferView":74,
			"componentType":5126,
			"count":2,
			"type":"VEC4"
		},
		{
			"bufferView":75,
			"componentType":5126,
			"count":2,
			"type":"VEC3"
		},
		{
			"bufferView":76,
			"componentType":5126,
			"count":2,
			"type":"VEC4"
		},
		{
			"bufferView":77,
			"componentType":5126,
			"count":2,
			"type":"VEC3"
		},
		{
			"bufferView":78,
			"componentType":5126,
			"count":2,
			"type":"VEC3"
		},
		{
			"bufferView":79,
			"componentType":5126,
			"count":2,
			"type":"VEC4"
		},
		{
			"bufferView":80,
			"componentType":5126,
			"count":2,
			"type":"VEC3"
		},
		{
			"bufferView":81,
			"componentType":5126,
			"count":2,
			"type":"VEC4"
		},
		{
			"bufferView":82,
			"componentType":5126,
			"count":2,
			"type":"VEC3"
		},
		{
			"bufferView":83,
			"componentType":5126,
			"count":2,
			"type":"VEC3"
		},
		{
			"bufferView":84,
			"componentType":5126,
			"count":2,
			"type":"VEC4"
		},
		{
			"bufferView":85,
			"componentType":5126,
			"count":2,
			"type":"VEC3"
		},
		{
			"bufferView":86,
			"componentType":5126,
			"count":2,
			"type":"VEC3"
		},
		{
			"bufferView":87,
			"componentType":5126,
			"count":2,
			"type":"VEC4"
		},
		{
			"bufferView":88,
			"componentType":5126,
			"count":2,
			"type":"VEC3"
		},
		{
			"bufferView":89,
			"componentType":5126,
			"count":2,
			"type":"VEC3"
		},
		{
			"bufferView":90,
			"componentType":5126,
			"count":2,
			"type":"VEC4"
		},
		{
			"bufferView":91,
			"componentType":5126,
			"count":2,
			"type":"VEC3"
		},
		{
			"bufferView":92,
			"componentType":5126,
			"count":2,
			"type":"VEC4"
		},
		{
			"bufferView":93,
			"componentType":5126,
			"count":2,
			"type":"VEC3"
		}
	],
	"bufferViews":[
		{
			"buffer":0,
			"byteLength":30624,
			"byteOffset":0,
			"target":34962
		},
		{
			"buffer":0,
			"byteLength":30624,
			"byteOffset":30624,
			"target":34962
		},
		{
			"buffer":0,
			"byteLength":20416,
			"byteOffset":61248,
			"target":34962
		},
		{
			"buffer":0,
			"byteLength":10208,
			"byteOffset":81664,
			"target":34962
		},
		{
			"buffer":0,
			"byteLength":40832,
			"byteOffset":91872,
			"target":34962
		},
		{
			"buffer":0,
			"byteLength":15624,
			"byteOffset":132704,
			"target":34963
		},
		{
			"buffer":0,
			"byteLength":1984,
			"byteOffset":148328
		},
		{
			"buffer":0,
			"byteLength":8,
			"byteOffset":150312
		},
		{
			"buffer":0,
			"byteLength":24,
			"byteOffset":150320
		},
		{
			"buffer":0,
			"byteLength":32,
			"byteOffset":150344
		},
		{
			"buffer":0,
			"byteLength":24,
			"byteOffset":150376
		},
		{
			"buffer":0,
			"byteLength":24,
			"byteOffset":150400
		},
		{
			"buffer":0,
			"byteLength":32,
			"byteOffset":150424
		},
		{
			"buffer":0,
			"byteLength":24,
			"byteOffset":150456
		},
		{
			"buffer":0,
			"byteLength":24,
			"byteOffset":150480
		},
		{
			"buffer":0,
			"byteLength":32,
			"byteOffset":150504
		},
		{
			"buffer":0,
			"byteLength":24,
			"byteOffset":150536
		},
		{
			"buffer":0,
			"byteLength":24,
			"byteOffset":150560
		},
		{
			"buffer":0,
			"byteLength":32,
			"byteOffset":150584
		},
		{
			"buffer":0,
			"byteLength":24,
			"byteOffset":150616
		},
		{
			"buffer":0,
			"byteLength":24,
			"byteOffset":150640
		},
		{
			"buffer":0,
			"byteLength":32,
			"byteOffset":150664
		},
		{
			"buffer":0,
			"byteLength":24,
			"byteOffset":150696
		},
		{
			"buffer":0,
			"byteLength":24,
			"byteOffset":150720
		},
		{
			"buffer":0,
			"byteLength":32,
			"byteOffset":150744
		},
		{
			"buffer":0,
			"byteLength":24,
			"byteOffset":150776
		},
		{
			"buffer":0,
			"byteLength":24,
			"byteOffset":150800
		},
		{
			"buffer":0,
			"byteLength":32,
			"byteOffset":150824
		},
		{
			"buffer":0,
			"byteLength":24,
			"byteOffset":150856
		},
		{
			"buffer":0,
			"byteLength":32,
			"byteOffset":150880
		},
		{
			"buffer":0,
			"byteLength":24,
			"byteOffset":150912
		},
		{
			"buffer":0,
			"byteLength":24,
			"byteOffset":150936
		},
		{
			"buffer":0,
			"byteLength":32,
			"byteOffset":150960
		},
		{
			"buffer":0,
			"byteLength":24,
			"byteOffset":150992
		},
		{
			"buffer":0,
			"byteLength":32,
			"byteOffset":151016
		},
		{
			"buffer":0,
			"byteLength":24,
			"byteOffset":151048
		},
		{
			"buffer":0,
			"byteLength":32,
			"byteOffset":151072
		},
		{
			"buffer":0,
			"byteLength":24,
			"byteOffset":151104
		},
		{
			"buffer":0,
			"byteLength":24,
			"byteOffset":151128
		},
		{
			"buffer":0,
			"byteLength":292,
			"byteOffset":151152
		},
		{
			"buffer":0,
			"byteLength":1168,
			"byteOffset":151444
		},
		{
			"buffer":0,
			"byteLength":24,
			"byteOffset":152612
		},
		{
			"buffer":0,
			"byteLength":24,
			"byteOffset":152636
		},
		{
			"buffer":0,
			"byteLength":32,
			"byteOffset":152660
		},
		{
			"buffer":0,
			"byteLength":24,
			"byteOffset":152692
		},
		{
			"buffer":0,
			"byteLength":24,
			"byteOffset":152716
		},
		{
			"buffer":0,
			"byteLength":32,
			"byteOffset":152740
		},
		{
			"buffer":0,
			"byteLength":24,
			"byteOffset":152772
		},
		{
			"buffer":0,
			"byteLength":24,
			"byteOffset":152796
		},
		{
			"buffer":0,
			"byteLength":32,
			"byteOffset":152820
		},
		{
			"buffer":0,
			"byteLength":24,
			"byteOffset":152852
		},
		{
			"buffer":0,
			"byteLength":24,
			"byteOffset":152876
		},
		{
			"buffer":0,
			"byteLength":32,
			"byteOffset":152900
		},
		{
			"buffer":0,
			"byteLength":24,
			"byteOffset":152932
		},
		{
			"buffer":0,
			"byteLength":32,
			"byteOffset":152956
		},
		{
			"buffer":0,
			"byteLength":24,
			"byteOffset":152988
		},
		{
			"buffer":0,
			"byteLength":1168,
			"byteOffset":153012
		},
		{
			"buffer":0,
			"byteLength":24,
			"byteOffset":154180
		},
		{
			"buffer":0,
			"byteLength":24,
			"byteOffset":154204
		},
		{
			"buffer":0,
			"byteLength":32,
			"byteOffset":154228
		},
		{
			"buffer":0,
			"byteLength":24,
			"byteOffset":154260
		},
		{
			"buffer":0,
			"byteLength":24,
			"byteOffset":154284
		},
		{
			"buffer":0,
			"byteLength":32,
			"byteOffset":154308
		},
		{
			"buffer":0,
			"byteLength":24,
			"byteOffset":154340
		},
		{
			"buffer":0,
			"byteLength":24,
			"byteOffset":154364
		},
		{
			"buffer":0,
			"byteLength":32,
			"byteOffset":154388
		},
		{
			"buffer":0,
			"byteLength":24,
			"byteOffset":154420
		},
		{
			"buffer":0,
			"byteLength":24,
			"byteOffset":154444
		},
		{
			"buffer":0,
			"byteLength":32,
			"byteOffset":154468
		},
		{
			"buffer":0,
			"byteLength":24,
			"byteOffset":154500
		},
		{
			"buffer":0,
			"byteLength":24,
			"byteOffset":154524
		},
		{
			"buffer":0,
			"byteLength":32,
			"byteOffset":154548
		},
		{
			"buffer":0,
			"byteLength":24,
			"byteOffset":154580
		},
		{
			"buffer":0,
			"byteLength":24,
			"byteOffset":154604
		},
		{
			"buffer":0,
			"byteLength":32,
			"byteOffset":154628
		},
		{
			"buffer":0,
			"byteLength":24,
			"byteOffset":154660
		},
		{
			"buffer":0,
			"byteLength":32,
			"byteOffset":154684
		},
		{
			"buffer":0,
			"byteLength":24,
			"byteOffset":154716
		},
		{
			"buffer":0,
			"byteLength":24,
			"byteOffset":154740
		},
		{
			"buffer":0,
			"byteLength":32,
			"byteOffset":154764
		},
		{
			"buffer":0,
			"byteLength":24,
			"byteOffset":154796
		},
		{
			"buffer":0,
			"byteLength":32,
			"byteOffset":154820
		},
		{
			"buffer":0,
			"byteLength":24,
			"byteOffset":154852
		},
		{
			"buffer":0,
			"byteLength":24,
			"byteOffset":154876
		},
		{
			"buffer":0,
			"byteLength":32,
			"byteOffset":154900
		},
		{
			"buffer":0,
			"byteLength":24,
			"byteOffset":154932
		},
		{
			"buffer":0,
			"byteLength":24,
			"byteOffset":154956
		},
		{
			"buffer":0,
			"byteLength":32,
			"byteOffset":154980
		},
		{
			"buffer":0,
			"byteLength":24,
			"byteOffset":155012
		},
		{
			"buffer":0,
			"byteLength":24,
			"byteOffset":155036
		},
		{
			"buffer":0,
			"byteLength":32,
			"byteOffset":155060
		},
		{
			"buffer":0,
			"byteLength":24,
			"byteOffset":155092
		},
		{
			"buffer":0,
			"byteLength":32,
			"byteOffset":155116
		},
		{
			"buffer":0,
			"byteLength":24,
			"byteOffset":155148
		}
	],
	"buffers":[
		{
			"byteLength":155172,
			"uri":"animation.bin"
		}
	]
}
