{
	"asset":{
		"generator":"Khronos glTF Blender I/O v5.1.19",
		"version":"2.0"
	},
	"scene":0,
	"scenes":[
		{
			"name":"Scene",
			"nodes":[
				45
			]
		}
	],
	"nodes":[
		{
			"name":"Bone.006",
			"rotation":[
				-0.015159150585532188,
				-1.9006338334293105e-06,
				-3.0250678264565067e-06,
				0.999885082244873
			],
			"translation":[
				2.601154847070575e-10,
				0.09328890591859818,
				9.80600134425913e-09
			]
		},
		{
			"children":[
				0
			],
			"name":"Bone.005",
			"rotation":[
				0.09134974330663681,
				-9.013261664803096e-11,
				8.21120192995295e-06,
				0.9958188533782959
			],
			"translation":[
				1.914486347232014e-10,
				0.11530767381191254,
				-8.815760565994424e-09
			]
		},
		{
			"children":[
				1
			],
			"name":"Bone.004",
			"rotation":[
				0.06684684008359909,
				0.0006946789799258113,
				-0.013089985586702824,
				0.9976771473884583
			],
			"scale":[
				1,
				0.9999998807907104,
				0.9999999403953552
			],
			"translation":[
				6.664777174592018e-09,
				0.1358189731836319,
				3.9633050619158894e-08
			]
		},
		{
			"name":"Bone.012",
			"rotation":[
				0.006173858884721994,
				-2.1032572476542555e-05,
				0.01768168993294239,
				0.9998246431350708
			],
			"scale":[
				1,
				0.9999999403953552,
				1
			],
			"translation":[
				-1.862645149230957e-07,
				0.40210995078086853,
				-2.60770320892334e-08
			]
		},
		{
			"children":[
				3
			],
			"name":"Bone.011",
			"rotation":[
				-0.003276843810454011,
				-5.3561557251669e-06,
				-0.009385569952428341,
				0.9999505877494812
			],
			"translation":[
				-1.4901161193847656e-08,
				0.0901399701833725,
				9.12696123123169e-08
			]
		},
		{
			"children":[
				4
			],
			"name":"Bone.010",
			"rotation":[
				8.627748320577666e-05,
				8.216709829866886e-06,
				0.0002472380583640188,
				1
			],
			"translation":[
				-1.9744038581848145e-07,
				0.10866249352693558,
				3.5390257835388184e-08
			]
		},
		{
			"children":[
				5
			],
			"name":"Bone.009",
			"rotation":[
				0.012076987884938717,
				5.137365022278573e-08,
				0.03458955138921738,
				0.99932861328125
			],
			"scale":[
				1,
				0.9999999403953552,
				1
			],
			"translation":[
				-2.905726432800293e-07,
				0.42132487893104553,
				2.7939677238464355e-08
			]
		},
		{
			"children":[
				6
			],
			"name":"Bone.008",
			"rotation":[
				0.08277958631515503,
				0.00039135312545113266,
				-0.02777358517050743,
				0.9961807131767273
			],
			"scale":[
				0.9999999403953552,
				0.9999998807907104,
				0.9999999403953552
			],
			"translation":[
				-2.514570951461792e-07,
				0.22051827609539032,
				-2.60770320892334e-08
			]
		},
		{
			"children":[
				7
			],
			"name":"Bone.007",
			"rotation":[
				-0.1226285919547081,
				0.02480657398700714,
				-0.7405773997306824,
				0.6602212190628052
			],
			"scale":[
				1,
				0.9999999403953552,
				0.9999998807907104
			],
			"translation":[
				6.664777174592018e-09,
				0.1358189731836319,
				3.9633050619158894e-08
			]
		},
		{
			"name":"Bone.024",
			"rotation":[
				-0.006180207245051861,
				8.339202963725256e-07,
				-0.017700836062431335,
				0.9998242855072021
			],
			"scale":[
				1,
				0.9999998807907104,
				0.9999999403953552
			],
			"translation":[
				2.384185791015625e-07,
				0.4021102488040924,
				4.470348358154297e-08
			]
		},
		{
			"children":[
				9
			],
			"name":"Bone.023",
			"rotation":[
				0.0032751939725130796,
				-6.66528805481903e-08,
				0.009380573406815529,
				0.999950647354126
			],
			"scale":[
				0.9999999403953552,
				0.9999998807907104,
				1
			],
			"translation":[
				-1.0803341865539551e-07,
				0.09014008939266205,
				-1.0058283805847168e-07
			]
		},
		{
			"children":[
				10
			],
			"name":"Bone.022",
			"rotation":[
				-8.366731344722211e-05,
				2.219167214434492e-07,
				-0.0002397560456302017,
				1
			],
			"scale":[
				0.9999999403953552,
				0.9999999403953552,
				1
			],
			"translation":[
				3.390014171600342e-07,
				0.108662448823452,
				-2.421438694000244e-08
			]
		},
		{
			"children":[
				11
			],
			"name":"Bone.021",
			"rotation":[
				-0.012076962739229202,
				-1.434909080444413e-07,
				-0.03458955138921738,
				0.99932861328125
			],
			"scale":[
				1,
				1,
				1.0000001192092896
			],
			"translation":[
				-2.2351741790771484e-08,
				0.42132487893104553,
				-8.940696716308594e-08
			]
		},
		{
			"children":[
				12
			],
			"name":"Bone.020",
			"rotation":[
				0.027872908860445023,
				0.7787028551101685,
				-0.0827462300658226,
				0.6212874054908752
			],
			"scale":[
				0.9999999403953552,
				0.9999997615814209,
				0.9999999403953552
			],
			"translation":[
				2.0302832126617432e-07,
				0.22051826119422913,
				-7.82310962677002e-08
			]
		},
		{
			"children":[
				13
			],
			"name":"Bone.019",
			"rotation":[
				0.6427658796310425,
				-0.6475945711135864,
				0.35347896814346313,
				0.2062181532382965
			],
			"scale":[
				0.9999998807907104,
				0.9999999403953552,
				0.9999999403953552
			],
			"translation":[
				0.007070563733577728,
				0.13563480973243713,
				-2.1512187231564894e-05
			]
		},
		{
			"children":[
				2,
				8,
				14
			],
			"name":"Bone.003",
			"rotation":[
				-0.0015373547794297338,
				-0.0015037800185382366,
				0.013022585771977901,
				0.9999129176139832
			],
			"scale":[
				1,
				0.9999998807907104,
				0.9999999403953552
			],
			"translation":[
				7.105427357601002e-15,
				0.1511811763048172,
				-7.450581485102248e-09
			]
		},
		{
			"children":[
				15
			],
			"name":"Bone.002",
			"rotation":[
				-0.11480482667684555,
				-1.0557694996027323e-10,
				-2.8285169761943507e-08,
				0.9933880567550659
			],
			"translation":[
				-5.1958437552457326e-14,
				0.17684699594974518,
				2.1979212760925293e-07
			]
		},
		{
			"children":[
				16
			],
			"name":"Bone.001",
			"rotation":[
				-0.04402754828333855,
				-1.4888561217230034e-10,
				-1.3875862237000547e-08,
				0.999030351638794
			],
			"translation":[
				1.5543122344752192e-15,
				0.18819653987884521,
				5.587934559514451e-09
			]
		},
		{
			"name":"Bone.018",
			"rotation":[
				-0.004009261727333069,
				-0.027581000700592995,
				-0.6371950507164001,
				0.7701985239982605
			],
			"scale":[
				0.9999998807907104,
				0.9999999403953552,
				1.0000001192092896
			],
			"translation":[
				6.7229848355054855e-09,
				0.8590599298477173,
				2.1391315385699272e-08
			]
		},
		{
			"children":[
				18
			],
			"name":"Bone.017",
			"rotation":[
				-0.03535836189985275,
				0.005499775521457195,
				-0.008515278808772564,
				0.999323308467865
			],
			"scale":[
				1,
				0.9999999403953552,
				1.0000001192092896
			],
			"translation":[
				1.234002411365509e-08,
				0.07930584996938705,
				-1.1275353983819514e-09
			]
		},
		{
			"children":[
				19
			],
			"name":"Bone.016",
			"rotation":[
				0.0066239843145012856,
				-5.85946072533261e-05,
				0.10201232135295868,
				0.9947611093521118
			],
			"scale":[
				1,
				0.9999998807907104,
				0.9999999403953552
			],
			"translation":[
				1.1641532182693481e-09,
				0.09221599251031876,
				-5.092879451495946e-09
			]
		},
		{
			"children":[
				20
			],
			"name":"Bone.015",
			"rotation":[
				0.057550013065338135,
				0.003417395753785968,
				-0.03421837463974953,
				0.9977502226829529
			],
			"scale":[
				1,
				1,
				1.0000001192092896
			],
			"translation":[
				-7.130438461899757e-10,
				0.6368459463119507,
				-5.271658665151335e-09
			]
		},
		{
			"children":[
				21
			],
			"name":"Bone.014",
			"rotation":[
				-0.5811334848403931,
				-0.007205249276012182,
				-0.010061132721602917,
				0.8137142062187195
			],
			"scale":[
				1,
				0.9999998807907104,
				1
			],
			"translation":[
				4.68013627852315e-10,
				0.18206317722797394,
				-7.354926623293068e-08
			]
		},
		{
			"children":[
				22
			],
			"name":"Bone.013",
			"rotation":[
				-0.6040497422218323,
				-0.4473898112773895,
				-0.5475788116455078,
				0.36759182810783386
			],
			"scale":[
				1,
				1.000000238418579,
				1
			],
			"translation":[
				-1.1345759887149143e-09,
				7.869675755500793e-08,
				-3.725291186640334e-09
			]
		},
		{
			"name":"Bone.030",
			"rotation":[
				0.003449037903919816,
				0.02825811132788658,
				-0.6371983289718628,
				0.770173966884613
			],
			"scale":[
				1,
				0.9999999403953552,
				1
			],
			"translation":[
				-9.997165761888027e-09,
				0.8590596914291382,
				-1.30385160446167e-08
			]
		},
		{
			"children":[
				24
			],
			"name":"Bone.029",
			"rotation":[
				0.03523353114724159,
				0.006975002121180296,
				-0.009017973206937313,
				0.9993140697479248
			],
			"scale":[
				0.9999998807907104,
				0.9999999403953552,
				0.9999998807907104
			],
			"translation":[
				1.3969838619232178e-08,
				0.07930576801300049,
				1.8742866814136505e-08
			]
		},
		{
			"children":[
				25
			],
			"name":"Bone.028",
			"rotation":[
				-0.006279219873249531,
				-0.0231623537838459,
				0.10203413665294647,
				0.9944913983345032
			],
			"scale":[
				1,
				0.9999999403953552,
				0.9999999403953552
			],
			"translation":[
				-1.1641532182693481e-09,
				0.09221597760915756,
				1.6705598682165146e-08
			]
		},
		{
			"children":[
				26
			],
			"name":"Bone.027",
			"rotation":[
				-0.057214099913835526,
				0.006788340862840414,
				-0.03477712720632553,
				0.997732937335968
			],
			"scale":[
				1,
				0.9999998807907104,
				1
			],
			"translation":[
				-1.2005330063402653e-10,
				0.6368457674980164,
				5.35146682523191e-09
			]
		},
		{
			"children":[
				27
			],
			"name":"Bone.026",
			"rotation":[
				0.5811309814453125,
				0.007005251478403807,
				-0.010203935205936432,
				0.813715934753418
			],
			"scale":[
				0.9999999403953552,
				1.0000001192092896,
				1
			],
			"translation":[
				7.104567600890732e-09,
				0.18206317722797394,
				8.876315860106843e-08
			]
		},
		{
			"children":[
				28
			],
			"name":"Bone.025",
			"rotation":[
				0.5475786328315735,
				-0.367591917514801,
				0.6040499210357666,
				0.44738972187042236
			],
			"scale":[
				1.0000001192092896,
				1,
				1
			],
			"translation":[
				-1.1345759887149143e-09,
				7.869675755500793e-08,
				-3.725291186640334e-09
			]
		},
		{
			"children":[
				17,
				23,
				29
			],
			"name":"Bone",
			"rotation":[
				0.04887928441166878,
				0.7054154276847839,
				-0.048879243433475494,
				0.7054152488708496
			],
			"scale":[
				0.9999999403953552,
				0.9999999403953552,
				0.9999998807907104
			],
			"translation":[
				-0.0531342439353466,
				1.6517438888549805,
				2.3225714684826926e-09
			]
		},
		{
			"name":"Bone.037",
			"rotation":[
				0.6880874633789062,
				-0.688087522983551,
				0.16289743781089783,
				0.1628974825143814
			],
			"translation":[
				-0.10839300602674484,
				2.267129898071289,
				-0.21155300736427307
			]
		},
		{
			"name":"Bone.043",
			"rotation":[
				0.6606078743934631,
				-0.6606078743934631,
				0.25218498706817627,
				0.25218504667282104
			],
			"translation":[
				-0.10839299112558365,
				2.267129898071289,
				0.21155300736427307
			]
		},
		{
			"name":"Bone.031",
			"rotation":[
				-0.7069267630577087,
				0.7069267630577087,
				0.015954477712512016,
				0.015954436734318733
			],
			"translation":[
				-0.1183430552482605,
				-0.06921684741973877,
				-0.22717781364917755
			]
		},
		{
			"name":"Bone.032",
			"rotation":[
				0.7069405317306519,
				-0.7069405317306519,
				0.015332785435020924,
				0.015332827344536781
			],
			"scale":[
				1,
				0.9999999403953552,
				1
			],
			"translation":[
				-0.1183430403470993,
				-0.06921684741973877,
				0.22717781364917755
			]
		},
		{
			"name":"Bone.033",
			"rotation":[
				-0.7060999870300293,
				0.7061001062393188,
				0.03771890699863434,
				0.037718866020441055
			],
			"scale":[
				0.9999999403953552,
				1,
				0.9999999403953552
			],
			"translation":[
				-0.028781240805983543,
				0.8632675409317017,
				-0.17598381638526917
			]
		},
		{
			"name":"Bone.034",
			"rotation":[
				0.7056882977485657,
				-0.7056883573532104,
				0.04476585239171982,
				0.0447658933699131
			],
			"translation":[
				-0.02878122590482235,
				0.8632675409317017,
				0.17598381638526917
			]
		},
		{
			"name":"Bone.035",
			"rotation":[
				-0.5771949291229248,
				0.5771949887275696,
				0.4084678292274475,
				0.4084677994251251
			],
			"translation":[
				-0.053134262561798096,
				1.591186761856079,
				-0.17169694602489471
			]
		},
		{
			"name":"Bone.036",
			"rotation":[
				0.5771950483322144,
				-0.5771949887275696,
				0.4084677994251251,
				0.4084678292274475
			],
			"scale":[
				0.9999999403953552,
				1,
				0.9999999403953552
			],
			"translation":[
				-0.0531342476606369,
				1.591186761856079,
				0.17169694602489471
			]
		},
		{
			"name":"Bone.038",
			"rotation":[
				0.3177015483379364,
				-0.3177015483379364,
				0.6317164897918701,
				0.6317165493965149
			],
			"scale":[
				0.9999999403953552,
				1,
				0.9999999403953552
			],
			"translation":[
				-0.10839296877384186,
				2.203279972076416,
				0.7374470233917236
			]
		},
		{
			"name":"Bone.039",
			"rotation":[
				-0.7065479159355164,
				0.7065479159355164,
				0.028107937425374985,
				0.028107937425374985
			],
			"translation":[
				-0.10839302837848663,
				2.203279972076416,
				-0.7374470233917236
			]
		},
		{
			"name":"Bone.040",
			"rotation":[
				0.7019316554069519,
				-0.7019316554069519,
				0.08539298176765442,
				0.08539298176765442
			],
			"translation":[
				-0.10839305818080902,
				2.164789915084839,
				-1.3300600051879883
			]
		},
		{
			"name":"Bone.041",
			"rotation":[
				0.2955930233001709,
				-0.2955930233001709,
				0.6423587799072266,
				0.6423587799072266
			],
			"translation":[
				-0.10839293897151947,
				2.164789915084839,
				1.3300600051879883
			]
		},
		{
			"name":"Bone.042",
			"rotation":[
				-0.5371202826499939,
				0.5371202826499939,
				0.45989328622817993,
				0.45989325642585754
			],
			"translation":[
				-0.04815100133419037,
				2.6499199867248535,
				0.0035360020119696856
			]
		},
		{
			"mesh":0,
			"name":"momo",
			"skin":0
		},
		{
			"children":[
				44,
				30,
				31,
				32,
				33,
				34,
				35,
				36,
				37,
				38,
				39,
				40,
				41,
				42,
				43
			],
			"name":"Armature"
		}
	],
	"animations":[
		{
			"channels":[
				{
					"sampler":0,
					"target":{
						"node":30,
						"path":"translation"
					}
				},
				{
					"sampler":1,
					"target":{
						"node":30,
						"path":"rotation"
					}
				},
				{
					"sampler":2,
					"target":{
						"node":30,
						"path":"scale"
					}
				},
				{
					"sampler":3,
					"target":{
						"node":17,
						"path":"translation"
					}
				},
				{
					"sampler":4,
					"target":{
						"node":17,
						"path":"rotation"
					}
				},
				{
					"sampler":5,
					"target":{
						"node":17,
						"path":"scale"
					}
				},
				{
					"sampler":6,
					"target":{
						"node":16,
						"path":"translation"
					}
				},
				{
					"sampler":7,
					"target":{
						"node":16,
						"path":"rotation"
					}
				},
				{
					"sampler":8,
					"target":{
						"node":16,
						"path":"scale"
					}
				},
				{
					"sampler":9,
					"target":{
						"node":15,
						"path":"translation"
					}
				},
				{
					"sampler":10,
					"target":{
						"node":15,
						"path":"rotation"
					}
				},
				{
					"sampler":11,
					"target":{
						"node":15,
						"path":"scale"
					}
				},
				{
					"sampler":12,
					"target":{
						"node":2,
						"path":"translation"
					}
				},
				{
					"sampler":13,
					"target":{
						"node":2,
						"path":"rotation"
					}
				},
				{
					"sampler":14,
					"target":{
						"node":2,
						"path":"scale"
					}
				},
				{
					"sampler":15,
					"target":{
						"node":1,
						"path":"translation"
					}
				},
				{
					"sampler":16,
					"target":{
						"node":1,
						"path":"rotation"
					}
				},
				{
					"sampler":17,
					"target":{
						"node":1,
						"path":"scale"
					}
				},
				{
					"sampler":18,
					"target":{
						"node":0,
						"path":"translation"
					}
				},
				{
					"sampler":19,
					"target":{
						"node":0,
						"path":"rotation"
					}
				},
				{
					"sampler":20,
					"target":{
						"node":0,
						"path":"scale"
					}
				},
				{
					"sampler":21,
					"target":{
						"node":8,
						"path":"translation"
					}
				},
				{
					"sampler":22,
					"target":{
						"node":8,
						"path":"rotation"
					}
				},
				{
					"sampler":23,
					"target":{
						"node":8,
						"path":"scale"
					}
				},
				{
					"sampler":24,
					"target":{
						"node":7,
						"path":"translation"
					}
				},
				{
					"sampler":25,
					"target":{
						"node":7,
						"path":"rotation"
					}
				},
				{
					"sampler":26,
					"target":{
						"node":7,
						"path":"scale"
					}
				},
				{
					"sampler":27,
					"target":{
						"node":6,
						"path":"translation"
					}
				},
				{
					"sampler":28,
					"target":{
						"node":6,
						"path":"rotation"
					}
				},
				{
					"sampler":29,
					"target":{
						"node":6,
						"path":"scale"
					}
				},
				{
					"sampler":30,
					"target":{
						"node":5,
						"path":"translation"
					}
				},
				{
					"sampler":31,
					"target":{
						"node":5,
						"path":"rotation"
					}
				},
				{
					"sampler":32,
					"target":{
						"node":5,
						"path":"scale"
					}
				},
				{
					"sampler":33,
					"target":{
						"node":4,
						"path":"translation"
					}
				},
				{
					"sampler":34,
					"target":{
						"node":4,
						"path":"rotation"
					}
				},
				{
					"sampler":35,
					"target":{
						"node":4,
						"path":"scale"
					}
				},
				{
					"sampler":36,
					"target":{
						"node":3,
						"path":"translation"
					}
				},
				{
					"sampler":37,
					"target":{
						"node":3,
						"path":"rotation"
					}
				},
				{
					"sampler":38,
					"target":{
						"node":3,
						"path":"scale"
					}
				},
				{
					"sampler":39,
					"target":{
						"node":14,
						"path":"translation"
					}
				},
				{
					"sampler":40,
					"target":{
						"node":14,
						"path":"rotation"
					}
				},
				{
					"sampler":41,
					"target":{
						"node":14,
						"path":"scale"
					}
				},
				{
					"sampler":42,
					"target":{
						"node":13,
						"path":"translation"
					}
				},
				{
					"sampler":43,
					"target":{
						"node":13,
						"path":"rotation"
					}
				},
				{
					"sampler":44,
					"target":{
						"node":13,
						"path":"scale"
					}
				},
				{
					"sampler":45,
					"target":{
						"node":12,
						"path":"translation"
					}
				},
				{
					"sampler":46,
					"target":{
						"node":12,
						"path":"rotation"
					}
				},
				{
					"sampler":47,
					"target":{
						"node":12,
						"path":"scale"
					}
				},
				{
					"sampler":48,
					"target":{
						"node":11,
						"path":"translation"
					}
				},
				{
					"sampler":49,
					"target":{
						"node":11,
						"path":"rotation"
					}
				},
				{
					"sampler":50,
					"target":{
						"node":11,
						"path":"scale"
					}
				},
				{
					"sampler":51,
					"target":{
						"node":10,
						"path":"translation"
					}
				},
				{
					"sampler":52,
					"target":{
						"node":10,
						"path":"rotation"
					}
				},
				{
					"sampler":53,
					"target":{
						"node":10,
						"path":"scale"
					}
				},
				{
					"sampler":54,
					"target":{
						"node":9,
						"path":"translation"
					}
				},
				{
					"sampler":55,
					"target":{
						"node":9,
						"path":"rotation"
					}
				},
				{
					"sampler":56,
					"target":{
						"node":9,
						"path":"scale"
					}
				},
				{
					"sampler":57,
					"target":{
						"node":23,
						"path":"translation"
					}
				},
				{
					"sampler":58,
					"target":{
						"node":23,
						"path":"rotation"
					}
				},
				{
					"sampler":59,
					"target":{
						"node":23,
						"path":"scale"
					}
				},
				{
					"sampler":60,
					"target":{
						"node":22,
						"path":"translation"
					}
				},
				{
					"sampler":61,
					"target":{
						"node":22,
						"path":"rotation"
					}
				},
				{
					"sampler":62,
					"target":{
						"node":22,
						"path":"scale"
					}
				},
				{
					"sampler":63,
					"target":{
						"node":21,
						"path":"translation"
					}
				},
				{
					"sampler":64,
					"target":{
						"node":21,
						"path":"rotation"
					}
				},
				{
					"sampler":65,
					"target":{
						"node":21,
						"path":"scale"
					}
				},
				{
					"sampler":66,
					"target":{
						"node":20,
						"path":"translation"
					}
				},
				{
					"sampler":67,
					"target":{
						"node":20,
						"path":"rotation"
					}
				},
				{
					"sampler":68,
					"target":{
						"node":20,
						"path":"scale"
					}
				},
				{
					"sampler":69,
					"target":{
						"node":19,
						"path":"translation"
					}
				},
				{
					"sampler":70,
					"target":{
						"node":19,
						"path":"rotation"
					}
				},
				{
					"sampler":71,
					"target":{
						"node":19,
						"path":"scale"
					}
				},
				{
					"sampler":72,
					"target":{
						"node":18,
						"path":"translation"
					}
				},
				{
					"sampler":73,
					"target":{
						"node":18,
						"path":"rotation"
					}
				},
				{
					"sampler":74,
					"target":{
						"node":18,
						"path":"scale"
					}
				},
				{
					"sampler":75,
					"target":{
						"node":29,
						"path":"translation"
					}
				},
				{
					"sampler":76,
					"target":{
						"node":29,
						"path":"rotation"
					}
				},
				{
					"sampler":77,
					"target":{
						"node":29,
						"path":"scale"
					}
				},
				{
					"sampler":78,
					"target":{
						"node":28,
						"path":"translation"
					}
				},
				{
					"sampler":79,
					"target":{
						"node":28,
						"path":"rotation"
					}
				},
				{
					"sampler":80,
					"target":{
						"node":28,
						"path":"scale"
					}
				},
				{
					"sampler":81,
					"target":{
						"node":27,
						"path":"translation"
					}
				},
				{
					"sampler":82,
					"target":{
						"node":27,
						"path":"rotation"
					}
				},
				{
					"sampler":83,
					"target":{
						"node":27,
						"path":"scale"
					}
				},
				{
					"sampler":84,
					"target":{
						"node":26,
						"path":"translation"
					}
				},
				{
					"sampler":85,
					"target":{
						"node":26,
						"path":"rotation"
					}
				},
				{
					"sampler":86,
					"target":{
						"node":26,
						"path":"scale"
					}
				},
				{
					"sampler":87,
					"target":{
						"node":25,
						"path":"translation"
					}
				},
				{
					"sampler":88,
					"target":{
						"node":25,
						"path":"rotation"
					}
				},
				{
					"sampler":89,
					"target":{
						"node":25,
						"path":"scale"
					}
				},
				{
					"sampler":90,
					"target":{
						"node":24,
						"path":"translation"
					}
				},
				{
					"sampler":91,
					"target":{
						"node":24,
						"path":"rotation"
					}
				},
				{
					"sampler":92,
					"target":{
						"node":24,
						"path":"scale"
					}
				},
				{
					"sampler":93,
					"target":{
						"node":31,
						"path":"translation"
					}
				},
				{
					"sampler":94,
					"target":{
						"node":31,
						"path":"rotation"
					}
				},
				{
					"sampler":95,
					"target":{
						"node":31,
						"path":"scale"
					}
				},
				{
					"sampler":96,
					"target":{
						"node":32,
						"path":"translation"
					}
				},
				{
					"sampler":97,
					"target":{
						"node":32,
						"path":"rotation"
					}
				},
				{
					"sampler":98,
					"target":{
						"node":32,
						"path":"scale"
					}
				},
				{
					"sampler":99,
					"target":{
						"node":33,
						"path":"translation"
					}
				},
				{
					"sampler":100,
					"target":{
						"node":33,
						"path":"rotation"
					}
				},
				{
					"sampler":101,
					"target":{
						"node":33,
						"path":"scale"
					}
				},
				{
					"sampler":102,
					"target":{
						"node":34,
						"path":"translation"
					}
				},
				{
					"sampler":103,
					"target":{
						"node":34,
						"path":"rotation"
					}
				},
				{
					"sampler":104,
					"target":{
						"node":34,
						"path":"scale"
					}
				},
				{
					"sampler":105,
					"target":{
						"node":35,
						"path":"translation"
					}
				},
				{
					"sampler":106,
					"target":{
						"node":35,
						"path":"rotation"
					}
				},
				{
					"sampler":107,
					"target":{
						"node":35,
						"path":"scale"
					}
				},
				{
					"sampler":108,
					"target":{
						"node":36,
						"path":"translation"
					}
				},
				{
					"sampler":109,
					"target":{
						"node":36,
						"path":"rotation"
					}
				},
				{
					"sampler":110,
					"target":{
						"node":36,
						"path":"scale"
					}
				},
				{
					"sampler":111,
					"target":{
						"node":37,
						"path":"translation"
					}
				},
				{
					"sampler":112,
					"target":{
						"node":37,
						"path":"rotation"
					}
				},
				{
					"sampler":113,
					"target":{
						"node":37,
						"path":"scale"
					}
				},
				{
					"sampler":114,
					"target":{
						"node":38,
						"path":"translation"
					}
				},
				{
					"sampler":115,
					"target":{
						"node":38,
						"path":"rotation"
					}
				},
				{
					"sampler":116,
					"target":{
						"node":38,
						"path":"scale"
					}
				},
				{
					"sampler":117,
					"target":{
						"node":39,
						"path":"translation"
					}
				},
				{
					"sampler":118,
					"target":{
						"node":39,
						"path":"rotation"
					}
				},
				{
					"sampler":119,
					"target":{
						"node":39,
						"path":"scale"
					}
				},
				{
					"sampler":120,
					"target":{
						"node":40,
						"path":"translation"
					}
				},
				{
					"sampler":121,
					"target":{
						"node":40,
						"path":"rotation"
					}
				},
				{
					"sampler":122,
					"target":{
						"node":40,
						"path":"scale"
					}
				},
				{
					"sampler":123,
					"target":{
						"node":41,
						"path":"translation"
					}
				},
				{
					"sampler":124,
					"target":{
						"node":41,
						"path":"rotation"
					}
				},
				{
					"sampler":125,
					"target":{
						"node":41,
						"path":"scale"
					}
				},
				{
					"sampler":126,
					"target":{
						"node":42,
						"path":"translation"
					}
				},
				{
					"sampler":127,
					"target":{
						"node":42,
						"path":"rotation"
					}
				},
				{
					"sampler":128,
					"target":{
						"node":42,
						"path":"scale"
					}
				},
				{
					"sampler":129,
					"target":{
						"node":43,
						"path":"translation"
					}
				},
				{
					"sampler":130,
					"target":{
						"node":43,
						"path":"rotation"
					}
				},
				{
					"sampler":131,
					"target":{
						"node":43,
						"path":"scale"
					}
				}
			],
			"name":"Action",
			"samplers":[
				{
					"input":7,
					"interpolation":"LINEAR",
					"output":8
				},
				{
					"input":7,
					"interpolation":"LINEAR",
					"output":9
				},
				{
					"input":10,
					"interpolation":"STEP",
					"output":11
				},
				{
					"input":10,
					"interpolation":"LINEAR",
					"output":12
				},
				{
					"input":7,
					"interpolation":"LINEAR",
					"output":13
				},
				{
					"input":10,
					"interpolation":"STEP",
					"output":14
				},
				{
					"input":10,
					"interpolation":"LINEAR",
					"output":15
				},
				{
					"input":7,
					"interpolation":"LINEAR",
					"output":16
				},
				{
					"input":10,
					"interpolation":"STEP",
					"output":17
				},
				{
					"input":10,
					"interpolation":"LINEAR",
					"output":18
				},
				{
					"input":7,
					"interpolation":"LINEAR",
					"output":19
				},
				{
					"input":10,
					"interpolation":"STEP",
					"output":20
				},
				{
					"input":10,
					"interpolation":"LINEAR",
					"output":21
				},
				{
					"input":7,
					"interpolation":"LINEAR",
					"output":22
				},
				{
					"input":10,
					"interpolation":"STEP",
					"output":23
				},
				{
					"input":10,
					"interpolation":"LINEAR",
					"output":24
				},
				{
					"input":7,
					"interpolation":"LINEAR",
					"output":25
				},
				{
					"input":10,
					"interpolation":"STEP",
					"output":26
				},
				{
					"input":10,
					"interpolation":"LINEAR",
					"output":27
				},
				{
					"input":7,
					"interpolation":"LINEAR",
					"output":28
				},
				{
					"input":10,
					"interpolation":"STEP",
					"output":29
				},
				{
					"input":10,
					"interpolation":"LINEAR",
					"output":30
				},
				{
					"input":7,
					"interpolation":"LINEAR",
					"output":31
				},
				{
					"input":10,
					"interpolation":"STEP",
					"output":32
				},
				{
					"input":10,
					"interpolation":"LINEAR",
					"output":33
				},
				{
					"input":7,
					"interpolation":"LINEAR",
					"output":34
				},
				{
					"input":10,
					"interpolation":"STEP",
					"output":35
				},
				{
					"input":10,
					"interpolation":"LINEAR",
					"output":36
				},
				{
					"input":7,
					"interpolation":"LINEAR",
					"output":37
				},
				{
					"input":10,
					"interpolation":"STEP",
					"output":38
				},
				{
					"input":10,
					"interpolation":"LINEAR",
					"output":39
				},
				{
					"input":7,
					"interpolation":"LINEAR",
					"output":40
				},
				{
					"input":10,
					"interpolation":"STEP",
					"output":41
				},
				{
					"input":10,
					"interpolation":"LINEAR",
					"output":42
				},
				{
					"input":7,
					"interpolation":"LINEAR",
					"output":43
				},
				{
					"input":10,
					"interpolation":"LINEAR",
					"output":44
				},
				{
					"input":10,
					"interpolation":"LINEAR",
					"output":45
				},
				{
					"input":7,
					"interpolation":"LINEAR",
					"output":46
				},
				{
					"input":10,
					"interpolation":"LINEAR",
					"output":47
				},
				{
					"input":7,
					"interpolation":"LINEAR",
					"output":48
				},
				{
					"input":7,
					"interpolation":"LINEAR",
					"output":49
				},
				{
					"input":10,
					"interpolation":"LINEAR",
					"output":50
				},
				{
					"input":10,
					"interpolation":"LINEAR",
					"output":51
				},
				{
					"input":7,
					"interpolation":"LINEAR",
					"output":52
				},
				{
					"input":10,
					"interpolation":"STEP",
					"output":53
				},
				{
					"input":10,
					"interpolation":"LINEAR",
					"output":54
				},
				{
					"input":7,
					"interpolation":"LINEAR",
					"output":55
				},
				{
					"input":10,
					"interpolation":"LINEAR",
					"output":56
				},
				{
					"input":10,
					"interpolation":"LINEAR",
					"output":57
				},
				{
					"input":7,
					"interpolation":"LINEAR",
					"output":58
				},
				{
					"input":10,
					"interpolation":"STEP",
					"output":59
				},
				{
					"input":10,
					"interpolation":"LINEAR",
					"output":60
				},
				{
					"input":7,
					"interpolation":"LINEAR",
					"output":61
				},
				{
					"input":10,
					"interpolation":"STEP",
					"output":62
				},
				{
					"input":10,
					"interpolation":"LINEAR",
					"output":63
				},
				{
					"input":7,
					"interpolation":"LINEAR",
					"output":64
				},
				{
					"input":10,
					"interpolation":"STEP",
					"output":65
				},
				{
					"input":10,
					"interpolation":"LINEAR",
					"output":66
				},
				{
					"input":7,
					"interpolation":"LINEAR",
					"output":67
				},
				{
					"input":10,
					"interpolation":"STEP",
					"output":68
				},
				{
					"input":10,
					"interpolation":"LINEAR",
					"output":69
				},
				{
					"input":7,
					"interpolation":"LINEAR",
					"output":70
				},
				{
					"input":10,
					"interpolation":"STEP",
					"output":71
				},
				{
					"input":10,
					"interpolation":"LINEAR",
					"output":72
				},
				{
					"input":7,
					"interpolation":"LINEAR",
					"output":73
				},
				{
					"input":10,
					"interpolation":"STEP",
					"output":74
				},
				{
					"input":10,
					"interpolation":"LINEAR",
					"output":75
				},
				{
					"input":7,
					"interpolation":"LINEAR",
					"output":76
				},
				{
					"input":10,
					"interpolation":"STEP",
					"output":77
				},
				{
					"input":10,
					"interpolation":"LINEAR",
					"output":78
				},
				{
					"input":7,
					"interpolation":"LINEAR",
					"output":79
				},
				{
					"input":10,
					"interpolation":"STEP",
					"output":80
				},
				{
					"input":10,
					"interpolation":"LINEAR",
					"output":81
				},
				{
					"input":10,
					"interpolation":"LINEAR",
					"output":82
				},
				{
					"input":10,
					"interpolation":"STEP",
					"output":83
				},
				{
					"input":10,
					"interpolation":"LINEAR",
					"output":84
				},
				{
					"input":7,
					"interpolation":"LINEAR",
					"output":85
				},
				{
					"input":10,
					"interpolation":"STEP",
					"output":86
				},
				{
					"input":10,
					"interpolation":"LINEAR",
					"output":87
				},
				{
					"input":7,
					"interpolation":"LINEAR",
					"output":88
				},
				{
					"input":10,
					"interpolation":"STEP",
					"output":89
				},
				{
					"input":10,
					"interpolation":"LINEAR",
					"output":90
				},
				{
					"input":7,
					"interpolation":"LINEAR",
					"output":91
				},
				{
					"input":10,
					"interpolation":"STEP",
					"output":92
				},
				{
					"input":10,
					"interpolation":"LINEAR",
					"output":93
				},
				{
					"input":7,
					"interpolation":"LINEAR",
					"output":94
				},
				{
					"input":10,
					"interpolation":"STEP",
					"output":95
				},
				{
					"input":10,
					"interpolation":"LINEAR",
					"output":96
				},
				{
					"input":7,
					"interpolation":"LINEAR",
					"output":97
				},
				{
					"input":10,
					"interpolation":"LINEAR",
					"output":98
				},
				{
					"input":10,
					"interpolation":"LINEAR",
					"output":99
				},
				{
					"input":10,
					"interpolation":"LINEAR",
					"output":100
				},
				{
					"input":10,
					"interpolation":"STEP",
					"output":101
				},
				{
					"input":7,
					"interpolation":"LINEAR",
					"output":102
				},
				{
					"input":7,
					"interpolation":"LINEAR",
					"output":103
				},
				{
					"input":10,
					"interpolation":"STEP",
					"output":104
				},
				{
					"input":7,
					"interpolation":"LINEAR",
					"output":105
				},
				{
					"input":7,
					"interpolation":"LINEAR",
					"output":106
				},
				{
					"input":10,
					"interpolation":"STEP",
					"output":104
				},
				{
					"input":7,
					"interpolation":"LINEAR",
					"output":107
				},
				{
					"input":7,
					"interpolation":"LINEAR",
					"output":108
				},
				{
					"input":10,
					"interpolation":"STEP",
					"output":109
				},
				{
					"input":7,
					"interpolation":"LINEAR",
					"output":110
				},
				{
					"input":7,
					"interpolation":"LINEAR",
					"output":111
				},
				{
					"input":10,
					"interpolation":"STEP",
					"output":112
				},
				{
					"input":7,
					"interpolation":"LINEAR",
					"output":113
				},
				{
					"input":7,
					"interpolation":"LINEAR",
					"output":114
				},
				{
					"input":10,
					"interpolation":"STEP",
					"output":115
				},
				{
					"input":7,
					"interpolation":"LINEAR",
					"output":116
				},
				{
					"input":7,
					"interpolation":"LINEAR",
					"output":117
				},
				{
					"input":10,
					"interpolation":"STEP",
					"output":118
				},
				{
					"input":7,
					"interpolation":"LINEAR",
					"output":119
				},
				{
					"input":7,
					"interpolation":"LINEAR",
					"output":120
				},
				{
					"input":10,
					"interpolation":"STEP",
					"output":121
				},
				{
					"input":7,
					"interpolation":"LINEAR",
					"output":122
				},
				{
					"input":7,
					"interpolation":"LINEAR",
					"output":123
				},
				{
					"input":10,
					"interpolation":"STEP",
					"output":124
				},
				{
					"input":7,
					"interpolation":"LINEAR",
					"output":125
				},
				{
					"input":7,
					"interpolation":"LINEAR",
					"output":126
				},
				{
					"input":10,
					"interpolation":"STEP",
					"output":127
				},
				{
					"input":7,
					"interpolation":"LINEAR",
					"output":128
				},
				{
					"input":7,
					"interpolation":"LINEAR",
					"output":129
				},
				{
					"input":10,
					"interpolation":"STEP",
					"output":130
				},
				{
					"input":7,
					"interpolation":"LINEAR",
					"output":131
				},
				{
					"input":7,
					"interpolation":"LINEAR",
					"output":132
				},
				{
					"input":10,
					"interpolation":"STEP",
					"output":133
				},
				{
					"input":7,
					"interpolation":"LINEAR",
					"output":134
				},
				{
					"input":7,
					"interpolation":"LINEAR",
					"output":135
				},
				{
					"input":10,
					"interpolation":"LINEAR",
					"output":136
				},
				{
					"input":7,
					"interpolation":"LINEAR",
					"output":137
				},
				{
					"input":7,
					"interpolation":"LINEAR",
					"output":138
				},
				{
					"input":10,
					"interpolation":"STEP",
					"output":139
				}
			]
		}
	],
	"meshes":[
		{
			"name":"Cylinder.001",
			"primitives":[
				{
					"attributes":{
						"POSITION":0,
						"NORMAL":1,
						"TEXCOORD_0":2,
						"JOINTS_0":3,
						"WEIGHTS_0":4
					},
					"indices":5
				}
			]
		}
	],
	"skins":[
		{
			"inverseBindMatrices":6,
			"joints":[
				30,
				17,
				16,
				15,
				2,
				1,
				0,
				8,
				7,
				6,
				5,
				4,
				3,
				14,
				13,
				12,
				11,
				10,
				9,
				23,
				22,
				21,
				20,
				19,
				18,
				29,
				28,
				27,
				26,
				25,
				24,
				31,
				32,
				33,
				34,
				35,
				36,
				37,
				38,
				39,
				40,
				41,
				42,
				43
			],
			"name":"Armature"
		}
	],
	"accessors":[
		{
			"bufferView":0,
			"componentType":5126,
			"count":2544,
			"max":[
				0.21780577301979065,
				2.8447906970977783,
				1.3745485544204712
			],
			"min":[
				-0.3078399896621704,
				-0.17727208137512207,
				-1.3745485544204712
			],
			"type":"VEC3"
		},
		{
			"bufferView":1,
			"componentType":5126,
			"count":2544,
			"type":"VEC3"
		},
		{
			"bufferView":2,
			"componentType":5126,
			"count":2544,
			"type":"VEC2"
		},
		{
			"bufferView":3,
			"componentType":5121,
			"count":2544,
			"type":"VEC4"
		},
		{
			"bufferView":4,
			"componentType":5126,
			"count":2544,
			"type":"VEC4"
		},
		{
			"bufferView":5,
			"componentType":5123,
			"count":7812,
			"type":"SCALAR"
		},
		{
			"bufferView":6,
			"componentType":5126,
			"count":44,
			"type":"MAT4"
		},
		{
			"bufferView":7,
			"componentType":5126,
			"count":31,
			"max":[
				1.25
			],
			"min":[
				0
			],
			"type":"SCALAR"
		},
		{
			"bufferView":8,
			"componentType":5126,
			"count":31,
			"type":"VEC3"
		},
		{
			"bufferView":9,
			"componentType":5126,
			"count":31,
			"type":"VEC4"
		},
		{
			"bufferView":10,
			"componentType":5126,
			"count":2,
			"max":[
				1.25
			],
			"min":[
				0
			],
			"type":"SCALAR"
		},
		{
			"bufferView":11,
			"componentType":5126,
			"count":2,
			"type":"VEC3"
		},
		{
			"bufferView":12,
			"componentType":5126,
			"count":2,
			"type":"VEC3"
		},
		{
			"bufferView":13,
			"componentType":5126,
			"count":31,
			"type":"VEC4"
		},
		{
			"bufferView":14,
			"componentType":5126,
			"count":2,
			"type":"VEC3"
		},
		{
			"bufferView":15,
			"componentType":5126,
			"count":2,
			"type":"VEC3"
		},
		{
			"bufferView":16,
			"componentType":5126,
			"count":31,
			"type":"VEC4"
		},
		{
			"bufferView":17,
			"componentType":5126,
			"count":2,
			"type":"VEC3"
		},
		{
			"bufferView":18,
			"componentType":5126,
			"count":2,
			"type":"VEC3"
		},
		{
			"bufferView":19,
			"componentType":5126,
			"count":31,
			"type":"VEC4"
		},
		{
			"bufferView":20,
			"componentType":5126,
			"count":2,
			"type":"VEC3"
		},
		{
			"bufferView":21,
			"componentType":5126,
			"count":2,
			"type":"VEC3"
		},
		{
			"bufferView":22,
			"componentType":5126,
			"count":31,
			"type":"VEC4"
		},
		{
			"bufferView":23,
			"componentType":5126,
			"count":2,
			"type":"VEC3"
		},
		{
			"bufferView":24,
			"componentType":5126,
			"count":2,
			"type":"VEC3"
		},
		{
			"bufferView":25,
			"componentType":5126,
			"count":31,
			"type":"VEC4"
		},
		{
			"bufferView":26,
			"componentType":5126,
			"count":2,
			"type":"VEC3"
		},
		{
			"bufferView":27,
			"componentType":5126,
			"count":2,
			"type":"VEC3"
		},
		{
			"bufferView":28,
			"componentType":5126,
			"count":31,
			"type":"VEC4"
		},
		{
			"bufferView":29,
			"componentType":5126,
			"count":2,
			"type":"VEC3"
		},
		{
			"bufferView":30,
			"componentType":5126,
			"count":2,
			"type":"VEC3"
		},
		{
			"bufferView":31,
			"componentType":5126,
			"count":31,
			"type":"VEC4"
		},
		{
			"bufferView":32,
			"componentType":5126,
			"count":2,
			"type":"VEC3"
		},
		{
			"bufferView":33,
			"componentType":5126,
			"count":2,
			"type":"VEC3"
		},
		{
			"bufferView":34,
			"componentType":5126,
			"count":31,
			"type":"VEC4"
		},
		{
			"bufferView":35,
			"componentType":5126,
			"count":2,
			"type":"VEC3"
		},
		{
			"bufferView":36,
			"componentType":5126,
			"count":2,
			"type":"VEC3"
		},
		{
			"bufferView":37,
			"componentType":5126,
			"count":31,
			"type":"VEC4"
		},
		{
			"bufferView":38,
			"componentType":5126,
			"count":2,
			"type":"VEC3"
		},
		{
			"bufferView":39,
			"componentType":5126,
			"count":2,
			"type":"VEC3"
		},
		{
			"bufferView":40,
			"componentType":5126,
			"count":31,
			"type":"VEC4"
		},
		{
			"bufferView":41,
			"componentType":5126,
			"count":2,
			"type":"VEC3"
		},
		{
			"bufferView":42,
			"componentType":5126,
			"count":2,
			"type":"VEC3"
		},
		{
			"bufferView":43,
			"componentType":5126,
			"count":31,
			"type":"VEC4"
		},
		{
			"bufferView":44,
			"componentType":5126,
			"count":2,
			"type":"VEC3"
		},
		{
			"bufferView":45,
			"componentType":5126,
			"count":2,
			"type":"VEC3"
		},
		{
			"bufferView":46,
			"componentType":5126,
			"count":31,
			"type":"VEC4"
		},
		{
			"bufferView":47,
			"componentType":5126,
			"count":2,
			"type":"VEC3"
		},
		{
			"bufferView":48,
			"componentType":5126,
			"count":31,
			"type":"VEC3"
		},
		{
			"bufferView":49,
			"componentType":5126,
			"count":31,
			"type":"VEC4"
		},
		{
			"bufferView":50,
			"componentType":5126,
			"count":2,
			"type":"VEC3"
		},
		{
			"bufferView":51,
			"componentType":5126,
			"count":2,
			"type":"VEC3"
		},
		{
			"bufferView":52,
			"componentType":5126,
			"count":31,
			"type":"VEC4"
		},
		{
			"bufferView":53,
			"componentType":5126,
			"count":2,
			"type":"VEC3"
		},
		{
			"bufferView":54,
			"componentType":5126,
			"count":2,
			"type":"VEC3"
		},
		{
			"bufferView":55,
			"componentType":5126,
			"count":31,
			"type":"VEC4"
		},
		{
			"bufferView":56,
			"componentType":5126,
			"count":2,
			"type":"VEC3"
		},
		{
			"bufferView":57,
			"componentType":5126,
			"count":2,
			"type":"VEC3"
		},
		{
			"bufferView":58,
			"componentType":5126,
			"count":31,
			"type":"VEC4"
		},
		{
			"bufferView":59,
			"componentType":5126,
			"count":2,
			"type":"VEC3"
		},
		{
			"bufferView":60,
			"componentType":5126,
			"count":2,
			"type":"VEC3"
		},
		{
			"bufferView":61,
			"componentType":5126,
			"count":31,
			"type":"VEC4"
		},
		{
			"bufferView":62,
			"componentType":5126,
			"count":2,
			"type":"VEC3"
		},
		{
			"bufferView":63,
			"componentType":5126,
			"count":2,
			"type":"VEC3"
		},
		{
			"bufferView":64,
			"componentType":5126,
			"count":31,
			"type":"VEC4"
		},
		{
			"bufferView":65,
			"componentType":5126,
			"count":2,
			"type":"VEC3"
		},
		{
			"bufferView":66,
			"componentType":5126,
			"count":2,
			"type":"VEC3"
		},
		{
			"bufferView":67,
			"componentType":5126,
			"count":31,
			"type":"VEC4"
		},
		{
			"bufferView":68,
			"componentType":5126,
			"count":2,
			"type":"VEC3"
		},
		{
			"bufferView":69,
			"componentType":5126,
			"count":2,
			"type":"VEC3"
		},
		{
			"bufferView":70,
			"componentType":5126,
			"count":31,
			"type":"VEC4"
		},
		{
			"bufferView":71,
			"componentType":5126,
			"count":2,
			"type":"VEC3"
		},
		{
			"bufferView":72,
			"componentType":5126,
			"count":2,
			"type":"VEC3"
		},
		{
			"bufferView":73,
			"componentType":5126,
			"count":31,
			"type":"VEC4"
		},
		{
			"bufferView":74,
			"componentType":5126,
			"count":2,
			"type":"VEC3"
		},
		{
			"bufferView":75,
			"componentType":5126,
			"count":2,
			"type":"VEC3"
		},
		{
			"bufferView":76,
			"componentType":5126,
			"count":31,
			"type":"VEC4"
		},
		{
			"bufferView":77,
			"componentType":5126,
			"count":2,
			"type":"VEC3"
		},
		{
			"bufferView":78,
			"componentType":5126,
			"count":2,
			"type":"VEC3"
		},
		{
			"bufferView":79,
			"componentType":5126,
			"count":31,
			"type":"VEC4"
		},
		{
			"bufferView":80,
			"componentType":5126,
			"count":2,
			"type":"VEC3"
		},
		{
			"bufferView":81,
			"componentType":5126,
			"count":2,
			"type":"VEC3"
		},
		{
			"bufferView":82,
			"componentType":5126,
			"count":2,
			"type":"VEC4"
		},
		{
			"bufferView":83,
			"componentType":5126,
			"count":2,
			"type":"VEC3"
		},
		{
			"bufferView":84,
			"componentType":5126,
			"count":2,
			"type":"VEC3"
		},
		{
			"bufferView":85,
			"componentType":5126,
			"count":31,
			"type":"VEC4"
		},
		{
			"bufferView":86,
			"componentType":5126,
			"count":2,
			"type":"VEC3"
		},
		{
			"bufferView":87,
			"componentType":5126,
			"count":2,
			"type":"VEC3"
		},
		{
			"bufferView":88,
			"componentType":5126,
			"count":31,
			"type":"VEC4"
		},
		{
			"bufferView":89,
			"componentType":5126,
			"count":2,
			"type":"VEC3"
		},
		{
			"bufferView":90,
			"componentType":5126,
			"count":2,
			"type":"VEC3"
		},
		{
			"bufferView":91,
			"componentType":5126,
			"count":31,
			"type":"VEC4"
		},
		{
			"bufferView":92,
			"componentType":5126,
			"count":2,
			"type":"VEC3"
		},
		{
			"bufferView":93,
			"componentType":5126,
			"count":2,
			"type":"VEC3"
		},
		{
			"bufferView":94,
			"componentType":5126,
			"count":31,
			"type":"VEC4"
		},
		{
			"bufferView":95,
			"componentType":5126,
			"count":2,
			"type":"VEC3"
		},
		{
			"bufferView":96,
			"componentType":5126,
			"count":2,
			"type":"VEC3"
		},
		{
			"bufferView":97,
			"componentType":5126,
			"count":31,
			"type":"VEC4"
		},
		{
			"bufferView":98,
			"componentType":5126,
			"count":2,
			"type":"VEC3"
		},
		{
			"bufferView":99,
			"componentType":5126,
			"count":2,
			"type":"VEC3"
		},
		{
			"bufferView":100,
			"componentType":5126,
			"count":2,
			"type":"VEC4"
		},
		{
			"bufferView":101,
			"componentType":5126,
			"count":2,
			"type":"VEC3"
		},
		{
			"bufferView":102,
			"componentType":5126,
			"count":31,
			"type":"VEC3"
		},
		{
			"bufferView":103,
			"componentType":5126,
			"count":31,
			"type":"VEC4"
		},
		{
			"bufferView":104,
			"componentType":5126,
			"count":2,
			"type":"VEC3"
		},
		{
			"bufferView":105,
			"componentType":5126,
			"count":31,
			"type":"VEC3"
		},
		{
			"bufferView":106,
			"componentType":5126,
			"count":31,
			"type":"VEC4"
		},
		{
			"bufferView":107,
			"componentType":5126,
			"count":31,
			"type":"VEC3"
		},
		{
			"bufferView":108,
			"componentType":5126,
			"count":31,
			"type":"VEC4"
		},
		{
			"bufferView":109,
			"componentType":5126,
			"count":2,
			"type":"VEC3"
		},
		{
			"bufferView":110,
			"componentType":5126,
			"count":31,
			"type":"VEC3"
		},
		{
			"bufferView":111,
			"componentType":5126,
			"count":31,
			"type":"VEC4"
		},
		{
			"bufferView":112,
			"componentType":5126,
			"count":2,
			"type":"VEC3"
		},
		{
			"bufferView":113,
			"componentType":5126,
			"count":31,
			"type":"VEC3"
		},
		{
			"bufferView":114,
			"componentType":5126,
			"count":31,
			"type":"VEC4"
		},
		{
			"bufferView":115,
			"componentType":5126,
			"count":2,
			"type":"VEC3"
		},
		{
			"bufferView":116,
			"componentType":5126,
			"count":31,
			"type":"VEC3"
		},
		{
			"bufferView":117,
			"componentType":5126,
			"count":31,
			"type":"VEC4"
		},
		{
			"bufferView":118,
			"componentType":5126,
			"count":2,
			"type":"VEC3"
		},
		{
			"bufferView":119,
			"componentType":5126,
			"count":31,
			"type":"VEC3"
		},
		{
			"bufferView":120,
			"componentType":5126,
			"count":31,
			"type":"VEC4"
		},
		{
			"bufferView":121,
			"componentType":5126,
			"count":2,
			"type":"VEC3"
		},
		{
			"bufferView":122,
			"componentType":5126,
			"count":31,
			"type":"VEC3"
		},
		{
			"bufferView":123,
			"componentType":5126,
			"count":31,
			"type":"VEC4"
		},
		{
			"bufferView":124,
			"componentType":5126,
			"count":2,
			"type":"VEC3"
		},
		{
			"bufferView":125,
			"componentType":5126,
			"count":31,
			"type":"VEC3"
		},
		{
			"bufferView":126,
			"componentType":5126,
			"count":31,
			"type":"VEC4"
		},
		{
			"bufferView":127,
			"componentType":5126,
			"count":2,
			"type":"VEC3"
		},
		{
			"bufferView":128,
			"componentType":5126,
			"count":31,
			"type":"VEC3"
		},
		{
			"bufferView":129,
			"componentType":5126,
			"count":31,
			"type":"VEC4"
		},
		{
			"bufferView":130,
			"componentType":5126,
			"count":2,
			"type":"VEC3"
		},
		{
			"bufferView":131,
			"componentType":5126,
			"count":31,
			"type":"VEC3"
		},
		{
			"bufferView":132,
			"componentType":5126,
			"count":31,
			"type":"VEC4"
		},
		{
			"bufferView":133,
			"componentType":5126,
			"count":2,
			"type":"VEC3"
		},
		{
			"bufferView":134,
			"componentType":5126,
			"count":31,
			"type":"VEC3"
		},
		{
			"bufferView":135,
			"componentType":5126,
			"count":31,
			"type":"VEC4"
		},
		{
			"bufferView":136,
			"componentType":5126,
			"count":2,
			"type":"VEC3"
		},
		{
			"bufferView":137,
			"componentType":5126,
			"count":31,
			"type":"VEC3"
		},
		{
			"bufferView":138,
			"componentType":5126,
			"count":31,
			"type":"VEC4"
		},
		{
			"bufferView":139,
			"componentType":5126,
			"count":2,
			"type":"VEC3"
		}
	],
	"bufferViews":[
		{
			"buffer":0,
			"byteLength":30528,
			"byteOffset":0,
			"target":34962
		},
		{
			"buffer":0,
			"byteLength":30528,
			"byteOffset":30528,
			"target":34962
		},
		{
			"buffer":0,
			"byteLength":20352,
			"byteOffset":61056,
			"target":34962
		},
		{
			"buffer":0,
			"byteLength":10176,
			"byteOffset":81408,
			"target":34962
		},
		{
			"buffer":0,
			"byteLength":40704,
			"byteOffset":91584,
			"target":34962
		},
		{
			"buffer":0,
			"byteLength":15624,
			"byteOffset":132288,
			"target":34963
		},
		{
			"buffer":0,
			"byteLength":2816,
			"byteOffset":147912
		},
		{
			"buffer":0,
			"byteLength":124,
			"byteOffset":150728
		},
		{
			"buffer":0,
			"byteLength":372,
			"byteOffset":150852
		},
		{
			"buffer":0,
			"byteLength":496,
			"byteOffset":151224
		},
		{
			"buffer":0,
			"byteLength":8,
			"byteOffset":151720
		},
		{
			"buffer":0,
			"byteLength":24,
			"byteOffset":151728
		},
		{
			"buffer":0,
			"byteLength":24,
			"byteOffset":151752
		},
		{
			"buffer":0,
			"byteLength":496,
			"byteOffset":151776
		},
		{
			"buffer":0,
			"byteLength":24,
			"byteOffset":152272
		},
		{
			"buffer":0,
			"byteLength":24,
			"byteOffset":152296
		},
		{
			"buffer":0,
			"byteLength":496,
			"byteOffset":152320
		},
		{
			"buffer":0,
			"byteLength":24,
			"byteOffset":152816
		},
		{
			"buffer":0,
			"byteLength":24,
			"byteOffset":152840
		},
		{
			"buffer":0,
			"byteLength":496,
			"byteOffset":152864
		},
		{
			"buffer":0,
			"byteLength":24,
			"byteOffset":153360
		},
		{
			"buffer":0,
			"byteLength":24,
			"byteOffset":153384
		},
		{
			"buffer":0,
			"byteLength":496,
			"byteOffset":153408
		},
		{
			"buffer":0,
			"byteLength":24,
			"byteOffset":153904
		},
		{
			"buffer":0,
			"byteLength":24,
			"byteOffset":153928
		},
		{
			"buffer":0,
			"byteLength":496,
			"byteOffset":153952
		},
		{
			"buffer":0,
			"byteLength":24,
			"byteOffset":154448
		},
		{
			"buffer":0,
			"byteLength":24,
			"byteOffset":154472
		},
		{
			"buffer":0,
			"byteLength":496,
			"byteOffset":154496
		},
		{
			"buffer":0,
			"byteLength":24,
			"byteOffset":154992
		},
		{
			"buffer":0,
			"byteLength":24,
			"byteOffset":155016
		},
		{
			"buffer":0,
			"byteLength":496,
			"byteOffset":155040
		},
		{
			"buffer":0,
			"byteLength":24,
			"byteOffset":155536
		},
		{
			"buffer":0,
			"byteLength":24,
			"byteOffset":155560
		},
		{
			"buffer":0,
			"byteLength":496,
			"byteOffset":155584
		},
		{
			"buffer":0,
			"byteLength":24,
			"byteOffset":156080
		},
		{
			"buffer":0,
			"byteLength":24,
			"byteOffset":156104
		},
		{
			"buffer":0,
			"byteLength":496,
			"byteOffset":156128
		},
		{
			"buffer":0,
			"byteLength":24,
			"byteOffset":156624
		},
		{
			"buffer":0,
			"byteLength":24,
			"byteOffset":156648
		},
		{
			"buffer":0,
			"byteLength":496,
			"byteOffset":156672
		},
		{
			"buffer":0,
			"byteLength":24,
			"byteOffset":157168
		},
		{
			"buffer":0,
			"byteLength":24,
			"byteOffset":157192
		},
		{
			"buffer":0,
			"byteLength":496,
			"byteOffset":157216
		},
		{
			"buffer":0,
			"byteLength":24,
			"byteOffset":157712
		},
		{
			"buffer":0,
			"byteLength":24,
			"byteOffset":157736
		},
		{
			"buffer":0,
			"byteLength":496,
			"byteOffset":157760
		},
		{
			"buffer":0,
			"byteLength":24,
			"byteOffset":158256
		},
		{
			"buffer":0,
			"byteLength":372,
			"byteOffset":158280
		},
		{
			"buffer":0,
			"byteLength":496,
			"byteOffset":158652
		},
		{
			"buffer":0,
			"byteLength":24,
			"byteOffset":159148
		},
		{
			"buffer":0,
			"byteLength":24,
			"byteOffset":159172
		},
		{
			"buffer":0,
			"byteLength":496,
			"byteOffset":159196
		},
		{
			"buffer":0,
			"byteLength":24,
			"byteOffset":159692
		},
		{
			"buffer":0,
			"byteLength":24,
			"byteOffset":159716
		},
		{
			"buffer":0,
			"byteLength":496,
			"byteOffset":159740
		},
		{
			"buffer":0,
			"byteLength":24,
			"byteOffset":160236
		},
		{
			"buffer":0,
			"byteLength":24,
			"byteOffset":160260
		},
		{
			"buffer":0,
			"byteLength":496,
			"byteOffset":160284
		},
		{
			"buffer":0,
			"byteLength":24,
			"byteOffset":160780
		},
		{
			"buffer":0,
			"byteLength":24,
			"byteOffset":160804
		},
		{
			"buffer":0,
			"byteLength":496,
			"byteOffset":160828
		},
		{
			"buffer":0,
			"byteLength":24,
			"byteOffset":161324
		},
		{
			"buffer":0,
			"byteLength":24,
			"byteOffset":161348
		},
		{
			"buffer":0,
			"byteLength":496,
			"byteOffset":161372
		},
		{
			"buffer":0,
			"byteLength":24,
			"byteOffset":161868
		},
		{
			"buffer":0,
			"byteLength":24,
			"byteOffset":161892
		},
		{
			"buffer":0,
			"byteLength":496,
			"byteOffset":161916
		},
		{
			"buffer":0,
			"byteLength":24,
			"byteOffset":162412
		},
		{
			"buffer":0,
			"byteLength":24,
			"byteOffset":162436
		},
		{
			"buffer":0,
			"byteLength":496,
			"byteOffset":162460
		},
		{
			"buffer":0,
			"byteLength":24,
			"byteOffset":162956
		},
		{
			"buffer":0,
			"byteLength":24,
			"byteOffset":162980
		},
		{
			"buffer":0,
			"byteLength":496,
			"byteOffset":163004
		},
		{
			"buffer":0,
			"byteLength":24,
			"byteOffset":163500
		},
		{
			"buffer":0,
			"byteLength":24,
			"byteOffset":163524
		},
		{
			"buffer":0,
			"byteLength":496,
			"byteOffset":163548
		},
		{
			"buffer":0,
			"byteLength":24,
			"byteOffset":164044
		},
		{
			"buffer":0,
			"byteLength":24,
			"byteOffset":164068
		},
		{
			"buffer":0,
			"byteLength":496,
			"byteOffset":164092
		},
		{
			"buffer":0,
			"byteLength":24,
			"byteOffset":164588
		},
		{
			"buffer":0,
			"byteLength":24,
			"byteOffset":164612
		},
		{
			"buffer":0,
			"byteLength":32,
			"byteOffset":164636
		},
		{
			"buffer":0,
			"byteLength":24,
			"byteOffset":164668
		},
		{
			"buffer":0,
			"byteLength":24,
			"byteOffset":164692
		},
		{
			"buffer":0,
			"byteLength":496,
			"byteOffset":164716
		},
		{
			"buffer":0,
			"byteLength":24,
			"byteOffset":165212
		},
		{
			"buffer":0,
			"byteLength":24,
			"byteOffset":165236
		},
		{
			"buffer":0,
			"byteLength":496,
			"byteOffset":165260
		},
		{
			"buffer":0,
			"byteLength":24,
			"byteOffset":165756
		},
		{
			"buffer":0,
			"byteLength":24,
			"byteOffset":165780
		},
		{
			"buffer":0,
			"byteLength":496,
			"byteOffset":165804
		},
		{
			"buffer":0,
			"byteLength":24,
			"byteOffset":166300
		},
		{
			"buffer":0,
			"byteLength":24,
			"byteOffset":166324
		},
		{
			"buffer":0,
			"byteLength":496,
			"byteOffset":166348
		},
		{
			"buffer":0,
			"byteLength":24,
			"byteOffset":166844
		},
		{
			"buffer":0,
			"byteLength":24,
			"byteOffset":166868
		},
		{
			"buffer":0,
			"byteLength":496,
			"byteOffset":166892
		},
		{
			"buffer":0,
			"byteLength":24,
			"byteOffset":167388
		},
		{
			"buffer":0,
			"byteLength":24,
			"byteOffset":167412
		},
		{
			"buffer":0,
			"byteLength":32,
			"byteOffset":167436
		},
		{
			"buffer":0,
			"byteLength":24,
			"byteOffset":167468
		},
		{
			"buffer":0,
			"byteLength":372,
			"byteOffset":167492
		},
		{
			"buffer":0,
			"byteLength":496,
			"byteOffset":167864
		},
		{
			"buffer":0,
			"byteLength":24,
			"byteOffset":168360
		},
		{
			"buffer":0,
			"byteLength":372,
			"byteOffset":168384
		},
		{
			"buffer":0,
			"byteLength":496,
			"byteOffset":168756
		},
		{
			"buffer":0,
			"byteLength":372,
			"byteOffset":169252
		},
		{
			"buffer":0,
			"byteLength":496,
			"byteOffset":169624
		},
		{
			"buffer":0,
			"byteLength":24,
			"byteOffset":170120
		},
		{
			"buffer":0,
			"byteLength":372,
			"byteOffset":170144
		},
		{
			"buffer":0,
			"byteLength":496,
			"byteOffset":170516
		},
		{
			"buffer":0,
			"byteLength":24,
			"byteOffset":171012
		},
		{
			"buffer":0,
			"byteLength":372,
			"byteOffset":171036
		},
		{
			"buffer":0,
			"byteLength":496,
			"byteOffset":171408
		},
		{
			"buffer":0,
			"byteLength":24,
			"byteOffset":171904
		},
		{
			"buffer":0,
			"byteLength":372,
			"byteOffset":171928
		},
		{
			"buffer":0,
			"byteLength":496,
			"byteOffset":172300
		},
		{
			"buffer":0,
			"byteLength":24,
			"byteOffset":172796
		},
		{
			"buffer":0,
			"byteLength":372,
			"byteOffset":172820
		},
		{
			"buffer":0,
			"byteLength":496,
			"byteOffset":173192
		},
		{
			"buffer":0,
			"byteLength":24,
			"byteOffset":173688
		},
		{
			"buffer":0,
			"byteLength":372,
			"byteOffset":173712
		},
		{
			"buffer":0,
			"byteLength":496,
			"byteOffset":174084
		},
		{
			"buffer":0,
			"byteLength":24,
			"byteOffset":174580
		},
		{
			"buffer":0,
			"byteLength":372,
			"byteOffset":174604
		},
		{
			"buffer":0,
			"byteLength":496,
			"byteOffset":174976
		},
		{
			"buffer":0,
			"byteLength":24,
			"byteOffset":175472
		},
		{
			"buffer":0,
			"byteLength":372,
			"byteOffset":175496
		},
		{
			"buffer":0,
			"byteLength":496,
			"byteOffset":175868
		},
		{
			"buffer":0,
			"byteLength":24,
			"byteOffset":176364
		},
		{
			"buffer":0,
			"byteLength":372,
			"byteOffset":176388
		},
		{
			"buffer":0,
			"byteLength":496,
			"byteOffset":176760
		},
		{
			"buffer":0,
			"byteLength":24,
			"byteOffset":177256
		},
		{
			"buffer":0,
			"byteLength":372,
			"byteOffset":177280
		},
		{
			"buffer":0,
			"byteLength":496,
			"byteOffset":177652
		},
		{
			"buffer":0,
			"byteLength":24,
			"byteOffset":178148
		},
		{
			"buffer":0,
			"byteLength":372,
			"byteOffset":178172
		},
		{
			"buffer":0,
			"byteLength":496,
			"byteOffset":178544
		},
		{
			"buffer":0,
			"byteLength":24,
			"byteOffset":179040
		}
	],
	"buffers":[
		{
			"byteLength":179064,
			"uri":"ATKX3-2.bin"
		}
	]
}
