{
	"asset":{
		"generator":"Khronos glTF Blender I/O v5.1.19",
		"version":"2.0"
	},
	"scene":0,
	"scenes":[
		{
			"name":"Scene",
			"nodes":[
				0,
				1,
				34
			]
		}
	],
	"nodes":[
		{
			"name":"Ref1",
			"rotation":[
				0.7071068286895752,
				0,
				0,
				0.7071068286895752
			],
			"translation":[
				-0.014200447127223015,
				1.070883870124817,
				0
			]
		},
		{
			"name":"Ref2",
			"rotation":[
				0.5000000596046448,
				0.5,
				-0.5,
				0.5
			],
			"translation":[
				0,
				1.0663806200027466,
				0
			]
		},
		{
			"name":"Bone.006",
			"rotation":[
				-0.015159349888563156,
				-1.3928237903304552e-12,
				-1.3625798374050646e-06,
				0.999885082244873
			],
			"translation":[
				2.1782398107461631e-10,
				0.09328890591859818,
				-2.730334358602704e-08
			]
		},
		{
			"children":[
				2
			],
			"name":"Bone.005",
			"rotation":[
				0.09134975075721741,
				-1.0651517168280833e-10,
				8.209673069359269e-06,
				0.9958188533782959
			],
			"translation":[
				6.548361852765083e-11,
				0.11530768126249313,
				6.225491233635694e-09
			]
		},
		{
			"children":[
				3
			],
			"name":"Bone.004",
			"rotation":[
				0.06684679538011551,
				0.0006946788635104895,
				-0.013089985586702824,
				0.9976771473884583
			],
			"scale":[
				1.0000001192092896,
				0.9999998807907104,
				0.9999998211860657
			],
			"translation":[
				3.470631781965494e-09,
				0.135819211602211,
				-1.2400050763972104e-08
			]
		},
		{
			"name":"Bone.012",
			"rotation":[
				0.006180515047162771,
				-5.262897673219413e-08,
				0.017701586708426476,
				0.9998242259025574
			],
			"translation":[
				-2.9802322387695312e-08,
				0.40211012959480286,
				-3.725290298461914e-08
			]
		},
		{
			"children":[
				5
			],
			"name":"Bone.011",
			"rotation":[
				-0.003275229362770915,
				-8.295182851725258e-08,
				-0.009380565024912357,
				0.999950647354126
			],
			"scale":[
				0.9999999403953552,
				0.9999998211860657,
				1
			],
			"translation":[
				-1.4156103134155273e-07,
				0.09014004468917847,
				-5.4016709327697754e-08
			]
		},
		{
			"children":[
				6
			],
			"name":"Bone.010",
			"rotation":[
				8.370642899535596e-05,
				2.7567148208618164e-07,
				0.00023974827490746975,
				1
			],
			"translation":[
				2.7567148208618164e-07,
				0.1086624264717102,
				-1.0244548320770264e-07
			]
		},
		{
			"children":[
				7
			],
			"name":"Bone.009",
			"rotation":[
				0.012076959013938904,
				5.16648839266054e-08,
				0.03458957374095917,
				0.99932861328125
			],
			"translation":[
				-5.550682544708252e-07,
				0.42132478952407837,
				2.2351741790771484e-08
			]
		},
		{
			"children":[
				8
			],
			"name":"Bone.008",
			"rotation":[
				0.08277960866689682,
				0.0003913798718713224,
				-0.02777361124753952,
				0.9961807131767273
			],
			"translation":[
				-2.421438694000244e-08,
				0.22051827609539032,
				-2.2351741790771484e-08
			]
		},
		{
			"children":[
				9
			],
			"name":"Bone.007",
			"rotation":[
				-0.12262861430644989,
				0.0248065534979105,
				-0.7405773997306824,
				0.6602212190628052
			],
			"scale":[
				0.9999999403953552,
				0.9999999403953552,
				0.9999998807907104
			],
			"translation":[
				3.470631781965494e-09,
				0.135819211602211,
				-1.2400050763972104e-08
			]
		},
		{
			"name":"Bone.024",
			"rotation":[
				-0.006180499214679003,
				6.653577599990967e-08,
				-0.017701594159007072,
				0.9998242259025574
			],
			"scale":[
				1,
				1,
				1.0000001192092896
			],
			"translation":[
				-2.1979212760925293e-07,
				0.40211012959480286,
				6.705522537231445e-08
			]
		},
		{
			"children":[
				11
			],
			"name":"Bone.023",
			"rotation":[
				0.003275215160101652,
				-5.981313933034471e-08,
				0.009380566887557507,
				0.999950647354126
			],
			"scale":[
				0.9999999403953552,
				0.9999997019767761,
				1
			],
			"translation":[
				-3.241002559661865e-07,
				0.09013994038105011,
				7.82310962677002e-08
			]
		},
		{
			"children":[
				12
			],
			"name":"Bone.022",
			"rotation":[
				-8.37067054817453e-05,
				2.236629370599985e-07,
				-0.00023974833311513066,
				1
			],
			"translation":[
				3.46451997756958e-07,
				0.10866247117519379,
				-8.381903171539307e-08
			]
		},
		{
			"children":[
				13
			],
			"name":"Bone.021",
			"rotation":[
				-0.012076965533196926,
				-1.2756042622186214e-07,
				-0.034589577466249466,
				0.99932861328125
			],
			"scale":[
				1,
				0.9999999403953552,
				1
			],
			"translation":[
				7.450580596923828e-09,
				0.42132481932640076,
				3.91155481338501e-08
			]
		},
		{
			"children":[
				14
			],
			"name":"Bone.020",
			"rotation":[
				0.027872934937477112,
				0.7787028551101685,
				-0.08274621516466141,
				0.6212874054908752
			],
			"scale":[
				0.9999998807907104,
				0.9999999403953552,
				1
			],
			"translation":[
				8.66129994392395e-08,
				0.22051823139190674,
				5.21540641784668e-08
			]
		},
		{
			"children":[
				15
			],
			"name":"Bone.019",
			"rotation":[
				0.6427658796310425,
				-0.6475946307182312,
				0.3534789979457855,
				0.2062181979417801
			],
			"scale":[
				0.9999998807907104,
				0.9999999403953552,
				0.9999998211860657
			],
			"translation":[
				0.007070560473948717,
				0.13563504815101624,
				-2.156448499590624e-05
			]
		},
		{
			"children":[
				4,
				10,
				16
			],
			"name":"Bone.003",
			"rotation":[
				-0.001537321018986404,
				-0.0015037792036309838,
				0.013022584840655327,
				0.9999129176139832
			],
			"scale":[
				1,
				0.9999998211860657,
				0.9999998807907104
			],
			"translation":[
				1.2023217640130639e-15,
				0.1511811763048172,
				-3.725290298461914e-09
			]
		},
		{
			"children":[
				17
			],
			"name":"Bone.002",
			"rotation":[
				-0.11480541527271271,
				5.588063759076199e-16,
				-2.7371740429771307e-08,
				0.9933879971504211
			],
			"scale":[
				1,
				1,
				0.9999999403953552
			],
			"translation":[
				-1.2994589200690358e-16,
				0.17684698104858398,
				1.862645149230957e-09
			]
		},
		{
			"children":[
				18
			],
			"name":"Bone.001",
			"rotation":[
				-0.04402696713805199,
				2.628226005970194e-14,
				-1.049684694720554e-08,
				0.999030351638794
			],
			"scale":[
				1,
				1.0000001192092896,
				1.0000001192092896
			],
			"translation":[
				-3.9968028886505635e-15,
				0.18819642066955566,
				9.313225746154785e-09
			]
		},
		{
			"name":"Bone.018",
			"rotation":[
				-0.004009327385574579,
				-0.027580944821238518,
				-0.6371950507164001,
				0.7701985239982605
			],
			"scale":[
				0.9999998807907104,
				0.9999999403953552,
				1
			],
			"translation":[
				-6.9267116487026215e-09,
				0.8590599298477173,
				2.4068867787718773e-08
			]
		},
		{
			"children":[
				20
			],
			"name":"Bone.017",
			"rotation":[
				-0.03535836189985275,
				0.005499775521457195,
				-0.008515281602740288,
				0.999323308467865
			],
			"scale":[
				1,
				1,
				1.0000001192092896
			],
			"translation":[
				6.752088665962219e-09,
				0.07930579036474228,
				-2.4001545639862343e-08
			]
		},
		{
			"children":[
				21
			],
			"name":"Bone.016",
			"rotation":[
				0.006624001078307629,
				-5.859258817508817e-05,
				0.10201232135295868,
				0.9947611093521118
			],
			"scale":[
				1,
				0.9999998807907104,
				0.9999998807907104
			],
			"translation":[
				-9.19681042432785e-09,
				0.09221605211496353,
				7.799040524503198e-09
			]
		},
		{
			"children":[
				22
			],
			"name":"Bone.015",
			"rotation":[
				0.057549986988306046,
				0.003417396917939186,
				-0.03421837463974953,
				0.9977502226829529
			],
			"scale":[
				1,
				1,
				1.0000001192092896
			],
			"translation":[
				-8.476490620523691e-10,
				0.6368460059165955,
				1.0354369806009345e-08
			]
		},
		{
			"children":[
				23
			],
			"name":"Bone.014",
			"rotation":[
				-0.5811334848403931,
				-0.007205250672996044,
				-0.010061129927635193,
				0.8137142062187195
			],
			"scale":[
				1,
				0.9999999403953552,
				0.9999999403953552
			],
			"translation":[
				-2.597132287007753e-09,
				0.1820632368326187,
				3.856854391415254e-08
			]
		},
		{
			"children":[
				24
			],
			"name":"Bone.013",
			"rotation":[
				-0.604049801826477,
				-0.44738978147506714,
				-0.5475788116455078,
				0.3675917983055115
			],
			"scale":[
				0.9999998807907104,
				1,
				0.9999999403953552
			],
			"translation":[
				-3.552713678800501e-15,
				-3.67872416973114e-08,
				1.862645149230957e-08
			]
		},
		{
			"name":"Bone.030",
			"rotation":[
				0.0034490583930164576,
				0.02825809456408024,
				-0.6371983289718628,
				0.770173966884613
			],
			"scale":[
				0.9999999403953552,
				0.9999999403953552,
				1
			],
			"translation":[
				8.221832104027271e-09,
				0.859059751033783,
				-5.238689482212067e-09
			]
		},
		{
			"children":[
				26
			],
			"name":"Bone.029",
			"rotation":[
				0.035233523696660995,
				0.006975000724196434,
				-0.009017961099743843,
				0.9993140697479248
			],
			"scale":[
				0.9999998807907104,
				0.9999998807907104,
				0.9999998807907104
			],
			"translation":[
				-6.984919309616089e-09,
				0.07930582016706467,
				8.847564458847046e-09
			]
		},
		{
			"children":[
				27
			],
			"name":"Bone.028",
			"rotation":[
				-0.006279220804572105,
				-0.0231623537838459,
				0.10203413665294647,
				0.9944913983345032
			],
			"scale":[
				1,
				0.9999999403953552,
				0.9999999403953552
			],
			"translation":[
				4.307366907596588e-09,
				0.09221591055393219,
				1.4901161193847656e-08
			]
		},
		{
			"children":[
				28
			],
			"name":"Bone.027",
			"rotation":[
				-0.05721409246325493,
				0.006788341794162989,
				-0.03477712348103523,
				0.997732937335968
			],
			"scale":[
				1,
				0.9999998807907104,
				1
			],
			"translation":[
				-2.142769517377019e-09,
				0.6368457078933716,
				4.2637111619114876e-09
			]
		},
		{
			"children":[
				29
			],
			"name":"Bone.026",
			"rotation":[
				0.5811309814453125,
				0.0070052482187747955,
				-0.010203929618000984,
				0.813715934753418
			],
			"scale":[
				0.9999999403953552,
				1.0000001192092896,
				1
			],
			"translation":[
				1.2219727452134066e-09,
				0.18206319212913513,
				8.114228933209233e-08
			]
		},
		{
			"children":[
				30
			],
			"name":"Bone.025",
			"rotation":[
				0.5475786328315735,
				-0.367591917514801,
				0.6040499210357666,
				0.4473896920681
			],
			"translation":[
				-3.552713678800501e-15,
				-3.67872416973114e-08,
				1.862645149230957e-08
			]
		},
		{
			"children":[
				19,
				25,
				31
			],
			"name":"Bone",
			"rotation":[
				0.0691257044672966,
				1.1892412032921129e-07,
				8.240428783778952e-09,
				0.997607946395874
			],
			"scale":[
				1,
				0.9999999403953552,
				0.9999999403953552
			],
			"translation":[
				0,
				1.6517438888549805,
				-0.0531342439353466
			]
		},
		{
			"mesh":0,
			"name":"momo",
			"skin":0
		},
		{
			"children":[
				33,
				32
			],
			"name":"Armature"
		}
	],
	"meshes":[
		{
			"name":"Cylinder.001",
			"primitives":[
				{
					"attributes":{
						"POSITION":0,
						"NORMAL":1,
						"TEXCOORD_0":2,
						"JOINTS_0":3,
						"WEIGHTS_0":4
					},
					"indices":5
				}
			]
		}
	],
	"skins":[
		{
			"inverseBindMatrices":6,
			"joints":[
				32,
				19,
				18,
				17,
				4,
				3,
				2,
				10,
				9,
				8,
				7,
				6,
				5,
				16,
				15,
				14,
				13,
				12,
				11,
				25,
				24,
				23,
				22,
				21,
				20,
				31,
				30,
				29,
				28,
				27,
				26
			],
			"name":"Armature"
		}
	],
	"accessors":[
		{
			"bufferView":0,
			"componentType":5126,
			"count":2552,
			"max":[
				1.3745485544204712,
				2.8447906970977783,
				0.21780575811862946
			],
			"min":[
				-1.3745485544204712,
				-0.17727208137512207,
				-0.3078399896621704
			],
			"type":"VEC3"
		},
		{
			"bufferView":1,
			"componentType":5126,
			"count":2552,
			"type":"VEC3"
		},
		{
			"bufferView":2,
			"componentType":5126,
			"count":2552,
			"type":"VEC2"
		},
		{
			"bufferView":3,
			"componentType":5121,
			"count":2552,
			"type":"VEC4"
		},
		{
			"bufferView":4,
			"componentType":5126,
			"count":2552,
			"type":"VEC4"
		},
		{
			"bufferView":5,
			"componentType":5123,
			"count":7812,
			"type":"SCALAR"
		},
		{
			"bufferView":6,
			"componentType":5126,
			"count":31,
			"type":"MAT4"
		}
	],
	"bufferViews":[
		{
			"buffer":0,
			"byteLength":30624,
			"byteOffset":0,
			"target":34962
		},
		{
			"buffer":0,
			"byteLength":30624,
			"byteOffset":30624,
			"target":34962
		},
		{
			"buffer":0,
			"byteLength":20416,
			"byteOffset":61248,
			"target":34962
		},
		{
			"buffer":0,
			"byteLength":10208,
			"byteOffset":81664,
			"target":34962
		},
		{
			"buffer":0,
			"byteLength":40832,
			"byteOffset":91872,
			"target":34962
		},
		{
			"buffer":0,
			"byteLength":15624,
			"byteOffset":132704,
			"target":34963
		},
		{
			"buffer":0,
			"byteLength":1984,
			"byteOffset":148328
		}
	],
	"buffers":[
		{
			"byteLength":150312,
			"uri":"Neki.bin"
		}
	]
}
