{
	"asset":{
		"generator":"Khronos glTF Blender I/O v5.1.19",
		"version":"2.0"
	},
	"scene":0,
	"scenes":[
		{
			"name":"Scene",
			"nodes":[
				45
			]
		}
	],
	"nodes":[
		{
			"name":"Bone.006",
			"rotation":[
				-0.015159143134951591,
				-1.9006243974217796e-06,
				-3.0244136723922566e-06,
				0.999885082244873
			],
			"translation":[
				2.2146195988170803e-10,
				0.09328890591859818,
				-2.7303485694574192e-08
			]
		},
		{
			"children":[
				0
			],
			"name":"Bone.005",
			"rotation":[
				0.09134975075721741,
				-3.267949452712138e-11,
				8.210529813368339e-06,
				0.9958188533782959
			],
			"translation":[
				1.127773430198431e-10,
				0.11530768126249313,
				-1.224293555424083e-09
			]
		},
		{
			"children":[
				1
			],
			"name":"Bone.004",
			"rotation":[
				0.0668468028306961,
				0.0006946793291717768,
				-0.013089986518025398,
				0.9976771473884583
			],
			"scale":[
				1.0000001192092896,
				0.9999998807907104,
				0.9999998807907104
			],
			"translation":[
				3.4269760362803936e-09,
				0.1358192265033722,
				-1.2396412785165012e-08
			]
		},
		{
			"name":"Bone.012",
			"rotation":[
				0.006173879373818636,
				-2.1023432054789737e-05,
				0.01768168807029724,
				0.9998246431350708
			],
			"scale":[
				1,
				0.9999999403953552,
				1
			],
			"translation":[
				-1.862645149230957e-07,
				0.4021098017692566,
				-1.1175870895385742e-08
			]
		},
		{
			"children":[
				3
			],
			"name":"Bone.011",
			"rotation":[
				-0.0032768663950264454,
				-5.3645089792553335e-06,
				-0.009385564364492893,
				0.9999505877494812
			],
			"scale":[
				0.9999999403953552,
				0.9999998807907104,
				0.9999999403953552
			],
			"translation":[
				2.086162567138672e-07,
				0.09013991057872772,
				-3.91155481338501e-08
			]
		},
		{
			"children":[
				4
			],
			"name":"Bone.010",
			"rotation":[
				8.631811942905188e-05,
				8.21088906377554e-06,
				0.0002472202468197793,
				1
			],
			"scale":[
				1,
				1.0000001192092896,
				1
			],
			"translation":[
				4.0978193283081055e-08,
				0.1086624339222908,
				1.955777406692505e-08
			]
		},
		{
			"children":[
				5
			],
			"name":"Bone.009",
			"rotation":[
				0.012076959013938904,
				3.599650355567974e-08,
				0.03458957374095917,
				0.99932861328125
			],
			"translation":[
				-3.0174851417541504e-07,
				0.42132484912872314,
				2.2351741790771484e-08
			]
		},
		{
			"children":[
				6
			],
			"name":"Bone.008",
			"rotation":[
				0.08277961611747742,
				0.00039138758438639343,
				-0.027773600071668625,
				0.9961807131767273
			],
			"translation":[
				-2.2351741790771484e-08,
				0.22051826119422913,
				-1.1175870895385742e-08
			]
		},
		{
			"children":[
				7
			],
			"name":"Bone.007",
			"rotation":[
				-0.12262862175703049,
				0.02480657398700714,
				-0.7405773997306824,
				0.6602212190628052
			],
			"scale":[
				0.9999999403953552,
				0.9999999403953552,
				0.9999999403953552
			],
			"translation":[
				3.4269760362803936e-09,
				0.1358192265033722,
				-1.2396412785165012e-08
			]
		},
		{
			"name":"Bone.024",
			"rotation":[
				-0.00618022121489048,
				8.361616892216261e-07,
				-0.017700832337141037,
				0.9998242855072021
			],
			"scale":[
				1,
				0.9999998807907104,
				0.9999999403953552
			],
			"translation":[
				7.450580596923828e-09,
				0.4021102786064148,
				5.21540641784668e-08
			]
		},
		{
			"children":[
				9
			],
			"name":"Bone.023",
			"rotation":[
				0.0032752160914242268,
				-7.418932312930338e-08,
				0.009380564093589783,
				0.999950647354126
			],
			"scale":[
				0.9999999403953552,
				0.9999998807907104,
				0.9999998807907104
			],
			"translation":[
				-3.2782554626464844e-07,
				0.09014004468917847,
				7.450580596923828e-09
			]
		},
		{
			"children":[
				10
			],
			"name":"Bone.022",
			"rotation":[
				-8.370846626348794e-05,
				2.31666504646455e-07,
				-0.00023974876967258751,
				1
			],
			"scale":[
				0.9999999403953552,
				0.9999999403953552,
				1
			],
			"translation":[
				1.0058283805847168e-07,
				0.10866250097751617,
				-1.043081283569336e-07
			]
		},
		{
			"children":[
				11
			],
			"name":"Bone.021",
			"rotation":[
				-0.01207695808261633,
				-1.343170481504785e-07,
				-0.03458957001566887,
				0.99932861328125
			],
			"translation":[
				0,
				0.42132487893104553,
				8.009374141693115e-08
			]
		},
		{
			"children":[
				12
			],
			"name":"Bone.020",
			"rotation":[
				0.027872957289218903,
				0.7787028551101685,
				-0.082746222615242,
				0.62128746509552
			],
			"scale":[
				0.9999999403953552,
				0.9999997019767761,
				0.9999999403953552
			],
			"translation":[
				8.940696716308594e-08,
				0.22051824629306793,
				1.6763806343078613e-07
			]
		},
		{
			"children":[
				13
			],
			"name":"Bone.019",
			"rotation":[
				0.6427658200263977,
				-0.6475945711135864,
				0.3534789979457855,
				0.2062181830406189
			],
			"scale":[
				0.9999998807907104,
				1,
				0.9999999403953552
			],
			"translation":[
				0.00707056000828743,
				0.13563504815101624,
				-2.1564486814895645e-05
			]
		},
		{
			"children":[
				2,
				8,
				14
			],
			"name":"Bone.003",
			"rotation":[
				-0.0015373284695670009,
				-0.001503779785707593,
				0.013022584840655327,
				0.9999129176139832
			],
			"scale":[
				1,
				0.9999998807907104,
				0.9999999403953552
			],
			"translation":[
				1.5534080268040252e-15,
				0.1511811763048172,
				-7.450580596923828e-09
			]
		},
		{
			"children":[
				15
			],
			"name":"Bone.002",
			"rotation":[
				-0.11480481922626495,
				1.1176125929965623e-16,
				-2.7371598321224155e-08,
				0.9933880567550659
			],
			"scale":[
				1,
				1.0000001192092896,
				1.0000001192092896
			],
			"translation":[
				-5.164428319671607e-14,
				0.17684701085090637,
				2.1606683731079102e-07
			]
		},
		{
			"children":[
				16
			],
			"name":"Bone.001",
			"rotation":[
				-0.04402755945920944,
				2.631004274037188e-14,
				-1.0496987279395853e-08,
				0.999030351638794
			],
			"translation":[
				-3.9968028886505635e-15,
				0.18819642066955566,
				9.313225746154785e-09
			]
		},
		{
			"name":"Bone.018",
			"rotation":[
				-0.004009327385574579,
				-0.027580944821238518,
				-0.6371950507164001,
				0.7701985239982605
			],
			"scale":[
				0.9999998807907104,
				0.9999999403953552,
				1
			],
			"translation":[
				-6.9267116487026215e-09,
				0.8590599298477173,
				2.4068867787718773e-08
			]
		},
		{
			"children":[
				18
			],
			"name":"Bone.017",
			"rotation":[
				-0.03535836189985275,
				0.005499775521457195,
				-0.008515281602740288,
				0.999323308467865
			],
			"scale":[
				1,
				1,
				1.0000001192092896
			],
			"translation":[
				6.752088665962219e-09,
				0.07930579036474228,
				-2.4001545639862343e-08
			]
		},
		{
			"children":[
				19
			],
			"name":"Bone.016",
			"rotation":[
				0.006624001078307629,
				-5.859258817508817e-05,
				0.10201232135295868,
				0.9947611093521118
			],
			"scale":[
				1,
				0.9999998807907104,
				0.9999998807907104
			],
			"translation":[
				-9.19681042432785e-09,
				0.09221605211496353,
				7.799040524503198e-09
			]
		},
		{
			"children":[
				20
			],
			"name":"Bone.015",
			"rotation":[
				0.057549986988306046,
				0.003417396917939186,
				-0.03421837463974953,
				0.9977502226829529
			],
			"scale":[
				1,
				1,
				1.0000001192092896
			],
			"translation":[
				-8.476490620523691e-10,
				0.6368460059165955,
				1.0354369806009345e-08
			]
		},
		{
			"children":[
				21
			],
			"name":"Bone.014",
			"rotation":[
				-0.5811334848403931,
				-0.007205250672996044,
				-0.010061129927635193,
				0.8137142062187195
			],
			"scale":[
				1,
				0.9999999403953552,
				0.9999999403953552
			],
			"translation":[
				-2.597132287007753e-09,
				0.1820632368326187,
				3.856854391415254e-08
			]
		},
		{
			"children":[
				22
			],
			"name":"Bone.013",
			"rotation":[
				-0.604049801826477,
				-0.44738978147506714,
				-0.5475788116455078,
				0.3675917983055115
			],
			"scale":[
				0.9999998807907104,
				1,
				0.9999999403953552
			],
			"translation":[
				-3.552713678800501e-15,
				-3.67872416973114e-08,
				1.862645149230957e-08
			]
		},
		{
			"name":"Bone.030",
			"rotation":[
				0.0034490583930164576,
				0.02825809456408024,
				-0.6371983289718628,
				0.770173966884613
			],
			"scale":[
				0.9999999403953552,
				0.9999999403953552,
				1
			],
			"translation":[
				8.221832104027271e-09,
				0.859059751033783,
				-5.238689482212067e-09
			]
		},
		{
			"children":[
				24
			],
			"name":"Bone.029",
			"rotation":[
				0.035233523696660995,
				0.006975000724196434,
				-0.009017961099743843,
				0.9993140697479248
			],
			"scale":[
				0.9999998807907104,
				0.9999998807907104,
				0.9999998807907104
			],
			"translation":[
				-6.984919309616089e-09,
				0.07930582016706467,
				8.847564458847046e-09
			]
		},
		{
			"children":[
				25
			],
			"name":"Bone.028",
			"rotation":[
				-0.006279220804572105,
				-0.0231623537838459,
				0.10203413665294647,
				0.9944913983345032
			],
			"scale":[
				1,
				0.9999999403953552,
				0.9999999403953552
			],
			"translation":[
				4.307366907596588e-09,
				0.09221591055393219,
				1.4901161193847656e-08
			]
		},
		{
			"children":[
				26
			],
			"name":"Bone.027",
			"rotation":[
				-0.05721409246325493,
				0.006788341794162989,
				-0.03477712348103523,
				0.997732937335968
			],
			"scale":[
				1,
				0.9999998807907104,
				1
			],
			"translation":[
				-2.142769517377019e-09,
				0.6368457078933716,
				4.2637111619114876e-09
			]
		},
		{
			"children":[
				27
			],
			"name":"Bone.026",
			"rotation":[
				0.5811309814453125,
				0.0070052482187747955,
				-0.010203929618000984,
				0.813715934753418
			],
			"scale":[
				0.9999999403953552,
				1.0000001192092896,
				1
			],
			"translation":[
				1.2219727452134066e-09,
				0.18206319212913513,
				8.114228933209233e-08
			]
		},
		{
			"children":[
				28
			],
			"name":"Bone.025",
			"rotation":[
				0.5475786328315735,
				-0.367591917514801,
				0.6040499210357666,
				0.4473896920681
			],
			"translation":[
				-3.552713678800501e-15,
				-3.67872416973114e-08,
				1.862645149230957e-08
			]
		},
		{
			"children":[
				17,
				23,
				29
			],
			"name":"Bone",
			"rotation":[
				0.0691257044672966,
				1.1892412032921129e-07,
				8.240428783778952e-09,
				0.997607946395874
			],
			"scale":[
				1,
				0.9999999403953552,
				0.9999999403953552
			],
			"translation":[
				0,
				1.6517438888549805,
				-0.0531342439353466
			]
		},
		{
			"name":"Bone.037",
			"rotation":[
				-0.37136542797088623,
				0.6017372608184814,
				-0.6017372608184814,
				0.37136542797088623
			],
			"translation":[
				0.21155300736427307,
				2.267129898071289,
				-0.10839299857616425
			]
		},
		{
			"name":"Bone.043",
			"rotation":[
				-0.2887985408306122,
				0.645442008972168,
				-0.645442008972168,
				0.2887985408306122
			],
			"translation":[
				-0.21155300736427307,
				2.267129898071289,
				-0.10839299857616425
			]
		},
		{
			"name":"Bone.031",
			"rotation":[
				-0.5111541748046875,
				0.48859119415283203,
				-0.48859119415283203,
				0.5111542344093323
			],
			"translation":[
				0.22717781364917755,
				-0.06921684741973877,
				-0.1183430477976799
			]
		},
		{
			"name":"Bone.032",
			"rotation":[
				-0.4890404939651489,
				0.5107243657112122,
				-0.5107243657112122,
				0.4890404939651489
			],
			"scale":[
				1,
				0.9999999403953552,
				1
			],
			"translation":[
				-0.22717781364917755,
				-0.06921684741973877,
				-0.1183430477976799
			]
		},
		{
			"name":"Bone.033",
			"rotation":[
				-0.5259594321250916,
				0.47261688113212585,
				-0.47261688113212585,
				0.5259594321250916
			],
			"scale":[
				0.9999999403953552,
				1,
				0.9999999403953552
			],
			"translation":[
				0.17598381638526917,
				0.8632675409317017,
				-0.028781233355402946
			]
		},
		{
			"name":"Bone.034",
			"rotation":[
				-0.467342734336853,
				0.5306512713432312,
				-0.5306512713432312,
				0.467342734336853
			],
			"translation":[
				-0.17598381638526917,
				0.8632675409317017,
				-0.028781233355402946
			]
		},
		{
			"name":"Bone.035",
			"rotation":[
				-0.6969687938690186,
				0.11930809915065765,
				-0.11930809915065765,
				0.6969688534736633
			],
			"translation":[
				0.17169694602489471,
				1.591186761856079,
				-0.0531342551112175
			]
		},
		{
			"name":"Bone.036",
			"rotation":[
				-0.11930815130472183,
				0.6969688534736633,
				-0.6969687938690186,
				0.11930815130472183
			],
			"scale":[
				0.9999999403953552,
				1,
				0.9999999403953552
			],
			"translation":[
				-0.17169694602489471,
				1.591186761856079,
				-0.0531342551112175
			]
		},
		{
			"name":"Bone.038",
			"rotation":[
				-0.22204214334487915,
				-0.6713399291038513,
				0.6713399291038513,
				0.22204214334487915
			],
			"scale":[
				0.9999999403953552,
				1,
				0.9999999403953552
			],
			"translation":[
				-0.7374470233917236,
				2.203279972076416,
				-0.10839299857616425
			]
		},
		{
			"name":"Bone.039",
			"rotation":[
				-0.5194801688194275,
				0.4797295033931732,
				-0.4797295033931732,
				0.5194801092147827
			],
			"translation":[
				0.7374470233917236,
				2.203279972076416,
				-0.10839299857616425
			]
		},
		{
			"name":"Bone.040",
			"rotation":[
				-0.4359586834907532,
				0.5567225813865662,
				-0.5567225813865662,
				0.4359586834907532
			],
			"translation":[
				1.3300600051879883,
				2.164789915084839,
				-0.10839299857616425
			]
		},
		{
			"name":"Bone.041",
			"rotation":[
				-0.24520039558410645,
				-0.6632320880889893,
				0.6632320284843445,
				0.24520039558410645
			],
			"translation":[
				-1.3300600051879883,
				2.164789915084839,
				-0.10839299857616425
			]
		},
		{
			"name":"Bone.042",
			"rotation":[
				-0.7049950361251831,
				0.05460776388645172,
				-0.05460776388645172,
				0.7049950361251831
			],
			"translation":[
				-0.0035359999164938927,
				2.6499199867248535,
				-0.04815100133419037
			]
		},
		{
			"mesh":0,
			"name":"momo",
			"skin":0
		},
		{
			"children":[
				44,
				30,
				31,
				32,
				33,
				34,
				35,
				36,
				37,
				38,
				39,
				40,
				41,
				42,
				43
			],
			"name":"Armature"
		}
	],
	"animations":[
		{
			"channels":[
				{
					"sampler":0,
					"target":{
						"node":30,
						"path":"translation"
					}
				},
				{
					"sampler":1,
					"target":{
						"node":30,
						"path":"rotation"
					}
				},
				{
					"sampler":2,
					"target":{
						"node":30,
						"path":"scale"
					}
				},
				{
					"sampler":3,
					"target":{
						"node":17,
						"path":"translation"
					}
				},
				{
					"sampler":4,
					"target":{
						"node":17,
						"path":"rotation"
					}
				},
				{
					"sampler":5,
					"target":{
						"node":17,
						"path":"scale"
					}
				},
				{
					"sampler":6,
					"target":{
						"node":16,
						"path":"translation"
					}
				},
				{
					"sampler":7,
					"target":{
						"node":16,
						"path":"rotation"
					}
				},
				{
					"sampler":8,
					"target":{
						"node":16,
						"path":"scale"
					}
				},
				{
					"sampler":9,
					"target":{
						"node":15,
						"path":"translation"
					}
				},
				{
					"sampler":10,
					"target":{
						"node":15,
						"path":"rotation"
					}
				},
				{
					"sampler":11,
					"target":{
						"node":15,
						"path":"scale"
					}
				},
				{
					"sampler":12,
					"target":{
						"node":2,
						"path":"translation"
					}
				},
				{
					"sampler":13,
					"target":{
						"node":2,
						"path":"rotation"
					}
				},
				{
					"sampler":14,
					"target":{
						"node":2,
						"path":"scale"
					}
				},
				{
					"sampler":15,
					"target":{
						"node":1,
						"path":"translation"
					}
				},
				{
					"sampler":16,
					"target":{
						"node":1,
						"path":"rotation"
					}
				},
				{
					"sampler":17,
					"target":{
						"node":1,
						"path":"scale"
					}
				},
				{
					"sampler":18,
					"target":{
						"node":0,
						"path":"translation"
					}
				},
				{
					"sampler":19,
					"target":{
						"node":0,
						"path":"rotation"
					}
				},
				{
					"sampler":20,
					"target":{
						"node":0,
						"path":"scale"
					}
				},
				{
					"sampler":21,
					"target":{
						"node":8,
						"path":"translation"
					}
				},
				{
					"sampler":22,
					"target":{
						"node":8,
						"path":"rotation"
					}
				},
				{
					"sampler":23,
					"target":{
						"node":8,
						"path":"scale"
					}
				},
				{
					"sampler":24,
					"target":{
						"node":7,
						"path":"translation"
					}
				},
				{
					"sampler":25,
					"target":{
						"node":7,
						"path":"rotation"
					}
				},
				{
					"sampler":26,
					"target":{
						"node":7,
						"path":"scale"
					}
				},
				{
					"sampler":27,
					"target":{
						"node":6,
						"path":"translation"
					}
				},
				{
					"sampler":28,
					"target":{
						"node":6,
						"path":"rotation"
					}
				},
				{
					"sampler":29,
					"target":{
						"node":6,
						"path":"scale"
					}
				},
				{
					"sampler":30,
					"target":{
						"node":5,
						"path":"translation"
					}
				},
				{
					"sampler":31,
					"target":{
						"node":5,
						"path":"rotation"
					}
				},
				{
					"sampler":32,
					"target":{
						"node":5,
						"path":"scale"
					}
				},
				{
					"sampler":33,
					"target":{
						"node":4,
						"path":"translation"
					}
				},
				{
					"sampler":34,
					"target":{
						"node":4,
						"path":"rotation"
					}
				},
				{
					"sampler":35,
					"target":{
						"node":4,
						"path":"scale"
					}
				},
				{
					"sampler":36,
					"target":{
						"node":3,
						"path":"translation"
					}
				},
				{
					"sampler":37,
					"target":{
						"node":3,
						"path":"rotation"
					}
				},
				{
					"sampler":38,
					"target":{
						"node":3,
						"path":"scale"
					}
				},
				{
					"sampler":39,
					"target":{
						"node":14,
						"path":"translation"
					}
				},
				{
					"sampler":40,
					"target":{
						"node":14,
						"path":"rotation"
					}
				},
				{
					"sampler":41,
					"target":{
						"node":14,
						"path":"scale"
					}
				},
				{
					"sampler":42,
					"target":{
						"node":13,
						"path":"translation"
					}
				},
				{
					"sampler":43,
					"target":{
						"node":13,
						"path":"rotation"
					}
				},
				{
					"sampler":44,
					"target":{
						"node":13,
						"path":"scale"
					}
				},
				{
					"sampler":45,
					"target":{
						"node":12,
						"path":"translation"
					}
				},
				{
					"sampler":46,
					"target":{
						"node":12,
						"path":"rotation"
					}
				},
				{
					"sampler":47,
					"target":{
						"node":12,
						"path":"scale"
					}
				},
				{
					"sampler":48,
					"target":{
						"node":11,
						"path":"translation"
					}
				},
				{
					"sampler":49,
					"target":{
						"node":11,
						"path":"rotation"
					}
				},
				{
					"sampler":50,
					"target":{
						"node":11,
						"path":"scale"
					}
				},
				{
					"sampler":51,
					"target":{
						"node":10,
						"path":"translation"
					}
				},
				{
					"sampler":52,
					"target":{
						"node":10,
						"path":"rotation"
					}
				},
				{
					"sampler":53,
					"target":{
						"node":10,
						"path":"scale"
					}
				},
				{
					"sampler":54,
					"target":{
						"node":9,
						"path":"translation"
					}
				},
				{
					"sampler":55,
					"target":{
						"node":9,
						"path":"rotation"
					}
				},
				{
					"sampler":56,
					"target":{
						"node":9,
						"path":"scale"
					}
				},
				{
					"sampler":57,
					"target":{
						"node":23,
						"path":"translation"
					}
				},
				{
					"sampler":58,
					"target":{
						"node":23,
						"path":"rotation"
					}
				},
				{
					"sampler":59,
					"target":{
						"node":23,
						"path":"scale"
					}
				},
				{
					"sampler":60,
					"target":{
						"node":22,
						"path":"translation"
					}
				},
				{
					"sampler":61,
					"target":{
						"node":22,
						"path":"rotation"
					}
				},
				{
					"sampler":62,
					"target":{
						"node":22,
						"path":"scale"
					}
				},
				{
					"sampler":63,
					"target":{
						"node":21,
						"path":"translation"
					}
				},
				{
					"sampler":64,
					"target":{
						"node":21,
						"path":"rotation"
					}
				},
				{
					"sampler":65,
					"target":{
						"node":21,
						"path":"scale"
					}
				},
				{
					"sampler":66,
					"target":{
						"node":20,
						"path":"translation"
					}
				},
				{
					"sampler":67,
					"target":{
						"node":20,
						"path":"rotation"
					}
				},
				{
					"sampler":68,
					"target":{
						"node":20,
						"path":"scale"
					}
				},
				{
					"sampler":69,
					"target":{
						"node":19,
						"path":"translation"
					}
				},
				{
					"sampler":70,
					"target":{
						"node":19,
						"path":"rotation"
					}
				},
				{
					"sampler":71,
					"target":{
						"node":19,
						"path":"scale"
					}
				},
				{
					"sampler":72,
					"target":{
						"node":18,
						"path":"translation"
					}
				},
				{
					"sampler":73,
					"target":{
						"node":18,
						"path":"rotation"
					}
				},
				{
					"sampler":74,
					"target":{
						"node":18,
						"path":"scale"
					}
				},
				{
					"sampler":75,
					"target":{
						"node":29,
						"path":"translation"
					}
				},
				{
					"sampler":76,
					"target":{
						"node":29,
						"path":"rotation"
					}
				},
				{
					"sampler":77,
					"target":{
						"node":29,
						"path":"scale"
					}
				},
				{
					"sampler":78,
					"target":{
						"node":28,
						"path":"translation"
					}
				},
				{
					"sampler":79,
					"target":{
						"node":28,
						"path":"rotation"
					}
				},
				{
					"sampler":80,
					"target":{
						"node":28,
						"path":"scale"
					}
				},
				{
					"sampler":81,
					"target":{
						"node":27,
						"path":"translation"
					}
				},
				{
					"sampler":82,
					"target":{
						"node":27,
						"path":"rotation"
					}
				},
				{
					"sampler":83,
					"target":{
						"node":27,
						"path":"scale"
					}
				},
				{
					"sampler":84,
					"target":{
						"node":26,
						"path":"translation"
					}
				},
				{
					"sampler":85,
					"target":{
						"node":26,
						"path":"rotation"
					}
				},
				{
					"sampler":86,
					"target":{
						"node":26,
						"path":"scale"
					}
				},
				{
					"sampler":87,
					"target":{
						"node":25,
						"path":"translation"
					}
				},
				{
					"sampler":88,
					"target":{
						"node":25,
						"path":"rotation"
					}
				},
				{
					"sampler":89,
					"target":{
						"node":25,
						"path":"scale"
					}
				},
				{
					"sampler":90,
					"target":{
						"node":24,
						"path":"translation"
					}
				},
				{
					"sampler":91,
					"target":{
						"node":24,
						"path":"rotation"
					}
				},
				{
					"sampler":92,
					"target":{
						"node":24,
						"path":"scale"
					}
				},
				{
					"sampler":93,
					"target":{
						"node":31,
						"path":"translation"
					}
				},
				{
					"sampler":94,
					"target":{
						"node":31,
						"path":"rotation"
					}
				},
				{
					"sampler":95,
					"target":{
						"node":31,
						"path":"scale"
					}
				},
				{
					"sampler":96,
					"target":{
						"node":32,
						"path":"translation"
					}
				},
				{
					"sampler":97,
					"target":{
						"node":32,
						"path":"rotation"
					}
				},
				{
					"sampler":98,
					"target":{
						"node":32,
						"path":"scale"
					}
				},
				{
					"sampler":99,
					"target":{
						"node":33,
						"path":"translation"
					}
				},
				{
					"sampler":100,
					"target":{
						"node":33,
						"path":"rotation"
					}
				},
				{
					"sampler":101,
					"target":{
						"node":33,
						"path":"scale"
					}
				},
				{
					"sampler":102,
					"target":{
						"node":34,
						"path":"translation"
					}
				},
				{
					"sampler":103,
					"target":{
						"node":34,
						"path":"rotation"
					}
				},
				{
					"sampler":104,
					"target":{
						"node":34,
						"path":"scale"
					}
				},
				{
					"sampler":105,
					"target":{
						"node":35,
						"path":"translation"
					}
				},
				{
					"sampler":106,
					"target":{
						"node":35,
						"path":"rotation"
					}
				},
				{
					"sampler":107,
					"target":{
						"node":35,
						"path":"scale"
					}
				},
				{
					"sampler":108,
					"target":{
						"node":36,
						"path":"translation"
					}
				},
				{
					"sampler":109,
					"target":{
						"node":36,
						"path":"rotation"
					}
				},
				{
					"sampler":110,
					"target":{
						"node":36,
						"path":"scale"
					}
				},
				{
					"sampler":111,
					"target":{
						"node":37,
						"path":"translation"
					}
				},
				{
					"sampler":112,
					"target":{
						"node":37,
						"path":"rotation"
					}
				},
				{
					"sampler":113,
					"target":{
						"node":37,
						"path":"scale"
					}
				},
				{
					"sampler":114,
					"target":{
						"node":38,
						"path":"translation"
					}
				},
				{
					"sampler":115,
					"target":{
						"node":38,
						"path":"rotation"
					}
				},
				{
					"sampler":116,
					"target":{
						"node":38,
						"path":"scale"
					}
				},
				{
					"sampler":117,
					"target":{
						"node":39,
						"path":"translation"
					}
				},
				{
					"sampler":118,
					"target":{
						"node":39,
						"path":"rotation"
					}
				},
				{
					"sampler":119,
					"target":{
						"node":39,
						"path":"scale"
					}
				},
				{
					"sampler":120,
					"target":{
						"node":40,
						"path":"translation"
					}
				},
				{
					"sampler":121,
					"target":{
						"node":40,
						"path":"rotation"
					}
				},
				{
					"sampler":122,
					"target":{
						"node":40,
						"path":"scale"
					}
				},
				{
					"sampler":123,
					"target":{
						"node":41,
						"path":"translation"
					}
				},
				{
					"sampler":124,
					"target":{
						"node":41,
						"path":"rotation"
					}
				},
				{
					"sampler":125,
					"target":{
						"node":41,
						"path":"scale"
					}
				},
				{
					"sampler":126,
					"target":{
						"node":42,
						"path":"translation"
					}
				},
				{
					"sampler":127,
					"target":{
						"node":42,
						"path":"rotation"
					}
				},
				{
					"sampler":128,
					"target":{
						"node":42,
						"path":"scale"
					}
				},
				{
					"sampler":129,
					"target":{
						"node":43,
						"path":"translation"
					}
				},
				{
					"sampler":130,
					"target":{
						"node":43,
						"path":"rotation"
					}
				},
				{
					"sampler":131,
					"target":{
						"node":43,
						"path":"scale"
					}
				}
			],
			"name":"Action",
			"samplers":[
				{
					"input":7,
					"interpolation":"STEP",
					"output":8
				},
				{
					"input":9,
					"interpolation":"LINEAR",
					"output":10
				},
				{
					"input":7,
					"interpolation":"STEP",
					"output":11
				},
				{
					"input":7,
					"interpolation":"LINEAR",
					"output":12
				},
				{
					"input":7,
					"interpolation":"LINEAR",
					"output":13
				},
				{
					"input":7,
					"interpolation":"STEP",
					"output":14
				},
				{
					"input":7,
					"interpolation":"LINEAR",
					"output":15
				},
				{
					"input":7,
					"interpolation":"LINEAR",
					"output":16
				},
				{
					"input":7,
					"interpolation":"STEP",
					"output":17
				},
				{
					"input":7,
					"interpolation":"LINEAR",
					"output":18
				},
				{
					"input":9,
					"interpolation":"LINEAR",
					"output":19
				},
				{
					"input":7,
					"interpolation":"STEP",
					"output":20
				},
				{
					"input":7,
					"interpolation":"LINEAR",
					"output":21
				},
				{
					"input":9,
					"interpolation":"LINEAR",
					"output":22
				},
				{
					"input":7,
					"interpolation":"STEP",
					"output":23
				},
				{
					"input":7,
					"interpolation":"LINEAR",
					"output":24
				},
				{
					"input":9,
					"interpolation":"LINEAR",
					"output":25
				},
				{
					"input":7,
					"interpolation":"STEP",
					"output":26
				},
				{
					"input":7,
					"interpolation":"LINEAR",
					"output":27
				},
				{
					"input":9,
					"interpolation":"LINEAR",
					"output":28
				},
				{
					"input":7,
					"interpolation":"STEP",
					"output":29
				},
				{
					"input":7,
					"interpolation":"LINEAR",
					"output":30
				},
				{
					"input":9,
					"interpolation":"LINEAR",
					"output":31
				},
				{
					"input":7,
					"interpolation":"LINEAR",
					"output":32
				},
				{
					"input":7,
					"interpolation":"LINEAR",
					"output":33
				},
				{
					"input":9,
					"interpolation":"LINEAR",
					"output":34
				},
				{
					"input":7,
					"interpolation":"STEP",
					"output":35
				},
				{
					"input":7,
					"interpolation":"LINEAR",
					"output":36
				},
				{
					"input":9,
					"interpolation":"LINEAR",
					"output":37
				},
				{
					"input":7,
					"interpolation":"STEP",
					"output":38
				},
				{
					"input":7,
					"interpolation":"LINEAR",
					"output":39
				},
				{
					"input":9,
					"interpolation":"LINEAR",
					"output":40
				},
				{
					"input":7,
					"interpolation":"STEP",
					"output":41
				},
				{
					"input":7,
					"interpolation":"LINEAR",
					"output":42
				},
				{
					"input":9,
					"interpolation":"LINEAR",
					"output":43
				},
				{
					"input":7,
					"interpolation":"STEP",
					"output":44
				},
				{
					"input":7,
					"interpolation":"LINEAR",
					"output":45
				},
				{
					"input":9,
					"interpolation":"LINEAR",
					"output":46
				},
				{
					"input":7,
					"interpolation":"LINEAR",
					"output":47
				},
				{
					"input":7,
					"interpolation":"LINEAR",
					"output":48
				},
				{
					"input":9,
					"interpolation":"LINEAR",
					"output":49
				},
				{
					"input":7,
					"interpolation":"LINEAR",
					"output":50
				},
				{
					"input":7,
					"interpolation":"LINEAR",
					"output":51
				},
				{
					"input":9,
					"interpolation":"LINEAR",
					"output":52
				},
				{
					"input":7,
					"interpolation":"LINEAR",
					"output":53
				},
				{
					"input":7,
					"interpolation":"LINEAR",
					"output":54
				},
				{
					"input":9,
					"interpolation":"LINEAR",
					"output":55
				},
				{
					"input":7,
					"interpolation":"STEP",
					"output":56
				},
				{
					"input":7,
					"interpolation":"LINEAR",
					"output":57
				},
				{
					"input":9,
					"interpolation":"LINEAR",
					"output":58
				},
				{
					"input":7,
					"interpolation":"STEP",
					"output":59
				},
				{
					"input":7,
					"interpolation":"LINEAR",
					"output":60
				},
				{
					"input":9,
					"interpolation":"LINEAR",
					"output":61
				},
				{
					"input":7,
					"interpolation":"LINEAR",
					"output":62
				},
				{
					"input":7,
					"interpolation":"LINEAR",
					"output":63
				},
				{
					"input":9,
					"interpolation":"LINEAR",
					"output":64
				},
				{
					"input":7,
					"interpolation":"STEP",
					"output":65
				},
				{
					"input":7,
					"interpolation":"LINEAR",
					"output":66
				},
				{
					"input":9,
					"interpolation":"LINEAR",
					"output":67
				},
				{
					"input":7,
					"interpolation":"STEP",
					"output":68
				},
				{
					"input":7,
					"interpolation":"LINEAR",
					"output":69
				},
				{
					"input":9,
					"interpolation":"LINEAR",
					"output":70
				},
				{
					"input":7,
					"interpolation":"STEP",
					"output":71
				},
				{
					"input":7,
					"interpolation":"LINEAR",
					"output":72
				},
				{
					"input":9,
					"interpolation":"LINEAR",
					"output":73
				},
				{
					"input":7,
					"interpolation":"LINEAR",
					"output":74
				},
				{
					"input":7,
					"interpolation":"LINEAR",
					"output":75
				},
				{
					"input":9,
					"interpolation":"LINEAR",
					"output":76
				},
				{
					"input":7,
					"interpolation":"STEP",
					"output":77
				},
				{
					"input":7,
					"interpolation":"LINEAR",
					"output":78
				},
				{
					"input":9,
					"interpolation":"LINEAR",
					"output":79
				},
				{
					"input":7,
					"interpolation":"STEP",
					"output":80
				},
				{
					"input":7,
					"interpolation":"LINEAR",
					"output":81
				},
				{
					"input":7,
					"interpolation":"LINEAR",
					"output":82
				},
				{
					"input":7,
					"interpolation":"STEP",
					"output":83
				},
				{
					"input":7,
					"interpolation":"LINEAR",
					"output":84
				},
				{
					"input":9,
					"interpolation":"LINEAR",
					"output":85
				},
				{
					"input":7,
					"interpolation":"STEP",
					"output":86
				},
				{
					"input":7,
					"interpolation":"LINEAR",
					"output":87
				},
				{
					"input":9,
					"interpolation":"LINEAR",
					"output":88
				},
				{
					"input":7,
					"interpolation":"STEP",
					"output":89
				},
				{
					"input":7,
					"interpolation":"LINEAR",
					"output":90
				},
				{
					"input":9,
					"interpolation":"LINEAR",
					"output":91
				},
				{
					"input":7,
					"interpolation":"LINEAR",
					"output":92
				},
				{
					"input":7,
					"interpolation":"LINEAR",
					"output":93
				},
				{
					"input":9,
					"interpolation":"LINEAR",
					"output":94
				},
				{
					"input":7,
					"interpolation":"STEP",
					"output":95
				},
				{
					"input":7,
					"interpolation":"LINEAR",
					"output":96
				},
				{
					"input":9,
					"interpolation":"LINEAR",
					"output":97
				},
				{
					"input":7,
					"interpolation":"STEP",
					"output":98
				},
				{
					"input":7,
					"interpolation":"LINEAR",
					"output":99
				},
				{
					"input":7,
					"interpolation":"LINEAR",
					"output":100
				},
				{
					"input":7,
					"interpolation":"STEP",
					"output":101
				},
				{
					"input":9,
					"interpolation":"LINEAR",
					"output":102
				},
				{
					"input":7,
					"interpolation":"STEP",
					"output":103
				},
				{
					"input":7,
					"interpolation":"STEP",
					"output":104
				},
				{
					"input":9,
					"interpolation":"LINEAR",
					"output":105
				},
				{
					"input":7,
					"interpolation":"STEP",
					"output":106
				},
				{
					"input":7,
					"interpolation":"STEP",
					"output":104
				},
				{
					"input":9,
					"interpolation":"LINEAR",
					"output":107
				},
				{
					"input":9,
					"interpolation":"LINEAR",
					"output":108
				},
				{
					"input":7,
					"interpolation":"STEP",
					"output":104
				},
				{
					"input":9,
					"interpolation":"LINEAR",
					"output":109
				},
				{
					"input":9,
					"interpolation":"LINEAR",
					"output":110
				},
				{
					"input":7,
					"interpolation":"STEP",
					"output":111
				},
				{
					"input":9,
					"interpolation":"LINEAR",
					"output":112
				},
				{
					"input":7,
					"interpolation":"STEP",
					"output":113
				},
				{
					"input":7,
					"interpolation":"STEP",
					"output":114
				},
				{
					"input":9,
					"interpolation":"LINEAR",
					"output":115
				},
				{
					"input":7,
					"interpolation":"STEP",
					"output":116
				},
				{
					"input":7,
					"interpolation":"STEP",
					"output":104
				},
				{
					"input":9,
					"interpolation":"LINEAR",
					"output":117
				},
				{
					"input":7,
					"interpolation":"STEP",
					"output":118
				},
				{
					"input":7,
					"interpolation":"STEP",
					"output":104
				},
				{
					"input":9,
					"interpolation":"LINEAR",
					"output":119
				},
				{
					"input":7,
					"interpolation":"STEP",
					"output":120
				},
				{
					"input":7,
					"interpolation":"STEP",
					"output":114
				},
				{
					"input":9,
					"interpolation":"LINEAR",
					"output":121
				},
				{
					"input":9,
					"interpolation":"LINEAR",
					"output":122
				},
				{
					"input":7,
					"interpolation":"LINEAR",
					"output":123
				},
				{
					"input":9,
					"interpolation":"LINEAR",
					"output":124
				},
				{
					"input":9,
					"interpolation":"LINEAR",
					"output":125
				},
				{
					"input":7,
					"interpolation":"STEP",
					"output":126
				},
				{
					"input":9,
					"interpolation":"LINEAR",
					"output":127
				},
				{
					"input":9,
					"interpolation":"LINEAR",
					"output":128
				},
				{
					"input":7,
					"interpolation":"LINEAR",
					"output":129
				},
				{
					"input":9,
					"interpolation":"LINEAR",
					"output":130
				},
				{
					"input":9,
					"interpolation":"LINEAR",
					"output":131
				},
				{
					"input":7,
					"interpolation":"STEP",
					"output":132
				},
				{
					"input":9,
					"interpolation":"LINEAR",
					"output":133
				},
				{
					"input":7,
					"interpolation":"LINEAR",
					"output":134
				},
				{
					"input":7,
					"interpolation":"LINEAR",
					"output":135
				}
			]
		},
		{
			"channels":[
				{
					"sampler":0,
					"target":{
						"node":30,
						"path":"translation"
					}
				},
				{
					"sampler":1,
					"target":{
						"node":30,
						"path":"rotation"
					}
				},
				{
					"sampler":2,
					"target":{
						"node":30,
						"path":"scale"
					}
				},
				{
					"sampler":3,
					"target":{
						"node":17,
						"path":"translation"
					}
				},
				{
					"sampler":4,
					"target":{
						"node":17,
						"path":"rotation"
					}
				},
				{
					"sampler":5,
					"target":{
						"node":17,
						"path":"scale"
					}
				},
				{
					"sampler":6,
					"target":{
						"node":16,
						"path":"translation"
					}
				},
				{
					"sampler":7,
					"target":{
						"node":16,
						"path":"rotation"
					}
				},
				{
					"sampler":8,
					"target":{
						"node":16,
						"path":"scale"
					}
				},
				{
					"sampler":9,
					"target":{
						"node":15,
						"path":"translation"
					}
				},
				{
					"sampler":10,
					"target":{
						"node":15,
						"path":"rotation"
					}
				},
				{
					"sampler":11,
					"target":{
						"node":15,
						"path":"scale"
					}
				},
				{
					"sampler":12,
					"target":{
						"node":2,
						"path":"translation"
					}
				},
				{
					"sampler":13,
					"target":{
						"node":2,
						"path":"rotation"
					}
				},
				{
					"sampler":14,
					"target":{
						"node":2,
						"path":"scale"
					}
				},
				{
					"sampler":15,
					"target":{
						"node":1,
						"path":"translation"
					}
				},
				{
					"sampler":16,
					"target":{
						"node":1,
						"path":"rotation"
					}
				},
				{
					"sampler":17,
					"target":{
						"node":1,
						"path":"scale"
					}
				},
				{
					"sampler":18,
					"target":{
						"node":0,
						"path":"translation"
					}
				},
				{
					"sampler":19,
					"target":{
						"node":0,
						"path":"rotation"
					}
				},
				{
					"sampler":20,
					"target":{
						"node":0,
						"path":"scale"
					}
				},
				{
					"sampler":21,
					"target":{
						"node":8,
						"path":"translation"
					}
				},
				{
					"sampler":22,
					"target":{
						"node":8,
						"path":"rotation"
					}
				},
				{
					"sampler":23,
					"target":{
						"node":8,
						"path":"scale"
					}
				},
				{
					"sampler":24,
					"target":{
						"node":7,
						"path":"translation"
					}
				},
				{
					"sampler":25,
					"target":{
						"node":7,
						"path":"rotation"
					}
				},
				{
					"sampler":26,
					"target":{
						"node":7,
						"path":"scale"
					}
				},
				{
					"sampler":27,
					"target":{
						"node":6,
						"path":"translation"
					}
				},
				{
					"sampler":28,
					"target":{
						"node":6,
						"path":"rotation"
					}
				},
				{
					"sampler":29,
					"target":{
						"node":6,
						"path":"scale"
					}
				},
				{
					"sampler":30,
					"target":{
						"node":5,
						"path":"translation"
					}
				},
				{
					"sampler":31,
					"target":{
						"node":5,
						"path":"rotation"
					}
				},
				{
					"sampler":32,
					"target":{
						"node":5,
						"path":"scale"
					}
				},
				{
					"sampler":33,
					"target":{
						"node":4,
						"path":"translation"
					}
				},
				{
					"sampler":34,
					"target":{
						"node":4,
						"path":"rotation"
					}
				},
				{
					"sampler":35,
					"target":{
						"node":4,
						"path":"scale"
					}
				},
				{
					"sampler":36,
					"target":{
						"node":3,
						"path":"translation"
					}
				},
				{
					"sampler":37,
					"target":{
						"node":3,
						"path":"rotation"
					}
				},
				{
					"sampler":38,
					"target":{
						"node":3,
						"path":"scale"
					}
				},
				{
					"sampler":39,
					"target":{
						"node":14,
						"path":"translation"
					}
				},
				{
					"sampler":40,
					"target":{
						"node":14,
						"path":"rotation"
					}
				},
				{
					"sampler":41,
					"target":{
						"node":14,
						"path":"scale"
					}
				},
				{
					"sampler":42,
					"target":{
						"node":13,
						"path":"translation"
					}
				},
				{
					"sampler":43,
					"target":{
						"node":13,
						"path":"rotation"
					}
				},
				{
					"sampler":44,
					"target":{
						"node":13,
						"path":"scale"
					}
				},
				{
					"sampler":45,
					"target":{
						"node":12,
						"path":"translation"
					}
				},
				{
					"sampler":46,
					"target":{
						"node":12,
						"path":"rotation"
					}
				},
				{
					"sampler":47,
					"target":{
						"node":12,
						"path":"scale"
					}
				},
				{
					"sampler":48,
					"target":{
						"node":11,
						"path":"translation"
					}
				},
				{
					"sampler":49,
					"target":{
						"node":11,
						"path":"rotation"
					}
				},
				{
					"sampler":50,
					"target":{
						"node":11,
						"path":"scale"
					}
				},
				{
					"sampler":51,
					"target":{
						"node":10,
						"path":"translation"
					}
				},
				{
					"sampler":52,
					"target":{
						"node":10,
						"path":"rotation"
					}
				},
				{
					"sampler":53,
					"target":{
						"node":10,
						"path":"scale"
					}
				},
				{
					"sampler":54,
					"target":{
						"node":9,
						"path":"translation"
					}
				},
				{
					"sampler":55,
					"target":{
						"node":9,
						"path":"rotation"
					}
				},
				{
					"sampler":56,
					"target":{
						"node":9,
						"path":"scale"
					}
				},
				{
					"sampler":57,
					"target":{
						"node":23,
						"path":"translation"
					}
				},
				{
					"sampler":58,
					"target":{
						"node":23,
						"path":"rotation"
					}
				},
				{
					"sampler":59,
					"target":{
						"node":23,
						"path":"scale"
					}
				},
				{
					"sampler":60,
					"target":{
						"node":22,
						"path":"translation"
					}
				},
				{
					"sampler":61,
					"target":{
						"node":22,
						"path":"rotation"
					}
				},
				{
					"sampler":62,
					"target":{
						"node":22,
						"path":"scale"
					}
				},
				{
					"sampler":63,
					"target":{
						"node":21,
						"path":"translation"
					}
				},
				{
					"sampler":64,
					"target":{
						"node":21,
						"path":"rotation"
					}
				},
				{
					"sampler":65,
					"target":{
						"node":21,
						"path":"scale"
					}
				},
				{
					"sampler":66,
					"target":{
						"node":20,
						"path":"translation"
					}
				},
				{
					"sampler":67,
					"target":{
						"node":20,
						"path":"rotation"
					}
				},
				{
					"sampler":68,
					"target":{
						"node":20,
						"path":"scale"
					}
				},
				{
					"sampler":69,
					"target":{
						"node":19,
						"path":"translation"
					}
				},
				{
					"sampler":70,
					"target":{
						"node":19,
						"path":"rotation"
					}
				},
				{
					"sampler":71,
					"target":{
						"node":19,
						"path":"scale"
					}
				},
				{
					"sampler":72,
					"target":{
						"node":18,
						"path":"translation"
					}
				},
				{
					"sampler":73,
					"target":{
						"node":18,
						"path":"rotation"
					}
				},
				{
					"sampler":74,
					"target":{
						"node":18,
						"path":"scale"
					}
				},
				{
					"sampler":75,
					"target":{
						"node":29,
						"path":"translation"
					}
				},
				{
					"sampler":76,
					"target":{
						"node":29,
						"path":"rotation"
					}
				},
				{
					"sampler":77,
					"target":{
						"node":29,
						"path":"scale"
					}
				},
				{
					"sampler":78,
					"target":{
						"node":28,
						"path":"translation"
					}
				},
				{
					"sampler":79,
					"target":{
						"node":28,
						"path":"rotation"
					}
				},
				{
					"sampler":80,
					"target":{
						"node":28,
						"path":"scale"
					}
				},
				{
					"sampler":81,
					"target":{
						"node":27,
						"path":"translation"
					}
				},
				{
					"sampler":82,
					"target":{
						"node":27,
						"path":"rotation"
					}
				},
				{
					"sampler":83,
					"target":{
						"node":27,
						"path":"scale"
					}
				},
				{
					"sampler":84,
					"target":{
						"node":26,
						"path":"translation"
					}
				},
				{
					"sampler":85,
					"target":{
						"node":26,
						"path":"rotation"
					}
				},
				{
					"sampler":86,
					"target":{
						"node":26,
						"path":"scale"
					}
				},
				{
					"sampler":87,
					"target":{
						"node":25,
						"path":"translation"
					}
				},
				{
					"sampler":88,
					"target":{
						"node":25,
						"path":"rotation"
					}
				},
				{
					"sampler":89,
					"target":{
						"node":25,
						"path":"scale"
					}
				},
				{
					"sampler":90,
					"target":{
						"node":24,
						"path":"translation"
					}
				},
				{
					"sampler":91,
					"target":{
						"node":24,
						"path":"rotation"
					}
				},
				{
					"sampler":92,
					"target":{
						"node":24,
						"path":"scale"
					}
				},
				{
					"sampler":93,
					"target":{
						"node":31,
						"path":"translation"
					}
				},
				{
					"sampler":94,
					"target":{
						"node":31,
						"path":"rotation"
					}
				},
				{
					"sampler":95,
					"target":{
						"node":31,
						"path":"scale"
					}
				},
				{
					"sampler":96,
					"target":{
						"node":32,
						"path":"translation"
					}
				},
				{
					"sampler":97,
					"target":{
						"node":32,
						"path":"rotation"
					}
				},
				{
					"sampler":98,
					"target":{
						"node":32,
						"path":"scale"
					}
				},
				{
					"sampler":99,
					"target":{
						"node":33,
						"path":"translation"
					}
				},
				{
					"sampler":100,
					"target":{
						"node":33,
						"path":"rotation"
					}
				},
				{
					"sampler":101,
					"target":{
						"node":33,
						"path":"scale"
					}
				},
				{
					"sampler":102,
					"target":{
						"node":34,
						"path":"translation"
					}
				},
				{
					"sampler":103,
					"target":{
						"node":34,
						"path":"rotation"
					}
				},
				{
					"sampler":104,
					"target":{
						"node":34,
						"path":"scale"
					}
				},
				{
					"sampler":105,
					"target":{
						"node":35,
						"path":"translation"
					}
				},
				{
					"sampler":106,
					"target":{
						"node":35,
						"path":"rotation"
					}
				},
				{
					"sampler":107,
					"target":{
						"node":35,
						"path":"scale"
					}
				},
				{
					"sampler":108,
					"target":{
						"node":36,
						"path":"translation"
					}
				},
				{
					"sampler":109,
					"target":{
						"node":36,
						"path":"rotation"
					}
				},
				{
					"sampler":110,
					"target":{
						"node":36,
						"path":"scale"
					}
				},
				{
					"sampler":111,
					"target":{
						"node":37,
						"path":"translation"
					}
				},
				{
					"sampler":112,
					"target":{
						"node":37,
						"path":"rotation"
					}
				},
				{
					"sampler":113,
					"target":{
						"node":37,
						"path":"scale"
					}
				},
				{
					"sampler":114,
					"target":{
						"node":38,
						"path":"translation"
					}
				},
				{
					"sampler":115,
					"target":{
						"node":38,
						"path":"rotation"
					}
				},
				{
					"sampler":116,
					"target":{
						"node":38,
						"path":"scale"
					}
				},
				{
					"sampler":117,
					"target":{
						"node":39,
						"path":"translation"
					}
				},
				{
					"sampler":118,
					"target":{
						"node":39,
						"path":"rotation"
					}
				},
				{
					"sampler":119,
					"target":{
						"node":39,
						"path":"scale"
					}
				},
				{
					"sampler":120,
					"target":{
						"node":40,
						"path":"translation"
					}
				},
				{
					"sampler":121,
					"target":{
						"node":40,
						"path":"rotation"
					}
				},
				{
					"sampler":122,
					"target":{
						"node":40,
						"path":"scale"
					}
				},
				{
					"sampler":123,
					"target":{
						"node":41,
						"path":"translation"
					}
				},
				{
					"sampler":124,
					"target":{
						"node":41,
						"path":"rotation"
					}
				},
				{
					"sampler":125,
					"target":{
						"node":41,
						"path":"scale"
					}
				},
				{
					"sampler":126,
					"target":{
						"node":42,
						"path":"translation"
					}
				},
				{
					"sampler":127,
					"target":{
						"node":42,
						"path":"rotation"
					}
				},
				{
					"sampler":128,
					"target":{
						"node":42,
						"path":"scale"
					}
				},
				{
					"sampler":129,
					"target":{
						"node":43,
						"path":"translation"
					}
				},
				{
					"sampler":130,
					"target":{
						"node":43,
						"path":"rotation"
					}
				},
				{
					"sampler":131,
					"target":{
						"node":43,
						"path":"scale"
					}
				}
			],
			"name":"ArmatureAction",
			"samplers":[
				{
					"input":7,
					"interpolation":"STEP",
					"output":136
				},
				{
					"input":7,
					"interpolation":"STEP",
					"output":137
				},
				{
					"input":7,
					"interpolation":"STEP",
					"output":138
				},
				{
					"input":7,
					"interpolation":"STEP",
					"output":139
				},
				{
					"input":7,
					"interpolation":"STEP",
					"output":140
				},
				{
					"input":7,
					"interpolation":"STEP",
					"output":138
				},
				{
					"input":7,
					"interpolation":"STEP",
					"output":141
				},
				{
					"input":7,
					"interpolation":"STEP",
					"output":142
				},
				{
					"input":7,
					"interpolation":"STEP",
					"output":143
				},
				{
					"input":7,
					"interpolation":"STEP",
					"output":144
				},
				{
					"input":7,
					"interpolation":"STEP",
					"output":145
				},
				{
					"input":7,
					"interpolation":"STEP",
					"output":146
				},
				{
					"input":7,
					"interpolation":"STEP",
					"output":147
				},
				{
					"input":7,
					"interpolation":"STEP",
					"output":148
				},
				{
					"input":7,
					"interpolation":"STEP",
					"output":149
				},
				{
					"input":7,
					"interpolation":"STEP",
					"output":150
				},
				{
					"input":7,
					"interpolation":"STEP",
					"output":151
				},
				{
					"input":7,
					"interpolation":"STEP",
					"output":104
				},
				{
					"input":7,
					"interpolation":"STEP",
					"output":152
				},
				{
					"input":7,
					"interpolation":"STEP",
					"output":153
				},
				{
					"input":7,
					"interpolation":"STEP",
					"output":104
				},
				{
					"input":7,
					"interpolation":"STEP",
					"output":154
				},
				{
					"input":7,
					"interpolation":"STEP",
					"output":155
				},
				{
					"input":7,
					"interpolation":"STEP",
					"output":156
				},
				{
					"input":7,
					"interpolation":"STEP",
					"output":157
				},
				{
					"input":7,
					"interpolation":"STEP",
					"output":158
				},
				{
					"input":7,
					"interpolation":"STEP",
					"output":156
				},
				{
					"input":7,
					"interpolation":"STEP",
					"output":159
				},
				{
					"input":7,
					"interpolation":"STEP",
					"output":160
				},
				{
					"input":7,
					"interpolation":"STEP",
					"output":11
				},
				{
					"input":7,
					"interpolation":"STEP",
					"output":161
				},
				{
					"input":7,
					"interpolation":"STEP",
					"output":162
				},
				{
					"input":7,
					"interpolation":"STEP",
					"output":163
				},
				{
					"input":7,
					"interpolation":"STEP",
					"output":164
				},
				{
					"input":7,
					"interpolation":"STEP",
					"output":165
				},
				{
					"input":7,
					"interpolation":"STEP",
					"output":166
				},
				{
					"input":7,
					"interpolation":"STEP",
					"output":167
				},
				{
					"input":7,
					"interpolation":"STEP",
					"output":168
				},
				{
					"input":7,
					"interpolation":"STEP",
					"output":104
				},
				{
					"input":7,
					"interpolation":"STEP",
					"output":169
				},
				{
					"input":7,
					"interpolation":"STEP",
					"output":170
				},
				{
					"input":7,
					"interpolation":"STEP",
					"output":171
				},
				{
					"input":7,
					"interpolation":"STEP",
					"output":172
				},
				{
					"input":7,
					"interpolation":"STEP",
					"output":173
				},
				{
					"input":7,
					"interpolation":"STEP",
					"output":174
				},
				{
					"input":7,
					"interpolation":"STEP",
					"output":175
				},
				{
					"input":7,
					"interpolation":"STEP",
					"output":176
				},
				{
					"input":7,
					"interpolation":"STEP",
					"output":177
				},
				{
					"input":7,
					"interpolation":"STEP",
					"output":178
				},
				{
					"input":7,
					"interpolation":"STEP",
					"output":179
				},
				{
					"input":7,
					"interpolation":"STEP",
					"output":180
				},
				{
					"input":7,
					"interpolation":"STEP",
					"output":181
				},
				{
					"input":7,
					"interpolation":"STEP",
					"output":182
				},
				{
					"input":7,
					"interpolation":"STEP",
					"output":183
				},
				{
					"input":7,
					"interpolation":"STEP",
					"output":184
				},
				{
					"input":7,
					"interpolation":"STEP",
					"output":185
				},
				{
					"input":7,
					"interpolation":"STEP",
					"output":186
				},
				{
					"input":7,
					"interpolation":"STEP",
					"output":187
				},
				{
					"input":7,
					"interpolation":"STEP",
					"output":188
				},
				{
					"input":7,
					"interpolation":"STEP",
					"output":189
				},
				{
					"input":7,
					"interpolation":"STEP",
					"output":190
				},
				{
					"input":7,
					"interpolation":"STEP",
					"output":191
				},
				{
					"input":7,
					"interpolation":"STEP",
					"output":186
				},
				{
					"input":7,
					"interpolation":"STEP",
					"output":192
				},
				{
					"input":7,
					"interpolation":"STEP",
					"output":193
				},
				{
					"input":7,
					"interpolation":"STEP",
					"output":194
				},
				{
					"input":7,
					"interpolation":"STEP",
					"output":195
				},
				{
					"input":7,
					"interpolation":"STEP",
					"output":196
				},
				{
					"input":7,
					"interpolation":"STEP",
					"output":197
				},
				{
					"input":7,
					"interpolation":"STEP",
					"output":198
				},
				{
					"input":7,
					"interpolation":"STEP",
					"output":199
				},
				{
					"input":7,
					"interpolation":"STEP",
					"output":104
				},
				{
					"input":7,
					"interpolation":"STEP",
					"output":200
				},
				{
					"input":7,
					"interpolation":"STEP",
					"output":201
				},
				{
					"input":7,
					"interpolation":"STEP",
					"output":202
				},
				{
					"input":7,
					"interpolation":"STEP",
					"output":203
				},
				{
					"input":7,
					"interpolation":"STEP",
					"output":204
				},
				{
					"input":7,
					"interpolation":"STEP",
					"output":104
				},
				{
					"input":7,
					"interpolation":"STEP",
					"output":205
				},
				{
					"input":7,
					"interpolation":"STEP",
					"output":206
				},
				{
					"input":7,
					"interpolation":"STEP",
					"output":177
				},
				{
					"input":7,
					"interpolation":"STEP",
					"output":207
				},
				{
					"input":7,
					"interpolation":"STEP",
					"output":208
				},
				{
					"input":7,
					"interpolation":"STEP",
					"output":209
				},
				{
					"input":7,
					"interpolation":"STEP",
					"output":210
				},
				{
					"input":7,
					"interpolation":"STEP",
					"output":211
				},
				{
					"input":7,
					"interpolation":"STEP",
					"output":212
				},
				{
					"input":7,
					"interpolation":"STEP",
					"output":213
				},
				{
					"input":7,
					"interpolation":"STEP",
					"output":214
				},
				{
					"input":7,
					"interpolation":"STEP",
					"output":183
				},
				{
					"input":7,
					"interpolation":"STEP",
					"output":215
				},
				{
					"input":7,
					"interpolation":"STEP",
					"output":216
				},
				{
					"input":7,
					"interpolation":"STEP",
					"output":217
				},
				{
					"input":9,
					"interpolation":"LINEAR",
					"output":218
				},
				{
					"input":7,
					"interpolation":"STEP",
					"output":103
				},
				{
					"input":7,
					"interpolation":"STEP",
					"output":104
				},
				{
					"input":9,
					"interpolation":"LINEAR",
					"output":219
				},
				{
					"input":7,
					"interpolation":"STEP",
					"output":106
				},
				{
					"input":7,
					"interpolation":"STEP",
					"output":104
				},
				{
					"input":9,
					"interpolation":"LINEAR",
					"output":220
				},
				{
					"input":9,
					"interpolation":"LINEAR",
					"output":221
				},
				{
					"input":7,
					"interpolation":"STEP",
					"output":104
				},
				{
					"input":9,
					"interpolation":"LINEAR",
					"output":222
				},
				{
					"input":9,
					"interpolation":"LINEAR",
					"output":223
				},
				{
					"input":7,
					"interpolation":"STEP",
					"output":111
				},
				{
					"input":9,
					"interpolation":"LINEAR",
					"output":224
				},
				{
					"input":7,
					"interpolation":"STEP",
					"output":113
				},
				{
					"input":7,
					"interpolation":"STEP",
					"output":225
				},
				{
					"input":9,
					"interpolation":"LINEAR",
					"output":226
				},
				{
					"input":7,
					"interpolation":"STEP",
					"output":116
				},
				{
					"input":7,
					"interpolation":"STEP",
					"output":104
				},
				{
					"input":9,
					"interpolation":"LINEAR",
					"output":227
				},
				{
					"input":7,
					"interpolation":"STEP",
					"output":118
				},
				{
					"input":7,
					"interpolation":"STEP",
					"output":104
				},
				{
					"input":9,
					"interpolation":"LINEAR",
					"output":228
				},
				{
					"input":7,
					"interpolation":"STEP",
					"output":120
				},
				{
					"input":7,
					"interpolation":"STEP",
					"output":225
				},
				{
					"input":9,
					"interpolation":"LINEAR",
					"output":229
				},
				{
					"input":9,
					"interpolation":"LINEAR",
					"output":230
				},
				{
					"input":7,
					"interpolation":"STEP",
					"output":163
				},
				{
					"input":9,
					"interpolation":"LINEAR",
					"output":231
				},
				{
					"input":9,
					"interpolation":"LINEAR",
					"output":232
				},
				{
					"input":7,
					"interpolation":"STEP",
					"output":194
				},
				{
					"input":9,
					"interpolation":"LINEAR",
					"output":233
				},
				{
					"input":9,
					"interpolation":"LINEAR",
					"output":234
				},
				{
					"input":7,
					"interpolation":"STEP",
					"output":235
				},
				{
					"input":9,
					"interpolation":"LINEAR",
					"output":236
				},
				{
					"input":9,
					"interpolation":"LINEAR",
					"output":237
				},
				{
					"input":7,
					"interpolation":"STEP",
					"output":238
				},
				{
					"input":9,
					"interpolation":"LINEAR",
					"output":239
				},
				{
					"input":7,
					"interpolation":"STEP",
					"output":240
				},
				{
					"input":7,
					"interpolation":"STEP",
					"output":241
				}
			]
		}
	],
	"meshes":[
		{
			"name":"Cylinder.001",
			"primitives":[
				{
					"attributes":{
						"POSITION":0,
						"NORMAL":1,
						"TEXCOORD_0":2,
						"JOINTS_0":3,
						"WEIGHTS_0":4
					},
					"indices":5
				}
			]
		}
	],
	"skins":[
		{
			"inverseBindMatrices":6,
			"joints":[
				30,
				17,
				16,
				15,
				2,
				1,
				0,
				8,
				7,
				6,
				5,
				4,
				3,
				14,
				13,
				12,
				11,
				10,
				9,
				23,
				22,
				21,
				20,
				19,
				18,
				29,
				28,
				27,
				26,
				25,
				24,
				31,
				32,
				33,
				34,
				35,
				36,
				37,
				38,
				39,
				40,
				41,
				42,
				43
			],
			"name":"Armature"
		}
	],
	"accessors":[
		{
			"bufferView":0,
			"componentType":5126,
			"count":2552,
			"max":[
				1.3745485544204712,
				2.8447906970977783,
				0.21780575811862946
			],
			"min":[
				-1.3745485544204712,
				-0.17727208137512207,
				-0.3078399896621704
			],
			"type":"VEC3"
		},
		{
			"bufferView":1,
			"componentType":5126,
			"count":2552,
			"type":"VEC3"
		},
		{
			"bufferView":2,
			"componentType":5126,
			"count":2552,
			"type":"VEC2"
		},
		{
			"bufferView":3,
			"componentType":5121,
			"count":2552,
			"type":"VEC4"
		},
		{
			"bufferView":4,
			"componentType":5126,
			"count":2552,
			"type":"VEC4"
		},
		{
			"bufferView":5,
			"componentType":5123,
			"count":7812,
			"type":"SCALAR"
		},
		{
			"bufferView":6,
			"componentType":5126,
			"count":44,
			"type":"MAT4"
		},
		{
			"bufferView":7,
			"componentType":5126,
			"count":2,
			"max":[
				1
			],
			"min":[
				0
			],
			"type":"SCALAR"
		},
		{
			"bufferView":8,
			"componentType":5126,
			"count":2,
			"type":"VEC3"
		},
		{
			"bufferView":9,
			"componentType":5126,
			"count":25,
			"max":[
				1
			],
			"min":[
				0
			],
			"type":"SCALAR"
		},
		{
			"bufferView":10,
			"componentType":5126,
			"count":25,
			"type":"VEC4"
		},
		{
			"bufferView":11,
			"componentType":5126,
			"count":2,
			"type":"VEC3"
		},
		{
			"bufferView":12,
			"componentType":5126,
			"count":2,
			"type":"VEC3"
		},
		{
			"bufferView":13,
			"componentType":5126,
			"count":2,
			"type":"VEC4"
		},
		{
			"bufferView":14,
			"componentType":5126,
			"count":2,
			"type":"VEC3"
		},
		{
			"bufferView":15,
			"componentType":5126,
			"count":2,
			"type":"VEC3"
		},
		{
			"bufferView":16,
			"componentType":5126,
			"count":2,
			"type":"VEC4"
		},
		{
			"bufferView":17,
			"componentType":5126,
			"count":2,
			"type":"VEC3"
		},
		{
			"bufferView":18,
			"componentType":5126,
			"count":2,
			"type":"VEC3"
		},
		{
			"bufferView":19,
			"componentType":5126,
			"count":25,
			"type":"VEC4"
		},
		{
			"bufferView":20,
			"componentType":5126,
			"count":2,
			"type":"VEC3"
		},
		{
			"bufferView":21,
			"componentType":5126,
			"count":2,
			"type":"VEC3"
		},
		{
			"bufferView":22,
			"componentType":5126,
			"count":25,
			"type":"VEC4"
		},
		{
			"bufferView":23,
			"componentType":5126,
			"count":2,
			"type":"VEC3"
		},
		{
			"bufferView":24,
			"componentType":5126,
			"count":2,
			"type":"VEC3"
		},
		{
			"bufferView":25,
			"componentType":5126,
			"count":25,
			"type":"VEC4"
		},
		{
			"bufferView":26,
			"componentType":5126,
			"count":2,
			"type":"VEC3"
		},
		{
			"bufferView":27,
			"componentType":5126,
			"count":2,
			"type":"VEC3"
		},
		{
			"bufferView":28,
			"componentType":5126,
			"count":25,
			"type":"VEC4"
		},
		{
			"bufferView":29,
			"componentType":5126,
			"count":2,
			"type":"VEC3"
		},
		{
			"bufferView":30,
			"componentType":5126,
			"count":2,
			"type":"VEC3"
		},
		{
			"bufferView":31,
			"componentType":5126,
			"count":25,
			"type":"VEC4"
		},
		{
			"bufferView":32,
			"componentType":5126,
			"count":2,
			"type":"VEC3"
		},
		{
			"bufferView":33,
			"componentType":5126,
			"count":2,
			"type":"VEC3"
		},
		{
			"bufferView":34,
			"componentType":5126,
			"count":25,
			"type":"VEC4"
		},
		{
			"bufferView":35,
			"componentType":5126,
			"count":2,
			"type":"VEC3"
		},
		{
			"bufferView":36,
			"componentType":5126,
			"count":2,
			"type":"VEC3"
		},
		{
			"bufferView":37,
			"componentType":5126,
			"count":25,
			"type":"VEC4"
		},
		{
			"bufferView":38,
			"componentType":5126,
			"count":2,
			"type":"VEC3"
		},
		{
			"bufferView":39,
			"componentType":5126,
			"count":2,
			"type":"VEC3"
		},
		{
			"bufferView":40,
			"componentType":5126,
			"count":25,
			"type":"VEC4"
		},
		{
			"bufferView":41,
			"componentType":5126,
			"count":2,
			"type":"VEC3"
		},
		{
			"bufferView":42,
			"componentType":5126,
			"count":2,
			"type":"VEC3"
		},
		{
			"bufferView":43,
			"componentType":5126,
			"count":25,
			"type":"VEC4"
		},
		{
			"bufferView":44,
			"componentType":5126,
			"count":2,
			"type":"VEC3"
		},
		{
			"bufferView":45,
			"componentType":5126,
			"count":2,
			"type":"VEC3"
		},
		{
			"bufferView":46,
			"componentType":5126,
			"count":25,
			"type":"VEC4"
		},
		{
			"bufferView":47,
			"componentType":5126,
			"count":2,
			"type":"VEC3"
		},
		{
			"bufferView":48,
			"componentType":5126,
			"count":2,
			"type":"VEC3"
		},
		{
			"bufferView":49,
			"componentType":5126,
			"count":25,
			"type":"VEC4"
		},
		{
			"bufferView":50,
			"componentType":5126,
			"count":2,
			"type":"VEC3"
		},
		{
			"bufferView":51,
			"componentType":5126,
			"count":2,
			"type":"VEC3"
		},
		{
			"bufferView":52,
			"componentType":5126,
			"count":25,
			"type":"VEC4"
		},
		{
			"bufferView":53,
			"componentType":5126,
			"count":2,
			"type":"VEC3"
		},
		{
			"bufferView":54,
			"componentType":5126,
			"count":2,
			"type":"VEC3"
		},
		{
			"bufferView":55,
			"componentType":5126,
			"count":25,
			"type":"VEC4"
		},
		{
			"bufferView":56,
			"componentType":5126,
			"count":2,
			"type":"VEC3"
		},
		{
			"bufferView":57,
			"componentType":5126,
			"count":2,
			"type":"VEC3"
		},
		{
			"bufferView":58,
			"componentType":5126,
			"count":25,
			"type":"VEC4"
		},
		{
			"bufferView":59,
			"componentType":5126,
			"count":2,
			"type":"VEC3"
		},
		{
			"bufferView":60,
			"componentType":5126,
			"count":2,
			"type":"VEC3"
		},
		{
			"bufferView":61,
			"componentType":5126,
			"count":25,
			"type":"VEC4"
		},
		{
			"bufferView":62,
			"componentType":5126,
			"count":2,
			"type":"VEC3"
		},
		{
			"bufferView":63,
			"componentType":5126,
			"count":2,
			"type":"VEC3"
		},
		{
			"bufferView":64,
			"componentType":5126,
			"count":25,
			"type":"VEC4"
		},
		{
			"bufferView":65,
			"componentType":5126,
			"count":2,
			"type":"VEC3"
		},
		{
			"bufferView":66,
			"componentType":5126,
			"count":2,
			"type":"VEC3"
		},
		{
			"bufferView":67,
			"componentType":5126,
			"count":25,
			"type":"VEC4"
		},
		{
			"bufferView":68,
			"componentType":5126,
			"count":2,
			"type":"VEC3"
		},
		{
			"bufferView":69,
			"componentType":5126,
			"count":2,
			"type":"VEC3"
		},
		{
			"bufferView":70,
			"componentType":5126,
			"count":25,
			"type":"VEC4"
		},
		{
			"bufferView":71,
			"componentType":5126,
			"count":2,
			"type":"VEC3"
		},
		{
			"bufferView":72,
			"componentType":5126,
			"count":2,
			"type":"VEC3"
		},
		{
			"bufferView":73,
			"componentType":5126,
			"count":25,
			"type":"VEC4"
		},
		{
			"bufferView":74,
			"componentType":5126,
			"count":2,
			"type":"VEC3"
		},
		{
			"bufferView":75,
			"componentType":5126,
			"count":2,
			"type":"VEC3"
		},
		{
			"bufferView":76,
			"componentType":5126,
			"count":25,
			"type":"VEC4"
		},
		{
			"bufferView":77,
			"componentType":5126,
			"count":2,
			"type":"VEC3"
		},
		{
			"bufferView":78,
			"componentType":5126,
			"count":2,
			"type":"VEC3"
		},
		{
			"bufferView":79,
			"componentType":5126,
			"count":25,
			"type":"VEC4"
		},
		{
			"bufferView":80,
			"componentType":5126,
			"count":2,
			"type":"VEC3"
		},
		{
			"bufferView":81,
			"componentType":5126,
			"count":2,
			"type":"VEC3"
		},
		{
			"bufferView":82,
			"componentType":5126,
			"count":2,
			"type":"VEC4"
		},
		{
			"bufferView":83,
			"componentType":5126,
			"count":2,
			"type":"VEC3"
		},
		{
			"bufferView":84,
			"componentType":5126,
			"count":2,
			"type":"VEC3"
		},
		{
			"bufferView":85,
			"componentType":5126,
			"count":25,
			"type":"VEC4"
		},
		{
			"bufferView":86,
			"componentType":5126,
			"count":2,
			"type":"VEC3"
		},
		{
			"bufferView":87,
			"componentType":5126,
			"count":2,
			"type":"VEC3"
		},
		{
			"bufferView":88,
			"componentType":5126,
			"count":25,
			"type":"VEC4"
		},
		{
			"bufferView":89,
			"componentType":5126,
			"count":2,
			"type":"VEC3"
		},
		{
			"bufferView":90,
			"componentType":5126,
			"count":2,
			"type":"VEC3"
		},
		{
			"bufferView":91,
			"componentType":5126,
			"count":25,
			"type":"VEC4"
		},
		{
			"bufferView":92,
			"componentType":5126,
			"count":2,
			"type":"VEC3"
		},
		{
			"bufferView":93,
			"componentType":5126,
			"count":2,
			"type":"VEC3"
		},
		{
			"bufferView":94,
			"componentType":5126,
			"count":25,
			"type":"VEC4"
		},
		{
			"bufferView":95,
			"componentType":5126,
			"count":2,
			"type":"VEC3"
		},
		{
			"bufferView":96,
			"componentType":5126,
			"count":2,
			"type":"VEC3"
		},
		{
			"bufferView":97,
			"componentType":5126,
			"count":25,
			"type":"VEC4"
		},
		{
			"bufferView":98,
			"componentType":5126,
			"count":2,
			"type":"VEC3"
		},
		{
			"bufferView":99,
			"componentType":5126,
			"count":2,
			"type":"VEC3"
		},
		{
			"bufferView":100,
			"componentType":5126,
			"count":2,
			"type":"VEC4"
		},
		{
			"bufferView":101,
			"componentType":5126,
			"count":2,
			"type":"VEC3"
		},
		{
			"bufferView":102,
			"componentType":5126,
			"count":25,
			"type":"VEC3"
		},
		{
			"bufferView":103,
			"componentType":5126,
			"count":2,
			"type":"VEC4"
		},
		{
			"bufferView":104,
			"componentType":5126,
			"count":2,
			"type":"VEC3"
		},
		{
			"bufferView":105,
			"componentType":5126,
			"count":25,
			"type":"VEC3"
		},
		{
			"bufferView":106,
			"componentType":5126,
			"count":2,
			"type":"VEC4"
		},
		{
			"bufferView":107,
			"componentType":5126,
			"count":25,
			"type":"VEC3"
		},
		{
			"bufferView":108,
			"componentType":5126,
			"count":25,
			"type":"VEC4"
		},
		{
			"bufferView":109,
			"componentType":5126,
			"count":25,
			"type":"VEC3"
		},
		{
			"bufferView":110,
			"componentType":5126,
			"count":25,
			"type":"VEC4"
		},
		{
			"bufferView":111,
			"componentType":5126,
			"count":2,
			"type":"VEC3"
		},
		{
			"bufferView":112,
			"componentType":5126,
			"count":25,
			"type":"VEC3"
		},
		{
			"bufferView":113,
			"componentType":5126,
			"count":2,
			"type":"VEC4"
		},
		{
			"bufferView":114,
			"componentType":5126,
			"count":2,
			"type":"VEC3"
		},
		{
			"bufferView":115,
			"componentType":5126,
			"count":25,
			"type":"VEC3"
		},
		{
			"bufferView":116,
			"componentType":5126,
			"count":2,
			"type":"VEC4"
		},
		{
			"bufferView":117,
			"componentType":5126,
			"count":25,
			"type":"VEC3"
		},
		{
			"bufferView":118,
			"componentType":5126,
			"count":2,
			"type":"VEC4"
		},
		{
			"bufferView":119,
			"componentType":5126,
			"count":25,
			"type":"VEC3"
		},
		{
			"bufferView":120,
			"componentType":5126,
			"count":2,
			"type":"VEC4"
		},
		{
			"bufferView":121,
			"componentType":5126,
			"count":25,
			"type":"VEC3"
		},
		{
			"bufferView":122,
			"componentType":5126,
			"count":25,
			"type":"VEC4"
		},
		{
			"bufferView":123,
			"componentType":5126,
			"count":2,
			"type":"VEC3"
		},
		{
			"bufferView":124,
			"componentType":5126,
			"count":25,
			"type":"VEC3"
		},
		{
			"bufferView":125,
			"componentType":5126,
			"count":25,
			"type":"VEC4"
		},
		{
			"bufferView":126,
			"componentType":5126,
			"count":2,
			"type":"VEC3"
		},
		{
			"bufferView":127,
			"componentType":5126,
			"count":25,
			"type":"VEC3"
		},
		{
			"bufferView":128,
			"componentType":5126,
			"count":25,
			"type":"VEC4"
		},
		{
			"bufferView":129,
			"componentType":5126,
			"count":2,
			"type":"VEC3"
		},
		{
			"bufferView":130,
			"componentType":5126,
			"count":25,
			"type":"VEC3"
		},
		{
			"bufferView":131,
			"componentType":5126,
			"count":25,
			"type":"VEC4"
		},
		{
			"bufferView":132,
			"componentType":5126,
			"count":2,
			"type":"VEC3"
		},
		{
			"bufferView":133,
			"componentType":5126,
			"count":25,
			"type":"VEC3"
		},
		{
			"bufferView":134,
			"componentType":5126,
			"count":2,
			"type":"VEC4"
		},
		{
			"bufferView":135,
			"componentType":5126,
			"count":2,
			"type":"VEC3"
		},
		{
			"bufferView":136,
			"componentType":5126,
			"count":2,
			"type":"VEC3"
		},
		{
			"bufferView":137,
			"componentType":5126,
			"count":2,
			"type":"VEC4"
		},
		{
			"bufferView":138,
			"componentType":5126,
			"count":2,
			"type":"VEC3"
		},
		{
			"bufferView":139,
			"componentType":5126,
			"count":2,
			"type":"VEC3"
		},
		{
			"bufferView":140,
			"componentType":5126,
			"count":2,
			"type":"VEC4"
		},
		{
			"bufferView":141,
			"componentType":5126,
			"count":2,
			"type":"VEC3"
		},
		{
			"bufferView":142,
			"componentType":5126,
			"count":2,
			"type":"VEC4"
		},
		{
			"bufferView":143,
			"componentType":5126,
			"count":2,
			"type":"VEC3"
		},
		{
			"bufferView":144,
			"componentType":5126,
			"count":2,
			"type":"VEC3"
		},
		{
			"bufferView":145,
			"componentType":5126,
			"count":2,
			"type":"VEC4"
		},
		{
			"bufferView":146,
			"componentType":5126,
			"count":2,
			"type":"VEC3"
		},
		{
			"bufferView":147,
			"componentType":5126,
			"count":2,
			"type":"VEC3"
		},
		{
			"bufferView":148,
			"componentType":5126,
			"count":2,
			"type":"VEC4"
		},
		{
			"bufferView":149,
			"componentType":5126,
			"count":2,
			"type":"VEC3"
		},
		{
			"bufferView":150,
			"componentType":5126,
			"count":2,
			"type":"VEC3"
		},
		{
			"bufferView":151,
			"componentType":5126,
			"count":2,
			"type":"VEC4"
		},
		{
			"bufferView":152,
			"componentType":5126,
			"count":2,
			"type":"VEC3"
		},
		{
			"bufferView":153,
			"componentType":5126,
			"count":2,
			"type":"VEC4"
		},
		{
			"bufferView":154,
			"componentType":5126,
			"count":2,
			"type":"VEC3"
		},
		{
			"bufferView":155,
			"componentType":5126,
			"count":2,
			"type":"VEC4"
		},
		{
			"bufferView":156,
			"componentType":5126,
			"count":2,
			"type":"VEC3"
		},
		{
			"bufferView":157,
			"componentType":5126,
			"count":2,
			"type":"VEC3"
		},
		{
			"bufferView":158,
			"componentType":5126,
			"count":2,
			"type":"VEC4"
		},
		{
			"bufferView":159,
			"componentType":5126,
			"count":2,
			"type":"VEC3"
		},
		{
			"bufferView":160,
			"componentType":5126,
			"count":2,
			"type":"VEC4"
		},
		{
			"bufferView":161,
			"componentType":5126,
			"count":2,
			"type":"VEC3"
		},
		{
			"bufferView":162,
			"componentType":5126,
			"count":2,
			"type":"VEC4"
		},
		{
			"bufferView":163,
			"componentType":5126,
			"count":2,
			"type":"VEC3"
		},
		{
			"bufferView":164,
			"componentType":5126,
			"count":2,
			"type":"VEC3"
		},
		{
			"bufferView":165,
			"componentType":5126,
			"count":2,
			"type":"VEC4"
		},
		{
			"bufferView":166,
			"componentType":5126,
			"count":2,
			"type":"VEC3"
		},
		{
			"bufferView":167,
			"componentType":5126,
			"count":2,
			"type":"VEC3"
		},
		{
			"bufferView":168,
			"componentType":5126,
			"count":2,
			"type":"VEC4"
		},
		{
			"bufferView":169,
			"componentType":5126,
			"count":2,
			"type":"VEC3"
		},
		{
			"bufferView":170,
			"componentType":5126,
			"count":2,
			"type":"VEC4"
		},
		{
			"bufferView":171,
			"componentType":5126,
			"count":2,
			"type":"VEC3"
		},
		{
			"bufferView":172,
			"componentType":5126,
			"count":2,
			"type":"VEC3"
		},
		{
			"bufferView":173,
			"componentType":5126,
			"count":2,
			"type":"VEC4"
		},
		{
			"bufferView":174,
			"componentType":5126,
			"count":2,
			"type":"VEC3"
		},
		{
			"bufferView":175,
			"componentType":5126,
			"count":2,
			"type":"VEC3"
		},
		{
			"bufferView":176,
			"componentType":5126,
			"count":2,
			"type":"VEC4"
		},
		{
			"bufferView":177,
			"componentType":5126,
			"count":2,
			"type":"VEC3"
		},
		{
			"bufferView":178,
			"componentType":5126,
			"count":2,
			"type":"VEC3"
		},
		{
			"bufferView":179,
			"componentType":5126,
			"count":2,
			"type":"VEC4"
		},
		{
			"bufferView":180,
			"componentType":5126,
			"count":2,
			"type":"VEC3"
		},
		{
			"bufferView":181,
			"componentType":5126,
			"count":2,
			"type":"VEC3"
		},
		{
			"bufferView":182,
			"componentType":5126,
			"count":2,
			"type":"VEC4"
		},
		{
			"bufferView":183,
			"componentType":5126,
			"count":2,
			"type":"VEC3"
		},
		{
			"bufferView":184,
			"componentType":5126,
			"count":2,
			"type":"VEC3"
		},
		{
			"bufferView":185,
			"componentType":5126,
			"count":2,
			"type":"VEC4"
		},
		{
			"bufferView":186,
			"componentType":5126,
			"count":2,
			"type":"VEC3"
		},
		{
			"bufferView":187,
			"componentType":5126,
			"count":2,
			"type":"VEC3"
		},
		{
			"bufferView":188,
			"componentType":5126,
			"count":2,
			"type":"VEC4"
		},
		{
			"bufferView":189,
			"componentType":5126,
			"count":2,
			"type":"VEC3"
		},
		{
			"bufferView":190,
			"componentType":5126,
			"count":2,
			"type":"VEC3"
		},
		{
			"bufferView":191,
			"componentType":5126,
			"count":2,
			"type":"VEC4"
		},
		{
			"bufferView":192,
			"componentType":5126,
			"count":2,
			"type":"VEC3"
		},
		{
			"bufferView":193,
			"componentType":5126,
			"count":2,
			"type":"VEC4"
		},
		{
			"bufferView":194,
			"componentType":5126,
			"count":2,
			"type":"VEC3"
		},
		{
			"bufferView":195,
			"componentType":5126,
			"count":2,
			"type":"VEC3"
		},
		{
			"bufferView":196,
			"componentType":5126,
			"count":2,
			"type":"VEC4"
		},
		{
			"bufferView":197,
			"componentType":5126,
			"count":2,
			"type":"VEC3"
		},
		{
			"bufferView":198,
			"componentType":5126,
			"count":2,
			"type":"VEC3"
		},
		{
			"bufferView":199,
			"componentType":5126,
			"count":2,
			"type":"VEC4"
		},
		{
			"bufferView":200,
			"componentType":5126,
			"count":2,
			"type":"VEC3"
		},
		{
			"bufferView":201,
			"componentType":5126,
			"count":2,
			"type":"VEC4"
		},
		{
			"bufferView":202,
			"componentType":5126,
			"count":2,
			"type":"VEC3"
		},
		{
			"bufferView":203,
			"componentType":5126,
			"count":2,
			"type":"VEC3"
		},
		{
			"bufferView":204,
			"componentType":5126,
			"count":2,
			"type":"VEC4"
		},
		{
			"bufferView":205,
			"componentType":5126,
			"count":2,
			"type":"VEC3"
		},
		{
			"bufferView":206,
			"componentType":5126,
			"count":2,
			"type":"VEC4"
		},
		{
			"bufferView":207,
			"componentType":5126,
			"count":2,
			"type":"VEC3"
		},
		{
			"bufferView":208,
			"componentType":5126,
			"count":2,
			"type":"VEC4"
		},
		{
			"bufferView":209,
			"componentType":5126,
			"count":2,
			"type":"VEC3"
		},
		{
			"bufferView":210,
			"componentType":5126,
			"count":2,
			"type":"VEC3"
		},
		{
			"bufferView":211,
			"componentType":5126,
			"count":2,
			"type":"VEC4"
		},
		{
			"bufferView":212,
			"componentType":5126,
			"count":2,
			"type":"VEC3"
		},
		{
			"bufferView":213,
			"componentType":5126,
			"count":2,
			"type":"VEC3"
		},
		{
			"bufferView":214,
			"componentType":5126,
			"count":2,
			"type":"VEC4"
		},
		{
			"bufferView":215,
			"componentType":5126,
			"count":2,
			"type":"VEC3"
		},
		{
			"bufferView":216,
			"componentType":5126,
			"count":2,
			"type":"VEC4"
		},
		{
			"bufferView":217,
			"componentType":5126,
			"count":2,
			"type":"VEC3"
		},
		{
			"bufferView":218,
			"componentType":5126,
			"count":25,
			"type":"VEC3"
		},
		{
			"bufferView":219,
			"componentType":5126,
			"count":25,
			"type":"VEC3"
		},
		{
			"bufferView":220,
			"componentType":5126,
			"count":25,
			"type":"VEC3"
		},
		{
			"bufferView":221,
			"componentType":5126,
			"count":25,
			"type":"VEC4"
		},
		{
			"bufferView":222,
			"componentType":5126,
			"count":25,
			"type":"VEC3"
		},
		{
			"bufferView":223,
			"componentType":5126,
			"count":25,
			"type":"VEC4"
		},
		{
			"bufferView":224,
			"componentType":5126,
			"count":25,
			"type":"VEC3"
		},
		{
			"bufferView":225,
			"componentType":5126,
			"count":2,
			"type":"VEC3"
		},
		{
			"bufferView":226,
			"componentType":5126,
			"count":25,
			"type":"VEC3"
		},
		{
			"bufferView":227,
			"componentType":5126,
			"count":25,
			"type":"VEC3"
		},
		{
			"bufferView":228,
			"componentType":5126,
			"count":25,
			"type":"VEC3"
		},
		{
			"bufferView":229,
			"componentType":5126,
			"count":25,
			"type":"VEC3"
		},
		{
			"bufferView":230,
			"componentType":5126,
			"count":25,
			"type":"VEC4"
		},
		{
			"bufferView":231,
			"componentType":5126,
			"count":25,
			"type":"VEC3"
		},
		{
			"bufferView":232,
			"componentType":5126,
			"count":25,
			"type":"VEC4"
		},
		{
			"bufferView":233,
			"componentType":5126,
			"count":25,
			"type":"VEC3"
		},
		{
			"bufferView":234,
			"componentType":5126,
			"count":25,
			"type":"VEC4"
		},
		{
			"bufferView":235,
			"componentType":5126,
			"count":2,
			"type":"VEC3"
		},
		{
			"bufferView":236,
			"componentType":5126,
			"count":25,
			"type":"VEC3"
		},
		{
			"bufferView":237,
			"componentType":5126,
			"count":25,
			"type":"VEC4"
		},
		{
			"bufferView":238,
			"componentType":5126,
			"count":2,
			"type":"VEC3"
		},
		{
			"bufferView":239,
			"componentType":5126,
			"count":25,
			"type":"VEC3"
		},
		{
			"bufferView":240,
			"componentType":5126,
			"count":2,
			"type":"VEC4"
		},
		{
			"bufferView":241,
			"componentType":5126,
			"count":2,
			"type":"VEC3"
		}
	],
	"bufferViews":[
		{
			"buffer":0,
			"byteLength":30624,
			"byteOffset":0,
			"target":34962
		},
		{
			"buffer":0,
			"byteLength":30624,
			"byteOffset":30624,
			"target":34962
		},
		{
			"buffer":0,
			"byteLength":20416,
			"byteOffset":61248,
			"target":34962
		},
		{
			"buffer":0,
			"byteLength":10208,
			"byteOffset":81664,
			"target":34962
		},
		{
			"buffer":0,
			"byteLength":40832,
			"byteOffset":91872,
			"target":34962
		},
		{
			"buffer":0,
			"byteLength":15624,
			"byteOffset":132704,
			"target":34963
		},
		{
			"buffer":0,
			"byteLength":2816,
			"byteOffset":148328
		},
		{
			"buffer":0,
			"byteLength":8,
			"byteOffset":151144
		},
		{
			"buffer":0,
			"byteLength":24,
			"byteOffset":151152
		},
		{
			"buffer":0,
			"byteLength":100,
			"byteOffset":151176
		},
		{
			"buffer":0,
			"byteLength":400,
			"byteOffset":151276
		},
		{
			"buffer":0,
			"byteLength":24,
			"byteOffset":151676
		},
		{
			"buffer":0,
			"byteLength":24,
			"byteOffset":151700
		},
		{
			"buffer":0,
			"byteLength":32,
			"byteOffset":151724
		},
		{
			"buffer":0,
			"byteLength":24,
			"byteOffset":151756
		},
		{
			"buffer":0,
			"byteLength":24,
			"byteOffset":151780
		},
		{
			"buffer":0,
			"byteLength":32,
			"byteOffset":151804
		},
		{
			"buffer":0,
			"byteLength":24,
			"byteOffset":151836
		},
		{
			"buffer":0,
			"byteLength":24,
			"byteOffset":151860
		},
		{
			"buffer":0,
			"byteLength":400,
			"byteOffset":151884
		},
		{
			"buffer":0,
			"byteLength":24,
			"byteOffset":152284
		},
		{
			"buffer":0,
			"byteLength":24,
			"byteOffset":152308
		},
		{
			"buffer":0,
			"byteLength":400,
			"byteOffset":152332
		},
		{
			"buffer":0,
			"byteLength":24,
			"byteOffset":152732
		},
		{
			"buffer":0,
			"byteLength":24,
			"byteOffset":152756
		},
		{
			"buffer":0,
			"byteLength":400,
			"byteOffset":152780
		},
		{
			"buffer":0,
			"byteLength":24,
			"byteOffset":153180
		},
		{
			"buffer":0,
			"byteLength":24,
			"byteOffset":153204
		},
		{
			"buffer":0,
			"byteLength":400,
			"byteOffset":153228
		},
		{
			"buffer":0,
			"byteLength":24,
			"byteOffset":153628
		},
		{
			"buffer":0,
			"byteLength":24,
			"byteOffset":153652
		},
		{
			"buffer":0,
			"byteLength":400,
			"byteOffset":153676
		},
		{
			"buffer":0,
			"byteLength":24,
			"byteOffset":154076
		},
		{
			"buffer":0,
			"byteLength":24,
			"byteOffset":154100
		},
		{
			"buffer":0,
			"byteLength":400,
			"byteOffset":154124
		},
		{
			"buffer":0,
			"byteLength":24,
			"byteOffset":154524
		},
		{
			"buffer":0,
			"byteLength":24,
			"byteOffset":154548
		},
		{
			"buffer":0,
			"byteLength":400,
			"byteOffset":154572
		},
		{
			"buffer":0,
			"byteLength":24,
			"byteOffset":154972
		},
		{
			"buffer":0,
			"byteLength":24,
			"byteOffset":154996
		},
		{
			"buffer":0,
			"byteLength":400,
			"byteOffset":155020
		},
		{
			"buffer":0,
			"byteLength":24,
			"byteOffset":155420
		},
		{
			"buffer":0,
			"byteLength":24,
			"byteOffset":155444
		},
		{
			"buffer":0,
			"byteLength":400,
			"byteOffset":155468
		},
		{
			"buffer":0,
			"byteLength":24,
			"byteOffset":155868
		},
		{
			"buffer":0,
			"byteLength":24,
			"byteOffset":155892
		},
		{
			"buffer":0,
			"byteLength":400,
			"byteOffset":155916
		},
		{
			"buffer":0,
			"byteLength":24,
			"byteOffset":156316
		},
		{
			"buffer":0,
			"byteLength":24,
			"byteOffset":156340
		},
		{
			"buffer":0,
			"byteLength":400,
			"byteOffset":156364
		},
		{
			"buffer":0,
			"byteLength":24,
			"byteOffset":156764
		},
		{
			"buffer":0,
			"byteLength":24,
			"byteOffset":156788
		},
		{
			"buffer":0,
			"byteLength":400,
			"byteOffset":156812
		},
		{
			"buffer":0,
			"byteLength":24,
			"byteOffset":157212
		},
		{
			"buffer":0,
			"byteLength":24,
			"byteOffset":157236
		},
		{
			"buffer":0,
			"byteLength":400,
			"byteOffset":157260
		},
		{
			"buffer":0,
			"byteLength":24,
			"byteOffset":157660
		},
		{
			"buffer":0,
			"byteLength":24,
			"byteOffset":157684
		},
		{
			"buffer":0,
			"byteLength":400,
			"byteOffset":157708
		},
		{
			"buffer":0,
			"byteLength":24,
			"byteOffset":158108
		},
		{
			"buffer":0,
			"byteLength":24,
			"byteOffset":158132
		},
		{
			"buffer":0,
			"byteLength":400,
			"byteOffset":158156
		},
		{
			"buffer":0,
			"byteLength":24,
			"byteOffset":158556
		},
		{
			"buffer":0,
			"byteLength":24,
			"byteOffset":158580
		},
		{
			"buffer":0,
			"byteLength":400,
			"byteOffset":158604
		},
		{
			"buffer":0,
			"byteLength":24,
			"byteOffset":159004
		},
		{
			"buffer":0,
			"byteLength":24,
			"byteOffset":159028
		},
		{
			"buffer":0,
			"byteLength":400,
			"byteOffset":159052
		},
		{
			"buffer":0,
			"byteLength":24,
			"byteOffset":159452
		},
		{
			"buffer":0,
			"byteLength":24,
			"byteOffset":159476
		},
		{
			"buffer":0,
			"byteLength":400,
			"byteOffset":159500
		},
		{
			"buffer":0,
			"byteLength":24,
			"byteOffset":159900
		},
		{
			"buffer":0,
			"byteLength":24,
			"byteOffset":159924
		},
		{
			"buffer":0,
			"byteLength":400,
			"byteOffset":159948
		},
		{
			"buffer":0,
			"byteLength":24,
			"byteOffset":160348
		},
		{
			"buffer":0,
			"byteLength":24,
			"byteOffset":160372
		},
		{
			"buffer":0,
			"byteLength":400,
			"byteOffset":160396
		},
		{
			"buffer":0,
			"byteLength":24,
			"byteOffset":160796
		},
		{
			"buffer":0,
			"byteLength":24,
			"byteOffset":160820
		},
		{
			"buffer":0,
			"byteLength":400,
			"byteOffset":160844
		},
		{
			"buffer":0,
			"byteLength":24,
			"byteOffset":161244
		},
		{
			"buffer":0,
			"byteLength":24,
			"byteOffset":161268
		},
		{
			"buffer":0,
			"byteLength":32,
			"byteOffset":161292
		},
		{
			"buffer":0,
			"byteLength":24,
			"byteOffset":161324
		},
		{
			"buffer":0,
			"byteLength":24,
			"byteOffset":161348
		},
		{
			"buffer":0,
			"byteLength":400,
			"byteOffset":161372
		},
		{
			"buffer":0,
			"byteLength":24,
			"byteOffset":161772
		},
		{
			"buffer":0,
			"byteLength":24,
			"byteOffset":161796
		},
		{
			"buffer":0,
			"byteLength":400,
			"byteOffset":161820
		},
		{
			"buffer":0,
			"byteLength":24,
			"byteOffset":162220
		},
		{
			"buffer":0,
			"byteLength":24,
			"byteOffset":162244
		},
		{
			"buffer":0,
			"byteLength":400,
			"byteOffset":162268
		},
		{
			"buffer":0,
			"byteLength":24,
			"byteOffset":162668
		},
		{
			"buffer":0,
			"byteLength":24,
			"byteOffset":162692
		},
		{
			"buffer":0,
			"byteLength":400,
			"byteOffset":162716
		},
		{
			"buffer":0,
			"byteLength":24,
			"byteOffset":163116
		},
		{
			"buffer":0,
			"byteLength":24,
			"byteOffset":163140
		},
		{
			"buffer":0,
			"byteLength":400,
			"byteOffset":163164
		},
		{
			"buffer":0,
			"byteLength":24,
			"byteOffset":163564
		},
		{
			"buffer":0,
			"byteLength":24,
			"byteOffset":163588
		},
		{
			"buffer":0,
			"byteLength":32,
			"byteOffset":163612
		},
		{
			"buffer":0,
			"byteLength":24,
			"byteOffset":163644
		},
		{
			"buffer":0,
			"byteLength":300,
			"byteOffset":163668
		},
		{
			"buffer":0,
			"byteLength":32,
			"byteOffset":163968
		},
		{
			"buffer":0,
			"byteLength":24,
			"byteOffset":164000
		},
		{
			"buffer":0,
			"byteLength":300,
			"byteOffset":164024
		},
		{
			"buffer":0,
			"byteLength":32,
			"byteOffset":164324
		},
		{
			"buffer":0,
			"byteLength":300,
			"byteOffset":164356
		},
		{
			"buffer":0,
			"byteLength":400,
			"byteOffset":164656
		},
		{
			"buffer":0,
			"byteLength":300,
			"byteOffset":165056
		},
		{
			"buffer":0,
			"byteLength":400,
			"byteOffset":165356
		},
		{
			"buffer":0,
			"byteLength":24,
			"byteOffset":165756
		},
		{
			"buffer":0,
			"byteLength":300,
			"byteOffset":165780
		},
		{
			"buffer":0,
			"byteLength":32,
			"byteOffset":166080
		},
		{
			"buffer":0,
			"byteLength":24,
			"byteOffset":166112
		},
		{
			"buffer":0,
			"byteLength":300,
			"byteOffset":166136
		},
		{
			"buffer":0,
			"byteLength":32,
			"byteOffset":166436
		},
		{
			"buffer":0,
			"byteLength":300,
			"byteOffset":166468
		},
		{
			"buffer":0,
			"byteLength":32,
			"byteOffset":166768
		},
		{
			"buffer":0,
			"byteLength":300,
			"byteOffset":166800
		},
		{
			"buffer":0,
			"byteLength":32,
			"byteOffset":167100
		},
		{
			"buffer":0,
			"byteLength":300,
			"byteOffset":167132
		},
		{
			"buffer":0,
			"byteLength":400,
			"byteOffset":167432
		},
		{
			"buffer":0,
			"byteLength":24,
			"byteOffset":167832
		},
		{
			"buffer":0,
			"byteLength":300,
			"byteOffset":167856
		},
		{
			"buffer":0,
			"byteLength":400,
			"byteOffset":168156
		},
		{
			"buffer":0,
			"byteLength":24,
			"byteOffset":168556
		},
		{
			"buffer":0,
			"byteLength":300,
			"byteOffset":168580
		},
		{
			"buffer":0,
			"byteLength":400,
			"byteOffset":168880
		},
		{
			"buffer":0,
			"byteLength":24,
			"byteOffset":169280
		},
		{
			"buffer":0,
			"byteLength":300,
			"byteOffset":169304
		},
		{
			"buffer":0,
			"byteLength":400,
			"byteOffset":169604
		},
		{
			"buffer":0,
			"byteLength":24,
			"byteOffset":170004
		},
		{
			"buffer":0,
			"byteLength":300,
			"byteOffset":170028
		},
		{
			"buffer":0,
			"byteLength":32,
			"byteOffset":170328
		},
		{
			"buffer":0,
			"byteLength":24,
			"byteOffset":170360
		},
		{
			"buffer":0,
			"byteLength":24,
			"byteOffset":170384
		},
		{
			"buffer":0,
			"byteLength":32,
			"byteOffset":170408
		},
		{
			"buffer":0,
			"byteLength":24,
			"byteOffset":170440
		},
		{
			"buffer":0,
			"byteLength":24,
			"byteOffset":170464
		},
		{
			"buffer":0,
			"byteLength":32,
			"byteOffset":170488
		},
		{
			"buffer":0,
			"byteLength":24,
			"byteOffset":170520
		},
		{
			"buffer":0,
			"byteLength":32,
			"byteOffset":170544
		},
		{
			"buffer":0,
			"byteLength":24,
			"byteOffset":170576
		},
		{
			"buffer":0,
			"byteLength":24,
			"byteOffset":170600
		},
		{
			"buffer":0,
			"byteLength":32,
			"byteOffset":170624
		},
		{
			"buffer":0,
			"byteLength":24,
			"byteOffset":170656
		},
		{
			"buffer":0,
			"byteLength":24,
			"byteOffset":170680
		},
		{
			"buffer":0,
			"byteLength":32,
			"byteOffset":170704
		},
		{
			"buffer":0,
			"byteLength":24,
			"byteOffset":170736
		},
		{
			"buffer":0,
			"byteLength":24,
			"byteOffset":170760
		},
		{
			"buffer":0,
			"byteLength":32,
			"byteOffset":170784
		},
		{
			"buffer":0,
			"byteLength":24,
			"byteOffset":170816
		},
		{
			"buffer":0,
			"byteLength":32,
			"byteOffset":170840
		},
		{
			"buffer":0,
			"byteLength":24,
			"byteOffset":170872
		},
		{
			"buffer":0,
			"byteLength":32,
			"byteOffset":170896
		},
		{
			"buffer":0,
			"byteLength":24,
			"byteOffset":170928
		},
		{
			"buffer":0,
			"byteLength":24,
			"byteOffset":170952
		},
		{
			"buffer":0,
			"byteLength":32,
			"byteOffset":170976
		},
		{
			"buffer":0,
			"byteLength":24,
			"byteOffset":171008
		},
		{
			"buffer":0,
			"byteLength":32,
			"byteOffset":171032
		},
		{
			"buffer":0,
			"byteLength":24,
			"byteOffset":171064
		},
		{
			"buffer":0,
			"byteLength":32,
			"byteOffset":171088
		},
		{
			"buffer":0,
			"byteLength":24,
			"byteOffset":171120
		},
		{
			"buffer":0,
			"byteLength":24,
			"byteOffset":171144
		},
		{
			"buffer":0,
			"byteLength":32,
			"byteOffset":171168
		},
		{
			"buffer":0,
			"byteLength":24,
			"byteOffset":171200
		},
		{
			"buffer":0,
			"byteLength":24,
			"byteOffset":171224
		},
		{
			"buffer":0,
			"byteLength":32,
			"byteOffset":171248
		},
		{
			"buffer":0,
			"byteLength":24,
			"byteOffset":171280
		},
		{
			"buffer":0,
			"byteLength":32,
			"byteOffset":171304
		},
		{
			"buffer":0,
			"byteLength":24,
			"byteOffset":171336
		},
		{
			"buffer":0,
			"byteLength":24,
			"byteOffset":171360
		},
		{
			"buffer":0,
			"byteLength":32,
			"byteOffset":171384
		},
		{
			"buffer":0,
			"byteLength":24,
			"byteOffset":171416
		},
		{
			"buffer":0,
			"byteLength":24,
			"byteOffset":171440
		},
		{
			"buffer":0,
			"byteLength":32,
			"byteOffset":171464
		},
		{
			"buffer":0,
			"byteLength":24,
			"byteOffset":171496
		},
		{
			"buffer":0,
			"byteLength":24,
			"byteOffset":171520
		},
		{
			"buffer":0,
			"byteLength":32,
			"byteOffset":171544
		},
		{
			"buffer":0,
			"byteLength":24,
			"byteOffset":171576
		},
		{
			"buffer":0,
			"byteLength":24,
			"byteOffset":171600
		},
		{
			"buffer":0,
			"byteLength":32,
			"byteOffset":171624
		},
		{
			"buffer":0,
			"byteLength":24,
			"byteOffset":171656
		},
		{
			"buffer":0,
			"byteLength":24,
			"byteOffset":171680
		},
		{
			"buffer":0,
			"byteLength":32,
			"byteOffset":171704
		},
		{
			"buffer":0,
			"byteLength":24,
			"byteOffset":171736
		},
		{
			"buffer":0,
			"byteLength":24,
			"byteOffset":171760
		},
		{
			"buffer":0,
			"byteLength":32,
			"byteOffset":171784
		},
		{
			"buffer":0,
			"byteLength":24,
			"byteOffset":171816
		},
		{
			"buffer":0,
			"byteLength":24,
			"byteOffset":171840
		},
		{
			"buffer":0,
			"byteLength":32,
			"byteOffset":171864
		},
		{
			"buffer":0,
			"byteLength":24,
			"byteOffset":171896
		},
		{
			"buffer":0,
			"byteLength":32,
			"byteOffset":171920
		},
		{
			"buffer":0,
			"byteLength":24,
			"byteOffset":171952
		},
		{
			"buffer":0,
			"byteLength":24,
			"byteOffset":171976
		},
		{
			"buffer":0,
			"byteLength":32,
			"byteOffset":172000
		},
		{
			"buffer":0,
			"byteLength":24,
			"byteOffset":172032
		},
		{
			"buffer":0,
			"byteLength":24,
			"byteOffset":172056
		},
		{
			"buffer":0,
			"byteLength":32,
			"byteOffset":172080
		},
		{
			"buffer":0,
			"byteLength":24,
			"byteOffset":172112
		},
		{
			"buffer":0,
			"byteLength":32,
			"byteOffset":172136
		},
		{
			"buffer":0,
			"byteLength":24,
			"byteOffset":172168
		},
		{
			"buffer":0,
			"byteLength":24,
			"byteOffset":172192
		},
		{
			"buffer":0,
			"byteLength":32,
			"byteOffset":172216
		},
		{
			"buffer":0,
			"byteLength":24,
			"byteOffset":172248
		},
		{
			"buffer":0,
			"byteLength":32,
			"byteOffset":172272
		},
		{
			"buffer":0,
			"byteLength":24,
			"byteOffset":172304
		},
		{
			"buffer":0,
			"byteLength":32,
			"byteOffset":172328
		},
		{
			"buffer":0,
			"byteLength":24,
			"byteOffset":172360
		},
		{
			"buffer":0,
			"byteLength":24,
			"byteOffset":172384
		},
		{
			"buffer":0,
			"byteLength":32,
			"byteOffset":172408
		},
		{
			"buffer":0,
			"byteLength":24,
			"byteOffset":172440
		},
		{
			"buffer":0,
			"byteLength":24,
			"byteOffset":172464
		},
		{
			"buffer":0,
			"byteLength":32,
			"byteOffset":172488
		},
		{
			"buffer":0,
			"byteLength":24,
			"byteOffset":172520
		},
		{
			"buffer":0,
			"byteLength":32,
			"byteOffset":172544
		},
		{
			"buffer":0,
			"byteLength":24,
			"byteOffset":172576
		},
		{
			"buffer":0,
			"byteLength":300,
			"byteOffset":172600
		},
		{
			"buffer":0,
			"byteLength":300,
			"byteOffset":172900
		},
		{
			"buffer":0,
			"byteLength":300,
			"byteOffset":173200
		},
		{
			"buffer":0,
			"byteLength":400,
			"byteOffset":173500
		},
		{
			"buffer":0,
			"byteLength":300,
			"byteOffset":173900
		},
		{
			"buffer":0,
			"byteLength":400,
			"byteOffset":174200
		},
		{
			"buffer":0,
			"byteLength":300,
			"byteOffset":174600
		},
		{
			"buffer":0,
			"byteLength":24,
			"byteOffset":174900
		},
		{
			"buffer":0,
			"byteLength":300,
			"byteOffset":174924
		},
		{
			"buffer":0,
			"byteLength":300,
			"byteOffset":175224
		},
		{
			"buffer":0,
			"byteLength":300,
			"byteOffset":175524
		},
		{
			"buffer":0,
			"byteLength":300,
			"byteOffset":175824
		},
		{
			"buffer":0,
			"byteLength":400,
			"byteOffset":176124
		},
		{
			"buffer":0,
			"byteLength":300,
			"byteOffset":176524
		},
		{
			"buffer":0,
			"byteLength":400,
			"byteOffset":176824
		},
		{
			"buffer":0,
			"byteLength":300,
			"byteOffset":177224
		},
		{
			"buffer":0,
			"byteLength":400,
			"byteOffset":177524
		},
		{
			"buffer":0,
			"byteLength":24,
			"byteOffset":177924
		},
		{
			"buffer":0,
			"byteLength":300,
			"byteOffset":177948
		},
		{
			"buffer":0,
			"byteLength":400,
			"byteOffset":178248
		},
		{
			"buffer":0,
			"byteLength":24,
			"byteOffset":178648
		},
		{
			"buffer":0,
			"byteLength":300,
			"byteOffset":178672
		},
		{
			"buffer":0,
			"byteLength":32,
			"byteOffset":178972
		},
		{
			"buffer":0,
			"byteLength":24,
			"byteOffset":179004
		}
	],
	"buffers":[
		{
			"byteLength":179028,
			"uri":"Run.bin"
		}
	]
}
