{
	"asset":{
		"generator":"Khronos glTF Blender I/O v5.1.20",
		"version":"2.0"
	},
	"scene":0,
	"scenes":[
		{
			"name":"Scene",
			"nodes":[
				30
			]
		}
	],
	"nodes":[
		{
			"name":"\u30dc\u30fc\u30f3.002",
			"rotation":[
				-0.7197621464729309,
				-2.5878621912056587e-08,
				-0.04039503633975983,
				0.6930445432662964
			],
			"scale":[
				1,
				1.0000001192092896,
				1.0000001192092896
			],
			"translation":[
				1.4901161193847656e-08,
				0.24903662502765656,
				-9.313225746154785e-10
			]
		},
		{
			"name":"\u30dc\u30fc\u30f3.003",
			"rotation":[
				0.6878818869590759,
				-0.008080864325165749,
				-0.1204577088356018,
				0.7157116532325745
			],
			"scale":[
				1,
				1.0000001192092896,
				1.0000001192092896
			],
			"translation":[
				1.4901161193847656e-08,
				0.24903662502765656,
				-9.313225746154785e-10
			]
		},
		{
			"name":"\u30dc\u30fc\u30f3.009",
			"rotation":[
				-0.6185795664787292,
				5.2947456197216525e-08,
				0.13555502891540527,
				0.7739406824111938
			],
			"scale":[
				0.9999999403953552,
				0.9999998211860657,
				0.9999999403953552
			],
			"translation":[
				7.04603735357523e-08,
				0.7816241979598999,
				5.587935447692871e-09
			]
		},
		{
			"name":"\u30dc\u30fc\u30f3.010",
			"rotation":[
				-0.03342071548104286,
				-0.01288172323256731,
				0.7021753191947937,
				0.7111026644706726
			],
			"scale":[
				0.9999998211860657,
				0.9999999403953552,
				0.9999998211860657
			],
			"translation":[
				7.04603735357523e-08,
				0.7816241979598999,
				5.587935447692871e-09
			]
		},
		{
			"name":"\u30dc\u30fc\u30f3.011",
			"rotation":[
				0.637403666973114,
				-1.052134201984245e-08,
				0.3037344813346863,
				0.7081397771835327
			],
			"scale":[
				0.9999998807907104,
				0.9999998807907104,
				0.9999999403953552
			],
			"translation":[
				7.04603735357523e-08,
				0.7816241979598999,
				5.587935447692871e-09
			]
		},
		{
			"name":"\u30dc\u30fc\u30f3.012",
			"rotation":[
				0.7152580618858337,
				1.5624948446202325e-08,
				-0.17725776135921478,
				0.6760072112083435
			],
			"scale":[
				0.9999998807907104,
				0.9999998211860657,
				0.9999998211860657
			],
			"translation":[
				7.04603735357523e-08,
				0.7816241979598999,
				5.587935447692871e-09
			]
		},
		{
			"name":"\u30dc\u30fc\u30f3.013",
			"rotation":[
				-0.06320133060216904,
				-1.3168755685910583e-07,
				-0.6745593547821045,
				0.7355102300643921
			],
			"scale":[
				0.9999999403953552,
				0.9999998807907104,
				0.9999998807907104
			],
			"translation":[
				7.04603735357523e-08,
				0.7816241979598999,
				5.587935447692871e-09
			]
		},
		{
			"name":"\u30dc\u30fc\u30f3.014",
			"rotation":[
				-0.5734764933586121,
				0.015712253749370575,
				-0.31553390622138977,
				0.7558546662330627
			],
			"scale":[
				0.9999998807907104,
				0.9999998211860657,
				0.9999999403953552
			],
			"translation":[
				7.04603735357523e-08,
				0.7816241979598999,
				5.587935447692871e-09
			]
		},
		{
			"children":[
				2,
				3,
				4,
				5,
				6,
				7
			],
			"name":"\u30dc\u30fc\u30f3.008",
			"rotation":[
				0.024386897683143616,
				2.218174444124088e-08,
				-0.32707151770591736,
				0.9446848630905151
			],
			"translation":[
				1.6815956627169726e-08,
				0.30515027046203613,
				-7.922693612272269e-10
			]
		},
		{
			"children":[
				8
			],
			"name":"\u30dc\u30fc\u30f3.007",
			"rotation":[
				-3.552713678800501e-15,
				1.1920927533992653e-07,
				-4.235164736271502e-22,
				1
			],
			"translation":[
				1.4901161193847656e-08,
				0.2974752187728882,
				-9.313225746154785e-10
			]
		},
		{
			"children":[
				9
			],
			"name":"\u30dc\u30fc\u30f3.006",
			"rotation":[
				-3.552713678800501e-15,
				0,
				0,
				1
			],
			"translation":[
				1.4901161193847656e-08,
				0.19261324405670166,
				-9.313225746154785e-10
			]
		},
		{
			"children":[
				10
			],
			"name":"\u30dc\u30fc\u30f3.005",
			"rotation":[
				-3.552713678800501e-15,
				0,
				0,
				1
			],
			"translation":[
				1.4901161193847656e-08,
				0.27811336517333984,
				-9.313225746154785e-10
			]
		},
		{
			"children":[
				11
			],
			"name":"\u30dc\u30fc\u30f3.004",
			"rotation":[
				-3.552713678800501e-15,
				0,
				0,
				1
			],
			"translation":[
				1.4901161193847656e-08,
				0.24903662502765656,
				-9.313225746154785e-10
			]
		},
		{
			"children":[
				0,
				1,
				12
			],
			"name":"\u30dc\u30fc\u30f3.001",
			"rotation":[
				-3.552713678800501e-15,
				0,
				0,
				1
			],
			"translation":[
				1.4901161193847656e-08,
				0.22642403841018677,
				-9.313225746154785e-10
			]
		},
		{
			"children":[
				13
			],
			"name":"\u30dc\u30fc\u30f3",
			"rotation":[
				-2.980232594040899e-08,
				0,
				0,
				1
			],
			"scale":[
				1,
				0.9999999403953552,
				0.9999999403953552
			],
			"translation":[
				0.1255832463502884,
				-0.16175875067710876,
				-0.00803123414516449
			]
		},
		{
			"mesh":0,
			"name":"\u5186\u67f1.001",
			"skin":0
		},
		{
			"mesh":1,
			"name":"\u5186\u67f1.002",
			"skin":0
		},
		{
			"mesh":2,
			"name":"\u5186\u67f1.003",
			"skin":0
		},
		{
			"mesh":3,
			"name":"\u5186\u67f1.007",
			"skin":0
		},
		{
			"mesh":4,
			"name":"\u5186\u67f1.008",
			"skin":0
		},
		{
			"mesh":5,
			"name":"\u5186\u67f1.009",
			"skin":0
		},
		{
			"mesh":6,
			"name":"\u5186\u9310.033",
			"skin":0
		},
		{
			"mesh":7,
			"name":"\u5e73\u9762",
			"skin":0
		},
		{
			"mesh":8,
			"name":"\u5e73\u9762.004",
			"skin":0
		},
		{
			"mesh":9,
			"name":"\u5e73\u9762.005",
			"skin":0
		},
		{
			"mesh":10,
			"name":"\u5e73\u9762.006",
			"skin":0
		},
		{
			"mesh":11,
			"name":"\u5e73\u9762.007",
			"skin":0
		},
		{
			"mesh":12,
			"name":"\u5e73\u9762.008",
			"skin":0
		},
		{
			"mesh":13,
			"name":"\u7acb\u65b9\u4f53.011",
			"skin":0
		},
		{
			"mesh":14,
			"name":"\u7acb\u65b9\u4f53.012",
			"skin":0
		},
		{
			"children":[
				15,
				16,
				17,
				18,
				19,
				20,
				21,
				22,
				23,
				24,
				25,
				26,
				27,
				28,
				29,
				14
			],
			"name":"\u30a2\u30fc\u30de\u30c1\u30e5\u30a2.003"
		}
	],
	"animations":[
		{
			"channels":[
				{
					"sampler":0,
					"target":{
						"node":14,
						"path":"translation"
					}
				},
				{
					"sampler":1,
					"target":{
						"node":14,
						"path":"rotation"
					}
				},
				{
					"sampler":2,
					"target":{
						"node":14,
						"path":"scale"
					}
				},
				{
					"sampler":3,
					"target":{
						"node":13,
						"path":"translation"
					}
				},
				{
					"sampler":4,
					"target":{
						"node":13,
						"path":"rotation"
					}
				},
				{
					"sampler":5,
					"target":{
						"node":13,
						"path":"scale"
					}
				},
				{
					"sampler":6,
					"target":{
						"node":0,
						"path":"translation"
					}
				},
				{
					"sampler":7,
					"target":{
						"node":0,
						"path":"rotation"
					}
				},
				{
					"sampler":8,
					"target":{
						"node":0,
						"path":"scale"
					}
				},
				{
					"sampler":9,
					"target":{
						"node":1,
						"path":"translation"
					}
				},
				{
					"sampler":10,
					"target":{
						"node":1,
						"path":"rotation"
					}
				},
				{
					"sampler":11,
					"target":{
						"node":1,
						"path":"scale"
					}
				},
				{
					"sampler":12,
					"target":{
						"node":12,
						"path":"translation"
					}
				},
				{
					"sampler":13,
					"target":{
						"node":12,
						"path":"rotation"
					}
				},
				{
					"sampler":14,
					"target":{
						"node":12,
						"path":"scale"
					}
				},
				{
					"sampler":15,
					"target":{
						"node":11,
						"path":"translation"
					}
				},
				{
					"sampler":16,
					"target":{
						"node":11,
						"path":"rotation"
					}
				},
				{
					"sampler":17,
					"target":{
						"node":11,
						"path":"scale"
					}
				},
				{
					"sampler":18,
					"target":{
						"node":10,
						"path":"translation"
					}
				},
				{
					"sampler":19,
					"target":{
						"node":10,
						"path":"rotation"
					}
				},
				{
					"sampler":20,
					"target":{
						"node":10,
						"path":"scale"
					}
				},
				{
					"sampler":21,
					"target":{
						"node":9,
						"path":"translation"
					}
				},
				{
					"sampler":22,
					"target":{
						"node":9,
						"path":"rotation"
					}
				},
				{
					"sampler":23,
					"target":{
						"node":9,
						"path":"scale"
					}
				},
				{
					"sampler":24,
					"target":{
						"node":8,
						"path":"translation"
					}
				},
				{
					"sampler":25,
					"target":{
						"node":8,
						"path":"rotation"
					}
				},
				{
					"sampler":26,
					"target":{
						"node":8,
						"path":"scale"
					}
				},
				{
					"sampler":27,
					"target":{
						"node":2,
						"path":"translation"
					}
				},
				{
					"sampler":28,
					"target":{
						"node":2,
						"path":"rotation"
					}
				},
				{
					"sampler":29,
					"target":{
						"node":2,
						"path":"scale"
					}
				},
				{
					"sampler":30,
					"target":{
						"node":3,
						"path":"translation"
					}
				},
				{
					"sampler":31,
					"target":{
						"node":3,
						"path":"rotation"
					}
				},
				{
					"sampler":32,
					"target":{
						"node":3,
						"path":"scale"
					}
				},
				{
					"sampler":33,
					"target":{
						"node":4,
						"path":"translation"
					}
				},
				{
					"sampler":34,
					"target":{
						"node":4,
						"path":"rotation"
					}
				},
				{
					"sampler":35,
					"target":{
						"node":4,
						"path":"scale"
					}
				},
				{
					"sampler":36,
					"target":{
						"node":5,
						"path":"translation"
					}
				},
				{
					"sampler":37,
					"target":{
						"node":5,
						"path":"rotation"
					}
				},
				{
					"sampler":38,
					"target":{
						"node":5,
						"path":"scale"
					}
				},
				{
					"sampler":39,
					"target":{
						"node":6,
						"path":"translation"
					}
				},
				{
					"sampler":40,
					"target":{
						"node":6,
						"path":"rotation"
					}
				},
				{
					"sampler":41,
					"target":{
						"node":6,
						"path":"scale"
					}
				},
				{
					"sampler":42,
					"target":{
						"node":7,
						"path":"translation"
					}
				},
				{
					"sampler":43,
					"target":{
						"node":7,
						"path":"rotation"
					}
				},
				{
					"sampler":44,
					"target":{
						"node":7,
						"path":"scale"
					}
				}
			],
			"name":"Attack",
			"samplers":[
				{
					"input":91,
					"interpolation":"STEP",
					"output":92
				},
				{
					"input":91,
					"interpolation":"STEP",
					"output":93
				},
				{
					"input":91,
					"interpolation":"STEP",
					"output":94
				},
				{
					"input":91,
					"interpolation":"STEP",
					"output":95
				},
				{
					"input":91,
					"interpolation":"STEP",
					"output":96
				},
				{
					"input":91,
					"interpolation":"STEP",
					"output":97
				},
				{
					"input":91,
					"interpolation":"STEP",
					"output":98
				},
				{
					"input":91,
					"interpolation":"STEP",
					"output":99
				},
				{
					"input":91,
					"interpolation":"STEP",
					"output":100
				},
				{
					"input":91,
					"interpolation":"STEP",
					"output":101
				},
				{
					"input":91,
					"interpolation":"STEP",
					"output":102
				},
				{
					"input":91,
					"interpolation":"STEP",
					"output":103
				},
				{
					"input":91,
					"interpolation":"STEP",
					"output":104
				},
				{
					"input":91,
					"interpolation":"STEP",
					"output":96
				},
				{
					"input":91,
					"interpolation":"STEP",
					"output":97
				},
				{
					"input":91,
					"interpolation":"STEP",
					"output":105
				},
				{
					"input":91,
					"interpolation":"STEP",
					"output":96
				},
				{
					"input":91,
					"interpolation":"STEP",
					"output":97
				},
				{
					"input":91,
					"interpolation":"STEP",
					"output":106
				},
				{
					"input":91,
					"interpolation":"STEP",
					"output":96
				},
				{
					"input":91,
					"interpolation":"STEP",
					"output":97
				},
				{
					"input":91,
					"interpolation":"STEP",
					"output":107
				},
				{
					"input":91,
					"interpolation":"STEP",
					"output":108
				},
				{
					"input":91,
					"interpolation":"STEP",
					"output":97
				},
				{
					"input":91,
					"interpolation":"STEP",
					"output":109
				},
				{
					"input":91,
					"interpolation":"STEP",
					"output":110
				},
				{
					"input":91,
					"interpolation":"STEP",
					"output":111
				},
				{
					"input":91,
					"interpolation":"STEP",
					"output":112
				},
				{
					"input":113,
					"interpolation":"LINEAR",
					"output":114
				},
				{
					"input":91,
					"interpolation":"LINEAR",
					"output":115
				},
				{
					"input":91,
					"interpolation":"STEP",
					"output":116
				},
				{
					"input":113,
					"interpolation":"LINEAR",
					"output":117
				},
				{
					"input":91,
					"interpolation":"STEP",
					"output":118
				},
				{
					"input":91,
					"interpolation":"STEP",
					"output":119
				},
				{
					"input":113,
					"interpolation":"LINEAR",
					"output":120
				},
				{
					"input":91,
					"interpolation":"STEP",
					"output":121
				},
				{
					"input":91,
					"interpolation":"STEP",
					"output":122
				},
				{
					"input":113,
					"interpolation":"LINEAR",
					"output":123
				},
				{
					"input":91,
					"interpolation":"LINEAR",
					"output":124
				},
				{
					"input":91,
					"interpolation":"STEP",
					"output":125
				},
				{
					"input":113,
					"interpolation":"LINEAR",
					"output":126
				},
				{
					"input":91,
					"interpolation":"STEP",
					"output":127
				},
				{
					"input":91,
					"interpolation":"STEP",
					"output":128
				},
				{
					"input":113,
					"interpolation":"LINEAR",
					"output":129
				},
				{
					"input":91,
					"interpolation":"STEP",
					"output":130
				}
			]
		},
		{
			"channels":[
				{
					"sampler":0,
					"target":{
						"node":14,
						"path":"translation"
					}
				},
				{
					"sampler":1,
					"target":{
						"node":14,
						"path":"rotation"
					}
				},
				{
					"sampler":2,
					"target":{
						"node":14,
						"path":"scale"
					}
				},
				{
					"sampler":3,
					"target":{
						"node":13,
						"path":"translation"
					}
				},
				{
					"sampler":4,
					"target":{
						"node":13,
						"path":"rotation"
					}
				},
				{
					"sampler":5,
					"target":{
						"node":13,
						"path":"scale"
					}
				},
				{
					"sampler":6,
					"target":{
						"node":0,
						"path":"translation"
					}
				},
				{
					"sampler":7,
					"target":{
						"node":0,
						"path":"rotation"
					}
				},
				{
					"sampler":8,
					"target":{
						"node":0,
						"path":"scale"
					}
				},
				{
					"sampler":9,
					"target":{
						"node":1,
						"path":"translation"
					}
				},
				{
					"sampler":10,
					"target":{
						"node":1,
						"path":"rotation"
					}
				},
				{
					"sampler":11,
					"target":{
						"node":1,
						"path":"scale"
					}
				},
				{
					"sampler":12,
					"target":{
						"node":12,
						"path":"translation"
					}
				},
				{
					"sampler":13,
					"target":{
						"node":12,
						"path":"rotation"
					}
				},
				{
					"sampler":14,
					"target":{
						"node":12,
						"path":"scale"
					}
				},
				{
					"sampler":15,
					"target":{
						"node":11,
						"path":"translation"
					}
				},
				{
					"sampler":16,
					"target":{
						"node":11,
						"path":"rotation"
					}
				},
				{
					"sampler":17,
					"target":{
						"node":11,
						"path":"scale"
					}
				},
				{
					"sampler":18,
					"target":{
						"node":10,
						"path":"translation"
					}
				},
				{
					"sampler":19,
					"target":{
						"node":10,
						"path":"rotation"
					}
				},
				{
					"sampler":20,
					"target":{
						"node":10,
						"path":"scale"
					}
				},
				{
					"sampler":21,
					"target":{
						"node":9,
						"path":"translation"
					}
				},
				{
					"sampler":22,
					"target":{
						"node":9,
						"path":"rotation"
					}
				},
				{
					"sampler":23,
					"target":{
						"node":9,
						"path":"scale"
					}
				},
				{
					"sampler":24,
					"target":{
						"node":8,
						"path":"translation"
					}
				},
				{
					"sampler":25,
					"target":{
						"node":8,
						"path":"rotation"
					}
				},
				{
					"sampler":26,
					"target":{
						"node":8,
						"path":"scale"
					}
				},
				{
					"sampler":27,
					"target":{
						"node":2,
						"path":"translation"
					}
				},
				{
					"sampler":28,
					"target":{
						"node":2,
						"path":"rotation"
					}
				},
				{
					"sampler":29,
					"target":{
						"node":2,
						"path":"scale"
					}
				},
				{
					"sampler":30,
					"target":{
						"node":3,
						"path":"translation"
					}
				},
				{
					"sampler":31,
					"target":{
						"node":3,
						"path":"rotation"
					}
				},
				{
					"sampler":32,
					"target":{
						"node":3,
						"path":"scale"
					}
				},
				{
					"sampler":33,
					"target":{
						"node":4,
						"path":"translation"
					}
				},
				{
					"sampler":34,
					"target":{
						"node":4,
						"path":"rotation"
					}
				},
				{
					"sampler":35,
					"target":{
						"node":4,
						"path":"scale"
					}
				},
				{
					"sampler":36,
					"target":{
						"node":5,
						"path":"translation"
					}
				},
				{
					"sampler":37,
					"target":{
						"node":5,
						"path":"rotation"
					}
				},
				{
					"sampler":38,
					"target":{
						"node":5,
						"path":"scale"
					}
				},
				{
					"sampler":39,
					"target":{
						"node":6,
						"path":"translation"
					}
				},
				{
					"sampler":40,
					"target":{
						"node":6,
						"path":"rotation"
					}
				},
				{
					"sampler":41,
					"target":{
						"node":6,
						"path":"scale"
					}
				},
				{
					"sampler":42,
					"target":{
						"node":7,
						"path":"translation"
					}
				},
				{
					"sampler":43,
					"target":{
						"node":7,
						"path":"rotation"
					}
				},
				{
					"sampler":44,
					"target":{
						"node":7,
						"path":"scale"
					}
				}
			],
			"name":"Attack_Wait",
			"samplers":[
				{
					"input":91,
					"interpolation":"STEP",
					"output":92
				},
				{
					"input":91,
					"interpolation":"STEP",
					"output":93
				},
				{
					"input":91,
					"interpolation":"STEP",
					"output":94
				},
				{
					"input":91,
					"interpolation":"STEP",
					"output":95
				},
				{
					"input":91,
					"interpolation":"STEP",
					"output":96
				},
				{
					"input":91,
					"interpolation":"STEP",
					"output":97
				},
				{
					"input":91,
					"interpolation":"STEP",
					"output":98
				},
				{
					"input":113,
					"interpolation":"LINEAR",
					"output":131
				},
				{
					"input":91,
					"interpolation":"STEP",
					"output":100
				},
				{
					"input":91,
					"interpolation":"STEP",
					"output":101
				},
				{
					"input":113,
					"interpolation":"LINEAR",
					"output":132
				},
				{
					"input":91,
					"interpolation":"STEP",
					"output":103
				},
				{
					"input":91,
					"interpolation":"STEP",
					"output":104
				},
				{
					"input":91,
					"interpolation":"STEP",
					"output":96
				},
				{
					"input":91,
					"interpolation":"STEP",
					"output":97
				},
				{
					"input":91,
					"interpolation":"STEP",
					"output":105
				},
				{
					"input":91,
					"interpolation":"STEP",
					"output":96
				},
				{
					"input":91,
					"interpolation":"STEP",
					"output":97
				},
				{
					"input":91,
					"interpolation":"STEP",
					"output":106
				},
				{
					"input":91,
					"interpolation":"STEP",
					"output":96
				},
				{
					"input":91,
					"interpolation":"STEP",
					"output":97
				},
				{
					"input":91,
					"interpolation":"STEP",
					"output":107
				},
				{
					"input":91,
					"interpolation":"STEP",
					"output":108
				},
				{
					"input":91,
					"interpolation":"STEP",
					"output":97
				},
				{
					"input":91,
					"interpolation":"STEP",
					"output":109
				},
				{
					"input":91,
					"interpolation":"STEP",
					"output":110
				},
				{
					"input":91,
					"interpolation":"STEP",
					"output":111
				},
				{
					"input":91,
					"interpolation":"STEP",
					"output":112
				},
				{
					"input":113,
					"interpolation":"LINEAR",
					"output":133
				},
				{
					"input":91,
					"interpolation":"LINEAR",
					"output":134
				},
				{
					"input":91,
					"interpolation":"STEP",
					"output":116
				},
				{
					"input":113,
					"interpolation":"LINEAR",
					"output":135
				},
				{
					"input":91,
					"interpolation":"STEP",
					"output":136
				},
				{
					"input":91,
					"interpolation":"STEP",
					"output":119
				},
				{
					"input":113,
					"interpolation":"LINEAR",
					"output":137
				},
				{
					"input":91,
					"interpolation":"STEP",
					"output":138
				},
				{
					"input":91,
					"interpolation":"STEP",
					"output":122
				},
				{
					"input":113,
					"interpolation":"LINEAR",
					"output":139
				},
				{
					"input":91,
					"interpolation":"LINEAR",
					"output":140
				},
				{
					"input":91,
					"interpolation":"STEP",
					"output":125
				},
				{
					"input":113,
					"interpolation":"LINEAR",
					"output":141
				},
				{
					"input":91,
					"interpolation":"STEP",
					"output":142
				},
				{
					"input":91,
					"interpolation":"STEP",
					"output":128
				},
				{
					"input":113,
					"interpolation":"LINEAR",
					"output":143
				},
				{
					"input":91,
					"interpolation":"STEP",
					"output":144
				}
			]
		},
		{
			"channels":[
				{
					"sampler":0,
					"target":{
						"node":14,
						"path":"translation"
					}
				},
				{
					"sampler":1,
					"target":{
						"node":14,
						"path":"rotation"
					}
				},
				{
					"sampler":2,
					"target":{
						"node":14,
						"path":"scale"
					}
				},
				{
					"sampler":3,
					"target":{
						"node":13,
						"path":"translation"
					}
				},
				{
					"sampler":4,
					"target":{
						"node":13,
						"path":"rotation"
					}
				},
				{
					"sampler":5,
					"target":{
						"node":13,
						"path":"scale"
					}
				},
				{
					"sampler":6,
					"target":{
						"node":0,
						"path":"translation"
					}
				},
				{
					"sampler":7,
					"target":{
						"node":0,
						"path":"rotation"
					}
				},
				{
					"sampler":8,
					"target":{
						"node":0,
						"path":"scale"
					}
				},
				{
					"sampler":9,
					"target":{
						"node":1,
						"path":"translation"
					}
				},
				{
					"sampler":10,
					"target":{
						"node":1,
						"path":"rotation"
					}
				},
				{
					"sampler":11,
					"target":{
						"node":1,
						"path":"scale"
					}
				},
				{
					"sampler":12,
					"target":{
						"node":12,
						"path":"translation"
					}
				},
				{
					"sampler":13,
					"target":{
						"node":12,
						"path":"rotation"
					}
				},
				{
					"sampler":14,
					"target":{
						"node":12,
						"path":"scale"
					}
				},
				{
					"sampler":15,
					"target":{
						"node":11,
						"path":"translation"
					}
				},
				{
					"sampler":16,
					"target":{
						"node":11,
						"path":"rotation"
					}
				},
				{
					"sampler":17,
					"target":{
						"node":11,
						"path":"scale"
					}
				},
				{
					"sampler":18,
					"target":{
						"node":10,
						"path":"translation"
					}
				},
				{
					"sampler":19,
					"target":{
						"node":10,
						"path":"rotation"
					}
				},
				{
					"sampler":20,
					"target":{
						"node":10,
						"path":"scale"
					}
				},
				{
					"sampler":21,
					"target":{
						"node":9,
						"path":"translation"
					}
				},
				{
					"sampler":22,
					"target":{
						"node":9,
						"path":"rotation"
					}
				},
				{
					"sampler":23,
					"target":{
						"node":9,
						"path":"scale"
					}
				},
				{
					"sampler":24,
					"target":{
						"node":8,
						"path":"translation"
					}
				},
				{
					"sampler":25,
					"target":{
						"node":8,
						"path":"rotation"
					}
				},
				{
					"sampler":26,
					"target":{
						"node":8,
						"path":"scale"
					}
				},
				{
					"sampler":27,
					"target":{
						"node":2,
						"path":"translation"
					}
				},
				{
					"sampler":28,
					"target":{
						"node":2,
						"path":"rotation"
					}
				},
				{
					"sampler":29,
					"target":{
						"node":2,
						"path":"scale"
					}
				},
				{
					"sampler":30,
					"target":{
						"node":3,
						"path":"translation"
					}
				},
				{
					"sampler":31,
					"target":{
						"node":3,
						"path":"rotation"
					}
				},
				{
					"sampler":32,
					"target":{
						"node":3,
						"path":"scale"
					}
				},
				{
					"sampler":33,
					"target":{
						"node":4,
						"path":"translation"
					}
				},
				{
					"sampler":34,
					"target":{
						"node":4,
						"path":"rotation"
					}
				},
				{
					"sampler":35,
					"target":{
						"node":4,
						"path":"scale"
					}
				},
				{
					"sampler":36,
					"target":{
						"node":5,
						"path":"translation"
					}
				},
				{
					"sampler":37,
					"target":{
						"node":5,
						"path":"rotation"
					}
				},
				{
					"sampler":38,
					"target":{
						"node":5,
						"path":"scale"
					}
				},
				{
					"sampler":39,
					"target":{
						"node":6,
						"path":"translation"
					}
				},
				{
					"sampler":40,
					"target":{
						"node":6,
						"path":"rotation"
					}
				},
				{
					"sampler":41,
					"target":{
						"node":6,
						"path":"scale"
					}
				},
				{
					"sampler":42,
					"target":{
						"node":7,
						"path":"translation"
					}
				},
				{
					"sampler":43,
					"target":{
						"node":7,
						"path":"rotation"
					}
				},
				{
					"sampler":44,
					"target":{
						"node":7,
						"path":"scale"
					}
				}
			],
			"name":"Death",
			"samplers":[
				{
					"input":91,
					"interpolation":"STEP",
					"output":92
				},
				{
					"input":91,
					"interpolation":"STEP",
					"output":93
				},
				{
					"input":91,
					"interpolation":"STEP",
					"output":94
				},
				{
					"input":91,
					"interpolation":"STEP",
					"output":95
				},
				{
					"input":113,
					"interpolation":"LINEAR",
					"output":145
				},
				{
					"input":91,
					"interpolation":"STEP",
					"output":97
				},
				{
					"input":91,
					"interpolation":"LINEAR",
					"output":146
				},
				{
					"input":91,
					"interpolation":"LINEAR",
					"output":99
				},
				{
					"input":91,
					"interpolation":"STEP",
					"output":100
				},
				{
					"input":91,
					"interpolation":"LINEAR",
					"output":147
				},
				{
					"input":113,
					"interpolation":"LINEAR",
					"output":148
				},
				{
					"input":91,
					"interpolation":"STEP",
					"output":149
				},
				{
					"input":91,
					"interpolation":"LINEAR",
					"output":150
				},
				{
					"input":113,
					"interpolation":"LINEAR",
					"output":151
				},
				{
					"input":91,
					"interpolation":"STEP",
					"output":152
				},
				{
					"input":91,
					"interpolation":"LINEAR",
					"output":153
				},
				{
					"input":91,
					"interpolation":"STEP",
					"output":96
				},
				{
					"input":91,
					"interpolation":"STEP",
					"output":97
				},
				{
					"input":91,
					"interpolation":"LINEAR",
					"output":154
				},
				{
					"input":113,
					"interpolation":"LINEAR",
					"output":155
				},
				{
					"input":91,
					"interpolation":"STEP",
					"output":97
				},
				{
					"input":91,
					"interpolation":"LINEAR",
					"output":156
				},
				{
					"input":113,
					"interpolation":"LINEAR",
					"output":157
				},
				{
					"input":91,
					"interpolation":"STEP",
					"output":158
				},
				{
					"input":91,
					"interpolation":"LINEAR",
					"output":159
				},
				{
					"input":91,
					"interpolation":"LINEAR",
					"output":160
				},
				{
					"input":91,
					"interpolation":"STEP",
					"output":161
				},
				{
					"input":91,
					"interpolation":"LINEAR",
					"output":162
				},
				{
					"input":91,
					"interpolation":"LINEAR",
					"output":163
				},
				{
					"input":91,
					"interpolation":"LINEAR",
					"output":164
				},
				{
					"input":91,
					"interpolation":"LINEAR",
					"output":165
				},
				{
					"input":91,
					"interpolation":"LINEAR",
					"output":166
				},
				{
					"input":91,
					"interpolation":"STEP",
					"output":167
				},
				{
					"input":91,
					"interpolation":"LINEAR",
					"output":168
				},
				{
					"input":91,
					"interpolation":"LINEAR",
					"output":169
				},
				{
					"input":91,
					"interpolation":"LINEAR",
					"output":170
				},
				{
					"input":91,
					"interpolation":"LINEAR",
					"output":171
				},
				{
					"input":91,
					"interpolation":"LINEAR",
					"output":172
				},
				{
					"input":91,
					"interpolation":"LINEAR",
					"output":173
				},
				{
					"input":91,
					"interpolation":"LINEAR",
					"output":174
				},
				{
					"input":91,
					"interpolation":"LINEAR",
					"output":175
				},
				{
					"input":91,
					"interpolation":"STEP",
					"output":176
				},
				{
					"input":91,
					"interpolation":"LINEAR",
					"output":177
				},
				{
					"input":91,
					"interpolation":"LINEAR",
					"output":178
				},
				{
					"input":91,
					"interpolation":"LINEAR",
					"output":179
				}
			]
		},
		{
			"channels":[
				{
					"sampler":0,
					"target":{
						"node":14,
						"path":"translation"
					}
				},
				{
					"sampler":1,
					"target":{
						"node":14,
						"path":"rotation"
					}
				},
				{
					"sampler":2,
					"target":{
						"node":14,
						"path":"scale"
					}
				},
				{
					"sampler":3,
					"target":{
						"node":13,
						"path":"translation"
					}
				},
				{
					"sampler":4,
					"target":{
						"node":13,
						"path":"rotation"
					}
				},
				{
					"sampler":5,
					"target":{
						"node":13,
						"path":"scale"
					}
				},
				{
					"sampler":6,
					"target":{
						"node":0,
						"path":"translation"
					}
				},
				{
					"sampler":7,
					"target":{
						"node":0,
						"path":"rotation"
					}
				},
				{
					"sampler":8,
					"target":{
						"node":0,
						"path":"scale"
					}
				},
				{
					"sampler":9,
					"target":{
						"node":1,
						"path":"translation"
					}
				},
				{
					"sampler":10,
					"target":{
						"node":1,
						"path":"rotation"
					}
				},
				{
					"sampler":11,
					"target":{
						"node":1,
						"path":"scale"
					}
				},
				{
					"sampler":12,
					"target":{
						"node":12,
						"path":"translation"
					}
				},
				{
					"sampler":13,
					"target":{
						"node":12,
						"path":"rotation"
					}
				},
				{
					"sampler":14,
					"target":{
						"node":12,
						"path":"scale"
					}
				},
				{
					"sampler":15,
					"target":{
						"node":11,
						"path":"translation"
					}
				},
				{
					"sampler":16,
					"target":{
						"node":11,
						"path":"rotation"
					}
				},
				{
					"sampler":17,
					"target":{
						"node":11,
						"path":"scale"
					}
				},
				{
					"sampler":18,
					"target":{
						"node":10,
						"path":"translation"
					}
				},
				{
					"sampler":19,
					"target":{
						"node":10,
						"path":"rotation"
					}
				},
				{
					"sampler":20,
					"target":{
						"node":10,
						"path":"scale"
					}
				},
				{
					"sampler":21,
					"target":{
						"node":9,
						"path":"translation"
					}
				},
				{
					"sampler":22,
					"target":{
						"node":9,
						"path":"rotation"
					}
				},
				{
					"sampler":23,
					"target":{
						"node":9,
						"path":"scale"
					}
				},
				{
					"sampler":24,
					"target":{
						"node":8,
						"path":"translation"
					}
				},
				{
					"sampler":25,
					"target":{
						"node":8,
						"path":"rotation"
					}
				},
				{
					"sampler":26,
					"target":{
						"node":8,
						"path":"scale"
					}
				},
				{
					"sampler":27,
					"target":{
						"node":2,
						"path":"translation"
					}
				},
				{
					"sampler":28,
					"target":{
						"node":2,
						"path":"rotation"
					}
				},
				{
					"sampler":29,
					"target":{
						"node":2,
						"path":"scale"
					}
				},
				{
					"sampler":30,
					"target":{
						"node":3,
						"path":"translation"
					}
				},
				{
					"sampler":31,
					"target":{
						"node":3,
						"path":"rotation"
					}
				},
				{
					"sampler":32,
					"target":{
						"node":3,
						"path":"scale"
					}
				},
				{
					"sampler":33,
					"target":{
						"node":4,
						"path":"translation"
					}
				},
				{
					"sampler":34,
					"target":{
						"node":4,
						"path":"rotation"
					}
				},
				{
					"sampler":35,
					"target":{
						"node":4,
						"path":"scale"
					}
				},
				{
					"sampler":36,
					"target":{
						"node":5,
						"path":"translation"
					}
				},
				{
					"sampler":37,
					"target":{
						"node":5,
						"path":"rotation"
					}
				},
				{
					"sampler":38,
					"target":{
						"node":5,
						"path":"scale"
					}
				},
				{
					"sampler":39,
					"target":{
						"node":6,
						"path":"translation"
					}
				},
				{
					"sampler":40,
					"target":{
						"node":6,
						"path":"rotation"
					}
				},
				{
					"sampler":41,
					"target":{
						"node":6,
						"path":"scale"
					}
				},
				{
					"sampler":42,
					"target":{
						"node":7,
						"path":"translation"
					}
				},
				{
					"sampler":43,
					"target":{
						"node":7,
						"path":"rotation"
					}
				},
				{
					"sampler":44,
					"target":{
						"node":7,
						"path":"scale"
					}
				}
			],
			"name":"Idle",
			"samplers":[
				{
					"input":91,
					"interpolation":"STEP",
					"output":92
				},
				{
					"input":91,
					"interpolation":"STEP",
					"output":93
				},
				{
					"input":91,
					"interpolation":"STEP",
					"output":94
				},
				{
					"input":91,
					"interpolation":"STEP",
					"output":95
				},
				{
					"input":113,
					"interpolation":"LINEAR",
					"output":180
				},
				{
					"input":91,
					"interpolation":"STEP",
					"output":97
				},
				{
					"input":91,
					"interpolation":"LINEAR",
					"output":181
				},
				{
					"input":113,
					"interpolation":"LINEAR",
					"output":182
				},
				{
					"input":91,
					"interpolation":"STEP",
					"output":183
				},
				{
					"input":91,
					"interpolation":"LINEAR",
					"output":184
				},
				{
					"input":113,
					"interpolation":"LINEAR",
					"output":185
				},
				{
					"input":91,
					"interpolation":"STEP",
					"output":186
				},
				{
					"input":91,
					"interpolation":"LINEAR",
					"output":187
				},
				{
					"input":113,
					"interpolation":"LINEAR",
					"output":188
				},
				{
					"input":91,
					"interpolation":"STEP",
					"output":189
				},
				{
					"input":91,
					"interpolation":"LINEAR",
					"output":190
				},
				{
					"input":113,
					"interpolation":"LINEAR",
					"output":191
				},
				{
					"input":91,
					"interpolation":"STEP",
					"output":97
				},
				{
					"input":91,
					"interpolation":"LINEAR",
					"output":192
				},
				{
					"input":113,
					"interpolation":"LINEAR",
					"output":193
				},
				{
					"input":91,
					"interpolation":"STEP",
					"output":194
				},
				{
					"input":91,
					"interpolation":"LINEAR",
					"output":195
				},
				{
					"input":113,
					"interpolation":"LINEAR",
					"output":196
				},
				{
					"input":91,
					"interpolation":"STEP",
					"output":97
				},
				{
					"input":91,
					"interpolation":"LINEAR",
					"output":197
				},
				{
					"input":91,
					"interpolation":"LINEAR",
					"output":198
				},
				{
					"input":91,
					"interpolation":"STEP",
					"output":199
				},
				{
					"input":91,
					"interpolation":"LINEAR",
					"output":200
				},
				{
					"input":113,
					"interpolation":"LINEAR",
					"output":201
				},
				{
					"input":91,
					"interpolation":"LINEAR",
					"output":202
				},
				{
					"input":91,
					"interpolation":"LINEAR",
					"output":203
				},
				{
					"input":91,
					"interpolation":"LINEAR",
					"output":204
				},
				{
					"input":91,
					"interpolation":"LINEAR",
					"output":205
				},
				{
					"input":91,
					"interpolation":"LINEAR",
					"output":206
				},
				{
					"input":113,
					"interpolation":"LINEAR",
					"output":207
				},
				{
					"input":91,
					"interpolation":"STEP",
					"output":208
				},
				{
					"input":91,
					"interpolation":"LINEAR",
					"output":209
				},
				{
					"input":113,
					"interpolation":"LINEAR",
					"output":210
				},
				{
					"input":91,
					"interpolation":"LINEAR",
					"output":211
				},
				{
					"input":91,
					"interpolation":"LINEAR",
					"output":212
				},
				{
					"input":113,
					"interpolation":"LINEAR",
					"output":213
				},
				{
					"input":91,
					"interpolation":"LINEAR",
					"output":214
				},
				{
					"input":91,
					"interpolation":"LINEAR",
					"output":215
				},
				{
					"input":113,
					"interpolation":"LINEAR",
					"output":216
				},
				{
					"input":91,
					"interpolation":"STEP",
					"output":217
				}
			]
		}
	],
	"materials":[
		{
			"doubleSided":true,
			"name":"***",
			"pbrMetallicRoughness":{
				"baseColorTexture":{
					"index":0
				},
				"metallicFactor":0,
				"roughnessFactor":0.5
			}
		}
	],
	"meshes":[
		{
			"name":"\u5186\u67f1.007",
			"primitives":[
				{
					"attributes":{
						"POSITION":0,
						"NORMAL":1,
						"TEXCOORD_0":2,
						"JOINTS_0":3,
						"WEIGHTS_0":4
					},
					"indices":5,
					"material":0
				}
			]
		},
		{
			"name":"\u5186\u67f1.008",
			"primitives":[
				{
					"attributes":{
						"POSITION":7,
						"NORMAL":8,
						"TEXCOORD_0":9,
						"JOINTS_0":10,
						"WEIGHTS_0":11
					},
					"indices":12,
					"material":0
				}
			]
		},
		{
			"name":"\u5186\u67f1.009",
			"primitives":[
				{
					"attributes":{
						"POSITION":13,
						"NORMAL":14,
						"TEXCOORD_0":15,
						"JOINTS_0":16,
						"WEIGHTS_0":17
					},
					"indices":18,
					"material":0
				}
			]
		},
		{
			"name":"\u5186\u67f1.010",
			"primitives":[
				{
					"attributes":{
						"POSITION":19,
						"NORMAL":20,
						"TEXCOORD_0":21,
						"JOINTS_0":22,
						"WEIGHTS_0":23
					},
					"indices":24,
					"material":0
				}
			]
		},
		{
			"name":"\u5186\u67f1.011",
			"primitives":[
				{
					"attributes":{
						"POSITION":25,
						"NORMAL":26,
						"TEXCOORD_0":27,
						"JOINTS_0":28,
						"WEIGHTS_0":29
					},
					"indices":30,
					"material":0
				}
			]
		},
		{
			"name":"\u5186\u67f1.012",
			"primitives":[
				{
					"attributes":{
						"POSITION":31,
						"NORMAL":32,
						"TEXCOORD_0":33,
						"JOINTS_0":34,
						"WEIGHTS_0":35
					},
					"indices":36,
					"material":0
				}
			]
		},
		{
			"name":"\u5186\u9310.034",
			"primitives":[
				{
					"attributes":{
						"POSITION":37,
						"NORMAL":38,
						"TEXCOORD_0":39,
						"JOINTS_0":40,
						"WEIGHTS_0":41
					},
					"indices":42,
					"material":0
				}
			]
		},
		{
			"name":"\u5e73\u9762",
			"primitives":[
				{
					"attributes":{
						"POSITION":43,
						"NORMAL":44,
						"TEXCOORD_0":45,
						"JOINTS_0":46,
						"WEIGHTS_0":47
					},
					"indices":48,
					"material":0
				}
			]
		},
		{
			"name":"\u5e73\u9762.004",
			"primitives":[
				{
					"attributes":{
						"POSITION":49,
						"NORMAL":50,
						"TEXCOORD_0":51,
						"JOINTS_0":52,
						"WEIGHTS_0":53
					},
					"indices":54,
					"material":0
				}
			]
		},
		{
			"name":"\u5e73\u9762.005",
			"primitives":[
				{
					"attributes":{
						"POSITION":55,
						"NORMAL":56,
						"TEXCOORD_0":57,
						"JOINTS_0":58,
						"WEIGHTS_0":59
					},
					"indices":60,
					"material":0
				}
			]
		},
		{
			"name":"\u5e73\u9762.006",
			"primitives":[
				{
					"attributes":{
						"POSITION":61,
						"NORMAL":62,
						"TEXCOORD_0":63,
						"JOINTS_0":64,
						"WEIGHTS_0":65
					},
					"indices":66,
					"material":0
				}
			]
		},
		{
			"name":"\u5e73\u9762.007",
			"primitives":[
				{
					"attributes":{
						"POSITION":67,
						"NORMAL":68,
						"TEXCOORD_0":69,
						"JOINTS_0":70,
						"WEIGHTS_0":71
					},
					"indices":72,
					"material":0
				}
			]
		},
		{
			"name":"\u5e73\u9762.008",
			"primitives":[
				{
					"attributes":{
						"POSITION":73,
						"NORMAL":74,
						"TEXCOORD_0":75,
						"JOINTS_0":76,
						"WEIGHTS_0":77
					},
					"indices":78,
					"material":0
				}
			]
		},
		{
			"name":"\u7acb\u65b9\u4f53.014",
			"primitives":[
				{
					"attributes":{
						"POSITION":79,
						"NORMAL":80,
						"TEXCOORD_0":81,
						"JOINTS_0":82,
						"WEIGHTS_0":83
					},
					"indices":84,
					"material":0
				}
			]
		},
		{
			"name":"\u7acb\u65b9\u4f53.004",
			"primitives":[
				{
					"attributes":{
						"POSITION":85,
						"NORMAL":86,
						"TEXCOORD_0":87,
						"JOINTS_0":88,
						"WEIGHTS_0":89
					},
					"indices":90,
					"material":0
				}
			]
		}
	],
	"textures":[
		{
			"sampler":0,
			"source":0
		}
	],
	"images":[
		{
			"mimeType":"image/png",
			"name":"FlowerSunward",
			"uri":"FlowerSunward.png"
		}
	],
	"skins":[
		{
			"inverseBindMatrices":6,
			"joints":[
				14,
				13,
				0,
				1,
				12,
				11,
				10,
				9,
				8,
				2,
				3,
				4,
				5,
				6,
				7
			],
			"name":"\u30a2\u30fc\u30de\u30c1\u30e5\u30a2.003"
		}
	],
	"accessors":[
		{
			"bufferView":0,
			"componentType":5126,
			"count":136,
			"max":[
				0.14192470908164978,
				0.12063093483448029,
				0.07961686700582504
			],
			"min":[
				-0.0524028018116951,
				-0.18323259055614471,
				-0.11471065133810043
			],
			"type":"VEC3"
		},
		{
			"bufferView":1,
			"componentType":5126,
			"count":136,
			"type":"VEC3"
		},
		{
			"bufferView":2,
			"componentType":5126,
			"count":136,
			"type":"VEC2"
		},
		{
			"bufferView":3,
			"componentType":5121,
			"count":136,
			"type":"VEC4"
		},
		{
			"bufferView":4,
			"componentType":5126,
			"count":136,
			"type":"VEC4"
		},
		{
			"bufferView":5,
			"componentType":5123,
			"count":372,
			"type":"SCALAR"
		},
		{
			"bufferView":6,
			"componentType":5126,
			"count":15,
			"type":"MAT4"
		},
		{
			"bufferView":7,
			"componentType":5126,
			"count":136,
			"max":[
				0.14192470908164978,
				0.356873095035553,
				0.07961686700582504
			],
			"min":[
				-0.0524028018116951,
				0.053009554743766785,
				-0.11471065133810043
			],
			"type":"VEC3"
		},
		{
			"bufferView":8,
			"componentType":5126,
			"count":136,
			"type":"VEC3"
		},
		{
			"bufferView":9,
			"componentType":5126,
			"count":136,
			"type":"VEC2"
		},
		{
			"bufferView":10,
			"componentType":5121,
			"count":136,
			"type":"VEC4"
		},
		{
			"bufferView":11,
			"componentType":5126,
			"count":136,
			"type":"VEC4"
		},
		{
			"bufferView":12,
			"componentType":5123,
			"count":372,
			"type":"SCALAR"
		},
		{
			"bufferView":13,
			"componentType":5126,
			"count":136,
			"max":[
				0.14192470908164978,
				0.6065189838409424,
				0.07961686700582504
			],
			"min":[
				-0.0524028018116951,
				0.3026554584503174,
				-0.11471065133810043
			],
			"type":"VEC3"
		},
		{
			"bufferView":14,
			"componentType":5126,
			"count":136,
			"type":"VEC3"
		},
		{
			"bufferView":15,
			"componentType":5126,
			"count":136,
			"type":"VEC2"
		},
		{
			"bufferView":16,
			"componentType":5121,
			"count":136,
			"type":"VEC4"
		},
		{
			"bufferView":17,
			"componentType":5126,
			"count":136,
			"type":"VEC4"
		},
		{
			"bufferView":18,
			"componentType":5123,
			"count":372,
			"type":"SCALAR"
		},
		{
			"bufferView":19,
			"componentType":5126,
			"count":136,
			"max":[
				0.1336016058921814,
				0.8611586093902588,
				0.07891806215047836
			],
			"min":[
				-0.06072590500116348,
				0.5572950839996338,
				-0.11540945619344711
			],
			"type":"VEC3"
		},
		{
			"bufferView":20,
			"componentType":5126,
			"count":136,
			"type":"VEC3"
		},
		{
			"bufferView":21,
			"componentType":5126,
			"count":136,
			"type":"VEC2"
		},
		{
			"bufferView":22,
			"componentType":5121,
			"count":136,
			"type":"VEC4"
		},
		{
			"bufferView":23,
			"componentType":5126,
			"count":136,
			"type":"VEC4"
		},
		{
			"bufferView":24,
			"componentType":5123,
			"count":372,
			"type":"SCALAR"
		},
		{
			"bufferView":25,
			"componentType":5126,
			"count":134,
			"max":[
				0.14192470908164978,
				1.0966753959655762,
				0.07961686700582504
			],
			"min":[
				-0.0524028018116951,
				0.7928118705749512,
				-0.11471065133810043
			],
			"type":"VEC3"
		},
		{
			"bufferView":26,
			"componentType":5126,
			"count":134,
			"type":"VEC3"
		},
		{
			"bufferView":27,
			"componentType":5126,
			"count":134,
			"type":"VEC2"
		},
		{
			"bufferView":28,
			"componentType":5121,
			"count":134,
			"type":"VEC4"
		},
		{
			"bufferView":29,
			"componentType":5126,
			"count":134,
			"type":"VEC4"
		},
		{
			"bufferView":30,
			"componentType":5123,
			"count":372,
			"type":"SCALAR"
		},
		{
			"bufferView":31,
			"componentType":5126,
			"count":134,
			"max":[
				0.14192470908164978,
				1.2824552059173584,
				0.07961686700582504
			],
			"min":[
				-0.0524028018116951,
				0.9785916805267334,
				-0.11471065133810043
			],
			"type":"VEC3"
		},
		{
			"bufferView":32,
			"componentType":5126,
			"count":134,
			"type":"VEC3"
		},
		{
			"bufferView":33,
			"componentType":5126,
			"count":134,
			"type":"VEC2"
		},
		{
			"bufferView":34,
			"componentType":5121,
			"count":134,
			"type":"VEC4"
		},
		{
			"bufferView":35,
			"componentType":5126,
			"count":134,
			"type":"VEC4"
		},
		{
			"bufferView":36,
			"componentType":5123,
			"count":372,
			"type":"SCALAR"
		},
		{
			"bufferView":37,
			"componentType":5126,
			"count":116,
			"max":[
				1.1446559429168701,
				2.4324467182159424,
				0.5935083627700806
			],
			"min":[
				-0.03794640302658081,
				1.1574997901916504,
				-0.6235100030899048
			],
			"type":"VEC3"
		},
		{
			"bufferView":38,
			"componentType":5126,
			"count":116,
			"type":"VEC3"
		},
		{
			"bufferView":39,
			"componentType":5126,
			"count":116,
			"type":"VEC2"
		},
		{
			"bufferView":40,
			"componentType":5121,
			"count":116,
			"type":"VEC4"
		},
		{
			"bufferView":41,
			"componentType":5126,
			"count":116,
			"type":"VEC4"
		},
		{
			"bufferView":42,
			"componentType":5123,
			"count":306,
			"type":"SCALAR"
		},
		{
			"bufferView":43,
			"componentType":5126,
			"count":414,
			"max":[
				0.4070266783237457,
				2.9915921688079834,
				0.441925048828125
			],
			"min":[
				-0.5900557041168213,
				2.1582770347595215,
				-0.499300092458725
			],
			"type":"VEC3"
		},
		{
			"bufferView":44,
			"componentType":5126,
			"count":414,
			"type":"VEC3"
		},
		{
			"bufferView":45,
			"componentType":5126,
			"count":414,
			"type":"VEC2"
		},
		{
			"bufferView":46,
			"componentType":5121,
			"count":414,
			"type":"VEC4"
		},
		{
			"bufferView":47,
			"componentType":5126,
			"count":414,
			"type":"VEC4"
		},
		{
			"bufferView":48,
			"componentType":5123,
			"count":1440,
			"type":"SCALAR"
		},
		{
			"bufferView":49,
			"componentType":5126,
			"count":420,
			"max":[
				0.8488848209381104,
				2.410154342651367,
				-0.15409404039382935
			],
			"min":[
				-0.028834491968154907,
				1.802520751953125,
				-1.408423900604248
			],
			"type":"VEC3"
		},
		{
			"bufferView":50,
			"componentType":5126,
			"count":420,
			"type":"VEC3"
		},
		{
			"bufferView":51,
			"componentType":5126,
			"count":420,
			"type":"VEC2"
		},
		{
			"bufferView":52,
			"componentType":5121,
			"count":420,
			"type":"VEC4"
		},
		{
			"bufferView":53,
			"componentType":5126,
			"count":420,
			"type":"VEC4"
		},
		{
			"bufferView":54,
			"componentType":5123,
			"count":1440,
			"type":"SCALAR"
		},
		{
			"bufferView":55,
			"componentType":5126,
			"count":420,
			"max":[
				1.4779661893844604,
				2.0189449787139893,
				-0.054650306701660156
			],
			"min":[
				0.4323663115501404,
				1.521578073501587,
				-1.380014181137085
			],
			"type":"VEC3"
		},
		{
			"bufferView":56,
			"componentType":5126,
			"count":420,
			"type":"VEC3"
		},
		{
			"bufferView":57,
			"componentType":5126,
			"count":420,
			"type":"VEC2"
		},
		{
			"bufferView":58,
			"componentType":5121,
			"count":420,
			"type":"VEC4"
		},
		{
			"bufferView":59,
			"componentType":5126,
			"count":420,
			"type":"VEC4"
		},
		{
			"bufferView":60,
			"componentType":5123,
			"count":1440,
			"type":"SCALAR"
		},
		{
			"bufferView":61,
			"componentType":5126,
			"count":420,
			"max":[
				1.7262451648712158,
				1.8967249393463135,
				0.43349188566207886
			],
			"min":[
				0.5721114277839661,
				1.2981462478637695,
				-0.49796128273010254
			],
			"type":"VEC3"
		},
		{
			"bufferView":62,
			"componentType":5126,
			"count":420,
			"type":"VEC3"
		},
		{
			"bufferView":63,
			"componentType":5126,
			"count":420,
			"type":"VEC2"
		},
		{
			"bufferView":64,
			"componentType":5121,
			"count":420,
			"type":"VEC4"
		},
		{
			"bufferView":65,
			"componentType":5126,
			"count":420,
			"type":"VEC4"
		},
		{
			"bufferView":66,
			"componentType":5123,
			"count":1440,
			"type":"SCALAR"
		},
		{
			"bufferView":67,
			"componentType":5126,
			"count":420,
			"max":[
				1.3352010250091553,
				2.044086217880249,
				1.2470836639404297
			],
			"min":[
				0.4410620331764221,
				1.4232900142669678,
				0.02547287940979004
			],
			"type":"VEC3"
		},
		{
			"bufferView":68,
			"componentType":5126,
			"count":420,
			"type":"VEC3"
		},
		{
			"bufferView":69,
			"componentType":5126,
			"count":420,
			"type":"VEC2"
		},
		{
			"bufferView":70,
			"componentType":5121,
			"count":420,
			"type":"VEC4"
		},
		{
			"bufferView":71,
			"componentType":5126,
			"count":420,
			"type":"VEC4"
		},
		{
			"bufferView":72,
			"componentType":5123,
			"count":1440,
			"type":"SCALAR"
		},
		{
			"bufferView":73,
			"componentType":5126,
			"count":420,
			"max":[
				0.7704159617424011,
				2.5011987686157227,
				1.4375419616699219
			],
			"min":[
				-0.09661757946014404,
				1.705962896347046,
				0.09313368797302246
			],
			"type":"VEC3"
		},
		{
			"bufferView":74,
			"componentType":5126,
			"count":420,
			"type":"VEC3"
		},
		{
			"bufferView":75,
			"componentType":5126,
			"count":420,
			"type":"VEC2"
		},
		{
			"bufferView":76,
			"componentType":5121,
			"count":420,
			"type":"VEC4"
		},
		{
			"bufferView":77,
			"componentType":5126,
			"count":420,
			"type":"VEC4"
		},
		{
			"bufferView":78,
			"componentType":5123,
			"count":1440,
			"type":"SCALAR"
		},
		{
			"bufferView":79,
			"componentType":5126,
			"count":271,
			"max":[
				0.2570573091506958,
				0.6103500127792358,
				1.0583703517913818
			],
			"min":[
				-0.17199742794036865,
				-0.08225664496421814,
				0.05894717574119568
			],
			"type":"VEC3"
		},
		{
			"bufferView":80,
			"componentType":5126,
			"count":271,
			"type":"VEC3"
		},
		{
			"bufferView":81,
			"componentType":5126,
			"count":271,
			"type":"VEC2"
		},
		{
			"bufferView":82,
			"componentType":5121,
			"count":271,
			"type":"VEC4"
		},
		{
			"bufferView":83,
			"componentType":5126,
			"count":271,
			"type":"VEC4"
		},
		{
			"bufferView":84,
			"componentType":5123,
			"count":288,
			"type":"SCALAR"
		},
		{
			"bufferView":85,
			"componentType":5126,
			"count":271,
			"max":[
				0.3027837574481964,
				0.5772233605384827,
				-0.08139881491661072
			],
			"min":[
				-0.18583454191684723,
				-0.11357790231704712,
				-1.0808219909667969
			],
			"type":"VEC3"
		},
		{
			"bufferView":86,
			"componentType":5126,
			"count":271,
			"type":"VEC3"
		},
		{
			"bufferView":87,
			"componentType":5126,
			"count":271,
			"type":"VEC2"
		},
		{
			"bufferView":88,
			"componentType":5121,
			"count":271,
			"type":"VEC4"
		},
		{
			"bufferView":89,
			"componentType":5126,
			"count":271,
			"type":"VEC4"
		},
		{
			"bufferView":90,
			"componentType":5123,
			"count":288,
			"type":"SCALAR"
		},
		{
			"bufferView":91,
			"componentType":5126,
			"count":2,
			"max":[
				2.5
			],
			"min":[
				0.041666666666666664
			],
			"type":"SCALAR"
		},
		{
			"bufferView":92,
			"componentType":5126,
			"count":2,
			"type":"VEC3"
		},
		{
			"bufferView":93,
			"componentType":5126,
			"count":2,
			"type":"VEC4"
		},
		{
			"bufferView":94,
			"componentType":5126,
			"count":2,
			"type":"VEC3"
		},
		{
			"bufferView":95,
			"componentType":5126,
			"count":2,
			"type":"VEC3"
		},
		{
			"bufferView":96,
			"componentType":5126,
			"count":2,
			"type":"VEC4"
		},
		{
			"bufferView":97,
			"componentType":5126,
			"count":2,
			"type":"VEC3"
		},
		{
			"bufferView":98,
			"componentType":5126,
			"count":2,
			"type":"VEC3"
		},
		{
			"bufferView":99,
			"componentType":5126,
			"count":2,
			"type":"VEC4"
		},
		{
			"bufferView":100,
			"componentType":5126,
			"count":2,
			"type":"VEC3"
		},
		{
			"bufferView":101,
			"componentType":5126,
			"count":2,
			"type":"VEC3"
		},
		{
			"bufferView":102,
			"componentType":5126,
			"count":2,
			"type":"VEC4"
		},
		{
			"bufferView":103,
			"componentType":5126,
			"count":2,
			"type":"VEC3"
		},
		{
			"bufferView":104,
			"componentType":5126,
			"count":2,
			"type":"VEC3"
		},
		{
			"bufferView":105,
			"componentType":5126,
			"count":2,
			"type":"VEC3"
		},
		{
			"bufferView":106,
			"componentType":5126,
			"count":2,
			"type":"VEC3"
		},
		{
			"bufferView":107,
			"componentType":5126,
			"count":2,
			"type":"VEC3"
		},
		{
			"bufferView":108,
			"componentType":5126,
			"count":2,
			"type":"VEC4"
		},
		{
			"bufferView":109,
			"componentType":5126,
			"count":2,
			"type":"VEC3"
		},
		{
			"bufferView":110,
			"componentType":5126,
			"count":2,
			"type":"VEC4"
		},
		{
			"bufferView":111,
			"componentType":5126,
			"count":2,
			"type":"VEC3"
		},
		{
			"bufferView":112,
			"componentType":5126,
			"count":2,
			"type":"VEC3"
		},
		{
			"bufferView":113,
			"componentType":5126,
			"count":60,
			"max":[
				2.5
			],
			"min":[
				0.041666666666666664
			],
			"type":"SCALAR"
		},
		{
			"bufferView":114,
			"componentType":5126,
			"count":60,
			"type":"VEC4"
		},
		{
			"bufferView":115,
			"componentType":5126,
			"count":2,
			"type":"VEC3"
		},
		{
			"bufferView":116,
			"componentType":5126,
			"count":2,
			"type":"VEC3"
		},
		{
			"bufferView":117,
			"componentType":5126,
			"count":60,
			"type":"VEC4"
		},
		{
			"bufferView":118,
			"componentType":5126,
			"count":2,
			"type":"VEC3"
		},
		{
			"bufferView":119,
			"componentType":5126,
			"count":2,
			"type":"VEC3"
		},
		{
			"bufferView":120,
			"componentType":5126,
			"count":60,
			"type":"VEC4"
		},
		{
			"bufferView":121,
			"componentType":5126,
			"count":2,
			"type":"VEC3"
		},
		{
			"bufferView":122,
			"componentType":5126,
			"count":2,
			"type":"VEC3"
		},
		{
			"bufferView":123,
			"componentType":5126,
			"count":60,
			"type":"VEC4"
		},
		{
			"bufferView":124,
			"componentType":5126,
			"count":2,
			"type":"VEC3"
		},
		{
			"bufferView":125,
			"componentType":5126,
			"count":2,
			"type":"VEC3"
		},
		{
			"bufferView":126,
			"componentType":5126,
			"count":60,
			"type":"VEC4"
		},
		{
			"bufferView":127,
			"componentType":5126,
			"count":2,
			"type":"VEC3"
		},
		{
			"bufferView":128,
			"componentType":5126,
			"count":2,
			"type":"VEC3"
		},
		{
			"bufferView":129,
			"componentType":5126,
			"count":60,
			"type":"VEC4"
		},
		{
			"bufferView":130,
			"componentType":5126,
			"count":2,
			"type":"VEC3"
		},
		{
			"bufferView":131,
			"componentType":5126,
			"count":60,
			"type":"VEC4"
		},
		{
			"bufferView":132,
			"componentType":5126,
			"count":60,
			"type":"VEC4"
		},
		{
			"bufferView":133,
			"componentType":5126,
			"count":60,
			"type":"VEC4"
		},
		{
			"bufferView":134,
			"componentType":5126,
			"count":2,
			"type":"VEC3"
		},
		{
			"bufferView":135,
			"componentType":5126,
			"count":60,
			"type":"VEC4"
		},
		{
			"bufferView":136,
			"componentType":5126,
			"count":2,
			"type":"VEC3"
		},
		{
			"bufferView":137,
			"componentType":5126,
			"count":60,
			"type":"VEC4"
		},
		{
			"bufferView":138,
			"componentType":5126,
			"count":2,
			"type":"VEC3"
		},
		{
			"bufferView":139,
			"componentType":5126,
			"count":60,
			"type":"VEC4"
		},
		{
			"bufferView":140,
			"componentType":5126,
			"count":2,
			"type":"VEC3"
		},
		{
			"bufferView":141,
			"componentType":5126,
			"count":60,
			"type":"VEC4"
		},
		{
			"bufferView":142,
			"componentType":5126,
			"count":2,
			"type":"VEC3"
		},
		{
			"bufferView":143,
			"componentType":5126,
			"count":60,
			"type":"VEC4"
		},
		{
			"bufferView":144,
			"componentType":5126,
			"count":2,
			"type":"VEC3"
		},
		{
			"bufferView":145,
			"componentType":5126,
			"count":60,
			"type":"VEC4"
		},
		{
			"bufferView":146,
			"componentType":5126,
			"count":2,
			"type":"VEC3"
		},
		{
			"bufferView":147,
			"componentType":5126,
			"count":2,
			"type":"VEC3"
		},
		{
			"bufferView":148,
			"componentType":5126,
			"count":60,
			"type":"VEC4"
		},
		{
			"bufferView":149,
			"componentType":5126,
			"count":2,
			"type":"VEC3"
		},
		{
			"bufferView":150,
			"componentType":5126,
			"count":2,
			"type":"VEC3"
		},
		{
			"bufferView":151,
			"componentType":5126,
			"count":60,
			"type":"VEC4"
		},
		{
			"bufferView":152,
			"componentType":5126,
			"count":2,
			"type":"VEC3"
		},
		{
			"bufferView":153,
			"componentType":5126,
			"count":2,
			"type":"VEC3"
		},
		{
			"bufferView":154,
			"componentType":5126,
			"count":2,
			"type":"VEC3"
		},
		{
			"bufferView":155,
			"componentType":5126,
			"count":60,
			"type":"VEC4"
		},
		{
			"bufferView":156,
			"componentType":5126,
			"count":2,
			"type":"VEC3"
		},
		{
			"bufferView":157,
			"componentType":5126,
			"count":60,
			"type":"VEC4"
		},
		{
			"bufferView":158,
			"componentType":5126,
			"count":2,
			"type":"VEC3"
		},
		{
			"bufferView":159,
			"componentType":5126,
			"count":2,
			"type":"VEC3"
		},
		{
			"bufferView":160,
			"componentType":5126,
			"count":2,
			"type":"VEC4"
		},
		{
			"bufferView":161,
			"componentType":5126,
			"count":2,
			"type":"VEC3"
		},
		{
			"bufferView":162,
			"componentType":5126,
			"count":2,
			"type":"VEC3"
		},
		{
			"bufferView":163,
			"componentType":5126,
			"count":2,
			"type":"VEC4"
		},
		{
			"bufferView":164,
			"componentType":5126,
			"count":2,
			"type":"VEC3"
		},
		{
			"bufferView":165,
			"componentType":5126,
			"count":2,
			"type":"VEC3"
		},
		{
			"bufferView":166,
			"componentType":5126,
			"count":2,
			"type":"VEC4"
		},
		{
			"bufferView":167,
			"componentType":5126,
			"count":2,
			"type":"VEC3"
		},
		{
			"bufferView":168,
			"componentType":5126,
			"count":2,
			"type":"VEC3"
		},
		{
			"bufferView":169,
			"componentType":5126,
			"count":2,
			"type":"VEC4"
		},
		{
			"bufferView":170,
			"componentType":5126,
			"count":2,
			"type":"VEC3"
		},
		{
			"bufferView":171,
			"componentType":5126,
			"count":2,
			"type":"VEC3"
		},
		{
			"bufferView":172,
			"componentType":5126,
			"count":2,
			"type":"VEC4"
		},
		{
			"bufferView":173,
			"componentType":5126,
			"count":2,
			"type":"VEC3"
		},
		{
			"bufferView":174,
			"componentType":5126,
			"count":2,
			"type":"VEC3"
		},
		{
			"bufferView":175,
			"componentType":5126,
			"count":2,
			"type":"VEC4"
		},
		{
			"bufferView":176,
			"componentType":5126,
			"count":2,
			"type":"VEC3"
		},
		{
			"bufferView":177,
			"componentType":5126,
			"count":2,
			"type":"VEC3"
		},
		{
			"bufferView":178,
			"componentType":5126,
			"count":2,
			"type":"VEC4"
		},
		{
			"bufferView":179,
			"componentType":5126,
			"count":2,
			"type":"VEC3"
		},
		{
			"bufferView":180,
			"componentType":5126,
			"count":60,
			"type":"VEC4"
		},
		{
			"bufferView":181,
			"componentType":5126,
			"count":2,
			"type":"VEC3"
		},
		{
			"bufferView":182,
			"componentType":5126,
			"count":60,
			"type":"VEC4"
		},
		{
			"bufferView":183,
			"componentType":5126,
			"count":2,
			"type":"VEC3"
		},
		{
			"bufferView":184,
			"componentType":5126,
			"count":2,
			"type":"VEC3"
		},
		{
			"bufferView":185,
			"componentType":5126,
			"count":60,
			"type":"VEC4"
		},
		{
			"bufferView":186,
			"componentType":5126,
			"count":2,
			"type":"VEC3"
		},
		{
			"bufferView":187,
			"componentType":5126,
			"count":2,
			"type":"VEC3"
		},
		{
			"bufferView":188,
			"componentType":5126,
			"count":60,
			"type":"VEC4"
		},
		{
			"bufferView":189,
			"componentType":5126,
			"count":2,
			"type":"VEC3"
		},
		{
			"bufferView":190,
			"componentType":5126,
			"count":2,
			"type":"VEC3"
		},
		{
			"bufferView":191,
			"componentType":5126,
			"count":60,
			"type":"VEC4"
		},
		{
			"bufferView":192,
			"componentType":5126,
			"count":2,
			"type":"VEC3"
		},
		{
			"bufferView":193,
			"componentType":5126,
			"count":60,
			"type":"VEC4"
		},
		{
			"bufferView":194,
			"componentType":5126,
			"count":2,
			"type":"VEC3"
		},
		{
			"bufferView":195,
			"componentType":5126,
			"count":2,
			"type":"VEC3"
		},
		{
			"bufferView":196,
			"componentType":5126,
			"count":60,
			"type":"VEC4"
		},
		{
			"bufferView":197,
			"componentType":5126,
			"count":2,
			"type":"VEC3"
		},
		{
			"bufferView":198,
			"componentType":5126,
			"count":2,
			"type":"VEC4"
		},
		{
			"bufferView":199,
			"componentType":5126,
			"count":2,
			"type":"VEC3"
		},
		{
			"bufferView":200,
			"componentType":5126,
			"count":2,
			"type":"VEC3"
		},
		{
			"bufferView":201,
			"componentType":5126,
			"count":60,
			"type":"VEC4"
		},
		{
			"bufferView":202,
			"componentType":5126,
			"count":2,
			"type":"VEC3"
		},
		{
			"bufferView":203,
			"componentType":5126,
			"count":2,
			"type":"VEC3"
		},
		{
			"bufferView":204,
			"componentType":5126,
			"count":2,
			"type":"VEC4"
		},
		{
			"bufferView":205,
			"componentType":5126,
			"count":2,
			"type":"VEC3"
		},
		{
			"bufferView":206,
			"componentType":5126,
			"count":2,
			"type":"VEC3"
		},
		{
			"bufferView":207,
			"componentType":5126,
			"count":60,
			"type":"VEC4"
		},
		{
			"bufferView":208,
			"componentType":5126,
			"count":2,
			"type":"VEC3"
		},
		{
			"bufferView":209,
			"componentType":5126,
			"count":2,
			"type":"VEC3"
		},
		{
			"bufferView":210,
			"componentType":5126,
			"count":60,
			"type":"VEC4"
		},
		{
			"bufferView":211,
			"componentType":5126,
			"count":2,
			"type":"VEC3"
		},
		{
			"bufferView":212,
			"componentType":5126,
			"count":2,
			"type":"VEC3"
		},
		{
			"bufferView":213,
			"componentType":5126,
			"count":60,
			"type":"VEC4"
		},
		{
			"bufferView":214,
			"componentType":5126,
			"count":2,
			"type":"VEC3"
		},
		{
			"bufferView":215,
			"componentType":5126,
			"count":2,
			"type":"VEC3"
		},
		{
			"bufferView":216,
			"componentType":5126,
			"count":60,
			"type":"VEC4"
		},
		{
			"bufferView":217,
			"componentType":5126,
			"count":2,
			"type":"VEC3"
		}
	],
	"bufferViews":[
		{
			"buffer":0,
			"byteLength":1632,
			"byteOffset":0,
			"target":34962
		},
		{
			"buffer":0,
			"byteLength":1632,
			"byteOffset":1632,
			"target":34962
		},
		{
			"buffer":0,
			"byteLength":1088,
			"byteOffset":3264,
			"target":34962
		},
		{
			"buffer":0,
			"byteLength":544,
			"byteOffset":4352,
			"target":34962
		},
		{
			"buffer":0,
			"byteLength":2176,
			"byteOffset":4896,
			"target":34962
		},
		{
			"buffer":0,
			"byteLength":744,
			"byteOffset":7072,
			"target":34963
		},
		{
			"buffer":0,
			"byteLength":960,
			"byteOffset":7816
		},
		{
			"buffer":0,
			"byteLength":1632,
			"byteOffset":8776,
			"target":34962
		},
		{
			"buffer":0,
			"byteLength":1632,
			"byteOffset":10408,
			"target":34962
		},
		{
			"buffer":0,
			"byteLength":1088,
			"byteOffset":12040,
			"target":34962
		},
		{
			"buffer":0,
			"byteLength":544,
			"byteOffset":13128,
			"target":34962
		},
		{
			"buffer":0,
			"byteLength":2176,
			"byteOffset":13672,
			"target":34962
		},
		{
			"buffer":0,
			"byteLength":744,
			"byteOffset":15848,
			"target":34963
		},
		{
			"buffer":0,
			"byteLength":1632,
			"byteOffset":16592,
			"target":34962
		},
		{
			"buffer":0,
			"byteLength":1632,
			"byteOffset":18224,
			"target":34962
		},
		{
			"buffer":0,
			"byteLength":1088,
			"byteOffset":19856,
			"target":34962
		},
		{
			"buffer":0,
			"byteLength":544,
			"byteOffset":20944,
			"target":34962
		},
		{
			"buffer":0,
			"byteLength":2176,
			"byteOffset":21488,
			"target":34962
		},
		{
			"buffer":0,
			"byteLength":744,
			"byteOffset":23664,
			"target":34963
		},
		{
			"buffer":0,
			"byteLength":1632,
			"byteOffset":24408,
			"target":34962
		},
		{
			"buffer":0,
			"byteLength":1632,
			"byteOffset":26040,
			"target":34962
		},
		{
			"buffer":0,
			"byteLength":1088,
			"byteOffset":27672,
			"target":34962
		},
		{
			"buffer":0,
			"byteLength":544,
			"byteOffset":28760,
			"target":34962
		},
		{
			"buffer":0,
			"byteLength":2176,
			"byteOffset":29304,
			"target":34962
		},
		{
			"buffer":0,
			"byteLength":744,
			"byteOffset":31480,
			"target":34963
		},
		{
			"buffer":0,
			"byteLength":1608,
			"byteOffset":32224,
			"target":34962
		},
		{
			"buffer":0,
			"byteLength":1608,
			"byteOffset":33832,
			"target":34962
		},
		{
			"buffer":0,
			"byteLength":1072,
			"byteOffset":35440,
			"target":34962
		},
		{
			"buffer":0,
			"byteLength":536,
			"byteOffset":36512,
			"target":34962
		},
		{
			"buffer":0,
			"byteLength":2144,
			"byteOffset":37048,
			"target":34962
		},
		{
			"buffer":0,
			"byteLength":744,
			"byteOffset":39192,
			"target":34963
		},
		{
			"buffer":0,
			"byteLength":1608,
			"byteOffset":39936,
			"target":34962
		},
		{
			"buffer":0,
			"byteLength":1608,
			"byteOffset":41544,
			"target":34962
		},
		{
			"buffer":0,
			"byteLength":1072,
			"byteOffset":43152,
			"target":34962
		},
		{
			"buffer":0,
			"byteLength":536,
			"byteOffset":44224,
			"target":34962
		},
		{
			"buffer":0,
			"byteLength":2144,
			"byteOffset":44760,
			"target":34962
		},
		{
			"buffer":0,
			"byteLength":744,
			"byteOffset":46904,
			"target":34963
		},
		{
			"buffer":0,
			"byteLength":1392,
			"byteOffset":47648,
			"target":34962
		},
		{
			"buffer":0,
			"byteLength":1392,
			"byteOffset":49040,
			"target":34962
		},
		{
			"buffer":0,
			"byteLength":928,
			"byteOffset":50432,
			"target":34962
		},
		{
			"buffer":0,
			"byteLength":464,
			"byteOffset":51360,
			"target":34962
		},
		{
			"buffer":0,
			"byteLength":1856,
			"byteOffset":51824,
			"target":34962
		},
		{
			"buffer":0,
			"byteLength":612,
			"byteOffset":53680,
			"target":34963
		},
		{
			"buffer":0,
			"byteLength":4968,
			"byteOffset":54292,
			"target":34962
		},
		{
			"buffer":0,
			"byteLength":4968,
			"byteOffset":59260,
			"target":34962
		},
		{
			"buffer":0,
			"byteLength":3312,
			"byteOffset":64228,
			"target":34962
		},
		{
			"buffer":0,
			"byteLength":1656,
			"byteOffset":67540,
			"target":34962
		},
		{
			"buffer":0,
			"byteLength":6624,
			"byteOffset":69196,
			"target":34962
		},
		{
			"buffer":0,
			"byteLength":2880,
			"byteOffset":75820,
			"target":34963
		},
		{
			"buffer":0,
			"byteLength":5040,
			"byteOffset":78700,
			"target":34962
		},
		{
			"buffer":0,
			"byteLength":5040,
			"byteOffset":83740,
			"target":34962
		},
		{
			"buffer":0,
			"byteLength":3360,
			"byteOffset":88780,
			"target":34962
		},
		{
			"buffer":0,
			"byteLength":1680,
			"byteOffset":92140,
			"target":34962
		},
		{
			"buffer":0,
			"byteLength":6720,
			"byteOffset":93820,
			"target":34962
		},
		{
			"buffer":0,
			"byteLength":2880,
			"byteOffset":100540,
			"target":34963
		},
		{
			"buffer":0,
			"byteLength":5040,
			"byteOffset":103420,
			"target":34962
		},
		{
			"buffer":0,
			"byteLength":5040,
			"byteOffset":108460,
			"target":34962
		},
		{
			"buffer":0,
			"byteLength":3360,
			"byteOffset":113500,
			"target":34962
		},
		{
			"buffer":0,
			"byteLength":1680,
			"byteOffset":116860,
			"target":34962
		},
		{
			"buffer":0,
			"byteLength":6720,
			"byteOffset":118540,
			"target":34962
		},
		{
			"buffer":0,
			"byteLength":2880,
			"byteOffset":125260,
			"target":34963
		},
		{
			"buffer":0,
			"byteLength":5040,
			"byteOffset":128140,
			"target":34962
		},
		{
			"buffer":0,
			"byteLength":5040,
			"byteOffset":133180,
			"target":34962
		},
		{
			"buffer":0,
			"byteLength":3360,
			"byteOffset":138220,
			"target":34962
		},
		{
			"buffer":0,
			"byteLength":1680,
			"byteOffset":141580,
			"target":34962
		},
		{
			"buffer":0,
			"byteLength":6720,
			"byteOffset":143260,
			"target":34962
		},
		{
			"buffer":0,
			"byteLength":2880,
			"byteOffset":149980,
			"target":34963
		},
		{
			"buffer":0,
			"byteLength":5040,
			"byteOffset":152860,
			"target":34962
		},
		{
			"buffer":0,
			"byteLength":5040,
			"byteOffset":157900,
			"target":34962
		},
		{
			"buffer":0,
			"byteLength":3360,
			"byteOffset":162940,
			"target":34962
		},
		{
			"buffer":0,
			"byteLength":1680,
			"byteOffset":166300,
			"target":34962
		},
		{
			"buffer":0,
			"byteLength":6720,
			"byteOffset":167980,
			"target":34962
		},
		{
			"buffer":0,
			"byteLength":2880,
			"byteOffset":174700,
			"target":34963
		},
		{
			"buffer":0,
			"byteLength":5040,
			"byteOffset":177580,
			"target":34962
		},
		{
			"buffer":0,
			"byteLength":5040,
			"byteOffset":182620,
			"target":34962
		},
		{
			"buffer":0,
			"byteLength":3360,
			"byteOffset":187660,
			"target":34962
		},
		{
			"buffer":0,
			"byteLength":1680,
			"byteOffset":191020,
			"target":34962
		},
		{
			"buffer":0,
			"byteLength":6720,
			"byteOffset":192700,
			"target":34962
		},
		{
			"buffer":0,
			"byteLength":2880,
			"byteOffset":199420,
			"target":34963
		},
		{
			"buffer":0,
			"byteLength":3252,
			"byteOffset":202300,
			"target":34962
		},
		{
			"buffer":0,
			"byteLength":3252,
			"byteOffset":205552,
			"target":34962
		},
		{
			"buffer":0,
			"byteLength":2168,
			"byteOffset":208804,
			"target":34962
		},
		{
			"buffer":0,
			"byteLength":1084,
			"byteOffset":210972,
			"target":34962
		},
		{
			"buffer":0,
			"byteLength":4336,
			"byteOffset":212056,
			"target":34962
		},
		{
			"buffer":0,
			"byteLength":576,
			"byteOffset":216392,
			"target":34963
		},
		{
			"buffer":0,
			"byteLength":3252,
			"byteOffset":216968,
			"target":34962
		},
		{
			"buffer":0,
			"byteLength":3252,
			"byteOffset":220220,
			"target":34962
		},
		{
			"buffer":0,
			"byteLength":2168,
			"byteOffset":223472,
			"target":34962
		},
		{
			"buffer":0,
			"byteLength":1084,
			"byteOffset":225640,
			"target":34962
		},
		{
			"buffer":0,
			"byteLength":4336,
			"byteOffset":226724,
			"target":34962
		},
		{
			"buffer":0,
			"byteLength":576,
			"byteOffset":231060,
			"target":34963
		},
		{
			"buffer":0,
			"byteLength":8,
			"byteOffset":231636
		},
		{
			"buffer":0,
			"byteLength":24,
			"byteOffset":231644
		},
		{
			"buffer":0,
			"byteLength":32,
			"byteOffset":231668
		},
		{
			"buffer":0,
			"byteLength":24,
			"byteOffset":231700
		},
		{
			"buffer":0,
			"byteLength":24,
			"byteOffset":231724
		},
		{
			"buffer":0,
			"byteLength":32,
			"byteOffset":231748
		},
		{
			"buffer":0,
			"byteLength":24,
			"byteOffset":231780
		},
		{
			"buffer":0,
			"byteLength":24,
			"byteOffset":231804
		},
		{
			"buffer":0,
			"byteLength":32,
			"byteOffset":231828
		},
		{
			"buffer":0,
			"byteLength":24,
			"byteOffset":231860
		},
		{
			"buffer":0,
			"byteLength":24,
			"byteOffset":231884
		},
		{
			"buffer":0,
			"byteLength":32,
			"byteOffset":231908
		},
		{
			"buffer":0,
			"byteLength":24,
			"byteOffset":231940
		},
		{
			"buffer":0,
			"byteLength":24,
			"byteOffset":231964
		},
		{
			"buffer":0,
			"byteLength":24,
			"byteOffset":231988
		},
		{
			"buffer":0,
			"byteLength":24,
			"byteOffset":232012
		},
		{
			"buffer":0,
			"byteLength":24,
			"byteOffset":232036
		},
		{
			"buffer":0,
			"byteLength":32,
			"byteOffset":232060
		},
		{
			"buffer":0,
			"byteLength":24,
			"byteOffset":232092
		},
		{
			"buffer":0,
			"byteLength":32,
			"byteOffset":232116
		},
		{
			"buffer":0,
			"byteLength":24,
			"byteOffset":232148
		},
		{
			"buffer":0,
			"byteLength":24,
			"byteOffset":232172
		},
		{
			"buffer":0,
			"byteLength":240,
			"byteOffset":232196
		},
		{
			"buffer":0,
			"byteLength":960,
			"byteOffset":232436
		},
		{
			"buffer":0,
			"byteLength":24,
			"byteOffset":233396
		},
		{
			"buffer":0,
			"byteLength":24,
			"byteOffset":233420
		},
		{
			"buffer":0,
			"byteLength":960,
			"byteOffset":233444
		},
		{
			"buffer":0,
			"byteLength":24,
			"byteOffset":234404
		},
		{
			"buffer":0,
			"byteLength":24,
			"byteOffset":234428
		},
		{
			"buffer":0,
			"byteLength":960,
			"byteOffset":234452
		},
		{
			"buffer":0,
			"byteLength":24,
			"byteOffset":235412
		},
		{
			"buffer":0,
			"byteLength":24,
			"byteOffset":235436
		},
		{
			"buffer":0,
			"byteLength":960,
			"byteOffset":235460
		},
		{
			"buffer":0,
			"byteLength":24,
			"byteOffset":236420
		},
		{
			"buffer":0,
			"byteLength":24,
			"byteOffset":236444
		},
		{
			"buffer":0,
			"byteLength":960,
			"byteOffset":236468
		},
		{
			"buffer":0,
			"byteLength":24,
			"byteOffset":237428
		},
		{
			"buffer":0,
			"byteLength":24,
			"byteOffset":237452
		},
		{
			"buffer":0,
			"byteLength":960,
			"byteOffset":237476
		},
		{
			"buffer":0,
			"byteLength":24,
			"byteOffset":238436
		},
		{
			"buffer":0,
			"byteLength":960,
			"byteOffset":238460
		},
		{
			"buffer":0,
			"byteLength":960,
			"byteOffset":239420
		},
		{
			"buffer":0,
			"byteLength":960,
			"byteOffset":240380
		},
		{
			"buffer":0,
			"byteLength":24,
			"byteOffset":241340
		},
		{
			"buffer":0,
			"byteLength":960,
			"byteOffset":241364
		},
		{
			"buffer":0,
			"byteLength":24,
			"byteOffset":242324
		},
		{
			"buffer":0,
			"byteLength":960,
			"byteOffset":242348
		},
		{
			"buffer":0,
			"byteLength":24,
			"byteOffset":243308
		},
		{
			"buffer":0,
			"byteLength":960,
			"byteOffset":243332
		},
		{
			"buffer":0,
			"byteLength":24,
			"byteOffset":244292
		},
		{
			"buffer":0,
			"byteLength":960,
			"byteOffset":244316
		},
		{
			"buffer":0,
			"byteLength":24,
			"byteOffset":245276
		},
		{
			"buffer":0,
			"byteLength":960,
			"byteOffset":245300
		},
		{
			"buffer":0,
			"byteLength":24,
			"byteOffset":246260
		},
		{
			"buffer":0,
			"byteLength":960,
			"byteOffset":246284
		},
		{
			"buffer":0,
			"byteLength":24,
			"byteOffset":247244
		},
		{
			"buffer":0,
			"byteLength":24,
			"byteOffset":247268
		},
		{
			"buffer":0,
			"byteLength":960,
			"byteOffset":247292
		},
		{
			"buffer":0,
			"byteLength":24,
			"byteOffset":248252
		},
		{
			"buffer":0,
			"byteLength":24,
			"byteOffset":248276
		},
		{
			"buffer":0,
			"byteLength":960,
			"byteOffset":248300
		},
		{
			"buffer":0,
			"byteLength":24,
			"byteOffset":249260
		},
		{
			"buffer":0,
			"byteLength":24,
			"byteOffset":249284
		},
		{
			"buffer":0,
			"byteLength":24,
			"byteOffset":249308
		},
		{
			"buffer":0,
			"byteLength":960,
			"byteOffset":249332
		},
		{
			"buffer":0,
			"byteLength":24,
			"byteOffset":250292
		},
		{
			"buffer":0,
			"byteLength":960,
			"byteOffset":250316
		},
		{
			"buffer":0,
			"byteLength":24,
			"byteOffset":251276
		},
		{
			"buffer":0,
			"byteLength":24,
			"byteOffset":251300
		},
		{
			"buffer":0,
			"byteLength":32,
			"byteOffset":251324
		},
		{
			"buffer":0,
			"byteLength":24,
			"byteOffset":251356
		},
		{
			"buffer":0,
			"byteLength":24,
			"byteOffset":251380
		},
		{
			"buffer":0,
			"byteLength":32,
			"byteOffset":251404
		},
		{
			"buffer":0,
			"byteLength":24,
			"byteOffset":251436
		},
		{
			"buffer":0,
			"byteLength":24,
			"byteOffset":251460
		},
		{
			"buffer":0,
			"byteLength":32,
			"byteOffset":251484
		},
		{
			"buffer":0,
			"byteLength":24,
			"byteOffset":251516
		},
		{
			"buffer":0,
			"byteLength":24,
			"byteOffset":251540
		},
		{
			"buffer":0,
			"byteLength":32,
			"byteOffset":251564
		},
		{
			"buffer":0,
			"byteLength":24,
			"byteOffset":251596
		},
		{
			"buffer":0,
			"byteLength":24,
			"byteOffset":251620
		},
		{
			"buffer":0,
			"byteLength":32,
			"byteOffset":251644
		},
		{
			"buffer":0,
			"byteLength":24,
			"byteOffset":251676
		},
		{
			"buffer":0,
			"byteLength":24,
			"byteOffset":251700
		},
		{
			"buffer":0,
			"byteLength":32,
			"byteOffset":251724
		},
		{
			"buffer":0,
			"byteLength":24,
			"byteOffset":251756
		},
		{
			"buffer":0,
			"byteLength":24,
			"byteOffset":251780
		},
		{
			"buffer":0,
			"byteLength":32,
			"byteOffset":251804
		},
		{
			"buffer":0,
			"byteLength":24,
			"byteOffset":251836
		},
		{
			"buffer":0,
			"byteLength":960,
			"byteOffset":251860
		},
		{
			"buffer":0,
			"byteLength":24,
			"byteOffset":252820
		},
		{
			"buffer":0,
			"byteLength":960,
			"byteOffset":252844
		},
		{
			"buffer":0,
			"byteLength":24,
			"byteOffset":253804
		},
		{
			"buffer":0,
			"byteLength":24,
			"byteOffset":253828
		},
		{
			"buffer":0,
			"byteLength":960,
			"byteOffset":253852
		},
		{
			"buffer":0,
			"byteLength":24,
			"byteOffset":254812
		},
		{
			"buffer":0,
			"byteLength":24,
			"byteOffset":254836
		},
		{
			"buffer":0,
			"byteLength":960,
			"byteOffset":254860
		},
		{
			"buffer":0,
			"byteLength":24,
			"byteOffset":255820
		},
		{
			"buffer":0,
			"byteLength":24,
			"byteOffset":255844
		},
		{
			"buffer":0,
			"byteLength":960,
			"byteOffset":255868
		},
		{
			"buffer":0,
			"byteLength":24,
			"byteOffset":256828
		},
		{
			"buffer":0,
			"byteLength":960,
			"byteOffset":256852
		},
		{
			"buffer":0,
			"byteLength":24,
			"byteOffset":257812
		},
		{
			"buffer":0,
			"byteLength":24,
			"byteOffset":257836
		},
		{
			"buffer":0,
			"byteLength":960,
			"byteOffset":257860
		},
		{
			"buffer":0,
			"byteLength":24,
			"byteOffset":258820
		},
		{
			"buffer":0,
			"byteLength":32,
			"byteOffset":258844
		},
		{
			"buffer":0,
			"byteLength":24,
			"byteOffset":258876
		},
		{
			"buffer":0,
			"byteLength":24,
			"byteOffset":258900
		},
		{
			"buffer":0,
			"byteLength":960,
			"byteOffset":258924
		},
		{
			"buffer":0,
			"byteLength":24,
			"byteOffset":259884
		},
		{
			"buffer":0,
			"byteLength":24,
			"byteOffset":259908
		},
		{
			"buffer":0,
			"byteLength":32,
			"byteOffset":259932
		},
		{
			"buffer":0,
			"byteLength":24,
			"byteOffset":259964
		},
		{
			"buffer":0,
			"byteLength":24,
			"byteOffset":259988
		},
		{
			"buffer":0,
			"byteLength":960,
			"byteOffset":260012
		},
		{
			"buffer":0,
			"byteLength":24,
			"byteOffset":260972
		},
		{
			"buffer":0,
			"byteLength":24,
			"byteOffset":260996
		},
		{
			"buffer":0,
			"byteLength":960,
			"byteOffset":261020
		},
		{
			"buffer":0,
			"byteLength":24,
			"byteOffset":261980
		},
		{
			"buffer":0,
			"byteLength":24,
			"byteOffset":262004
		},
		{
			"buffer":0,
			"byteLength":960,
			"byteOffset":262028
		},
		{
			"buffer":0,
			"byteLength":24,
			"byteOffset":262988
		},
		{
			"buffer":0,
			"byteLength":24,
			"byteOffset":263012
		},
		{
			"buffer":0,
			"byteLength":960,
			"byteOffset":263036
		},
		{
			"buffer":0,
			"byteLength":24,
			"byteOffset":263996
		}
	],
	"samplers":[
		{
			"magFilter":9729,
			"minFilter":9987
		}
	],
	"buffers":[
		{
			"byteLength":264020,
			"uri":"FlowerSunward.bin"
		}
	]
}
