# Blender 4.4.1
# www.blender.org
mtllib UmbrellaHandle.mtl
o 円.003
v -0.000000 1.890967 -0.020000
v -0.003902 1.890967 -0.019616
v -0.007654 1.890967 -0.018478
v -0.011111 1.890967 -0.016629
v -0.014142 1.890967 -0.014142
v -0.016629 1.890967 -0.011111
v -0.018478 1.890967 -0.007654
v -0.019616 1.890967 -0.003902
v -0.020000 1.890967 -0.000000
v -0.019616 1.890967 0.003902
v -0.018478 1.890967 0.007654
v -0.016629 1.890967 0.011111
v -0.014142 1.890967 0.014142
v -0.011111 1.890967 0.016629
v -0.007654 1.890967 0.018478
v -0.003902 1.890967 0.019616
v -0.000000 1.890967 0.020000
v 0.003902 1.890967 0.019616
v 0.007654 1.890967 0.018478
v 0.011111 1.890967 0.016629
v 0.014142 1.890967 0.014142
v 0.016629 1.890967 0.011111
v 0.018478 1.890967 0.007654
v 0.019616 1.890967 0.003902
v 0.020000 1.890967 -0.000000
v 0.019616 1.890967 -0.003902
v 0.018478 1.890967 -0.007654
v 0.016629 1.890967 -0.011111
v 0.014142 1.890967 -0.014142
v 0.011111 1.890967 -0.016629
v 0.007654 1.890967 -0.018478
v 0.003902 1.890967 -0.019616
v -0.000000 0.359957 -0.020000
v -0.003902 0.359957 -0.019616
v -0.007654 0.359957 -0.018478
v -0.011111 0.359957 -0.016629
v -0.014142 0.359957 -0.014142
v -0.016629 0.359957 -0.011111
v -0.018478 0.359957 -0.007654
v -0.019616 0.359957 -0.003902
v -0.020000 0.359957 -0.000000
v -0.019616 0.359957 0.003902
v -0.018478 0.359957 0.007654
v -0.016629 0.359957 0.011111
v -0.014142 0.359957 0.014142
v -0.011111 0.359957 0.016629
v -0.007654 0.359957 0.018478
v -0.003902 0.359957 0.019616
v -0.000000 0.359957 0.020000
v 0.003902 0.359957 0.019616
v 0.007654 0.359957 0.018478
v 0.011111 0.359957 0.016629
v 0.014142 0.359957 0.014142
v 0.016629 0.359957 0.011111
v 0.018478 0.359957 0.007654
v 0.019616 0.359957 0.003902
v 0.020000 0.359957 -0.000000
v 0.019616 0.359957 -0.003902
v 0.018478 0.359957 -0.007654
v 0.016629 0.359957 -0.011111
v 0.014142 0.359957 -0.014142
v 0.011111 0.359957 -0.016629
v 0.007654 0.359957 -0.018478
v 0.003902 0.359957 -0.019616
v -0.000000 0.359957 -0.027281
v -0.005322 0.359957 -0.026756
v -0.010440 0.359957 -0.025204
v -0.015156 0.359957 -0.022683
v -0.019290 0.359957 -0.019290
v -0.022683 0.359957 -0.015156
v -0.025204 0.359957 -0.010440
v -0.026756 0.359957 -0.005322
v -0.027280 0.359957 -0.000000
v -0.026756 0.359957 0.005322
v -0.025204 0.359957 0.010440
v -0.022683 0.359957 0.015156
v -0.019290 0.359957 0.019290
v -0.015156 0.359957 0.022683
v -0.010440 0.359957 0.025204
v -0.005322 0.359957 0.026756
v -0.000000 0.359957 0.027281
v 0.005322 0.359957 0.026756
v 0.010440 0.359957 0.025204
v 0.015156 0.359957 0.022683
v 0.019290 0.359957 0.019290
v 0.022683 0.359957 0.015156
v 0.025204 0.359957 0.010440
v 0.026756 0.359957 0.005322
v 0.027280 0.359957 -0.000000
v 0.026756 0.359957 -0.005322
v 0.025204 0.359957 -0.010440
v 0.022683 0.359957 -0.015156
v 0.019290 0.359957 -0.019290
v 0.015156 0.359957 -0.022683
v 0.010440 0.359957 -0.025204
v 0.005322 0.359957 -0.026756
v -0.000000 0.002043 -0.027281
v -0.005322 0.002043 -0.026756
v -0.010440 0.002043 -0.025204
v -0.015156 0.002043 -0.022683
v -0.019290 0.002043 -0.019290
v -0.022683 0.002043 -0.015156
v -0.025204 0.002043 -0.010440
v -0.026756 0.002043 -0.005322
v -0.027280 0.002043 -0.000000
v -0.026756 0.002043 0.005322
v -0.025204 0.002043 0.010440
v -0.022683 0.002043 0.015156
v -0.019290 0.002043 0.019290
v -0.015156 0.002043 0.022683
v -0.010440 0.002043 0.025204
v -0.005322 0.002043 0.026756
v -0.000000 0.002043 0.027281
v 0.005322 0.002043 0.026756
v 0.010440 0.002043 0.025204
v 0.015156 0.002043 0.022683
v 0.019290 0.002043 0.019290
v 0.022683 0.002043 0.015156
v 0.025204 0.002043 0.010440
v 0.026756 0.002043 0.005322
v 0.027280 0.002043 -0.000000
v 0.026756 0.002043 -0.005322
v 0.025204 0.002043 -0.010440
v 0.022683 0.002043 -0.015156
v 0.019290 0.002043 -0.019290
v 0.015156 0.002043 -0.022683
v 0.010440 0.002043 -0.025204
v 0.005322 0.002043 -0.026756
vn 0.9569 -0.0000 0.2903
vn -0.9569 -0.0000 0.2903
vn 0.9952 -0.0000 0.0980
vn -0.8819 -0.0000 0.4714
vn 0.9952 -0.0000 -0.0980
vn -0.7730 -0.0000 0.6344
vn 0.9569 -0.0000 -0.2903
vn -0.6344 -0.0000 0.7730
vn 0.8819 -0.0000 -0.4714
vn -0.4714 -0.0000 0.8819
vn -0.0980 -0.0000 -0.9952
vn 0.7730 -0.0000 -0.6344
vn -0.2903 -0.0000 0.9569
vn -0.2903 -0.0000 -0.9569
vn 0.6344 -0.0000 -0.7730
vn -0.0980 -0.0000 0.9952
vn -0.4714 -0.0000 -0.8819
vn 0.4714 -0.0000 -0.8819
vn 0.0980 -0.0000 0.9952
vn -0.6344 -0.0000 -0.7730
vn 0.2903 -0.0000 -0.9569
vn 0.2903 -0.0000 0.9569
vn -0.7730 -0.0000 -0.6344
vn 0.0980 -0.0000 -0.9952
vn 0.4714 -0.0000 0.8819
vn -0.8819 -0.0000 -0.4714
vn 0.6344 -0.0000 0.7730
vn -0.9569 -0.0000 -0.2903
vn 0.7730 -0.0000 0.6344
vn -0.9952 -0.0000 -0.0980
vn 0.8819 -0.0000 0.4714
vn -0.9952 -0.0000 0.0980
vn -0.0000 1.0000 -0.0000
vn -0.0000 -1.0000 -0.0000
vn -0.0003 1.0000 -0.0000
vn 0.0003 1.0000 -0.0000
vn 0.0001 1.0000 -0.0000
vn -0.0001 1.0000 -0.0000
vt 0.000000 0.000000
s 0
f 55/1/1 24/1/1 23/1/1
f 42/1/2 11/1/2 10/1/2
f 56/1/3 25/1/3 24/1/3
f 43/1/4 12/1/4 11/1/4
f 57/1/5 26/1/5 25/1/5
f 44/1/6 13/1/6 12/1/6
f 58/1/7 27/1/7 26/1/7
f 45/1/8 14/1/8 13/1/8
f 59/1/9 28/1/9 27/1/9
f 46/1/10 15/1/10 14/1/10
f 33/1/11 2/1/11 1/1/11
f 60/1/12 29/1/12 28/1/12
f 47/1/13 16/1/13 15/1/13
f 34/1/14 3/1/14 2/1/14
f 61/1/15 30/1/15 29/1/15
f 48/1/16 17/1/16 16/1/16
f 35/1/17 4/1/17 3/1/17
f 62/1/18 31/1/18 30/1/18
f 49/1/19 18/1/19 17/1/19
f 36/1/20 5/1/20 4/1/20
f 63/1/21 32/1/21 31/1/21
f 50/1/22 19/1/22 18/1/22
f 37/1/23 6/1/23 5/1/23
f 64/1/24 1/1/24 32/1/24
f 51/1/25 20/1/25 19/1/25
f 38/1/26 7/1/26 6/1/26
f 52/1/27 21/1/27 20/1/27
f 39/1/28 8/1/28 7/1/28
f 53/1/29 22/1/29 21/1/29
f 40/1/30 9/1/30 8/1/30
f 54/1/31 23/1/31 22/1/31
f 41/1/32 10/1/32 9/1/32
f 66/1/33 35/1/33 34/1/33
f 93/1/33 62/1/33 61/1/33
f 48/1/33 81/1/33 49/1/33
f 35/1/33 68/1/33 36/1/33
f 94/1/33 63/1/33 62/1/33
f 81/1/33 50/1/33 49/1/33
f 68/1/33 37/1/33 36/1/33
f 63/1/33 96/1/33 64/1/33
f 50/1/33 83/1/33 51/1/33
f 37/1/33 70/1/33 38/1/33
f 96/1/33 33/1/33 64/1/33
f 83/1/33 52/1/33 51/1/33
f 70/1/33 39/1/33 38/1/33
f 52/1/33 85/1/33 53/1/33
f 39/1/33 72/1/33 40/1/33
f 85/1/33 54/1/33 53/1/33
f 40/1/33 73/1/33 41/1/33
f 54/1/33 87/1/33 55/1/33
f 73/1/33 42/1/33 41/1/33
f 87/1/33 56/1/33 55/1/33
f 74/1/33 43/1/33 42/1/33
f 56/1/33 89/1/33 57/1/33
f 43/1/33 76/1/33 44/1/33
f 89/1/33 58/1/33 57/1/33
f 76/1/33 45/1/33 44/1/33
f 58/1/33 91/1/33 59/1/33
f 77/1/33 46/1/33 45/1/33
f 91/1/33 60/1/33 59/1/33
f 46/1/33 79/1/33 47/1/33
f 33/1/33 66/1/33 34/1/33
f 60/1/33 93/1/33 61/1/33
f 79/1/33 48/1/33 47/1/33
f 101/1/23 70/1/23 69/1/23
f 128/1/24 65/1/24 96/1/24
f 115/1/25 84/1/25 83/1/25
f 102/1/26 71/1/26 70/1/26
f 116/1/27 85/1/27 84/1/27
f 103/1/28 72/1/28 71/1/28
f 117/1/29 86/1/29 85/1/29
f 104/1/30 73/1/30 72/1/30
f 118/1/31 87/1/31 86/1/31
f 105/1/32 74/1/32 73/1/32
f 119/1/1 88/1/1 87/1/1
f 106/1/2 75/1/2 74/1/2
f 120/1/3 89/1/3 88/1/3
f 107/1/4 76/1/4 75/1/4
f 121/1/5 90/1/5 89/1/5
f 108/1/6 77/1/6 76/1/6
f 122/1/7 91/1/7 90/1/7
f 109/1/8 78/1/8 77/1/8
f 123/1/9 92/1/9 91/1/9
f 110/1/10 79/1/10 78/1/10
f 97/1/11 66/1/11 65/1/11
f 124/1/12 93/1/12 92/1/12
f 111/1/13 80/1/13 79/1/13
f 98/1/14 67/1/14 66/1/14
f 125/1/15 94/1/15 93/1/15
f 112/1/16 81/1/16 80/1/16
f 99/1/17 68/1/17 67/1/17
f 126/1/18 95/1/18 94/1/18
f 113/1/19 82/1/19 81/1/19
f 100/1/20 69/1/20 68/1/20
f 127/1/21 96/1/21 95/1/21
f 114/1/22 83/1/22 82/1/22
f 115/1/34 107/1/34 99/1/34
f 17/1/33 25/1/33 1/1/33
f 55/1/1 56/1/1 24/1/1
f 42/1/2 43/1/2 11/1/2
f 56/1/3 57/1/3 25/1/3
f 43/1/4 44/1/4 12/1/4
f 57/1/5 58/1/5 26/1/5
f 44/1/6 45/1/6 13/1/6
f 58/1/7 59/1/7 27/1/7
f 45/1/8 46/1/8 14/1/8
f 59/1/9 60/1/9 28/1/9
f 46/1/10 47/1/10 15/1/10
f 33/1/11 34/1/11 2/1/11
f 60/1/12 61/1/12 29/1/12
f 47/1/13 48/1/13 16/1/13
f 34/1/14 35/1/14 3/1/14
f 61/1/15 62/1/15 30/1/15
f 48/1/16 49/1/16 17/1/16
f 35/1/17 36/1/17 4/1/17
f 62/1/18 63/1/18 31/1/18
f 49/1/19 50/1/19 18/1/19
f 36/1/20 37/1/20 5/1/20
f 63/1/21 64/1/21 32/1/21
f 50/1/22 51/1/22 19/1/22
f 37/1/23 38/1/23 6/1/23
f 64/1/24 33/1/24 1/1/24
f 51/1/25 52/1/25 20/1/25
f 38/1/26 39/1/26 7/1/26
f 52/1/27 53/1/27 21/1/27
f 39/1/28 40/1/28 8/1/28
f 53/1/29 54/1/29 22/1/29
f 40/1/30 41/1/30 9/1/30
f 54/1/31 55/1/31 23/1/31
f 41/1/32 42/1/32 10/1/32
f 66/1/33 67/1/33 35/1/33
f 93/1/33 94/1/33 62/1/33
f 48/1/33 80/1/33 81/1/33
f 35/1/33 67/1/33 68/1/33
f 94/1/33 95/1/33 63/1/33
f 81/1/33 82/1/33 50/1/33
f 68/1/33 69/1/33 37/1/33
f 63/1/33 95/1/33 96/1/33
f 50/1/33 82/1/33 83/1/33
f 37/1/33 69/1/33 70/1/33
f 96/1/33 65/1/33 33/1/33
f 83/1/33 84/1/33 52/1/33
f 70/1/33 71/1/33 39/1/33
f 52/1/33 84/1/33 85/1/33
f 39/1/33 71/1/33 72/1/33
f 85/1/33 86/1/33 54/1/33
f 40/1/33 72/1/33 73/1/33
f 54/1/33 86/1/33 87/1/33
f 73/1/33 74/1/33 42/1/33
f 87/1/33 88/1/33 56/1/33
f 74/1/33 75/1/33 43/1/33
f 56/1/33 88/1/33 89/1/33
f 43/1/33 75/1/33 76/1/33
f 89/1/33 90/1/33 58/1/33
f 76/1/33 77/1/33 45/1/33
f 58/1/33 90/1/33 91/1/33
f 77/1/33 78/1/33 46/1/33
f 91/1/33 92/1/33 60/1/33
f 46/1/33 78/1/33 79/1/33
f 33/1/33 65/1/33 66/1/33
f 60/1/33 92/1/33 93/1/33
f 79/1/33 80/1/33 48/1/33
f 101/1/23 102/1/23 70/1/23
f 128/1/24 97/1/24 65/1/24
f 115/1/25 116/1/25 84/1/25
f 102/1/26 103/1/26 71/1/26
f 116/1/27 117/1/27 85/1/27
f 103/1/28 104/1/28 72/1/28
f 117/1/29 118/1/29 86/1/29
f 104/1/30 105/1/30 73/1/30
f 118/1/31 119/1/31 87/1/31
f 105/1/32 106/1/32 74/1/32
f 119/1/1 120/1/1 88/1/1
f 106/1/2 107/1/2 75/1/2
f 120/1/3 121/1/3 89/1/3
f 107/1/4 108/1/4 76/1/4
f 121/1/5 122/1/5 90/1/5
f 108/1/6 109/1/6 77/1/6
f 122/1/7 123/1/7 91/1/7
f 109/1/8 110/1/8 78/1/8
f 123/1/9 124/1/9 92/1/9
f 110/1/10 111/1/10 79/1/10
f 97/1/11 98/1/11 66/1/11
f 124/1/12 125/1/12 93/1/12
f 111/1/13 112/1/13 80/1/13
f 98/1/14 99/1/14 67/1/14
f 125/1/15 126/1/15 94/1/15
f 112/1/16 113/1/16 81/1/16
f 99/1/17 100/1/17 68/1/17
f 126/1/18 127/1/18 95/1/18
f 113/1/19 114/1/19 82/1/19
f 100/1/20 101/1/20 69/1/20
f 127/1/21 128/1/21 96/1/21
f 114/1/22 115/1/22 83/1/22
f 99/1/34 98/1/34 97/1/34
f 97/1/34 128/1/34 127/1/34
f 127/1/34 126/1/34 125/1/34
f 125/1/34 124/1/34 123/1/34
f 123/1/34 122/1/34 121/1/34
f 121/1/34 120/1/34 119/1/34
f 119/1/34 118/1/34 117/1/34
f 117/1/34 116/1/34 115/1/34
f 115/1/34 114/1/34 113/1/34
f 113/1/34 112/1/34 111/1/34
f 111/1/34 110/1/34 109/1/34
f 109/1/34 108/1/34 107/1/34
f 107/1/34 106/1/34 105/1/34
f 105/1/34 104/1/34 103/1/34
f 103/1/34 102/1/34 101/1/34
f 101/1/34 100/1/34 99/1/34
f 99/1/34 97/1/34 127/1/34
f 127/1/34 125/1/34 123/1/34
f 123/1/34 121/1/34 119/1/34
f 119/1/34 117/1/34 115/1/34
f 115/1/34 113/1/34 111/1/34
f 111/1/34 109/1/34 107/1/34
f 107/1/34 105/1/34 103/1/34
f 103/1/34 101/1/34 99/1/34
f 99/1/34 127/1/34 123/1/34
f 123/1/34 119/1/34 115/1/34
f 115/1/34 111/1/34 107/1/34
f 107/1/34 103/1/34 99/1/34
f 99/1/34 123/1/34 115/1/34
f 1/1/33 2/1/33 3/1/33
f 3/1/35 4/1/35 5/1/35
f 5/1/35 6/1/35 7/1/35
f 7/1/33 8/1/33 9/1/33
f 9/1/33 10/1/33 11/1/33
f 11/1/33 12/1/33 13/1/33
f 13/1/33 14/1/33 15/1/33
f 15/1/33 16/1/33 17/1/33
f 17/1/33 18/1/33 19/1/33
f 19/1/33 20/1/33 21/1/33
f 21/1/33 22/1/33 23/1/33
f 23/1/33 24/1/33 25/1/33
f 25/1/33 26/1/33 27/1/33
f 27/1/36 28/1/36 29/1/36
f 29/1/36 30/1/36 31/1/36
f 31/1/33 32/1/33 1/1/33
f 1/1/37 3/1/37 5/1/37
f 5/1/37 7/1/37 9/1/37
f 9/1/33 11/1/33 13/1/33
f 13/1/33 15/1/33 17/1/33
f 17/1/33 19/1/33 21/1/33
f 21/1/33 23/1/33 25/1/33
f 25/1/38 27/1/38 29/1/38
f 29/1/38 31/1/38 1/1/38
f 1/1/33 5/1/33 9/1/33
f 9/1/33 13/1/33 17/1/33
f 17/1/33 21/1/33 25/1/33
f 25/1/33 29/1/33 1/1/33
f 1/1/33 9/1/33 17/1/33
