{
	"asset":{
		"generator":"Khronos glTF Blender I/O v5.1.20",
		"version":"2.0"
	},
	"scene":0,
	"scenes":[
		{
			"name":"Scene",
			"nodes":[
				29
			]
		}
	],
	"nodes":[
		{
			"name":"\u30dc\u30fc\u30f3.001",
			"rotation":[
				-0.45460188388824463,
				-6.068049884788707e-08,
				0.030206779018044472,
				0.890182375907898
			],
			"translation":[
				2.8667971108120582e-08,
				0.22834812104701996,
				-2.571710489007728e-08
			]
		},
		{
			"name":"\u30dc\u30fc\u30f3.004",
			"rotation":[
				0.5157856345176697,
				3.265407855224112e-08,
				-0.043236859142780304,
				0.8556259274482727
			],
			"scale":[
				0.9999999403953552,
				1,
				1
			],
			"translation":[
				-2.523302100598812e-08,
				0.13527363538742065,
				-5.4526026360690594e-08
			]
		},
		{
			"name":"\u30dc\u30fc\u30f3.006",
			"rotation":[
				-0.41543686389923096,
				0.011485387571156025,
				-0.11485271900892258,
				0.9022688865661621
			],
			"scale":[
				0.9999999403953552,
				0.9999998807907104,
				1
			],
			"translation":[
				-5.715264705941081e-09,
				0.28399258852005005,
				-3.0398950912058353e-08
			]
		},
		{
			"name":"\u30dc\u30fc\u30f3.010",
			"rotation":[
				0.6922499537467957,
				-0.08235348761081696,
				-0.1928633749485016,
				0.6905155181884766
			],
			"scale":[
				1,
				0.9999999403953552,
				1.0000001192092896
			],
			"translation":[
				-1.2325472198426723e-08,
				0.15066631138324738,
				-4.94765117764473e-09
			]
		},
		{
			"name":"\u30dc\u30fc\u30f3.011",
			"rotation":[
				-0.6521333456039429,
				0.07630956918001175,
				-0.22989904880523682,
				0.7183630466461182
			],
			"scale":[
				1.0000001192092896,
				0.9999999403953552,
				1
			],
			"translation":[
				1.7087586456909776e-08,
				0.15066643059253693,
				1.8335413187742233e-08
			]
		},
		{
			"name":"\u30dc\u30fc\u30f3.012",
			"rotation":[
				0.00039693122380413115,
				-1.8613536667544395e-07,
				-0.1630266308784485,
				0.986621618270874
			],
			"translation":[
				1.9681465346366167e-09,
				0.15066616237163544,
				2.403976395726204e-08
			]
		},
		{
			"children":[
				3,
				4,
				5
			],
			"name":"\u30dc\u30fc\u30f3.009",
			"rotation":[
				-0.03397189825773239,
				0.007400032132863998,
				0.19170580804347992,
				0.9808363914489746
			],
			"scale":[
				0.9999999403953552,
				1,
				0.9999999403953552
			],
			"translation":[
				1.0459189070388675e-09,
				0.194546177983284,
				-2.4621840566396713e-08
			]
		},
		{
			"children":[
				6
			],
			"name":"\u30dc\u30fc\u30f3.008",
			"rotation":[
				0.03370743989944458,
				-0.0034065507352352142,
				-0.07678613066673279,
				0.9964718818664551
			],
			"scale":[
				0.9999999403953552,
				0.9999998807907104,
				0.9999999403953552
			],
			"translation":[
				3.8282450987026095e-08,
				0.2954465448856354,
				5.034962669014931e-09
			]
		},
		{
			"children":[
				7
			],
			"name":"\u30dc\u30fc\u30f3.007",
			"rotation":[
				-0.005442827474325895,
				0.0008789440616965294,
				0.01642760820686817,
				0.9998498558998108
			],
			"translation":[
				-3.0020601116120815e-08,
				0.28399235010147095,
				-1.5425030142068863e-09
			]
		},
		{
			"children":[
				2,
				8
			],
			"name":"\u30dc\u30fc\u30f3.005",
			"rotation":[
				0.003525401698425412,
				-0.00025489585823379457,
				-0.030051786452531815,
				0.9995421171188354
			],
			"scale":[
				0.9999999403953552,
				1,
				1
			],
			"translation":[
				-6.868503987789154e-09,
				0.13527368009090424,
				-4.94765117764473e-10
			]
		},
		{
			"children":[
				1,
				9
			],
			"name":"\u30dc\u30fc\u30f3.003",
			"rotation":[
				-0.01425244938582182,
				-6.354294868060606e-08,
				0.10936401784420013,
				0.9938996434211731
			],
			"scale":[
				0.9999999403953552,
				0.9999999403953552,
				1
			],
			"translation":[
				1.6678313841111958e-08,
				0.26147207617759705,
				-2.10275175049901e-09
			]
		},
		{
			"children":[
				10
			],
			"name":"\u30dc\u30fc\u30f3.002",
			"rotation":[
				-0.007210463285446167,
				-1.8369049614719302e-09,
				-0.06005804240703583,
				0.9981688857078552
			],
			"scale":[
				1,
				1,
				0.9999999403953552
			],
			"translation":[
				-1.1343523897977548e-09,
				0.22834810614585876,
				-3.3653639874842156e-09
			]
		},
		{
			"children":[
				0,
				11
			],
			"name":"\u30dc\u30fc\u30f3",
			"rotation":[
				-8.157042152845406e-09,
				1.6314084305690812e-08,
				-2.661493457907667e-16,
				1
			],
			"translation":[
				-0.16600270569324493,
				-0.16548830270767212,
				0.034766048192977905
			]
		},
		{
			"mesh":0,
			"name":"\u5186\u67f1.001",
			"skin":0
		},
		{
			"mesh":1,
			"name":"\u5186\u67f1.002",
			"skin":0
		},
		{
			"mesh":2,
			"name":"\u5186\u67f1.003",
			"skin":0
		},
		{
			"mesh":3,
			"name":"\u5186\u67f1.007",
			"skin":0
		},
		{
			"mesh":4,
			"name":"\u5186\u67f1.008",
			"skin":0
		},
		{
			"mesh":5,
			"name":"\u5186\u67f1.009",
			"skin":0
		},
		{
			"mesh":6,
			"name":"\u5e73\u9762",
			"skin":0
		},
		{
			"mesh":7,
			"name":"\u5e73\u9762.004",
			"skin":0
		},
		{
			"mesh":8,
			"name":"\u5e73\u9762.005",
			"skin":0
		},
		{
			"mesh":9,
			"name":"\u5e73\u9762.006",
			"skin":0
		},
		{
			"mesh":10,
			"name":"\u5e73\u9762.007",
			"skin":0
		},
		{
			"mesh":11,
			"name":"\u5e73\u9762.008",
			"skin":0
		},
		{
			"mesh":12,
			"name":"\u7403",
			"skin":0
		},
		{
			"mesh":13,
			"name":"\u7acb\u65b9\u4f53.001",
			"skin":0
		},
		{
			"mesh":14,
			"name":"\u7acb\u65b9\u4f53.002",
			"skin":0
		},
		{
			"mesh":15,
			"name":"\u7acb\u65b9\u4f53.012",
			"skin":0
		},
		{
			"children":[
				13,
				14,
				15,
				16,
				17,
				18,
				19,
				20,
				21,
				22,
				23,
				24,
				25,
				26,
				27,
				28,
				12
			],
			"name":"\u30a2\u30fc\u30de\u30c1\u30e5\u30a2.003"
		}
	],
	"animations":[
		{
			"channels":[
				{
					"sampler":0,
					"target":{
						"node":12,
						"path":"translation"
					}
				},
				{
					"sampler":1,
					"target":{
						"node":12,
						"path":"rotation"
					}
				},
				{
					"sampler":2,
					"target":{
						"node":12,
						"path":"scale"
					}
				},
				{
					"sampler":3,
					"target":{
						"node":0,
						"path":"translation"
					}
				},
				{
					"sampler":4,
					"target":{
						"node":0,
						"path":"rotation"
					}
				},
				{
					"sampler":5,
					"target":{
						"node":0,
						"path":"scale"
					}
				},
				{
					"sampler":6,
					"target":{
						"node":11,
						"path":"translation"
					}
				},
				{
					"sampler":7,
					"target":{
						"node":11,
						"path":"rotation"
					}
				},
				{
					"sampler":8,
					"target":{
						"node":11,
						"path":"scale"
					}
				},
				{
					"sampler":9,
					"target":{
						"node":10,
						"path":"translation"
					}
				},
				{
					"sampler":10,
					"target":{
						"node":10,
						"path":"rotation"
					}
				},
				{
					"sampler":11,
					"target":{
						"node":10,
						"path":"scale"
					}
				},
				{
					"sampler":12,
					"target":{
						"node":1,
						"path":"translation"
					}
				},
				{
					"sampler":13,
					"target":{
						"node":1,
						"path":"rotation"
					}
				},
				{
					"sampler":14,
					"target":{
						"node":1,
						"path":"scale"
					}
				},
				{
					"sampler":15,
					"target":{
						"node":9,
						"path":"translation"
					}
				},
				{
					"sampler":16,
					"target":{
						"node":9,
						"path":"rotation"
					}
				},
				{
					"sampler":17,
					"target":{
						"node":9,
						"path":"scale"
					}
				},
				{
					"sampler":18,
					"target":{
						"node":2,
						"path":"translation"
					}
				},
				{
					"sampler":19,
					"target":{
						"node":2,
						"path":"rotation"
					}
				},
				{
					"sampler":20,
					"target":{
						"node":2,
						"path":"scale"
					}
				},
				{
					"sampler":21,
					"target":{
						"node":8,
						"path":"translation"
					}
				},
				{
					"sampler":22,
					"target":{
						"node":8,
						"path":"rotation"
					}
				},
				{
					"sampler":23,
					"target":{
						"node":8,
						"path":"scale"
					}
				},
				{
					"sampler":24,
					"target":{
						"node":7,
						"path":"translation"
					}
				},
				{
					"sampler":25,
					"target":{
						"node":7,
						"path":"rotation"
					}
				},
				{
					"sampler":26,
					"target":{
						"node":7,
						"path":"scale"
					}
				},
				{
					"sampler":27,
					"target":{
						"node":6,
						"path":"translation"
					}
				},
				{
					"sampler":28,
					"target":{
						"node":6,
						"path":"rotation"
					}
				},
				{
					"sampler":29,
					"target":{
						"node":6,
						"path":"scale"
					}
				},
				{
					"sampler":30,
					"target":{
						"node":3,
						"path":"translation"
					}
				},
				{
					"sampler":31,
					"target":{
						"node":3,
						"path":"rotation"
					}
				},
				{
					"sampler":32,
					"target":{
						"node":3,
						"path":"scale"
					}
				},
				{
					"sampler":33,
					"target":{
						"node":4,
						"path":"translation"
					}
				},
				{
					"sampler":34,
					"target":{
						"node":4,
						"path":"rotation"
					}
				},
				{
					"sampler":35,
					"target":{
						"node":4,
						"path":"scale"
					}
				},
				{
					"sampler":36,
					"target":{
						"node":5,
						"path":"translation"
					}
				},
				{
					"sampler":37,
					"target":{
						"node":5,
						"path":"rotation"
					}
				},
				{
					"sampler":38,
					"target":{
						"node":5,
						"path":"scale"
					}
				}
			],
			"name":"Attack",
			"samplers":[
				{
					"input":95,
					"interpolation":"STEP",
					"output":96
				},
				{
					"input":95,
					"interpolation":"STEP",
					"output":97
				},
				{
					"input":95,
					"interpolation":"STEP",
					"output":98
				},
				{
					"input":95,
					"interpolation":"STEP",
					"output":99
				},
				{
					"input":100,
					"interpolation":"LINEAR",
					"output":101
				},
				{
					"input":95,
					"interpolation":"LINEAR",
					"output":102
				},
				{
					"input":95,
					"interpolation":"STEP",
					"output":103
				},
				{
					"input":95,
					"interpolation":"STEP",
					"output":104
				},
				{
					"input":95,
					"interpolation":"STEP",
					"output":105
				},
				{
					"input":95,
					"interpolation":"STEP",
					"output":106
				},
				{
					"input":95,
					"interpolation":"STEP",
					"output":107
				},
				{
					"input":95,
					"interpolation":"STEP",
					"output":108
				},
				{
					"input":95,
					"interpolation":"STEP",
					"output":109
				},
				{
					"input":100,
					"interpolation":"LINEAR",
					"output":110
				},
				{
					"input":95,
					"interpolation":"LINEAR",
					"output":111
				},
				{
					"input":95,
					"interpolation":"STEP",
					"output":112
				},
				{
					"input":95,
					"interpolation":"STEP",
					"output":113
				},
				{
					"input":95,
					"interpolation":"STEP",
					"output":114
				},
				{
					"input":95,
					"interpolation":"STEP",
					"output":115
				},
				{
					"input":100,
					"interpolation":"LINEAR",
					"output":116
				},
				{
					"input":95,
					"interpolation":"LINEAR",
					"output":117
				},
				{
					"input":95,
					"interpolation":"STEP",
					"output":118
				},
				{
					"input":95,
					"interpolation":"STEP",
					"output":119
				},
				{
					"input":95,
					"interpolation":"STEP",
					"output":98
				},
				{
					"input":95,
					"interpolation":"STEP",
					"output":120
				},
				{
					"input":95,
					"interpolation":"STEP",
					"output":121
				},
				{
					"input":95,
					"interpolation":"STEP",
					"output":122
				},
				{
					"input":95,
					"interpolation":"STEP",
					"output":123
				},
				{
					"input":95,
					"interpolation":"STEP",
					"output":124
				},
				{
					"input":95,
					"interpolation":"STEP",
					"output":125
				},
				{
					"input":95,
					"interpolation":"STEP",
					"output":126
				},
				{
					"input":100,
					"interpolation":"LINEAR",
					"output":127
				},
				{
					"input":95,
					"interpolation":"STEP",
					"output":128
				},
				{
					"input":95,
					"interpolation":"STEP",
					"output":129
				},
				{
					"input":100,
					"interpolation":"LINEAR",
					"output":130
				},
				{
					"input":95,
					"interpolation":"LINEAR",
					"output":131
				},
				{
					"input":95,
					"interpolation":"STEP",
					"output":132
				},
				{
					"input":100,
					"interpolation":"LINEAR",
					"output":133
				},
				{
					"input":95,
					"interpolation":"LINEAR",
					"output":134
				}
			]
		},
		{
			"channels":[
				{
					"sampler":0,
					"target":{
						"node":12,
						"path":"translation"
					}
				},
				{
					"sampler":1,
					"target":{
						"node":12,
						"path":"rotation"
					}
				},
				{
					"sampler":2,
					"target":{
						"node":12,
						"path":"scale"
					}
				},
				{
					"sampler":3,
					"target":{
						"node":0,
						"path":"translation"
					}
				},
				{
					"sampler":4,
					"target":{
						"node":0,
						"path":"rotation"
					}
				},
				{
					"sampler":5,
					"target":{
						"node":0,
						"path":"scale"
					}
				},
				{
					"sampler":6,
					"target":{
						"node":11,
						"path":"translation"
					}
				},
				{
					"sampler":7,
					"target":{
						"node":11,
						"path":"rotation"
					}
				},
				{
					"sampler":8,
					"target":{
						"node":11,
						"path":"scale"
					}
				},
				{
					"sampler":9,
					"target":{
						"node":10,
						"path":"translation"
					}
				},
				{
					"sampler":10,
					"target":{
						"node":10,
						"path":"rotation"
					}
				},
				{
					"sampler":11,
					"target":{
						"node":10,
						"path":"scale"
					}
				},
				{
					"sampler":12,
					"target":{
						"node":1,
						"path":"translation"
					}
				},
				{
					"sampler":13,
					"target":{
						"node":1,
						"path":"rotation"
					}
				},
				{
					"sampler":14,
					"target":{
						"node":1,
						"path":"scale"
					}
				},
				{
					"sampler":15,
					"target":{
						"node":9,
						"path":"translation"
					}
				},
				{
					"sampler":16,
					"target":{
						"node":9,
						"path":"rotation"
					}
				},
				{
					"sampler":17,
					"target":{
						"node":9,
						"path":"scale"
					}
				},
				{
					"sampler":18,
					"target":{
						"node":2,
						"path":"translation"
					}
				},
				{
					"sampler":19,
					"target":{
						"node":2,
						"path":"rotation"
					}
				},
				{
					"sampler":20,
					"target":{
						"node":2,
						"path":"scale"
					}
				},
				{
					"sampler":21,
					"target":{
						"node":8,
						"path":"translation"
					}
				},
				{
					"sampler":22,
					"target":{
						"node":8,
						"path":"rotation"
					}
				},
				{
					"sampler":23,
					"target":{
						"node":8,
						"path":"scale"
					}
				},
				{
					"sampler":24,
					"target":{
						"node":7,
						"path":"translation"
					}
				},
				{
					"sampler":25,
					"target":{
						"node":7,
						"path":"rotation"
					}
				},
				{
					"sampler":26,
					"target":{
						"node":7,
						"path":"scale"
					}
				},
				{
					"sampler":27,
					"target":{
						"node":6,
						"path":"translation"
					}
				},
				{
					"sampler":28,
					"target":{
						"node":6,
						"path":"rotation"
					}
				},
				{
					"sampler":29,
					"target":{
						"node":6,
						"path":"scale"
					}
				},
				{
					"sampler":30,
					"target":{
						"node":3,
						"path":"translation"
					}
				},
				{
					"sampler":31,
					"target":{
						"node":3,
						"path":"rotation"
					}
				},
				{
					"sampler":32,
					"target":{
						"node":3,
						"path":"scale"
					}
				},
				{
					"sampler":33,
					"target":{
						"node":4,
						"path":"translation"
					}
				},
				{
					"sampler":34,
					"target":{
						"node":4,
						"path":"rotation"
					}
				},
				{
					"sampler":35,
					"target":{
						"node":4,
						"path":"scale"
					}
				},
				{
					"sampler":36,
					"target":{
						"node":5,
						"path":"translation"
					}
				},
				{
					"sampler":37,
					"target":{
						"node":5,
						"path":"rotation"
					}
				},
				{
					"sampler":38,
					"target":{
						"node":5,
						"path":"scale"
					}
				}
			],
			"name":"Attack_Wait",
			"samplers":[
				{
					"input":135,
					"interpolation":"STEP",
					"output":96
				},
				{
					"input":135,
					"interpolation":"STEP",
					"output":97
				},
				{
					"input":135,
					"interpolation":"STEP",
					"output":98
				},
				{
					"input":135,
					"interpolation":"STEP",
					"output":99
				},
				{
					"input":136,
					"interpolation":"LINEAR",
					"output":137
				},
				{
					"input":135,
					"interpolation":"LINEAR",
					"output":138
				},
				{
					"input":135,
					"interpolation":"STEP",
					"output":103
				},
				{
					"input":135,
					"interpolation":"STEP",
					"output":104
				},
				{
					"input":135,
					"interpolation":"STEP",
					"output":105
				},
				{
					"input":135,
					"interpolation":"STEP",
					"output":106
				},
				{
					"input":135,
					"interpolation":"STEP",
					"output":107
				},
				{
					"input":135,
					"interpolation":"STEP",
					"output":108
				},
				{
					"input":135,
					"interpolation":"STEP",
					"output":109
				},
				{
					"input":136,
					"interpolation":"LINEAR",
					"output":139
				},
				{
					"input":135,
					"interpolation":"LINEAR",
					"output":140
				},
				{
					"input":135,
					"interpolation":"STEP",
					"output":112
				},
				{
					"input":135,
					"interpolation":"STEP",
					"output":113
				},
				{
					"input":135,
					"interpolation":"STEP",
					"output":114
				},
				{
					"input":135,
					"interpolation":"STEP",
					"output":115
				},
				{
					"input":136,
					"interpolation":"LINEAR",
					"output":141
				},
				{
					"input":135,
					"interpolation":"LINEAR",
					"output":142
				},
				{
					"input":135,
					"interpolation":"STEP",
					"output":118
				},
				{
					"input":135,
					"interpolation":"STEP",
					"output":119
				},
				{
					"input":135,
					"interpolation":"STEP",
					"output":98
				},
				{
					"input":135,
					"interpolation":"STEP",
					"output":120
				},
				{
					"input":135,
					"interpolation":"STEP",
					"output":121
				},
				{
					"input":135,
					"interpolation":"STEP",
					"output":122
				},
				{
					"input":135,
					"interpolation":"STEP",
					"output":123
				},
				{
					"input":135,
					"interpolation":"STEP",
					"output":124
				},
				{
					"input":135,
					"interpolation":"STEP",
					"output":125
				},
				{
					"input":135,
					"interpolation":"STEP",
					"output":126
				},
				{
					"input":136,
					"interpolation":"LINEAR",
					"output":143
				},
				{
					"input":135,
					"interpolation":"STEP",
					"output":144
				},
				{
					"input":135,
					"interpolation":"STEP",
					"output":129
				},
				{
					"input":136,
					"interpolation":"LINEAR",
					"output":145
				},
				{
					"input":135,
					"interpolation":"LINEAR",
					"output":146
				},
				{
					"input":135,
					"interpolation":"STEP",
					"output":132
				},
				{
					"input":136,
					"interpolation":"LINEAR",
					"output":147
				},
				{
					"input":135,
					"interpolation":"LINEAR",
					"output":148
				}
			]
		},
		{
			"channels":[
				{
					"sampler":0,
					"target":{
						"node":12,
						"path":"translation"
					}
				},
				{
					"sampler":1,
					"target":{
						"node":12,
						"path":"rotation"
					}
				},
				{
					"sampler":2,
					"target":{
						"node":12,
						"path":"scale"
					}
				},
				{
					"sampler":3,
					"target":{
						"node":0,
						"path":"translation"
					}
				},
				{
					"sampler":4,
					"target":{
						"node":0,
						"path":"rotation"
					}
				},
				{
					"sampler":5,
					"target":{
						"node":0,
						"path":"scale"
					}
				},
				{
					"sampler":6,
					"target":{
						"node":11,
						"path":"translation"
					}
				},
				{
					"sampler":7,
					"target":{
						"node":11,
						"path":"rotation"
					}
				},
				{
					"sampler":8,
					"target":{
						"node":11,
						"path":"scale"
					}
				},
				{
					"sampler":9,
					"target":{
						"node":10,
						"path":"translation"
					}
				},
				{
					"sampler":10,
					"target":{
						"node":10,
						"path":"rotation"
					}
				},
				{
					"sampler":11,
					"target":{
						"node":10,
						"path":"scale"
					}
				},
				{
					"sampler":12,
					"target":{
						"node":1,
						"path":"translation"
					}
				},
				{
					"sampler":13,
					"target":{
						"node":1,
						"path":"rotation"
					}
				},
				{
					"sampler":14,
					"target":{
						"node":1,
						"path":"scale"
					}
				},
				{
					"sampler":15,
					"target":{
						"node":9,
						"path":"translation"
					}
				},
				{
					"sampler":16,
					"target":{
						"node":9,
						"path":"rotation"
					}
				},
				{
					"sampler":17,
					"target":{
						"node":9,
						"path":"scale"
					}
				},
				{
					"sampler":18,
					"target":{
						"node":2,
						"path":"translation"
					}
				},
				{
					"sampler":19,
					"target":{
						"node":2,
						"path":"rotation"
					}
				},
				{
					"sampler":20,
					"target":{
						"node":2,
						"path":"scale"
					}
				},
				{
					"sampler":21,
					"target":{
						"node":8,
						"path":"translation"
					}
				},
				{
					"sampler":22,
					"target":{
						"node":8,
						"path":"rotation"
					}
				},
				{
					"sampler":23,
					"target":{
						"node":8,
						"path":"scale"
					}
				},
				{
					"sampler":24,
					"target":{
						"node":7,
						"path":"translation"
					}
				},
				{
					"sampler":25,
					"target":{
						"node":7,
						"path":"rotation"
					}
				},
				{
					"sampler":26,
					"target":{
						"node":7,
						"path":"scale"
					}
				},
				{
					"sampler":27,
					"target":{
						"node":6,
						"path":"translation"
					}
				},
				{
					"sampler":28,
					"target":{
						"node":6,
						"path":"rotation"
					}
				},
				{
					"sampler":29,
					"target":{
						"node":6,
						"path":"scale"
					}
				},
				{
					"sampler":30,
					"target":{
						"node":3,
						"path":"translation"
					}
				},
				{
					"sampler":31,
					"target":{
						"node":3,
						"path":"rotation"
					}
				},
				{
					"sampler":32,
					"target":{
						"node":3,
						"path":"scale"
					}
				},
				{
					"sampler":33,
					"target":{
						"node":4,
						"path":"translation"
					}
				},
				{
					"sampler":34,
					"target":{
						"node":4,
						"path":"rotation"
					}
				},
				{
					"sampler":35,
					"target":{
						"node":4,
						"path":"scale"
					}
				},
				{
					"sampler":36,
					"target":{
						"node":5,
						"path":"translation"
					}
				},
				{
					"sampler":37,
					"target":{
						"node":5,
						"path":"rotation"
					}
				},
				{
					"sampler":38,
					"target":{
						"node":5,
						"path":"scale"
					}
				}
			],
			"name":"Idle",
			"samplers":[
				{
					"input":135,
					"interpolation":"STEP",
					"output":96
				},
				{
					"input":135,
					"interpolation":"STEP",
					"output":97
				},
				{
					"input":135,
					"interpolation":"STEP",
					"output":98
				},
				{
					"input":135,
					"interpolation":"STEP",
					"output":99
				},
				{
					"input":135,
					"interpolation":"STEP",
					"output":149
				},
				{
					"input":135,
					"interpolation":"STEP",
					"output":150
				},
				{
					"input":135,
					"interpolation":"STEP",
					"output":103
				},
				{
					"input":135,
					"interpolation":"STEP",
					"output":104
				},
				{
					"input":135,
					"interpolation":"STEP",
					"output":105
				},
				{
					"input":135,
					"interpolation":"STEP",
					"output":106
				},
				{
					"input":135,
					"interpolation":"STEP",
					"output":107
				},
				{
					"input":135,
					"interpolation":"STEP",
					"output":108
				},
				{
					"input":135,
					"interpolation":"STEP",
					"output":109
				},
				{
					"input":135,
					"interpolation":"STEP",
					"output":151
				},
				{
					"input":135,
					"interpolation":"STEP",
					"output":152
				},
				{
					"input":135,
					"interpolation":"STEP",
					"output":112
				},
				{
					"input":135,
					"interpolation":"STEP",
					"output":113
				},
				{
					"input":135,
					"interpolation":"STEP",
					"output":114
				},
				{
					"input":135,
					"interpolation":"STEP",
					"output":115
				},
				{
					"input":135,
					"interpolation":"STEP",
					"output":153
				},
				{
					"input":135,
					"interpolation":"STEP",
					"output":154
				},
				{
					"input":135,
					"interpolation":"STEP",
					"output":118
				},
				{
					"input":135,
					"interpolation":"STEP",
					"output":119
				},
				{
					"input":135,
					"interpolation":"STEP",
					"output":98
				},
				{
					"input":135,
					"interpolation":"STEP",
					"output":120
				},
				{
					"input":135,
					"interpolation":"STEP",
					"output":121
				},
				{
					"input":135,
					"interpolation":"STEP",
					"output":122
				},
				{
					"input":135,
					"interpolation":"STEP",
					"output":123
				},
				{
					"input":135,
					"interpolation":"STEP",
					"output":124
				},
				{
					"input":135,
					"interpolation":"STEP",
					"output":125
				},
				{
					"input":135,
					"interpolation":"STEP",
					"output":126
				},
				{
					"input":135,
					"interpolation":"STEP",
					"output":155
				},
				{
					"input":135,
					"interpolation":"STEP",
					"output":156
				},
				{
					"input":135,
					"interpolation":"STEP",
					"output":129
				},
				{
					"input":135,
					"interpolation":"STEP",
					"output":157
				},
				{
					"input":135,
					"interpolation":"STEP",
					"output":158
				},
				{
					"input":135,
					"interpolation":"STEP",
					"output":132
				},
				{
					"input":135,
					"interpolation":"STEP",
					"output":159
				},
				{
					"input":135,
					"interpolation":"STEP",
					"output":160
				}
			]
		},
		{
			"channels":[
				{
					"sampler":0,
					"target":{
						"node":12,
						"path":"translation"
					}
				},
				{
					"sampler":1,
					"target":{
						"node":12,
						"path":"rotation"
					}
				},
				{
					"sampler":2,
					"target":{
						"node":12,
						"path":"scale"
					}
				},
				{
					"sampler":3,
					"target":{
						"node":0,
						"path":"translation"
					}
				},
				{
					"sampler":4,
					"target":{
						"node":0,
						"path":"rotation"
					}
				},
				{
					"sampler":5,
					"target":{
						"node":0,
						"path":"scale"
					}
				},
				{
					"sampler":6,
					"target":{
						"node":11,
						"path":"translation"
					}
				},
				{
					"sampler":7,
					"target":{
						"node":11,
						"path":"rotation"
					}
				},
				{
					"sampler":8,
					"target":{
						"node":11,
						"path":"scale"
					}
				},
				{
					"sampler":9,
					"target":{
						"node":10,
						"path":"translation"
					}
				},
				{
					"sampler":10,
					"target":{
						"node":10,
						"path":"rotation"
					}
				},
				{
					"sampler":11,
					"target":{
						"node":10,
						"path":"scale"
					}
				},
				{
					"sampler":12,
					"target":{
						"node":1,
						"path":"translation"
					}
				},
				{
					"sampler":13,
					"target":{
						"node":1,
						"path":"rotation"
					}
				},
				{
					"sampler":14,
					"target":{
						"node":1,
						"path":"scale"
					}
				},
				{
					"sampler":15,
					"target":{
						"node":9,
						"path":"translation"
					}
				},
				{
					"sampler":16,
					"target":{
						"node":9,
						"path":"rotation"
					}
				},
				{
					"sampler":17,
					"target":{
						"node":9,
						"path":"scale"
					}
				},
				{
					"sampler":18,
					"target":{
						"node":2,
						"path":"translation"
					}
				},
				{
					"sampler":19,
					"target":{
						"node":2,
						"path":"rotation"
					}
				},
				{
					"sampler":20,
					"target":{
						"node":2,
						"path":"scale"
					}
				},
				{
					"sampler":21,
					"target":{
						"node":8,
						"path":"translation"
					}
				},
				{
					"sampler":22,
					"target":{
						"node":8,
						"path":"rotation"
					}
				},
				{
					"sampler":23,
					"target":{
						"node":8,
						"path":"scale"
					}
				},
				{
					"sampler":24,
					"target":{
						"node":7,
						"path":"translation"
					}
				},
				{
					"sampler":25,
					"target":{
						"node":7,
						"path":"rotation"
					}
				},
				{
					"sampler":26,
					"target":{
						"node":7,
						"path":"scale"
					}
				},
				{
					"sampler":27,
					"target":{
						"node":6,
						"path":"translation"
					}
				},
				{
					"sampler":28,
					"target":{
						"node":6,
						"path":"rotation"
					}
				},
				{
					"sampler":29,
					"target":{
						"node":6,
						"path":"scale"
					}
				},
				{
					"sampler":30,
					"target":{
						"node":3,
						"path":"translation"
					}
				},
				{
					"sampler":31,
					"target":{
						"node":3,
						"path":"rotation"
					}
				},
				{
					"sampler":32,
					"target":{
						"node":3,
						"path":"scale"
					}
				},
				{
					"sampler":33,
					"target":{
						"node":4,
						"path":"translation"
					}
				},
				{
					"sampler":34,
					"target":{
						"node":4,
						"path":"rotation"
					}
				},
				{
					"sampler":35,
					"target":{
						"node":4,
						"path":"scale"
					}
				},
				{
					"sampler":36,
					"target":{
						"node":5,
						"path":"translation"
					}
				},
				{
					"sampler":37,
					"target":{
						"node":5,
						"path":"rotation"
					}
				},
				{
					"sampler":38,
					"target":{
						"node":5,
						"path":"scale"
					}
				}
			],
			"name":"Wait",
			"samplers":[
				{
					"input":161,
					"interpolation":"LINEAR",
					"output":162
				},
				{
					"input":163,
					"interpolation":"LINEAR",
					"output":164
				},
				{
					"input":161,
					"interpolation":"STEP",
					"output":98
				},
				{
					"input":161,
					"interpolation":"LINEAR",
					"output":165
				},
				{
					"input":163,
					"interpolation":"LINEAR",
					"output":166
				},
				{
					"input":161,
					"interpolation":"LINEAR",
					"output":167
				},
				{
					"input":161,
					"interpolation":"LINEAR",
					"output":168
				},
				{
					"input":163,
					"interpolation":"LINEAR",
					"output":169
				},
				{
					"input":161,
					"interpolation":"LINEAR",
					"output":170
				},
				{
					"input":161,
					"interpolation":"LINEAR",
					"output":171
				},
				{
					"input":163,
					"interpolation":"LINEAR",
					"output":172
				},
				{
					"input":161,
					"interpolation":"LINEAR",
					"output":173
				},
				{
					"input":161,
					"interpolation":"LINEAR",
					"output":174
				},
				{
					"input":163,
					"interpolation":"LINEAR",
					"output":175
				},
				{
					"input":161,
					"interpolation":"LINEAR",
					"output":176
				},
				{
					"input":161,
					"interpolation":"LINEAR",
					"output":177
				},
				{
					"input":163,
					"interpolation":"LINEAR",
					"output":178
				},
				{
					"input":161,
					"interpolation":"LINEAR",
					"output":179
				},
				{
					"input":161,
					"interpolation":"LINEAR",
					"output":180
				},
				{
					"input":163,
					"interpolation":"LINEAR",
					"output":181
				},
				{
					"input":161,
					"interpolation":"LINEAR",
					"output":182
				},
				{
					"input":161,
					"interpolation":"LINEAR",
					"output":183
				},
				{
					"input":163,
					"interpolation":"LINEAR",
					"output":184
				},
				{
					"input":161,
					"interpolation":"STEP",
					"output":185
				},
				{
					"input":161,
					"interpolation":"LINEAR",
					"output":186
				},
				{
					"input":163,
					"interpolation":"LINEAR",
					"output":187
				},
				{
					"input":161,
					"interpolation":"LINEAR",
					"output":188
				},
				{
					"input":161,
					"interpolation":"LINEAR",
					"output":189
				},
				{
					"input":161,
					"interpolation":"LINEAR",
					"output":190
				},
				{
					"input":161,
					"interpolation":"LINEAR",
					"output":191
				},
				{
					"input":161,
					"interpolation":"LINEAR",
					"output":192
				},
				{
					"input":163,
					"interpolation":"LINEAR",
					"output":193
				},
				{
					"input":161,
					"interpolation":"LINEAR",
					"output":194
				},
				{
					"input":161,
					"interpolation":"LINEAR",
					"output":195
				},
				{
					"input":163,
					"interpolation":"LINEAR",
					"output":196
				},
				{
					"input":161,
					"interpolation":"LINEAR",
					"output":197
				},
				{
					"input":161,
					"interpolation":"LINEAR",
					"output":198
				},
				{
					"input":161,
					"interpolation":"LINEAR",
					"output":199
				},
				{
					"input":161,
					"interpolation":"STEP",
					"output":200
				}
			]
		}
	],
	"materials":[
		{
			"doubleSided":true,
			"name":"\u30de\u30c6\u30ea\u30a2\u30eb",
			"pbrMetallicRoughness":{
				"baseColorTexture":{
					"index":0
				},
				"metallicFactor":0,
				"roughnessFactor":0.5
			}
		},
		{
			"doubleSided":true,
			"name":"\u753b\u50cf\u30de\u30c6\u8336",
			"pbrMetallicRoughness":{
				"baseColorTexture":{
					"index":1
				},
				"metallicFactor":0,
				"roughnessFactor":0.5
			}
		},
		{
			"doubleSided":true,
			"name":"\u30de\u30c6\u30ea\u30a2\u30eb.002",
			"pbrMetallicRoughness":{
				"baseColorTexture":{
					"index":2
				},
				"metallicFactor":0,
				"roughnessFactor":0.5
			}
		},
		{
			"doubleSided":true,
			"name":"\u30de\u30c6\u30ea\u30a2\u30eb.006",
			"pbrMetallicRoughness":{
				"baseColorTexture":{
					"index":3
				},
				"metallicFactor":0,
				"roughnessFactor":0.5
			}
		},
		{
			"doubleSided":true,
			"name":"\u30de\u30c6\u30ea\u30a2\u30eb.001",
			"pbrMetallicRoughness":{
				"baseColorTexture":{
					"index":4
				},
				"metallicFactor":0,
				"roughnessFactor":0.5
			}
		},
		{
			"doubleSided":true,
			"name":"\u30de\u30c6\u30ea\u30a2\u30eb.003",
			"pbrMetallicRoughness":{
				"baseColorTexture":{
					"index":5
				},
				"metallicFactor":0,
				"roughnessFactor":0.5
			}
		}
	],
	"meshes":[
		{
			"name":"\u5186\u67f1.007",
			"primitives":[
				{
					"attributes":{
						"POSITION":0,
						"NORMAL":1,
						"TEXCOORD_0":2,
						"JOINTS_0":3,
						"WEIGHTS_0":4
					},
					"indices":5,
					"material":0
				}
			]
		},
		{
			"name":"\u5186\u67f1.008",
			"primitives":[
				{
					"attributes":{
						"POSITION":7,
						"NORMAL":8,
						"TEXCOORD_0":9,
						"JOINTS_0":10,
						"WEIGHTS_0":11
					},
					"indices":5,
					"material":1
				}
			]
		},
		{
			"name":"\u5186\u67f1.009",
			"primitives":[
				{
					"attributes":{
						"POSITION":12,
						"NORMAL":13,
						"TEXCOORD_0":14,
						"JOINTS_0":15,
						"WEIGHTS_0":16
					},
					"indices":5,
					"material":0
				}
			]
		},
		{
			"name":"\u5186\u67f1.010",
			"primitives":[
				{
					"attributes":{
						"POSITION":17,
						"NORMAL":18,
						"TEXCOORD_0":19,
						"JOINTS_0":20,
						"WEIGHTS_0":21
					},
					"indices":22,
					"material":0
				}
			]
		},
		{
			"name":"\u5186\u67f1.011",
			"primitives":[
				{
					"attributes":{
						"POSITION":23,
						"NORMAL":24,
						"TEXCOORD_0":25,
						"JOINTS_0":26,
						"WEIGHTS_0":27
					},
					"indices":28,
					"material":0
				}
			]
		},
		{
			"name":"\u5186\u67f1.012",
			"primitives":[
				{
					"attributes":{
						"POSITION":29,
						"NORMAL":30,
						"TEXCOORD_0":31,
						"JOINTS_0":32,
						"WEIGHTS_0":33
					},
					"indices":34,
					"material":0
				}
			]
		},
		{
			"name":"\u5e73\u9762.010",
			"primitives":[
				{
					"attributes":{
						"POSITION":35,
						"NORMAL":36,
						"TEXCOORD_0":37,
						"JOINTS_0":38,
						"WEIGHTS_0":39
					},
					"indices":40,
					"material":1
				}
			]
		},
		{
			"name":"\u5e73\u9762.009",
			"primitives":[
				{
					"attributes":{
						"POSITION":41,
						"NORMAL":42,
						"TEXCOORD_0":43,
						"JOINTS_0":44,
						"WEIGHTS_0":45
					},
					"indices":46,
					"material":2
				}
			]
		},
		{
			"name":"\u5e73\u9762.011",
			"primitives":[
				{
					"attributes":{
						"POSITION":47,
						"NORMAL":48,
						"TEXCOORD_0":49,
						"JOINTS_0":50,
						"WEIGHTS_0":51
					},
					"indices":52,
					"material":1
				}
			]
		},
		{
			"name":"\u5e73\u9762.012",
			"primitives":[
				{
					"attributes":{
						"POSITION":53,
						"NORMAL":54,
						"TEXCOORD_0":55,
						"JOINTS_0":56,
						"WEIGHTS_0":57
					},
					"indices":58,
					"material":2
				}
			]
		},
		{
			"name":"\u5e73\u9762.007",
			"primitives":[
				{
					"attributes":{
						"POSITION":59,
						"NORMAL":60,
						"TEXCOORD_0":61,
						"JOINTS_0":62,
						"WEIGHTS_0":63
					},
					"indices":64,
					"material":1
				}
			]
		},
		{
			"name":"\u5e73\u9762.013",
			"primitives":[
				{
					"attributes":{
						"POSITION":65,
						"NORMAL":66,
						"TEXCOORD_0":67,
						"JOINTS_0":68,
						"WEIGHTS_0":69
					},
					"indices":70,
					"material":3
				}
			]
		},
		{
			"name":"\u7403",
			"primitives":[
				{
					"attributes":{
						"POSITION":71,
						"NORMAL":72,
						"TEXCOORD_0":73,
						"JOINTS_0":74,
						"WEIGHTS_0":75
					},
					"indices":76,
					"material":4
				}
			]
		},
		{
			"name":"\u7acb\u65b9\u4f53.001",
			"primitives":[
				{
					"attributes":{
						"POSITION":77,
						"NORMAL":78,
						"TEXCOORD_0":79,
						"JOINTS_0":80,
						"WEIGHTS_0":81
					},
					"indices":82,
					"material":3
				}
			]
		},
		{
			"name":"\u7acb\u65b9\u4f53.002",
			"primitives":[
				{
					"attributes":{
						"POSITION":83,
						"NORMAL":84,
						"TEXCOORD_0":85,
						"JOINTS_0":86,
						"WEIGHTS_0":87
					},
					"indices":88,
					"material":5
				}
			]
		},
		{
			"name":"\u7acb\u65b9\u4f53.004",
			"primitives":[
				{
					"attributes":{
						"POSITION":89,
						"NORMAL":90,
						"TEXCOORD_0":91,
						"JOINTS_0":92,
						"WEIGHTS_0":93
					},
					"indices":94,
					"material":1
				}
			]
		}
	],
	"textures":[
		{
			"sampler":0,
			"source":0
		},
		{
			"sampler":0,
			"source":0
		},
		{
			"sampler":0,
			"source":0
		},
		{
			"sampler":0,
			"source":0
		},
		{
			"sampler":0,
			"source":0
		},
		{
			"sampler":0,
			"source":0
		}
	],
	"images":[
		{
			"mimeType":"image/png",
			"name":"FlowerClover",
			"uri":"FlowerClover.png"
		}
	],
	"skins":[
		{
			"inverseBindMatrices":6,
			"joints":[
				12,
				0,
				11,
				10,
				1,
				9,
				2,
				8,
				7,
				6,
				3,
				4,
				5
			],
			"name":"\u30a2\u30fc\u30de\u30c1\u30e5\u30a2.003"
		}
	],
	"accessors":[
		{
			"bufferView":0,
			"componentType":5126,
			"count":192,
			"max":[
				-0.07030414789915085,
				0.12063094228506088,
				0.13347887992858887
			],
			"min":[
				-0.2646316587924957,
				-0.18323259055614471,
				-0.06084848940372467
			],
			"type":"VEC3"
		},
		{
			"bufferView":1,
			"componentType":5126,
			"count":192,
			"type":"VEC3"
		},
		{
			"bufferView":2,
			"componentType":5126,
			"count":192,
			"type":"VEC2"
		},
		{
			"bufferView":3,
			"componentType":5121,
			"count":192,
			"type":"VEC4"
		},
		{
			"bufferView":4,
			"componentType":5126,
			"count":192,
			"type":"VEC4"
		},
		{
			"bufferView":5,
			"componentType":5123,
			"count":372,
			"type":"SCALAR"
		},
		{
			"bufferView":6,
			"componentType":5126,
			"count":13,
			"type":"MAT4"
		},
		{
			"bufferView":7,
			"componentType":5126,
			"count":192,
			"max":[
				-0.07030414044857025,
				0.356873095035553,
				0.13347887992858887
			],
			"min":[
				-0.2646316587924957,
				0.05300953611731529,
				-0.060848478227853775
			],
			"type":"VEC3"
		},
		{
			"bufferView":8,
			"componentType":5126,
			"count":192,
			"type":"VEC3"
		},
		{
			"bufferView":9,
			"componentType":5126,
			"count":192,
			"type":"VEC2"
		},
		{
			"bufferView":10,
			"componentType":5121,
			"count":192,
			"type":"VEC4"
		},
		{
			"bufferView":11,
			"componentType":5126,
			"count":192,
			"type":"VEC4"
		},
		{
			"bufferView":12,
			"componentType":5126,
			"count":192,
			"max":[
				-0.07030412554740906,
				0.6065190434455872,
				0.13347887992858887
			],
			"min":[
				-0.2646316587924957,
				0.302655428647995,
				-0.060848478227853775
			],
			"type":"VEC3"
		},
		{
			"bufferView":13,
			"componentType":5126,
			"count":192,
			"type":"VEC3"
		},
		{
			"bufferView":14,
			"componentType":5126,
			"count":192,
			"type":"VEC2"
		},
		{
			"bufferView":15,
			"componentType":5121,
			"count":192,
			"type":"VEC4"
		},
		{
			"bufferView":16,
			"componentType":5126,
			"count":192,
			"type":"VEC4"
		},
		{
			"bufferView":17,
			"componentType":5126,
			"count":207,
			"max":[
				-0.07862722873687744,
				0.8611587285995483,
				0.1327800750732422
			],
			"min":[
				-0.2729547619819641,
				0.5572950839996338,
				-0.061547283083200455
			],
			"type":"VEC3"
		},
		{
			"bufferView":18,
			"componentType":5126,
			"count":207,
			"type":"VEC3"
		},
		{
			"bufferView":19,
			"componentType":5126,
			"count":207,
			"type":"VEC2"
		},
		{
			"bufferView":20,
			"componentType":5121,
			"count":207,
			"type":"VEC4"
		},
		{
			"bufferView":21,
			"componentType":5126,
			"count":207,
			"type":"VEC4"
		},
		{
			"bufferView":22,
			"componentType":5123,
			"count":372,
			"type":"SCALAR"
		},
		{
			"bufferView":23,
			"componentType":5126,
			"count":202,
			"max":[
				-0.07030414789915085,
				1.0966755151748657,
				0.13347886502742767
			],
			"min":[
				-0.2646316587924957,
				0.792811930179596,
				-0.06084848567843437
			],
			"type":"VEC3"
		},
		{
			"bufferView":24,
			"componentType":5126,
			"count":202,
			"type":"VEC3"
		},
		{
			"bufferView":25,
			"componentType":5126,
			"count":202,
			"type":"VEC2"
		},
		{
			"bufferView":26,
			"componentType":5121,
			"count":202,
			"type":"VEC4"
		},
		{
			"bufferView":27,
			"componentType":5126,
			"count":202,
			"type":"VEC4"
		},
		{
			"bufferView":28,
			"componentType":5123,
			"count":372,
			"type":"SCALAR"
		},
		{
			"bufferView":29,
			"componentType":5126,
			"count":219,
			"max":[
				-0.07030411809682846,
				1.2824556827545166,
				0.13347887992858887
			],
			"min":[
				-0.2646316587924957,
				0.9785916805267334,
				-0.060848478227853775
			],
			"type":"VEC3"
		},
		{
			"bufferView":30,
			"componentType":5126,
			"count":219,
			"type":"VEC3"
		},
		{
			"bufferView":31,
			"componentType":5126,
			"count":219,
			"type":"VEC2"
		},
		{
			"bufferView":32,
			"componentType":5121,
			"count":219,
			"type":"VEC4"
		},
		{
			"bufferView":33,
			"componentType":5126,
			"count":219,
			"type":"VEC4"
		},
		{
			"bufferView":34,
			"componentType":5123,
			"count":372,
			"type":"SCALAR"
		},
		{
			"bufferView":35,
			"componentType":5126,
			"count":168,
			"max":[
				-0.02901301346719265,
				2.067521572113037,
				0.03876400366425514
			],
			"min":[
				-0.4137788414955139,
				1.4280925989151,
				-0.24229645729064941
			],
			"type":"VEC3"
		},
		{
			"bufferView":36,
			"componentType":5126,
			"count":168,
			"type":"VEC3"
		},
		{
			"bufferView":37,
			"componentType":5126,
			"count":168,
			"type":"VEC2"
		},
		{
			"bufferView":38,
			"componentType":5121,
			"count":168,
			"type":"VEC4"
		},
		{
			"bufferView":39,
			"componentType":5126,
			"count":168,
			"type":"VEC4"
		},
		{
			"bufferView":40,
			"componentType":5123,
			"count":204,
			"type":"SCALAR"
		},
		{
			"bufferView":41,
			"componentType":5126,
			"count":1167,
			"max":[
				0.1836356371641159,
				1.507808804512024,
				0.05960271880030632
			],
			"min":[
				-0.5193066596984863,
				1.285178542137146,
				-1.2197015285491943
			],
			"type":"VEC3"
		},
		{
			"bufferView":42,
			"componentType":5126,
			"count":1167,
			"type":"VEC3"
		},
		{
			"bufferView":43,
			"componentType":5126,
			"count":1167,
			"type":"VEC2"
		},
		{
			"bufferView":44,
			"componentType":5121,
			"count":1167,
			"type":"VEC4"
		},
		{
			"bufferView":45,
			"componentType":5126,
			"count":1167,
			"type":"VEC4"
		},
		{
			"bufferView":46,
			"componentType":5123,
			"count":1440,
			"type":"SCALAR"
		},
		{
			"bufferView":47,
			"componentType":5126,
			"count":162,
			"max":[
				-0.010960576124489307,
				2.0271546840667725,
				0.2618439495563507
			],
			"min":[
				-0.421474426984787,
				1.3643733263015747,
				-0.052861232310533524
			],
			"type":"VEC3"
		},
		{
			"bufferView":48,
			"componentType":5126,
			"count":162,
			"type":"VEC3"
		},
		{
			"bufferView":49,
			"componentType":5126,
			"count":162,
			"type":"VEC2"
		},
		{
			"bufferView":50,
			"componentType":5121,
			"count":162,
			"type":"VEC4"
		},
		{
			"bufferView":51,
			"componentType":5126,
			"count":162,
			"type":"VEC4"
		},
		{
			"bufferView":52,
			"componentType":5123,
			"count":204,
			"type":"SCALAR"
		},
		{
			"bufferView":53,
			"componentType":5126,
			"count":166,
			"max":[
				-0.06664987653493881,
				2.1688249111175537,
				0.14684247970581055
			],
			"min":[
				-0.39648181200027466,
				1.6174510717391968,
				-0.18447040021419525
			],
			"type":"VEC3"
		},
		{
			"bufferView":54,
			"componentType":5126,
			"count":166,
			"type":"VEC3"
		},
		{
			"bufferView":55,
			"componentType":5126,
			"count":166,
			"type":"VEC2"
		},
		{
			"bufferView":56,
			"componentType":5121,
			"count":166,
			"type":"VEC4"
		},
		{
			"bufferView":57,
			"componentType":5126,
			"count":166,
			"type":"VEC4"
		},
		{
			"bufferView":58,
			"componentType":5123,
			"count":204,
			"type":"SCALAR"
		},
		{
			"bufferView":59,
			"componentType":5126,
			"count":1171,
			"max":[
				0.07193969190120697,
				1.5078089237213135,
				1.2530430555343628
			],
			"min":[
				-0.6307855844497681,
				1.285178542137146,
				-0.01739669032394886
			],
			"type":"VEC3"
		},
		{
			"bufferView":60,
			"componentType":5126,
			"count":1171,
			"type":"VEC3"
		},
		{
			"bufferView":61,
			"componentType":5126,
			"count":1171,
			"type":"VEC2"
		},
		{
			"bufferView":62,
			"componentType":5121,
			"count":1171,
			"type":"VEC4"
		},
		{
			"bufferView":63,
			"componentType":5126,
			"count":1171,
			"type":"VEC4"
		},
		{
			"bufferView":64,
			"componentType":5123,
			"count":1440,
			"type":"SCALAR"
		},
		{
			"bufferView":65,
			"componentType":5126,
			"count":166,
			"max":[
				-0.04933352768421173,
				2.262338876724243,
				0.17999722063541412
			],
			"min":[
				-0.3081898093223572,
				1.7990939617156982,
				-0.11365485191345215
			],
			"type":"VEC3"
		},
		{
			"bufferView":66,
			"componentType":5126,
			"count":166,
			"type":"VEC3"
		},
		{
			"bufferView":67,
			"componentType":5126,
			"count":166,
			"type":"VEC2"
		},
		{
			"bufferView":68,
			"componentType":5121,
			"count":166,
			"type":"VEC4"
		},
		{
			"bufferView":69,
			"componentType":5126,
			"count":166,
			"type":"VEC4"
		},
		{
			"bufferView":70,
			"componentType":5123,
			"count":204,
			"type":"SCALAR"
		},
		{
			"bufferView":71,
			"componentType":5126,
			"count":2184,
			"max":[
				-0.02096550725400448,
				1.5663152933120728,
				0.23541046679019928
			],
			"min":[
				-0.42133182287216187,
				1.1659482717514038,
				-0.16495586931705475
			],
			"type":"VEC3"
		},
		{
			"bufferView":72,
			"componentType":5126,
			"count":2184,
			"type":"VEC3"
		},
		{
			"bufferView":73,
			"componentType":5126,
			"count":2184,
			"type":"VEC2"
		},
		{
			"bufferView":74,
			"componentType":5121,
			"count":2184,
			"type":"VEC4"
		},
		{
			"bufferView":75,
			"componentType":5126,
			"count":2184,
			"type":"VEC4"
		},
		{
			"bufferView":76,
			"componentType":5123,
			"count":2880,
			"type":"SCALAR"
		},
		{
			"bufferView":77,
			"componentType":5126,
			"count":282,
			"max":[
				0.06221083924174309,
				1.1520845890045166,
				0.06167935952544212
			],
			"min":[
				-0.42612871527671814,
				0.6816844344139099,
				-0.5248726606369019
			],
			"type":"VEC3"
		},
		{
			"bufferView":78,
			"componentType":5126,
			"count":282,
			"type":"VEC3"
		},
		{
			"bufferView":79,
			"componentType":5126,
			"count":282,
			"type":"VEC2"
		},
		{
			"bufferView":80,
			"componentType":5121,
			"count":282,
			"type":"VEC4"
		},
		{
			"bufferView":81,
			"componentType":5126,
			"count":282,
			"type":"VEC4"
		},
		{
			"bufferView":82,
			"componentType":5123,
			"count":288,
			"type":"SCALAR"
		},
		{
			"bufferView":83,
			"componentType":5126,
			"count":278,
			"max":[
				0.10797222703695297,
				0.8225175738334656,
				0.6286537051200867
			],
			"min":[
				-0.3796677589416504,
				0.3545047342777252,
				0.04255129024386406
			],
			"type":"VEC3"
		},
		{
			"bufferView":84,
			"componentType":5126,
			"count":278,
			"type":"VEC3"
		},
		{
			"bufferView":85,
			"componentType":5126,
			"count":278,
			"type":"VEC2"
		},
		{
			"bufferView":86,
			"componentType":5121,
			"count":278,
			"type":"VEC4"
		},
		{
			"bufferView":87,
			"componentType":5126,
			"count":278,
			"type":"VEC4"
		},
		{
			"bufferView":88,
			"componentType":5123,
			"count":288,
			"type":"SCALAR"
		},
		{
			"bufferView":89,
			"componentType":5126,
			"count":282,
			"max":[
				0.16536161303520203,
				0.6385210156440735,
				0.07429361343383789
			],
			"min":[
				-0.5604525804519653,
				-0.060629624873399734,
				-0.7974923253059387
			],
			"type":"VEC3"
		},
		{
			"bufferView":90,
			"componentType":5126,
			"count":282,
			"type":"VEC3"
		},
		{
			"bufferView":91,
			"componentType":5126,
			"count":282,
			"type":"VEC2"
		},
		{
			"bufferView":92,
			"componentType":5121,
			"count":282,
			"type":"VEC4"
		},
		{
			"bufferView":93,
			"componentType":5126,
			"count":282,
			"type":"VEC4"
		},
		{
			"bufferView":94,
			"componentType":5123,
			"count":288,
			"type":"SCALAR"
		},
		{
			"bufferView":95,
			"componentType":5126,
			"count":2,
			"max":[
				1.9583333333333333
			],
			"min":[
				0.041666666666666664
			],
			"type":"SCALAR"
		},
		{
			"bufferView":96,
			"componentType":5126,
			"count":2,
			"type":"VEC3"
		},
		{
			"bufferView":97,
			"componentType":5126,
			"count":2,
			"type":"VEC4"
		},
		{
			"bufferView":98,
			"componentType":5126,
			"count":2,
			"type":"VEC3"
		},
		{
			"bufferView":99,
			"componentType":5126,
			"count":2,
			"type":"VEC3"
		},
		{
			"bufferView":100,
			"componentType":5126,
			"count":47,
			"max":[
				1.9583333333333333
			],
			"min":[
				0.041666666666666664
			],
			"type":"SCALAR"
		},
		{
			"bufferView":101,
			"componentType":5126,
			"count":47,
			"type":"VEC4"
		},
		{
			"bufferView":102,
			"componentType":5126,
			"count":2,
			"type":"VEC3"
		},
		{
			"bufferView":103,
			"componentType":5126,
			"count":2,
			"type":"VEC3"
		},
		{
			"bufferView":104,
			"componentType":5126,
			"count":2,
			"type":"VEC4"
		},
		{
			"bufferView":105,
			"componentType":5126,
			"count":2,
			"type":"VEC3"
		},
		{
			"bufferView":106,
			"componentType":5126,
			"count":2,
			"type":"VEC3"
		},
		{
			"bufferView":107,
			"componentType":5126,
			"count":2,
			"type":"VEC4"
		},
		{
			"bufferView":108,
			"componentType":5126,
			"count":2,
			"type":"VEC3"
		},
		{
			"bufferView":109,
			"componentType":5126,
			"count":2,
			"type":"VEC3"
		},
		{
			"bufferView":110,
			"componentType":5126,
			"count":47,
			"type":"VEC4"
		},
		{
			"bufferView":111,
			"componentType":5126,
			"count":2,
			"type":"VEC3"
		},
		{
			"bufferView":112,
			"componentType":5126,
			"count":2,
			"type":"VEC3"
		},
		{
			"bufferView":113,
			"componentType":5126,
			"count":2,
			"type":"VEC4"
		},
		{
			"bufferView":114,
			"componentType":5126,
			"count":2,
			"type":"VEC3"
		},
		{
			"bufferView":115,
			"componentType":5126,
			"count":2,
			"type":"VEC3"
		},
		{
			"bufferView":116,
			"componentType":5126,
			"count":47,
			"type":"VEC4"
		},
		{
			"bufferView":117,
			"componentType":5126,
			"count":2,
			"type":"VEC3"
		},
		{
			"bufferView":118,
			"componentType":5126,
			"count":2,
			"type":"VEC3"
		},
		{
			"bufferView":119,
			"componentType":5126,
			"count":2,
			"type":"VEC4"
		},
		{
			"bufferView":120,
			"componentType":5126,
			"count":2,
			"type":"VEC3"
		},
		{
			"bufferView":121,
			"componentType":5126,
			"count":2,
			"type":"VEC4"
		},
		{
			"bufferView":122,
			"componentType":5126,
			"count":2,
			"type":"VEC3"
		},
		{
			"bufferView":123,
			"componentType":5126,
			"count":2,
			"type":"VEC3"
		},
		{
			"bufferView":124,
			"componentType":5126,
			"count":2,
			"type":"VEC4"
		},
		{
			"bufferView":125,
			"componentType":5126,
			"count":2,
			"type":"VEC3"
		},
		{
			"bufferView":126,
			"componentType":5126,
			"count":2,
			"type":"VEC3"
		},
		{
			"bufferView":127,
			"componentType":5126,
			"count":47,
			"type":"VEC4"
		},
		{
			"bufferView":128,
			"componentType":5126,
			"count":2,
			"type":"VEC3"
		},
		{
			"bufferView":129,
			"componentType":5126,
			"count":2,
			"type":"VEC3"
		},
		{
			"bufferView":130,
			"componentType":5126,
			"count":47,
			"type":"VEC4"
		},
		{
			"bufferView":131,
			"componentType":5126,
			"count":2,
			"type":"VEC3"
		},
		{
			"bufferView":132,
			"componentType":5126,
			"count":2,
			"type":"VEC3"
		},
		{
			"bufferView":133,
			"componentType":5126,
			"count":47,
			"type":"VEC4"
		},
		{
			"bufferView":134,
			"componentType":5126,
			"count":2,
			"type":"VEC3"
		},
		{
			"bufferView":135,
			"componentType":5126,
			"count":2,
			"max":[
				2
			],
			"min":[
				0.041666666666666664
			],
			"type":"SCALAR"
		},
		{
			"bufferView":136,
			"componentType":5126,
			"count":48,
			"max":[
				2
			],
			"min":[
				0.041666666666666664
			],
			"type":"SCALAR"
		},
		{
			"bufferView":137,
			"componentType":5126,
			"count":48,
			"type":"VEC4"
		},
		{
			"bufferView":138,
			"componentType":5126,
			"count":2,
			"type":"VEC3"
		},
		{
			"bufferView":139,
			"componentType":5126,
			"count":48,
			"type":"VEC4"
		},
		{
			"bufferView":140,
			"componentType":5126,
			"count":2,
			"type":"VEC3"
		},
		{
			"bufferView":141,
			"componentType":5126,
			"count":48,
			"type":"VEC4"
		},
		{
			"bufferView":142,
			"componentType":5126,
			"count":2,
			"type":"VEC3"
		},
		{
			"bufferView":143,
			"componentType":5126,
			"count":48,
			"type":"VEC4"
		},
		{
			"bufferView":144,
			"componentType":5126,
			"count":2,
			"type":"VEC3"
		},
		{
			"bufferView":145,
			"componentType":5126,
			"count":48,
			"type":"VEC4"
		},
		{
			"bufferView":146,
			"componentType":5126,
			"count":2,
			"type":"VEC3"
		},
		{
			"bufferView":147,
			"componentType":5126,
			"count":48,
			"type":"VEC4"
		},
		{
			"bufferView":148,
			"componentType":5126,
			"count":2,
			"type":"VEC3"
		},
		{
			"bufferView":149,
			"componentType":5126,
			"count":2,
			"type":"VEC4"
		},
		{
			"bufferView":150,
			"componentType":5126,
			"count":2,
			"type":"VEC3"
		},
		{
			"bufferView":151,
			"componentType":5126,
			"count":2,
			"type":"VEC4"
		},
		{
			"bufferView":152,
			"componentType":5126,
			"count":2,
			"type":"VEC3"
		},
		{
			"bufferView":153,
			"componentType":5126,
			"count":2,
			"type":"VEC4"
		},
		{
			"bufferView":154,
			"componentType":5126,
			"count":2,
			"type":"VEC3"
		},
		{
			"bufferView":155,
			"componentType":5126,
			"count":2,
			"type":"VEC4"
		},
		{
			"bufferView":156,
			"componentType":5126,
			"count":2,
			"type":"VEC3"
		},
		{
			"bufferView":157,
			"componentType":5126,
			"count":2,
			"type":"VEC4"
		},
		{
			"bufferView":158,
			"componentType":5126,
			"count":2,
			"type":"VEC3"
		},
		{
			"bufferView":159,
			"componentType":5126,
			"count":2,
			"type":"VEC4"
		},
		{
			"bufferView":160,
			"componentType":5126,
			"count":2,
			"type":"VEC3"
		},
		{
			"bufferView":161,
			"componentType":5126,
			"count":2,
			"max":[
				2.5
			],
			"min":[
				0.041666666666666664
			],
			"type":"SCALAR"
		},
		{
			"bufferView":162,
			"componentType":5126,
			"count":2,
			"type":"VEC3"
		},
		{
			"bufferView":163,
			"componentType":5126,
			"count":60,
			"max":[
				2.5
			],
			"min":[
				0.041666666666666664
			],
			"type":"SCALAR"
		},
		{
			"bufferView":164,
			"componentType":5126,
			"count":60,
			"type":"VEC4"
		},
		{
			"bufferView":165,
			"componentType":5126,
			"count":2,
			"type":"VEC3"
		},
		{
			"bufferView":166,
			"componentType":5126,
			"count":60,
			"type":"VEC4"
		},
		{
			"bufferView":167,
			"componentType":5126,
			"count":2,
			"type":"VEC3"
		},
		{
			"bufferView":168,
			"componentType":5126,
			"count":2,
			"type":"VEC3"
		},
		{
			"bufferView":169,
			"componentType":5126,
			"count":60,
			"type":"VEC4"
		},
		{
			"bufferView":170,
			"componentType":5126,
			"count":2,
			"type":"VEC3"
		},
		{
			"bufferView":171,
			"componentType":5126,
			"count":2,
			"type":"VEC3"
		},
		{
			"bufferView":172,
			"componentType":5126,
			"count":60,
			"type":"VEC4"
		},
		{
			"bufferView":173,
			"componentType":5126,
			"count":2,
			"type":"VEC3"
		},
		{
			"bufferView":174,
			"componentType":5126,
			"count":2,
			"type":"VEC3"
		},
		{
			"bufferView":175,
			"componentType":5126,
			"count":60,
			"type":"VEC4"
		},
		{
			"bufferView":176,
			"componentType":5126,
			"count":2,
			"type":"VEC3"
		},
		{
			"bufferView":177,
			"componentType":5126,
			"count":2,
			"type":"VEC3"
		},
		{
			"bufferView":178,
			"componentType":5126,
			"count":60,
			"type":"VEC4"
		},
		{
			"bufferView":179,
			"componentType":5126,
			"count":2,
			"type":"VEC3"
		},
		{
			"bufferView":180,
			"componentType":5126,
			"count":2,
			"type":"VEC3"
		},
		{
			"bufferView":181,
			"componentType":5126,
			"count":60,
			"type":"VEC4"
		},
		{
			"bufferView":182,
			"componentType":5126,
			"count":2,
			"type":"VEC3"
		},
		{
			"bufferView":183,
			"componentType":5126,
			"count":2,
			"type":"VEC3"
		},
		{
			"bufferView":184,
			"componentType":5126,
			"count":60,
			"type":"VEC4"
		},
		{
			"bufferView":185,
			"componentType":5126,
			"count":2,
			"type":"VEC3"
		},
		{
			"bufferView":186,
			"componentType":5126,
			"count":2,
			"type":"VEC3"
		},
		{
			"bufferView":187,
			"componentType":5126,
			"count":60,
			"type":"VEC4"
		},
		{
			"bufferView":188,
			"componentType":5126,
			"count":2,
			"type":"VEC3"
		},
		{
			"bufferView":189,
			"componentType":5126,
			"count":2,
			"type":"VEC3"
		},
		{
			"bufferView":190,
			"componentType":5126,
			"count":2,
			"type":"VEC4"
		},
		{
			"bufferView":191,
			"componentType":5126,
			"count":2,
			"type":"VEC3"
		},
		{
			"bufferView":192,
			"componentType":5126,
			"count":2,
			"type":"VEC3"
		},
		{
			"bufferView":193,
			"componentType":5126,
			"count":60,
			"type":"VEC4"
		},
		{
			"bufferView":194,
			"componentType":5126,
			"count":2,
			"type":"VEC3"
		},
		{
			"bufferView":195,
			"componentType":5126,
			"count":2,
			"type":"VEC3"
		},
		{
			"bufferView":196,
			"componentType":5126,
			"count":60,
			"type":"VEC4"
		},
		{
			"bufferView":197,
			"componentType":5126,
			"count":2,
			"type":"VEC3"
		},
		{
			"bufferView":198,
			"componentType":5126,
			"count":2,
			"type":"VEC3"
		},
		{
			"bufferView":199,
			"componentType":5126,
			"count":2,
			"type":"VEC4"
		},
		{
			"bufferView":200,
			"componentType":5126,
			"count":2,
			"type":"VEC3"
		}
	],
	"bufferViews":[
		{
			"buffer":0,
			"byteLength":2304,
			"byteOffset":0,
			"target":34962
		},
		{
			"buffer":0,
			"byteLength":2304,
			"byteOffset":2304,
			"target":34962
		},
		{
			"buffer":0,
			"byteLength":1536,
			"byteOffset":4608,
			"target":34962
		},
		{
			"buffer":0,
			"byteLength":768,
			"byteOffset":6144,
			"target":34962
		},
		{
			"buffer":0,
			"byteLength":3072,
			"byteOffset":6912,
			"target":34962
		},
		{
			"buffer":0,
			"byteLength":744,
			"byteOffset":9984,
			"target":34963
		},
		{
			"buffer":0,
			"byteLength":832,
			"byteOffset":10728
		},
		{
			"buffer":0,
			"byteLength":2304,
			"byteOffset":11560,
			"target":34962
		},
		{
			"buffer":0,
			"byteLength":2304,
			"byteOffset":13864,
			"target":34962
		},
		{
			"buffer":0,
			"byteLength":1536,
			"byteOffset":16168,
			"target":34962
		},
		{
			"buffer":0,
			"byteLength":768,
			"byteOffset":17704,
			"target":34962
		},
		{
			"buffer":0,
			"byteLength":3072,
			"byteOffset":18472,
			"target":34962
		},
		{
			"buffer":0,
			"byteLength":2304,
			"byteOffset":21544,
			"target":34962
		},
		{
			"buffer":0,
			"byteLength":2304,
			"byteOffset":23848,
			"target":34962
		},
		{
			"buffer":0,
			"byteLength":1536,
			"byteOffset":26152,
			"target":34962
		},
		{
			"buffer":0,
			"byteLength":768,
			"byteOffset":27688,
			"target":34962
		},
		{
			"buffer":0,
			"byteLength":3072,
			"byteOffset":28456,
			"target":34962
		},
		{
			"buffer":0,
			"byteLength":2484,
			"byteOffset":31528,
			"target":34962
		},
		{
			"buffer":0,
			"byteLength":2484,
			"byteOffset":34012,
			"target":34962
		},
		{
			"buffer":0,
			"byteLength":1656,
			"byteOffset":36496,
			"target":34962
		},
		{
			"buffer":0,
			"byteLength":828,
			"byteOffset":38152,
			"target":34962
		},
		{
			"buffer":0,
			"byteLength":3312,
			"byteOffset":38980,
			"target":34962
		},
		{
			"buffer":0,
			"byteLength":744,
			"byteOffset":42292,
			"target":34963
		},
		{
			"buffer":0,
			"byteLength":2424,
			"byteOffset":43036,
			"target":34962
		},
		{
			"buffer":0,
			"byteLength":2424,
			"byteOffset":45460,
			"target":34962
		},
		{
			"buffer":0,
			"byteLength":1616,
			"byteOffset":47884,
			"target":34962
		},
		{
			"buffer":0,
			"byteLength":808,
			"byteOffset":49500,
			"target":34962
		},
		{
			"buffer":0,
			"byteLength":3232,
			"byteOffset":50308,
			"target":34962
		},
		{
			"buffer":0,
			"byteLength":744,
			"byteOffset":53540,
			"target":34963
		},
		{
			"buffer":0,
			"byteLength":2628,
			"byteOffset":54284,
			"target":34962
		},
		{
			"buffer":0,
			"byteLength":2628,
			"byteOffset":56912,
			"target":34962
		},
		{
			"buffer":0,
			"byteLength":1752,
			"byteOffset":59540,
			"target":34962
		},
		{
			"buffer":0,
			"byteLength":876,
			"byteOffset":61292,
			"target":34962
		},
		{
			"buffer":0,
			"byteLength":3504,
			"byteOffset":62168,
			"target":34962
		},
		{
			"buffer":0,
			"byteLength":744,
			"byteOffset":65672,
			"target":34963
		},
		{
			"buffer":0,
			"byteLength":2016,
			"byteOffset":66416,
			"target":34962
		},
		{
			"buffer":0,
			"byteLength":2016,
			"byteOffset":68432,
			"target":34962
		},
		{
			"buffer":0,
			"byteLength":1344,
			"byteOffset":70448,
			"target":34962
		},
		{
			"buffer":0,
			"byteLength":672,
			"byteOffset":71792,
			"target":34962
		},
		{
			"buffer":0,
			"byteLength":2688,
			"byteOffset":72464,
			"target":34962
		},
		{
			"buffer":0,
			"byteLength":408,
			"byteOffset":75152,
			"target":34963
		},
		{
			"buffer":0,
			"byteLength":14004,
			"byteOffset":75560,
			"target":34962
		},
		{
			"buffer":0,
			"byteLength":14004,
			"byteOffset":89564,
			"target":34962
		},
		{
			"buffer":0,
			"byteLength":9336,
			"byteOffset":103568,
			"target":34962
		},
		{
			"buffer":0,
			"byteLength":4668,
			"byteOffset":112904,
			"target":34962
		},
		{
			"buffer":0,
			"byteLength":18672,
			"byteOffset":117572,
			"target":34962
		},
		{
			"buffer":0,
			"byteLength":2880,
			"byteOffset":136244,
			"target":34963
		},
		{
			"buffer":0,
			"byteLength":1944,
			"byteOffset":139124,
			"target":34962
		},
		{
			"buffer":0,
			"byteLength":1944,
			"byteOffset":141068,
			"target":34962
		},
		{
			"buffer":0,
			"byteLength":1296,
			"byteOffset":143012,
			"target":34962
		},
		{
			"buffer":0,
			"byteLength":648,
			"byteOffset":144308,
			"target":34962
		},
		{
			"buffer":0,
			"byteLength":2592,
			"byteOffset":144956,
			"target":34962
		},
		{
			"buffer":0,
			"byteLength":408,
			"byteOffset":147548,
			"target":34963
		},
		{
			"buffer":0,
			"byteLength":1992,
			"byteOffset":147956,
			"target":34962
		},
		{
			"buffer":0,
			"byteLength":1992,
			"byteOffset":149948,
			"target":34962
		},
		{
			"buffer":0,
			"byteLength":1328,
			"byteOffset":151940,
			"target":34962
		},
		{
			"buffer":0,
			"byteLength":664,
			"byteOffset":153268,
			"target":34962
		},
		{
			"buffer":0,
			"byteLength":2656,
			"byteOffset":153932,
			"target":34962
		},
		{
			"buffer":0,
			"byteLength":408,
			"byteOffset":156588,
			"target":34963
		},
		{
			"buffer":0,
			"byteLength":14052,
			"byteOffset":156996,
			"target":34962
		},
		{
			"buffer":0,
			"byteLength":14052,
			"byteOffset":171048,
			"target":34962
		},
		{
			"buffer":0,
			"byteLength":9368,
			"byteOffset":185100,
			"target":34962
		},
		{
			"buffer":0,
			"byteLength":4684,
			"byteOffset":194468,
			"target":34962
		},
		{
			"buffer":0,
			"byteLength":18736,
			"byteOffset":199152,
			"target":34962
		},
		{
			"buffer":0,
			"byteLength":2880,
			"byteOffset":217888,
			"target":34963
		},
		{
			"buffer":0,
			"byteLength":1992,
			"byteOffset":220768,
			"target":34962
		},
		{
			"buffer":0,
			"byteLength":1992,
			"byteOffset":222760,
			"target":34962
		},
		{
			"buffer":0,
			"byteLength":1328,
			"byteOffset":224752,
			"target":34962
		},
		{
			"buffer":0,
			"byteLength":664,
			"byteOffset":226080,
			"target":34962
		},
		{
			"buffer":0,
			"byteLength":2656,
			"byteOffset":226744,
			"target":34962
		},
		{
			"buffer":0,
			"byteLength":408,
			"byteOffset":229400,
			"target":34963
		},
		{
			"buffer":0,
			"byteLength":26208,
			"byteOffset":229808,
			"target":34962
		},
		{
			"buffer":0,
			"byteLength":26208,
			"byteOffset":256016,
			"target":34962
		},
		{
			"buffer":0,
			"byteLength":17472,
			"byteOffset":282224,
			"target":34962
		},
		{
			"buffer":0,
			"byteLength":8736,
			"byteOffset":299696,
			"target":34962
		},
		{
			"buffer":0,
			"byteLength":34944,
			"byteOffset":308432,
			"target":34962
		},
		{
			"buffer":0,
			"byteLength":5760,
			"byteOffset":343376,
			"target":34963
		},
		{
			"buffer":0,
			"byteLength":3384,
			"byteOffset":349136,
			"target":34962
		},
		{
			"buffer":0,
			"byteLength":3384,
			"byteOffset":352520,
			"target":34962
		},
		{
			"buffer":0,
			"byteLength":2256,
			"byteOffset":355904,
			"target":34962
		},
		{
			"buffer":0,
			"byteLength":1128,
			"byteOffset":358160,
			"target":34962
		},
		{
			"buffer":0,
			"byteLength":4512,
			"byteOffset":359288,
			"target":34962
		},
		{
			"buffer":0,
			"byteLength":576,
			"byteOffset":363800,
			"target":34963
		},
		{
			"buffer":0,
			"byteLength":3336,
			"byteOffset":364376,
			"target":34962
		},
		{
			"buffer":0,
			"byteLength":3336,
			"byteOffset":367712,
			"target":34962
		},
		{
			"buffer":0,
			"byteLength":2224,
			"byteOffset":371048,
			"target":34962
		},
		{
			"buffer":0,
			"byteLength":1112,
			"byteOffset":373272,
			"target":34962
		},
		{
			"buffer":0,
			"byteLength":4448,
			"byteOffset":374384,
			"target":34962
		},
		{
			"buffer":0,
			"byteLength":576,
			"byteOffset":378832,
			"target":34963
		},
		{
			"buffer":0,
			"byteLength":3384,
			"byteOffset":379408,
			"target":34962
		},
		{
			"buffer":0,
			"byteLength":3384,
			"byteOffset":382792,
			"target":34962
		},
		{
			"buffer":0,
			"byteLength":2256,
			"byteOffset":386176,
			"target":34962
		},
		{
			"buffer":0,
			"byteLength":1128,
			"byteOffset":388432,
			"target":34962
		},
		{
			"buffer":0,
			"byteLength":4512,
			"byteOffset":389560,
			"target":34962
		},
		{
			"buffer":0,
			"byteLength":576,
			"byteOffset":394072,
			"target":34963
		},
		{
			"buffer":0,
			"byteLength":8,
			"byteOffset":394648
		},
		{
			"buffer":0,
			"byteLength":24,
			"byteOffset":394656
		},
		{
			"buffer":0,
			"byteLength":32,
			"byteOffset":394680
		},
		{
			"buffer":0,
			"byteLength":24,
			"byteOffset":394712
		},
		{
			"buffer":0,
			"byteLength":24,
			"byteOffset":394736
		},
		{
			"buffer":0,
			"byteLength":188,
			"byteOffset":394760
		},
		{
			"buffer":0,
			"byteLength":752,
			"byteOffset":394948
		},
		{
			"buffer":0,
			"byteLength":24,
			"byteOffset":395700
		},
		{
			"buffer":0,
			"byteLength":24,
			"byteOffset":395724
		},
		{
			"buffer":0,
			"byteLength":32,
			"byteOffset":395748
		},
		{
			"buffer":0,
			"byteLength":24,
			"byteOffset":395780
		},
		{
			"buffer":0,
			"byteLength":24,
			"byteOffset":395804
		},
		{
			"buffer":0,
			"byteLength":32,
			"byteOffset":395828
		},
		{
			"buffer":0,
			"byteLength":24,
			"byteOffset":395860
		},
		{
			"buffer":0,
			"byteLength":24,
			"byteOffset":395884
		},
		{
			"buffer":0,
			"byteLength":752,
			"byteOffset":395908
		},
		{
			"buffer":0,
			"byteLength":24,
			"byteOffset":396660
		},
		{
			"buffer":0,
			"byteLength":24,
			"byteOffset":396684
		},
		{
			"buffer":0,
			"byteLength":32,
			"byteOffset":396708
		},
		{
			"buffer":0,
			"byteLength":24,
			"byteOffset":396740
		},
		{
			"buffer":0,
			"byteLength":24,
			"byteOffset":396764
		},
		{
			"buffer":0,
			"byteLength":752,
			"byteOffset":396788
		},
		{
			"buffer":0,
			"byteLength":24,
			"byteOffset":397540
		},
		{
			"buffer":0,
			"byteLength":24,
			"byteOffset":397564
		},
		{
			"buffer":0,
			"byteLength":32,
			"byteOffset":397588
		},
		{
			"buffer":0,
			"byteLength":24,
			"byteOffset":397620
		},
		{
			"buffer":0,
			"byteLength":32,
			"byteOffset":397644
		},
		{
			"buffer":0,
			"byteLength":24,
			"byteOffset":397676
		},
		{
			"buffer":0,
			"byteLength":24,
			"byteOffset":397700
		},
		{
			"buffer":0,
			"byteLength":32,
			"byteOffset":397724
		},
		{
			"buffer":0,
			"byteLength":24,
			"byteOffset":397756
		},
		{
			"buffer":0,
			"byteLength":24,
			"byteOffset":397780
		},
		{
			"buffer":0,
			"byteLength":752,
			"byteOffset":397804
		},
		{
			"buffer":0,
			"byteLength":24,
			"byteOffset":398556
		},
		{
			"buffer":0,
			"byteLength":24,
			"byteOffset":398580
		},
		{
			"buffer":0,
			"byteLength":752,
			"byteOffset":398604
		},
		{
			"buffer":0,
			"byteLength":24,
			"byteOffset":399356
		},
		{
			"buffer":0,
			"byteLength":24,
			"byteOffset":399380
		},
		{
			"buffer":0,
			"byteLength":752,
			"byteOffset":399404
		},
		{
			"buffer":0,
			"byteLength":24,
			"byteOffset":400156
		},
		{
			"buffer":0,
			"byteLength":8,
			"byteOffset":400180
		},
		{
			"buffer":0,
			"byteLength":192,
			"byteOffset":400188
		},
		{
			"buffer":0,
			"byteLength":768,
			"byteOffset":400380
		},
		{
			"buffer":0,
			"byteLength":24,
			"byteOffset":401148
		},
		{
			"buffer":0,
			"byteLength":768,
			"byteOffset":401172
		},
		{
			"buffer":0,
			"byteLength":24,
			"byteOffset":401940
		},
		{
			"buffer":0,
			"byteLength":768,
			"byteOffset":401964
		},
		{
			"buffer":0,
			"byteLength":24,
			"byteOffset":402732
		},
		{
			"buffer":0,
			"byteLength":768,
			"byteOffset":402756
		},
		{
			"buffer":0,
			"byteLength":24,
			"byteOffset":403524
		},
		{
			"buffer":0,
			"byteLength":768,
			"byteOffset":403548
		},
		{
			"buffer":0,
			"byteLength":24,
			"byteOffset":404316
		},
		{
			"buffer":0,
			"byteLength":768,
			"byteOffset":404340
		},
		{
			"buffer":0,
			"byteLength":24,
			"byteOffset":405108
		},
		{
			"buffer":0,
			"byteLength":32,
			"byteOffset":405132
		},
		{
			"buffer":0,
			"byteLength":24,
			"byteOffset":405164
		},
		{
			"buffer":0,
			"byteLength":32,
			"byteOffset":405188
		},
		{
			"buffer":0,
			"byteLength":24,
			"byteOffset":405220
		},
		{
			"buffer":0,
			"byteLength":32,
			"byteOffset":405244
		},
		{
			"buffer":0,
			"byteLength":24,
			"byteOffset":405276
		},
		{
			"buffer":0,
			"byteLength":32,
			"byteOffset":405300
		},
		{
			"buffer":0,
			"byteLength":24,
			"byteOffset":405332
		},
		{
			"buffer":0,
			"byteLength":32,
			"byteOffset":405356
		},
		{
			"buffer":0,
			"byteLength":24,
			"byteOffset":405388
		},
		{
			"buffer":0,
			"byteLength":32,
			"byteOffset":405412
		},
		{
			"buffer":0,
			"byteLength":24,
			"byteOffset":405444
		},
		{
			"buffer":0,
			"byteLength":8,
			"byteOffset":405468
		},
		{
			"buffer":0,
			"byteLength":24,
			"byteOffset":405476
		},
		{
			"buffer":0,
			"byteLength":240,
			"byteOffset":405500
		},
		{
			"buffer":0,
			"byteLength":960,
			"byteOffset":405740
		},
		{
			"buffer":0,
			"byteLength":24,
			"byteOffset":406700
		},
		{
			"buffer":0,
			"byteLength":960,
			"byteOffset":406724
		},
		{
			"buffer":0,
			"byteLength":24,
			"byteOffset":407684
		},
		{
			"buffer":0,
			"byteLength":24,
			"byteOffset":407708
		},
		{
			"buffer":0,
			"byteLength":960,
			"byteOffset":407732
		},
		{
			"buffer":0,
			"byteLength":24,
			"byteOffset":408692
		},
		{
			"buffer":0,
			"byteLength":24,
			"byteOffset":408716
		},
		{
			"buffer":0,
			"byteLength":960,
			"byteOffset":408740
		},
		{
			"buffer":0,
			"byteLength":24,
			"byteOffset":409700
		},
		{
			"buffer":0,
			"byteLength":24,
			"byteOffset":409724
		},
		{
			"buffer":0,
			"byteLength":960,
			"byteOffset":409748
		},
		{
			"buffer":0,
			"byteLength":24,
			"byteOffset":410708
		},
		{
			"buffer":0,
			"byteLength":24,
			"byteOffset":410732
		},
		{
			"buffer":0,
			"byteLength":960,
			"byteOffset":410756
		},
		{
			"buffer":0,
			"byteLength":24,
			"byteOffset":411716
		},
		{
			"buffer":0,
			"byteLength":24,
			"byteOffset":411740
		},
		{
			"buffer":0,
			"byteLength":960,
			"byteOffset":411764
		},
		{
			"buffer":0,
			"byteLength":24,
			"byteOffset":412724
		},
		{
			"buffer":0,
			"byteLength":24,
			"byteOffset":412748
		},
		{
			"buffer":0,
			"byteLength":960,
			"byteOffset":412772
		},
		{
			"buffer":0,
			"byteLength":24,
			"byteOffset":413732
		},
		{
			"buffer":0,
			"byteLength":24,
			"byteOffset":413756
		},
		{
			"buffer":0,
			"byteLength":960,
			"byteOffset":413780
		},
		{
			"buffer":0,
			"byteLength":24,
			"byteOffset":414740
		},
		{
			"buffer":0,
			"byteLength":24,
			"byteOffset":414764
		},
		{
			"buffer":0,
			"byteLength":32,
			"byteOffset":414788
		},
		{
			"buffer":0,
			"byteLength":24,
			"byteOffset":414820
		},
		{
			"buffer":0,
			"byteLength":24,
			"byteOffset":414844
		},
		{
			"buffer":0,
			"byteLength":960,
			"byteOffset":414868
		},
		{
			"buffer":0,
			"byteLength":24,
			"byteOffset":415828
		},
		{
			"buffer":0,
			"byteLength":24,
			"byteOffset":415852
		},
		{
			"buffer":0,
			"byteLength":960,
			"byteOffset":415876
		},
		{
			"buffer":0,
			"byteLength":24,
			"byteOffset":416836
		},
		{
			"buffer":0,
			"byteLength":24,
			"byteOffset":416860
		},
		{
			"buffer":0,
			"byteLength":32,
			"byteOffset":416884
		},
		{
			"buffer":0,
			"byteLength":24,
			"byteOffset":416916
		}
	],
	"samplers":[
		{
			"magFilter":9729,
			"minFilter":9987
		}
	],
	"buffers":[
		{
			"byteLength":416940,
			"uri":"FlowerClover.bin"
		}
	]
}
