# Blender 5.0.1
# www.blender.org
mtllib Kinoko.mtl
o Kinoko
v 0.002527 1.525690 -1.000769
v 0.012568 0.695070 -1.300074
v -0.519615 1.571857 -0.899999
v -0.638458 0.637398 -1.134922
v -0.821974 1.572909 -0.529598
v -1.090384 0.576138 -0.707740
v -0.981486 1.566715 -0.035704
v -1.225045 0.524935 -0.094386
v -0.918858 1.568082 0.498580
v -1.156694 0.499525 0.575776
v -0.592927 1.571471 0.930917
v -0.763332 0.506718 1.123179
v -0.099952 1.571716 1.146230
v -0.150358 0.544584 1.335819
v 0.537247 1.613362 0.932361
v 0.638457 0.602727 1.134922
v 0.914615 1.602087 0.549150
v 1.118409 0.665044 0.665668
v 1.049768 1.582016 0.028847
v 1.298683 0.715309 0.018050
v 0.906489 1.558524 -0.489134
v 1.130977 0.740052 -0.634405
v 0.523173 1.537907 -0.866000
v 0.660226 0.732644 -1.116872
v -0.000000 0.239674 -1.142228
v -0.571114 0.239674 -0.989199
v -0.989199 0.239674 -0.571114
v -1.142228 0.239674 -0.000000
v -0.989199 0.239674 0.571114
v -0.571114 0.239674 0.989199
v -0.000000 0.239674 1.142228
v 0.571114 0.239674 0.989199
v 0.989199 0.239674 0.571114
v 1.187403 0.324509 -0.011268
v 1.031692 0.318739 -0.581628
v 0.571114 0.239674 -0.989199
v -0.000000 0.000000 -0.764114
v -0.382057 0.000000 -0.661742
v -0.661742 0.000000 -0.382057
v -0.764114 0.000000 -0.000000
v -0.661742 0.000000 0.382057
v -0.382057 0.000000 0.661742
v -0.000000 0.000000 0.764114
v 0.382057 0.000000 0.661742
v 0.661742 0.000000 0.382057
v 0.764114 0.000000 -0.000000
v 0.661742 0.000000 -0.382057
v 0.382057 0.000000 -0.661742
v 0.000000 2.679901 -0.909070
v -0.454535 2.679901 -0.787278
v -0.744496 2.679901 -0.454535
v -0.909070 2.679901 0.000000
v -0.787278 2.679901 0.454535
v -0.454535 2.679901 0.787278
v 0.000000 2.679901 0.909070
v 0.454535 2.679901 0.787278
v 0.787278 2.679901 0.454535
v 0.909070 2.679901 0.000000
v 0.787278 2.679901 -0.454535
v 0.454535 2.679901 -0.787278
v 0.017515 2.816095 -3.993799
v -0.000802 4.549691 -2.053378
v 1.977502 2.887509 -3.503933
v 1.024080 4.514734 -1.773666
v 3.427912 3.024729 -2.102471
v 1.756968 4.474710 -0.952575
v 3.898667 2.952572 -0.050955
v 2.060218 4.478413 -0.047830
v 3.390780 3.028000 1.904289
v 1.784201 4.419081 0.928695
v 1.972672 2.910309 3.420426
v 1.018118 4.451914 1.553739
v -0.000000 2.908492 3.905312
v 0.000000 4.359749 1.905220
v -1.952656 2.908492 3.382100
v -1.030109 4.476961 1.694511
v -3.382100 2.908492 1.952656
v -1.784201 4.476961 0.978326
v -3.895346 3.022091 0.000000
v -2.060218 4.476961 -0.000000
v -3.373580 2.964327 -1.939886
v -1.619216 4.420253 -0.968962
v -1.959625 2.868790 -3.376944
v -1.039111 4.526450 -1.752064
v -0.039081 2.186483 -3.881511
v 1.985559 2.388287 -3.463392
v 3.435970 2.525507 -2.061930
v 3.904989 2.452119 -0.030006
v 3.397102 2.527547 1.925238
v 1.978993 2.418667 3.324614
v 0.030643 2.567867 3.904327
v -1.952656 2.407561 3.382100
v -3.382100 2.407561 1.952656
v -3.962464 2.525678 0.000000
v -3.439123 2.468105 -1.919895
v -2.080213 2.061352 -3.322368
v -0.022713 1.998077 -3.260522
v 1.595472 1.915689 -2.767081
v 2.913485 2.028979 -1.610020
v 3.228892 2.057770 -0.008169
v 2.809575 2.120044 1.606100
v 1.638771 2.155022 2.795033
v 0.030193 2.153332 3.240056
v -1.588315 2.056732 2.813997
v -2.856282 2.078783 1.653811
v -3.224265 2.021207 -0.000000
v -2.790301 1.946199 -1.519752
v -1.628018 1.867896 -2.714965
v 0.027935 5.411732 -1.221491
v 0.573593 5.387043 -1.050484
v 0.953238 5.360076 -0.581972
v 1.100704 5.324499 0.003577
v 0.953238 5.288922 0.589125
v 0.550352 5.262878 1.017776
v 0.000000 5.253345 1.174674
v -0.550352 5.262878 1.017776
v -0.953238 5.324608 0.586628
v -1.100704 5.324608 0.000000
v -0.953238 5.324608 -0.586628
v -0.525091 5.447563 -1.078408
v 0.000000 5.695030 -0.210645
v 0.135280 5.693110 -0.179045
v 0.234311 5.687865 -0.092713
v 0.270559 5.680699 0.025219
v 0.234311 5.673534 0.143150
v 0.135280 5.668289 0.229483
v 0.000000 5.666368 0.261082
v -0.135280 5.668289 0.229483
v -0.234311 5.673534 0.143150
v -0.270559 5.680699 0.025219
v -0.234311 5.687865 -0.092713
v -0.135280 5.693110 -0.179045
v -0.000836 2.164924 -2.682065
v 1.394145 2.324943 -2.408525
v 2.300195 2.367934 -1.397574
v 2.784653 2.316412 -0.000000
v 2.411581 2.316412 1.392327
v 1.392327 2.316412 2.411581
v 0.023031 2.429827 2.788499
v -1.335076 2.267050 2.399219
v -2.453145 2.603972 1.371599
v -2.784653 2.316412 -0.000000
v -2.420945 2.225116 -1.364567
v -1.407337 2.196256 -2.362993
v -0.000000 2.594288 -1.245993
v 0.622997 2.594288 -1.079062
v 1.079062 2.594288 -0.622997
v 1.245993 2.594288 0.000000
v 1.079062 2.594288 0.622997
v 0.622997 2.594288 1.079062
v -0.000000 2.594288 1.245993
v -0.622997 2.594288 1.079062
v -1.079062 2.594288 0.622997
v -1.245993 2.594288 0.000000
v -1.079062 2.594288 -0.622997
v -0.622997 2.594288 -1.079062
vn 0.0349 0.2240 -0.9740
vn 0.0203 0.0019 -0.9998
vn -0.5053 0.2070 -0.8378
vn -0.4955 -0.0442 -0.8675
vn -0.8559 0.1935 -0.4795
vn -0.8515 -0.0735 -0.5193
vn -0.9828 0.1637 -0.0853
vn -0.9968 -0.0583 -0.0553
vn -0.9076 0.1791 0.3796
vn -0.9286 -0.1575 0.3359
vn -0.6030 0.1994 0.7724
vn -0.5741 -0.1995 0.7941
vn -0.0526 0.1956 0.9793
vn -0.0695 -0.1791 0.9814
vn 0.5150 0.1905 0.8357
vn 0.4967 -0.0951 0.8627
vn 0.8531 0.1902 0.4859
vn 0.8596 -0.0436 0.5090
vn 0.9800 0.1989 -0.0077
vn 0.9999 0.0079 0.0110
vn 0.8435 0.2083 -0.4951
vn 0.8667 0.0280 -0.4980
vn 0.4806 0.2142 -0.8504
vn 0.5102 0.0222 -0.8598
vn 0.0055 -0.6003 -0.7998
vn -0.3968 -0.6157 -0.6808
vn -0.6758 -0.6291 -0.3840
vn -0.8225 -0.5678 0.0329
vn -0.6567 -0.6784 0.3295
vn -0.3227 -0.7252 0.6082
vn 0.0325 -0.6778 0.7346
vn 0.3943 -0.6310 0.6681
vn 0.6907 -0.6129 0.3837
vn 0.8470 -0.5312 -0.0200
vn 0.7350 -0.5278 -0.4256
vn 0.4191 -0.5943 -0.6864
vn -0.0000 -0.9473 -0.3204
vn -0.1602 -0.9473 -0.2775
vn -0.2775 -0.9473 -0.1602
vn -0.3204 -0.9473 -0.0000
vn -0.2775 -0.9473 0.1602
vn -0.1602 -0.9473 0.2775
vn -0.0000 -0.9473 0.3204
vn 0.1602 -0.9473 0.2775
vn 0.2775 -0.9473 0.1602
vn 0.3570 -0.9340 -0.0127
vn 0.3151 -0.9311 -0.1839
vn 0.1782 -0.9437 -0.2786
vn -0.0013 0.6830 -0.7304
vn -0.3826 0.6832 -0.6219
vn -0.6145 0.7023 -0.3595
vn -0.7308 0.6815 -0.0391
vn -0.6189 0.6977 0.3608
vn -0.3696 0.7176 0.5903
vn 0.0173 0.7247 0.6888
vn 0.3537 0.7091 0.6100
vn 0.6142 0.7061 0.3523
vn 0.7144 0.6997 -0.0059
vn 0.6232 0.6924 -0.3635
vn 0.3605 0.6868 -0.6312
vn -0.0052 0.3068 -0.9518
vn -0.0035 0.7235 -0.6903
vn 0.4297 0.3718 -0.8228
vn 0.3758 0.7332 -0.5668
vn 0.7783 0.4211 -0.4658
vn 0.5672 0.7558 -0.3272
vn 0.9163 0.4003 0.0080
vn 0.6367 0.7711 0.0083
vn 0.7819 0.4421 0.4395
vn 0.5354 0.7664 0.3549
vn 0.4463 0.3450 0.8257
vn 0.3199 0.7384 0.5937
vn 0.0002 0.4108 0.9117
vn 0.0547 0.7408 0.6695
vn -0.4553 0.4021 0.7944
vn -0.2907 0.7562 0.5862
vn -0.7927 0.3941 0.4651
vn -0.5634 0.7552 0.3350
vn -0.8809 0.4732 0.0108
vn -0.6382 0.7689 -0.0402
vn -0.7532 0.4624 -0.4679
vn -0.5916 0.7219 -0.3590
vn -0.4601 0.4057 -0.7898
vn -0.4375 0.7170 -0.5427
vn 0.0164 -0.6262 -0.7795
vn 0.4320 -0.4944 -0.7543
vn 0.7916 -0.4318 -0.4324
vn 0.8823 -0.4704 0.0143
vn 0.7847 -0.4376 0.4390
vn 0.4130 -0.5788 0.7032
vn 0.0236 -0.4347 0.9003
vn -0.4241 -0.4902 0.7614
vn -0.7607 -0.4773 0.4399
vn -0.9310 -0.3650 0.0067
vn -0.8290 -0.3724 -0.4171
vn -0.4470 -0.5773 -0.6833
vn 0.0477 -0.9955 -0.0824
vn 0.0389 -0.9988 0.0313
vn 0.1686 -0.9844 -0.0493
vn 0.0811 -0.9966 0.0168
vn 0.1098 -0.9914 0.0710
vn 0.0211 -0.9970 0.0750
vn 0.0190 -0.9964 0.0823
vn -0.0159 -0.9949 0.0994
vn 0.0027 -1.0000 -0.0031
vn -0.0888 -0.9958 0.0222
vn -0.0960 -0.9943 0.0456
vn 0.0629 -0.9930 0.1001
vn 0.0416 0.8340 -0.5502
vn 0.3332 0.8337 -0.4405
vn 0.5057 0.8326 -0.2260
vn 0.5515 0.8326 0.0506
vn 0.4845 0.8126 0.3240
vn 0.2867 0.7845 0.5499
vn 0.0200 0.7830 0.6218
vn -0.2631 0.8112 0.5223
vn -0.4619 0.8316 0.3084
vn -0.5513 0.8343 0.0010
vn -0.5530 0.7985 -0.2380
vn -0.3165 0.8378 -0.4448
vn 0.0126 0.9918 -0.1272
vn 0.1038 0.9867 -0.1251
vn 0.1955 0.9786 -0.0639
vn 0.2376 0.9696 0.0589
vn 0.1955 0.9637 0.1819
vn 0.1036 0.9627 0.2500
vn -0.0000 0.9631 0.2691
vn -0.0944 0.9642 0.2477
vn -0.1885 0.9675 0.1686
vn -0.2377 0.9695 0.0591
vn -0.2024 0.9762 -0.0773
vn -0.1152 0.9880 -0.1027
vn 0.0306 -0.9440 0.3285
vn -0.1702 -0.8661 0.4700
vn -0.2877 -0.9409 0.1788
vn -0.3653 -0.9309 0.0009
vn -0.2659 -0.9526 -0.1475
vn -0.1632 -0.9639 -0.2102
vn 0.0213 -0.9430 -0.3321
vn 0.1669 -0.9393 -0.2997
vn 0.3958 -0.8892 -0.2297
vn 0.4232 -0.9017 0.0891
vn 0.3565 -0.8977 0.2588
vn 0.2121 -0.8789 0.4273
vn 0.0169 -0.9891 0.1460
vn -0.0456 -0.9952 0.0867
vn -0.0788 -0.9959 0.0445
vn -0.1008 -0.9949 -0.0041
vn -0.0900 -0.9946 -0.0520
vn -0.0520 -0.9946 -0.0900
vn 0.0071 -0.9959 -0.0898
vn 0.0085 -0.9950 -0.0997
vn -0.0031 -1.0000 0.0018
vn 0.0838 -0.9953 0.0476
vn 0.1193 -0.9901 0.0740
vn 0.0743 -0.9887 0.1303
vt 0.726485 0.013578
vt 0.527156 0.046799
vt 0.527156 0.013578
vt 0.726485 0.046799
vt 0.527156 0.080021
vt 0.726485 0.080021
vt 0.527156 0.113242
vt 0.726485 0.146464
vt 0.527156 0.146464
vt 0.726485 0.179685
vt 0.527156 0.179685
vt 0.726485 0.212907
vt 0.527156 0.212907
vt 0.726485 0.246128
vt 0.527156 0.246128
vt 0.527156 0.279350
vt 0.726485 0.279350
vt 0.527156 0.312571
vt 0.726485 0.312571
vt 0.527156 0.345793
vt 0.726485 0.345793
vt 0.527156 0.379014
vt 0.726485 0.379014
vt 0.527156 0.412236
vt 0.726485 0.046799
vt 0.726485 0.412236
vt 0.726485 0.113242
vt 0.726485 0.146464
vt 0.726485 0.312571
vt 0.760041 0.679315
vt 0.678675 0.701116
vt 0.700477 0.619751
vt 0.638932 0.690614
vt 0.568069 0.619751
vt 0.542131 0.716552
vt 0.527156 0.146464
vt 0.013578 0.013578
vt 0.500000 0.094648
vt 0.013578 0.094648
vt 0.500000 0.175719
vt 0.013578 0.175719
vt 0.500000 0.256789
vt 0.013578 0.256789
vt 0.013578 0.337859
vt 0.500000 0.337859
vt 0.013578 0.418930
vt 0.500000 0.418929
vt 0.013578 0.500000
vt 0.500000 0.581070
vt 0.013578 0.581070
vt 0.500000 0.662141
vt 0.013578 0.662141
vt 0.500000 0.743211
vt 0.013578 0.743211
vt 0.013578 0.824281
vt 0.500000 0.824281
vt 0.013578 0.905352
vt 0.500000 0.905352
vt 0.013578 0.986422
vt 0.013578 0.256789
vt 0.013578 0.500000
vt 0.013578 0.500000
vt 0.500000 0.500000
vt 0.500000 0.986422
vt 0.500000 0.013578
vt 0.500000 0.256789
vt 0.500000 0.743211
vt 0.732677 0.443284
vt 0.736569 0.457811
vt 0.711408 0.464553
vt 0.500000 0.256789
vt 0.500000 0.824281
vt 0.500000 0.581070
vt 0.500000 0.337859
vt 0.500000 0.418930
vt 0.013578 0.662141
vt 0.547681 0.459917
vt 0.527156 0.536519
vt 0.659834 0.572070
vt 0.013578 0.418930
vt 0.013578 0.175719
vt 0.013578 0.581070
vt 0.013578 0.337859
vt 0.013578 0.094648
vt 0.725652 0.619751
vt 0.747454 0.632338
vt 0.760041 0.654140
vt 0.747454 0.701116
vt 0.725652 0.713704
vt 0.700477 0.713704
vt 0.666088 0.679315
vt 0.666088 0.654140
vt 0.678675 0.632338
vt 0.568069 0.731527
vt 0.598019 0.731527
vt 0.623957 0.716552
vt 0.638932 0.660664
vt 0.623957 0.634726
vt 0.598019 0.619751
vt 0.542131 0.634726
vt 0.527156 0.660664
vt 0.527156 0.690614
vt 0.718150 0.439391
vt 0.725935 0.439391
vt 0.736569 0.450026
vt 0.732677 0.464553
vt 0.725935 0.468446
vt 0.718150 0.468446
vt 0.707515 0.457811
vt 0.707515 0.450026
vt 0.711408 0.443284
vt 0.547681 0.572070
vt 0.583232 0.592595
vt 0.624283 0.592595
vt 0.680359 0.536519
vt 0.680359 0.495468
vt 0.659834 0.459917
vt 0.624283 0.439391
vt 0.583232 0.439391
vt 0.527156 0.495468
s 1
usemtl Material.001
f 2/1/2 3/2/3 1/3/1
f 4/4/4 5/5/5 3/2/3
f 6/6/6 7/7/7 5/5/5
f 7/7/7 10/8/10 9/9/9
f 9/9/9 12/10/12 11/11/11
f 11/11/11 14/12/14 13/13/13
f 13/13/13 16/14/16 15/15/15
f 16/14/16 17/16/17 15/15/15
f 18/17/18 19/18/19 17/16/17
f 20/19/20 21/20/21 19/18/19
f 22/21/22 23/22/23 21/20/21
f 24/23/24 1/24/1 23/22/23
f 17/16/17 58/18/58 57/16/57
f 4/4/4 25/1/25 26/25/26
f 2/26/2 36/23/36 25/26/25
f 8/27/8 29/28/29 10/8/10
f 12/10/12 29/28/29 30/10/30
f 12/10/12 31/12/31 14/12/14
f 14/12/14 32/14/32 16/14/16
f 16/14/16 33/17/33 18/17/18
f 18/17/18 34/29/34 20/19/20
f 22/21/22 34/29/34 35/21/35
f 4/4/4 27/6/27 6/6/6
f 22/21/22 36/23/36 24/23/24
f 6/6/6 28/27/28 8/27/8
f 30/10/30 43/12/43 31/12/31
f 47/30/47 43/31/43 39/32/39
f 29/28/29 42/10/42 30/10/30
f 29/28/29 40/27/40 41/8/41
f 36/23/36 37/26/37 25/26/25
f 26/25/26 37/1/37 38/25/38
f 27/6/27 40/27/40 28/27/28
f 35/21/35 48/23/48 36/23/36
f 27/6/27 38/25/38 39/6/39
f 35/21/35 46/19/46 47/21/47
f 33/17/33 46/19/46 34/29/34
f 33/17/33 44/14/44 45/17/45
f 32/14/32 43/12/43 44/14/44
f 52/33/52 56/34/56 60/35/60
f 17/16/17 56/15/56 15/15/15
f 15/15/15 55/13/55 13/13/13
f 13/13/13 54/11/54 11/11/11
f 9/9/9 54/11/54 53/36/53
f 9/9/9 52/7/52 7/7/7
f 23/22/23 49/24/49 60/22/60
f 1/3/1 50/2/50 49/3/49
f 5/5/5 52/7/52 51/5/51
f 21/20/21 60/22/60 59/20/59
f 5/5/5 50/2/50 3/2/3
f 21/20/21 58/18/58 19/18/19
f 61/37/61 64/38/64 63/39/63
f 63/39/63 66/40/66 65/41/65
f 65/41/65 68/42/68 67/43/67
f 68/42/68 69/44/69 67/43/67
f 70/45/70 71/46/71 69/44/69
f 72/47/72 73/48/73 71/46/71
f 73/48/73 76/49/76 75/50/75
f 75/50/75 78/51/78 77/52/77
f 77/52/77 80/53/80 79/54/79
f 80/53/80 81/55/81 79/54/79
f 68/42/68 113/45/113 70/45/70
f 82/56/82 83/57/83 81/55/81
f 84/58/84 61/59/61 83/57/83
f 71/46/71 89/44/89 69/44/69
f 87/41/87 100/60/100 99/41/99
f 69/44/69 88/43/88 67/43/67
f 61/59/61 96/57/96 83/57/83
f 63/39/63 85/37/85 61/37/61
f 67/43/67 87/41/87 65/41/65
f 83/57/83 95/55/95 81/55/81
f 65/41/65 86/39/86 63/39/63
f 81/55/81 94/54/94 79/54/79
f 79/54/79 93/52/93 77/52/77
f 77/52/77 92/50/92 75/50/75
f 75/50/75 91/61/91 73/48/73
f 73/48/73 90/46/90 71/46/71
f 99/41/99 136/60/136 135/41/135
f 95/55/95 106/54/106 94/54/94
f 92/50/92 103/62/103 91/61/91
f 89/44/89 100/60/100 88/43/88
f 96/57/96 107/55/107 95/55/95
f 86/39/86 97/37/97 85/37/85
f 93/52/93 104/50/104 92/50/92
f 90/46/90 101/44/101 89/44/89
f 96/57/96 97/59/97 108/57/108
f 87/41/87 98/39/98 86/39/86
f 93/52/93 106/54/106 105/52/105
f 90/46/90 103/62/103 102/46/102
f 114/47/114 127/63/127 115/63/115
f 84/58/84 109/64/109 62/64/62
f 64/38/64 109/65/109 110/38/110
f 68/42/68 111/40/111 112/66/112
f 82/56/82 120/58/120 84/58/84
f 66/40/66 110/38/110 111/40/111
f 80/53/80 119/56/119 82/56/82
f 80/53/80 117/51/117 118/67/118
f 78/51/78 116/49/116 117/51/117
f 76/49/76 115/63/115 116/49/116
f 72/47/72 115/63/115 74/63/74
f 70/45/70 114/47/114 72/47/72
f 121/68/121 131/69/131 127/70/127
f 112/66/112 123/40/123 124/71/124
f 118/67/118 131/72/131 119/56/119
f 116/49/116 127/63/127 128/73/128
f 112/66/112 125/74/125 113/45/113
f 119/56/119 132/58/132 120/58/120
f 110/38/110 121/65/121 122/38/122
f 117/51/117 128/73/128 129/51/129
f 113/45/113 126/75/126 114/47/114
f 120/58/120 121/64/121 109/64/109
f 111/40/111 122/38/122 123/40/123
f 118/67/118 129/51/129 130/67/130
f 141/52/141 154/54/154 153/76/153
f 107/55/107 142/54/142 106/54/106
f 104/50/104 139/62/139 103/62/103
f 101/44/101 136/60/136 100/60/100
f 108/57/108 143/55/143 107/55/107
f 98/39/98 133/37/133 97/37/97
f 105/52/105 140/50/140 104/50/104
f 102/46/102 137/44/137 101/44/101
f 108/57/108 133/59/133 144/57/144
f 99/41/99 134/39/134 98/39/98
f 105/52/105 142/54/142 141/52/141
f 102/46/102 139/62/139 138/46/138
f 154/77/154 156/78/156 148/79/148
f 138/46/138 151/61/151 150/80/150
f 135/41/135 148/43/148 147/81/147
f 143/55/143 154/54/154 142/54/142
f 140/50/140 151/61/151 139/62/139
f 137/44/137 148/43/148 136/60/136
f 144/57/144 155/55/155 143/55/143
f 134/39/134 145/37/145 133/37/133
f 141/52/141 152/82/152 140/50/140
f 138/46/138 149/83/149 137/44/137
f 144/57/144 145/59/145 156/57/156
f 135/41/135 146/84/146 134/39/134
f 2/1/2 4/4/4 3/2/3
f 4/4/4 6/6/6 5/5/5
f 6/6/6 8/27/8 7/7/7
f 7/7/7 8/27/8 10/8/10
f 9/9/9 10/8/10 12/10/12
f 11/11/11 12/10/12 14/12/14
f 13/13/13 14/12/14 16/14/16
f 16/14/16 18/17/18 17/16/17
f 18/17/18 20/19/20 19/18/19
f 20/19/20 22/21/22 21/20/21
f 22/21/22 24/23/24 23/22/23
f 24/23/24 2/26/2 1/24/1
f 17/16/17 19/18/19 58/18/58
f 4/4/4 2/1/2 25/1/25
f 2/26/2 24/23/24 36/23/36
f 8/27/8 28/27/28 29/28/29
f 12/10/12 10/8/10 29/28/29
f 12/10/12 30/10/30 31/12/31
f 14/12/14 31/12/31 32/14/32
f 16/14/16 32/14/32 33/17/33
f 18/17/18 33/17/33 34/29/34
f 22/21/22 20/19/20 34/29/34
f 4/4/4 26/25/26 27/6/27
f 22/21/22 35/21/35 36/23/36
f 6/6/6 27/6/27 28/27/28
f 30/10/30 42/10/42 43/12/43
f 39/32/39 38/85/38 37/86/37
f 37/86/37 48/87/48 39/32/39
f 48/87/48 47/30/47 39/32/39
f 47/30/47 46/88/46 45/89/45
f 45/89/45 44/90/44 43/31/43
f 43/31/43 42/91/42 41/92/41
f 41/92/41 40/93/40 39/32/39
f 47/30/47 45/89/45 43/31/43
f 43/31/43 41/92/41 39/32/39
f 29/28/29 41/8/41 42/10/42
f 29/28/29 28/27/28 40/27/40
f 36/23/36 48/23/48 37/26/37
f 26/25/26 25/1/25 37/1/37
f 27/6/27 39/6/39 40/27/40
f 35/21/35 47/21/47 48/23/48
f 27/6/27 26/25/26 38/25/38
f 35/21/35 34/29/34 46/19/46
f 33/17/33 45/17/45 46/19/46
f 33/17/33 32/14/32 44/14/44
f 32/14/32 31/12/31 43/12/43
f 60/35/60 49/94/49 50/95/50
f 50/95/50 51/96/51 52/33/52
f 52/33/52 53/97/53 54/98/54
f 54/98/54 55/99/55 56/34/56
f 56/34/56 57/100/57 58/101/58
f 58/101/58 59/102/59 60/35/60
f 60/35/60 50/95/50 52/33/52
f 52/33/52 54/98/54 56/34/56
f 56/34/56 58/101/58 60/35/60
f 17/16/17 57/16/57 56/15/56
f 15/15/15 56/15/56 55/13/55
f 13/13/13 55/13/55 54/11/54
f 9/9/9 11/11/11 54/11/54
f 9/9/9 53/36/53 52/7/52
f 23/22/23 1/24/1 49/24/49
f 1/3/1 3/2/3 50/2/50
f 5/5/5 7/7/7 52/7/52
f 21/20/21 23/22/23 60/22/60
f 5/5/5 51/5/51 50/2/50
f 21/20/21 59/20/59 58/18/58
f 61/37/61 62/65/62 64/38/64
f 63/39/63 64/38/64 66/40/66
f 65/41/65 66/40/66 68/42/68
f 68/42/68 70/45/70 69/44/69
f 70/45/70 72/47/72 71/46/71
f 72/47/72 74/63/74 73/48/73
f 73/48/73 74/63/74 76/49/76
f 75/50/75 76/49/76 78/51/78
f 77/52/77 78/51/78 80/53/80
f 80/53/80 82/56/82 81/55/81
f 68/42/68 112/66/112 113/45/113
f 82/56/82 84/58/84 83/57/83
f 84/58/84 62/64/62 61/59/61
f 71/46/71 90/46/90 89/44/89
f 87/41/87 88/43/88 100/60/100
f 69/44/69 89/44/89 88/43/88
f 61/59/61 85/59/85 96/57/96
f 63/39/63 86/39/86 85/37/85
f 67/43/67 88/43/88 87/41/87
f 83/57/83 96/57/96 95/55/95
f 65/41/65 87/41/87 86/39/86
f 81/55/81 95/55/95 94/54/94
f 79/54/79 94/54/94 93/52/93
f 77/52/77 93/52/93 92/50/92
f 75/50/75 92/50/92 91/61/91
f 73/48/73 91/61/91 90/46/90
f 99/41/99 100/60/100 136/60/136
f 95/55/95 107/55/107 106/54/106
f 92/50/92 104/50/104 103/62/103
f 89/44/89 101/44/101 100/60/100
f 96/57/96 108/57/108 107/55/107
f 86/39/86 98/39/98 97/37/97
f 93/52/93 105/52/105 104/50/104
f 90/46/90 102/46/102 101/44/101
f 96/57/96 85/59/85 97/59/97
f 87/41/87 99/41/99 98/39/98
f 93/52/93 94/54/94 106/54/106
f 90/46/90 91/61/91 103/62/103
f 114/47/114 126/75/126 127/63/127
f 84/58/84 120/58/120 109/64/109
f 64/38/64 62/65/62 109/65/109
f 68/42/68 66/40/66 111/40/111
f 82/56/82 119/56/119 120/58/120
f 66/40/66 64/38/64 110/38/110
f 80/53/80 118/67/118 119/56/119
f 80/53/80 78/51/78 117/51/117
f 78/51/78 76/49/76 116/49/116
f 76/49/76 74/63/74 115/63/115
f 72/47/72 114/47/114 115/63/115
f 70/45/70 113/45/113 114/47/114
f 123/103/123 122/104/122 121/68/121
f 121/68/121 132/105/132 131/69/131
f 131/69/131 130/106/130 127/70/127
f 130/106/130 129/107/129 127/70/127
f 129/107/129 128/108/128 127/70/127
f 127/70/127 126/109/126 125/110/125
f 125/110/125 124/111/124 127/70/127
f 124/111/124 123/103/123 127/70/127
f 123/103/123 121/68/121 127/70/127
f 112/66/112 111/40/111 123/40/123
f 118/67/118 130/67/130 131/72/131
f 116/49/116 115/63/115 127/63/127
f 112/66/112 124/71/124 125/74/125
f 119/56/119 131/72/131 132/58/132
f 110/38/110 109/65/109 121/65/121
f 117/51/117 116/49/116 128/73/128
f 113/45/113 125/74/125 126/75/126
f 120/58/120 132/58/132 121/64/121
f 111/40/111 110/38/110 122/38/122
f 118/67/118 117/51/117 129/51/129
f 141/52/141 142/54/142 154/54/154
f 107/55/107 143/55/143 142/54/142
f 104/50/104 140/50/140 139/62/139
f 101/44/101 137/44/137 136/60/136
f 108/57/108 144/57/144 143/55/143
f 98/39/98 134/39/134 133/37/133
f 105/52/105 141/52/141 140/50/140
f 102/46/102 138/46/138 137/44/137
f 108/57/108 97/59/97 133/59/133
f 99/41/99 135/41/135 134/39/134
f 105/52/105 106/54/106 142/54/142
f 102/46/102 103/62/103 139/62/139
f 156/78/156 145/112/145 146/113/146
f 146/113/146 147/114/147 156/78/156
f 147/114/147 148/79/148 156/78/156
f 148/79/148 149/115/149 150/116/150
f 150/116/150 151/117/151 152/118/152
f 152/118/152 153/119/153 154/77/154
f 154/77/154 155/120/155 156/78/156
f 148/79/148 150/116/150 152/118/152
f 152/118/152 154/77/154 148/79/148
f 138/46/138 139/62/139 151/61/151
f 135/41/135 136/60/136 148/43/148
f 143/55/143 155/55/155 154/54/154
f 140/50/140 152/82/152 151/61/151
f 137/44/137 149/83/149 148/43/148
f 144/57/144 156/57/156 155/55/155
f 134/39/134 146/84/146 145/37/145
f 141/52/141 153/76/153 152/82/152
f 138/46/138 150/80/150 149/83/149
f 144/57/144 133/59/133 145/59/145
f 135/41/135 147/81/147 146/84/146
