{
	"asset":{
		"generator":"Khronos glTF Blender I/O v4.5.51",
		"version":"2.0"
	},
	"scene":0,
	"scenes":[
		{
			"name":"Scene",
			"nodes":[
				43
			]
		}
	],
	"nodes":[
		{
			"name":"\u30dc\u30fc\u30f3.003",
			"translation":[
				0,
				1.1725318431854248,
				0
			]
		},
		{
			"children":[
				0
			],
			"name":"\u30dc\u30fc\u30f3.002",
			"translation":[
				0,
				0.9220118522644043,
				0
			]
		},
		{
			"children":[
				1
			],
			"name":"\u30dc\u30fc\u30f3.001",
			"translation":[
				0,
				1,
				0
			]
		},
		{
			"name":"\u30dc\u30fc\u30f3.019",
			"rotation":[
				-0.09780820459127426,
				-0.004079813603311777,
				0.0004008702526334673,
				0.9951968193054199
			],
			"scale":[
				1,
				0.9999998807907104,
				0.9999998211860657
			],
			"translation":[
				1.5367468887315331e-15,
				1.1907784938812256,
				2.9802322387695312e-08
			]
		},
		{
			"children":[
				3
			],
			"name":"\u30dc\u30fc\u30f3.018",
			"rotation":[
				0.05185683071613312,
				-3.824312760458519e-14,
				1.236362923151546e-08,
				0.9986545443534851
			],
			"translation":[
				-2.1894783552921064e-14,
				1.0241594314575195,
				1.7881393432617188e-07
			]
		},
		{
			"children":[
				4
			],
			"name":"\u30dc\u30fc\u30f3.017",
			"rotation":[
				-0.5169975757598877,
				1.0204163913840603e-07,
				-6.163093502209449e-08,
				0.8559868931770325
			],
			"translation":[
				-1.1208297300093525e-22,
				0.8040489554405212,
				3.259629011154175e-08
			]
		},
		{
			"children":[
				5
			],
			"name":"\u30dc\u30fc\u30f3.004",
			"rotation":[
				0.7017301321029663,
				1.5700473008385663e-16,
				1.5700469037918723e-16,
				0.712442934513092
			],
			"scale":[
				1,
				0.9999999403953552,
				0.9999999403953552
			],
			"translation":[
				0,
				1,
				0
			]
		},
		{
			"name":"\u30dc\u30fc\u30f3.016",
			"rotation":[
				0.0077212220057845116,
				-5.3292293368783616e-15,
				-1.8408923274648714e-09,
				0.9999701976776123
			],
			"translation":[
				-2.8467909995479046e-14,
				1.5035723447799683,
				2.9802322387695312e-08
			]
		},
		{
			"children":[
				7
			],
			"name":"\u30dc\u30fc\u30f3.015",
			"rotation":[
				0.04247564077377319,
				-3.467024437724467e-14,
				-1.0126971261570361e-08,
				0.9990975260734558
			],
			"scale":[
				1,
				0.9999999403953552,
				1
			],
			"translation":[
				-2.1311723341480883e-14,
				0.9464535713195801,
				-8.940696716308594e-08
			]
		},
		{
			"children":[
				8
			],
			"name":"\u30dc\u30fc\u30f3.014",
			"rotation":[
				0.49334970116615295,
				-1.0369192438020036e-07,
				-5.881185671796629e-08,
				0.8698310852050781
			],
			"translation":[
				-4.717514430966486e-25,
				0.7187917828559875,
				-1.993030309677124e-07
			]
		},
		{
			"children":[
				9
			],
			"name":"\u30dc\u30fc\u30f3.005",
			"rotation":[
				-0.713073194026947,
				-1.3304432942897307e-18,
				-1.3304431908921542e-18,
				0.7010896801948547
			],
			"scale":[
				1,
				0.9999999403953552,
				0.9999999403953552
			],
			"translation":[
				0,
				1,
				0
			]
		},
		{
			"name":"\u30dc\u30fc\u30f3.013",
			"rotation":[
				2.3615961963763255e-10,
				-1.0523470095336052e-08,
				0.0008542689029127359,
				0.9999996423721313
			],
			"scale":[
				1,
				1.0000001192092896,
				1
			],
			"translation":[
				7.450574202039206e-08,
				1.449149250984192,
				-2.1316282072803006e-14
			]
		},
		{
			"children":[
				11
			],
			"name":"\u30dc\u30fc\u30f3.012",
			"rotation":[
				-3.340871579382565e-09,
				-8.744325263876362e-09,
				-0.012990906834602356,
				0.999915599822998
			],
			"scale":[
				1.0000001192092896,
				1,
				1
			],
			"translation":[
				-1.3411047916633834e-07,
				1.1114263534545898,
				-2.4868995751603507e-14
			]
		},
		{
			"children":[
				12
			],
			"name":"\u30dc\u30fc\u30f3.011",
			"rotation":[
				-1.064440624531926e-07,
				-3.3049634140525086e-08,
				-0.5066553950309753,
				0.8621487021446228
			],
			"scale":[
				0.9999998211860657,
				0.9999998807907104,
				1
			],
			"translation":[
				-1.1920928955078125e-07,
				0.8165010809898376,
				5.329070518200751e-15
			]
		},
		{
			"children":[
				13
			],
			"name":"\u30dc\u30fc\u30f3.006",
			"rotation":[
				1.1606192451552033e-08,
				-1.483581435479664e-08,
				0.6964777708053589,
				0.7175784111022949
			],
			"scale":[
				0.9999999403953552,
				0.9999999403953552,
				1
			],
			"translation":[
				0,
				1,
				0
			]
		},
		{
			"name":"\u30dc\u30fc\u30f3.010",
			"rotation":[
				-1.4092888633854272e-08,
				1.1561510859792179e-07,
				0.00612978357821703,
				0.9999812245368958
			],
			"scale":[
				0.9999999403953552,
				0.9999999403953552,
				1
			],
			"translation":[
				-1.1920931797249068e-07,
				1.38729989528656,
				7.105427357601002e-15
			]
		},
		{
			"children":[
				15
			],
			"name":"\u30dc\u30fc\u30f3.009",
			"rotation":[
				5.871767960741181e-09,
				2.250109432111458e-08,
				0.006895437370985746,
				0.9999762773513794
			],
			"translation":[
				-1.788139485370266e-07,
				0.9752539396286011,
				3.552713678800501e-15
			]
		},
		{
			"children":[
				16
			],
			"name":"\u30dc\u30fc\u30f3.008",
			"rotation":[
				9.258726230143566e-09,
				2.340003213419095e-08,
				0.5118899345397949,
				0.8590510487556458
			],
			"scale":[
				1,
				1,
				0.9999998807907104
			],
			"translation":[
				6.239861249923706e-08,
				0.7796891927719116,
				-5.662137425588298e-15
			]
		},
		{
			"children":[
				17
			],
			"name":"\u30dc\u30fc\u30f3.007",
			"rotation":[
				3.127400560742899e-08,
				3.3262505638731454e-08,
				-0.701561450958252,
				0.7126089930534363
			],
			"scale":[
				0.9999999403953552,
				0.9999999403953552,
				1
			],
			"translation":[
				0,
				1,
				0
			]
		},
		{
			"name":"bugweight.001",
			"rotation":[
				0.022195644676685333,
				0.0018248173873871565,
				0.016650451347231865,
				0.999613344669342
			],
			"scale":[
				1,
				1.0000001192092896,
				0.9999999403953552
			],
			"translation":[
				-8.847564458847046e-09,
				1.2961524724960327,
				1.341104507446289e-07
			]
		},
		{
			"children":[
				19
			],
			"name":"\u30dc\u30fc\u30f3.022",
			"rotation":[
				-0.006419679615646601,
				6.105108241172275e-08,
				0.005449729040265083,
				0.9999645948410034
			],
			"scale":[
				0.9999998211860657,
				1,
				1
			],
			"translation":[
				7.782364264130592e-08,
				1.1103960275650024,
				-8.195638656616211e-08
			]
		},
		{
			"children":[
				20
			],
			"name":"\u30dc\u30fc\u30f3.021",
			"rotation":[
				-0.3494138717651367,
				-9.046388527167437e-09,
				-0.44676342606544495,
				0.823597252368927
			],
			"scale":[
				0.9999998807907104,
				0.9999998807907104,
				0.9999998807907104
			],
			"translation":[
				1.4901161193847656e-08,
				0.7763318419456482,
				0
			]
		},
		{
			"children":[
				21
			],
			"name":"\u30dc\u30fc\u30f3.020",
			"rotation":[
				0.4891241490840912,
				-8.119913275095314e-08,
				0.5505414009094238,
				0.6765069961547852
			],
			"scale":[
				0.9999999403953552,
				0.9999999403953552,
				0.9999999403953552
			],
			"translation":[
				0,
				1,
				0
			]
		},
		{
			"name":"bugweight.002",
			"rotation":[
				-0.03990688547492027,
				-3.828891692592151e-08,
				-0.028878087177872658,
				0.9987860321998596
			],
			"scale":[
				0.9999999403953552,
				1.0000001192092896,
				1
			],
			"translation":[
				2.60770320892334e-08,
				1.1232396364212036,
				4.470348358154297e-08
			]
		},
		{
			"children":[
				23
			],
			"name":"\u30dc\u30fc\u30f3.026",
			"rotation":[
				-0.038313474506139755,
				8.322220423906401e-08,
				0.061369992792606354,
				0.99737948179245
			],
			"scale":[
				0.9999999403953552,
				1,
				0.9999998211860657
			],
			"translation":[
				-3.3527612686157227e-08,
				1.1023621559143066,
				-4.470348358154297e-08
			]
		},
		{
			"children":[
				24
			],
			"name":"\u30dc\u30fc\u30f3.025",
			"rotation":[
				-0.353044718503952,
				0,
				0.35196495056152344,
				0.8668795228004456
			],
			"scale":[
				1.0000001192092896,
				1,
				1
			],
			"translation":[
				0,
				0.7593168020248413,
				5.960464477539063e-08
			]
		},
		{
			"children":[
				25
			],
			"name":"\u30dc\u30fc\u30f3.024",
			"rotation":[
				0.5220770835876465,
				-5.708414363425618e-08,
				-0.4963805377483368,
				0.6935718655586243
			],
			"scale":[
				1,
				1,
				0.9999999403953552
			],
			"translation":[
				0,
				1,
				0
			]
		},
		{
			"name":"bugweight",
			"rotation":[
				0.020247861742973328,
				-0.004616550635546446,
				-0.041272010654211044,
				0.9989320635795593
			],
			"scale":[
				0.9999998807907104,
				0.9999998807907104,
				0.9999998807907104
			],
			"translation":[
				-7.450580596923828e-08,
				1.375946283340454,
				6.28642737865448e-08
			]
		},
		{
			"children":[
				27
			],
			"name":"\u30dc\u30fc\u30f3.030",
			"rotation":[
				0.016459684818983078,
				0.0030061271972954273,
				0.07307571172714233,
				0.9971860647201538
			],
			"scale":[
				0.9999999403953552,
				0.9999999403953552,
				1
			],
			"translation":[
				1.2665987014770508e-07,
				1.0204206705093384,
				-6.728805601596832e-08
			]
		},
		{
			"children":[
				28
			],
			"name":"\u30dc\u30fc\u30f3.029",
			"rotation":[
				0.40180614590644836,
				0,
				-0.337667852640152,
				0.8511946201324463
			],
			"translation":[
				-2.384185791015625e-07,
				0.8420045971870422,
				-8.940696716308594e-08
			]
		},
		{
			"children":[
				29
			],
			"name":"\u30dc\u30fc\u30f3.028",
			"rotation":[
				-0.5161129832267761,
				-3.1262022304190396e-08,
				0.4716249406337738,
				0.7149806618690491
			],
			"translation":[
				0,
				1,
				0
			]
		},
		{
			"name":"noweight",
			"rotation":[
				-0.04011848568916321,
				-0.02307008020579815,
				0.02949126437306404,
				0.9984931349754333
			],
			"scale":[
				1,
				1.0000001192092896,
				1.0000001192092896
			],
			"translation":[
				-2.4586915969848633e-07,
				1.2520872354507446,
				-1.7648562788963318e-07
			]
		},
		{
			"children":[
				31
			],
			"name":"\u30dc\u30fc\u30f3.040",
			"rotation":[
				-0.0022173712495714426,
				0.0005912992055527866,
				-0.043754082173109055,
				0.9990397095680237
			],
			"scale":[
				1,
				0.9999998807907104,
				1
			],
			"translation":[
				7.59027898311615e-08,
				0.9634299278259277,
				-7.136259227991104e-08
			]
		},
		{
			"children":[
				32
			],
			"name":"\u30dc\u30fc\u30f3.039",
			"rotation":[
				0.41663262248039246,
				0.014141124673187733,
				0.38572952151298523,
				0.8230614066123962
			],
			"scale":[
				0.9999998211860657,
				0.9999998211860657,
				0.9999999403953552
			],
			"translation":[
				2.9802322387695312e-08,
				0.9023473858833313,
				1.1920928955078125e-07
			]
		},
		{
			"children":[
				33
			],
			"name":"\u30dc\u30fc\u30f3.038",
			"rotation":[
				-0.48630887269973755,
				-1.053671194739536e-08,
				-0.513326108455658,
				0.7071067690849304
			],
			"scale":[
				0.9999999403953552,
				0.9999999403953552,
				1
			],
			"translation":[
				0,
				1,
				0
			]
		},
		{
			"children":[
				2,
				6,
				10,
				14,
				18,
				22,
				26,
				30,
				34
			],
			"name":"\u30dc\u30fc\u30f3",
			"translation":[
				0,
				-1.1920928955078125e-07,
				0
			]
		},
		{
			"name":"\u30dc\u30fc\u30f3.033",
			"rotation":[
				7.479337982285728e-11,
				8.128622219771842e-09,
				-0.009201285429298878,
				0.9999576807022095
			],
			"scale":[
				0.9999999403953552,
				0.9999998807907104,
				0.9999999403953552
			],
			"translation":[
				0,
				0.9051278829574585,
				1.7888468484272835e-14
			]
		},
		{
			"name":"\u30dc\u30fc\u30f3.034",
			"rotation":[
				-1.4189488695137698e-07,
				1.4189487274052226e-07,
				0.7071067690849304,
				0.7071067690849304
			],
			"scale":[
				0.9999999403953552,
				1,
				0.9999999403953552
			],
			"translation":[
				0,
				0.9051278829574585,
				1.7888468484272835e-14
			]
		},
		{
			"name":"\u30dc\u30fc\u30f3.035",
			"rotation":[
				-2.4848766599916416e-08,
				-2.517787578426578e-08,
				-0.7024397253990173,
				0.7117432355880737
			],
			"scale":[
				1,
				0.9999999403953552,
				0.9999999403953552
			],
			"translation":[
				0,
				0.9051278829574585,
				1.7888468484272835e-14
			]
		},
		{
			"name":"\u30dc\u30fc\u30f3.036",
			"rotation":[
				-0.7013194561004639,
				1.57004174218485e-16,
				-1.570042006882646e-16,
				0.7128471732139587
			],
			"translation":[
				0,
				0.9051278829574585,
				1.7888468484272835e-14
			]
		},
		{
			"name":"\u30dc\u30fc\u30f3.037",
			"rotation":[
				0.6947441101074219,
				2.721477775244124e-18,
				-2.7214759140877456e-18,
				0.7192569971084595
			],
			"translation":[
				0,
				0.9051278829574585,
				1.7888468484272835e-14
			]
		},
		{
			"children":[
				36,
				37,
				38,
				39,
				40
			],
			"name":"\u30dc\u30fc\u30f3.032",
			"rotation":[
				1,
				0,
				0,
				3.358970346312162e-08
			],
			"scale":[
				1,
				0.9999998807907104,
				0.9999998807907104
			],
			"translation":[
				0,
				-1.1920928955078125e-07,
				0
			]
		},
		{
			"mesh":0,
			"name":"\u7403.002",
			"skin":0
		},
		{
			"children":[
				42,
				35,
				41
			],
			"name":"\u30a2\u30fc\u30de\u30c1\u30e5\u30a2",
			"scale":[
				0.3211846351623535,
				0.3211846351623535,
				0.3211846351623535
			],
			"translation":[
				0,
				0.290383905172348,
				0
			]
		}
	],
	"animations":[
		{
			"channels":[
				{
					"sampler":0,
					"target":{
						"node":35,
						"path":"translation"
					}
				},
				{
					"sampler":1,
					"target":{
						"node":35,
						"path":"rotation"
					}
				},
				{
					"sampler":2,
					"target":{
						"node":35,
						"path":"scale"
					}
				},
				{
					"sampler":3,
					"target":{
						"node":2,
						"path":"translation"
					}
				},
				{
					"sampler":4,
					"target":{
						"node":2,
						"path":"rotation"
					}
				},
				{
					"sampler":5,
					"target":{
						"node":2,
						"path":"scale"
					}
				},
				{
					"sampler":6,
					"target":{
						"node":1,
						"path":"translation"
					}
				},
				{
					"sampler":7,
					"target":{
						"node":1,
						"path":"rotation"
					}
				},
				{
					"sampler":8,
					"target":{
						"node":1,
						"path":"scale"
					}
				},
				{
					"sampler":9,
					"target":{
						"node":0,
						"path":"translation"
					}
				},
				{
					"sampler":10,
					"target":{
						"node":0,
						"path":"rotation"
					}
				},
				{
					"sampler":11,
					"target":{
						"node":0,
						"path":"scale"
					}
				},
				{
					"sampler":12,
					"target":{
						"node":6,
						"path":"translation"
					}
				},
				{
					"sampler":13,
					"target":{
						"node":6,
						"path":"rotation"
					}
				},
				{
					"sampler":14,
					"target":{
						"node":6,
						"path":"scale"
					}
				},
				{
					"sampler":15,
					"target":{
						"node":5,
						"path":"translation"
					}
				},
				{
					"sampler":16,
					"target":{
						"node":5,
						"path":"rotation"
					}
				},
				{
					"sampler":17,
					"target":{
						"node":5,
						"path":"scale"
					}
				},
				{
					"sampler":18,
					"target":{
						"node":4,
						"path":"translation"
					}
				},
				{
					"sampler":19,
					"target":{
						"node":4,
						"path":"rotation"
					}
				},
				{
					"sampler":20,
					"target":{
						"node":4,
						"path":"scale"
					}
				},
				{
					"sampler":21,
					"target":{
						"node":3,
						"path":"translation"
					}
				},
				{
					"sampler":22,
					"target":{
						"node":3,
						"path":"rotation"
					}
				},
				{
					"sampler":23,
					"target":{
						"node":3,
						"path":"scale"
					}
				},
				{
					"sampler":24,
					"target":{
						"node":10,
						"path":"translation"
					}
				},
				{
					"sampler":25,
					"target":{
						"node":10,
						"path":"rotation"
					}
				},
				{
					"sampler":26,
					"target":{
						"node":10,
						"path":"scale"
					}
				},
				{
					"sampler":27,
					"target":{
						"node":9,
						"path":"translation"
					}
				},
				{
					"sampler":28,
					"target":{
						"node":9,
						"path":"rotation"
					}
				},
				{
					"sampler":29,
					"target":{
						"node":9,
						"path":"scale"
					}
				},
				{
					"sampler":30,
					"target":{
						"node":8,
						"path":"translation"
					}
				},
				{
					"sampler":31,
					"target":{
						"node":8,
						"path":"rotation"
					}
				},
				{
					"sampler":32,
					"target":{
						"node":8,
						"path":"scale"
					}
				},
				{
					"sampler":33,
					"target":{
						"node":7,
						"path":"translation"
					}
				},
				{
					"sampler":34,
					"target":{
						"node":7,
						"path":"rotation"
					}
				},
				{
					"sampler":35,
					"target":{
						"node":7,
						"path":"scale"
					}
				},
				{
					"sampler":36,
					"target":{
						"node":14,
						"path":"translation"
					}
				},
				{
					"sampler":37,
					"target":{
						"node":14,
						"path":"rotation"
					}
				},
				{
					"sampler":38,
					"target":{
						"node":14,
						"path":"scale"
					}
				},
				{
					"sampler":39,
					"target":{
						"node":13,
						"path":"translation"
					}
				},
				{
					"sampler":40,
					"target":{
						"node":13,
						"path":"rotation"
					}
				},
				{
					"sampler":41,
					"target":{
						"node":13,
						"path":"scale"
					}
				},
				{
					"sampler":42,
					"target":{
						"node":12,
						"path":"translation"
					}
				},
				{
					"sampler":43,
					"target":{
						"node":12,
						"path":"rotation"
					}
				},
				{
					"sampler":44,
					"target":{
						"node":12,
						"path":"scale"
					}
				},
				{
					"sampler":45,
					"target":{
						"node":11,
						"path":"translation"
					}
				},
				{
					"sampler":46,
					"target":{
						"node":11,
						"path":"rotation"
					}
				},
				{
					"sampler":47,
					"target":{
						"node":11,
						"path":"scale"
					}
				},
				{
					"sampler":48,
					"target":{
						"node":18,
						"path":"translation"
					}
				},
				{
					"sampler":49,
					"target":{
						"node":18,
						"path":"rotation"
					}
				},
				{
					"sampler":50,
					"target":{
						"node":18,
						"path":"scale"
					}
				},
				{
					"sampler":51,
					"target":{
						"node":17,
						"path":"translation"
					}
				},
				{
					"sampler":52,
					"target":{
						"node":17,
						"path":"rotation"
					}
				},
				{
					"sampler":53,
					"target":{
						"node":17,
						"path":"scale"
					}
				},
				{
					"sampler":54,
					"target":{
						"node":16,
						"path":"translation"
					}
				},
				{
					"sampler":55,
					"target":{
						"node":16,
						"path":"rotation"
					}
				},
				{
					"sampler":56,
					"target":{
						"node":16,
						"path":"scale"
					}
				},
				{
					"sampler":57,
					"target":{
						"node":15,
						"path":"translation"
					}
				},
				{
					"sampler":58,
					"target":{
						"node":15,
						"path":"rotation"
					}
				},
				{
					"sampler":59,
					"target":{
						"node":15,
						"path":"scale"
					}
				},
				{
					"sampler":60,
					"target":{
						"node":22,
						"path":"translation"
					}
				},
				{
					"sampler":61,
					"target":{
						"node":22,
						"path":"rotation"
					}
				},
				{
					"sampler":62,
					"target":{
						"node":22,
						"path":"scale"
					}
				},
				{
					"sampler":63,
					"target":{
						"node":21,
						"path":"translation"
					}
				},
				{
					"sampler":64,
					"target":{
						"node":21,
						"path":"rotation"
					}
				},
				{
					"sampler":65,
					"target":{
						"node":21,
						"path":"scale"
					}
				},
				{
					"sampler":66,
					"target":{
						"node":20,
						"path":"translation"
					}
				},
				{
					"sampler":67,
					"target":{
						"node":20,
						"path":"rotation"
					}
				},
				{
					"sampler":68,
					"target":{
						"node":20,
						"path":"scale"
					}
				},
				{
					"sampler":69,
					"target":{
						"node":19,
						"path":"translation"
					}
				},
				{
					"sampler":70,
					"target":{
						"node":19,
						"path":"rotation"
					}
				},
				{
					"sampler":71,
					"target":{
						"node":19,
						"path":"scale"
					}
				},
				{
					"sampler":72,
					"target":{
						"node":26,
						"path":"translation"
					}
				},
				{
					"sampler":73,
					"target":{
						"node":26,
						"path":"rotation"
					}
				},
				{
					"sampler":74,
					"target":{
						"node":26,
						"path":"scale"
					}
				},
				{
					"sampler":75,
					"target":{
						"node":25,
						"path":"translation"
					}
				},
				{
					"sampler":76,
					"target":{
						"node":25,
						"path":"rotation"
					}
				},
				{
					"sampler":77,
					"target":{
						"node":25,
						"path":"scale"
					}
				},
				{
					"sampler":78,
					"target":{
						"node":24,
						"path":"translation"
					}
				},
				{
					"sampler":79,
					"target":{
						"node":24,
						"path":"rotation"
					}
				},
				{
					"sampler":80,
					"target":{
						"node":24,
						"path":"scale"
					}
				},
				{
					"sampler":81,
					"target":{
						"node":23,
						"path":"translation"
					}
				},
				{
					"sampler":82,
					"target":{
						"node":23,
						"path":"rotation"
					}
				},
				{
					"sampler":83,
					"target":{
						"node":23,
						"path":"scale"
					}
				},
				{
					"sampler":84,
					"target":{
						"node":30,
						"path":"translation"
					}
				},
				{
					"sampler":85,
					"target":{
						"node":30,
						"path":"rotation"
					}
				},
				{
					"sampler":86,
					"target":{
						"node":30,
						"path":"scale"
					}
				},
				{
					"sampler":87,
					"target":{
						"node":29,
						"path":"translation"
					}
				},
				{
					"sampler":88,
					"target":{
						"node":29,
						"path":"rotation"
					}
				},
				{
					"sampler":89,
					"target":{
						"node":29,
						"path":"scale"
					}
				},
				{
					"sampler":90,
					"target":{
						"node":28,
						"path":"translation"
					}
				},
				{
					"sampler":91,
					"target":{
						"node":28,
						"path":"rotation"
					}
				},
				{
					"sampler":92,
					"target":{
						"node":28,
						"path":"scale"
					}
				},
				{
					"sampler":93,
					"target":{
						"node":27,
						"path":"translation"
					}
				},
				{
					"sampler":94,
					"target":{
						"node":27,
						"path":"rotation"
					}
				},
				{
					"sampler":95,
					"target":{
						"node":27,
						"path":"scale"
					}
				},
				{
					"sampler":96,
					"target":{
						"node":34,
						"path":"translation"
					}
				},
				{
					"sampler":97,
					"target":{
						"node":34,
						"path":"rotation"
					}
				},
				{
					"sampler":98,
					"target":{
						"node":34,
						"path":"scale"
					}
				},
				{
					"sampler":99,
					"target":{
						"node":33,
						"path":"translation"
					}
				},
				{
					"sampler":100,
					"target":{
						"node":33,
						"path":"rotation"
					}
				},
				{
					"sampler":101,
					"target":{
						"node":33,
						"path":"scale"
					}
				},
				{
					"sampler":102,
					"target":{
						"node":32,
						"path":"translation"
					}
				},
				{
					"sampler":103,
					"target":{
						"node":32,
						"path":"rotation"
					}
				},
				{
					"sampler":104,
					"target":{
						"node":32,
						"path":"scale"
					}
				},
				{
					"sampler":105,
					"target":{
						"node":31,
						"path":"translation"
					}
				},
				{
					"sampler":106,
					"target":{
						"node":31,
						"path":"rotation"
					}
				},
				{
					"sampler":107,
					"target":{
						"node":31,
						"path":"scale"
					}
				},
				{
					"sampler":108,
					"target":{
						"node":41,
						"path":"translation"
					}
				},
				{
					"sampler":109,
					"target":{
						"node":41,
						"path":"rotation"
					}
				},
				{
					"sampler":110,
					"target":{
						"node":41,
						"path":"scale"
					}
				},
				{
					"sampler":111,
					"target":{
						"node":36,
						"path":"translation"
					}
				},
				{
					"sampler":112,
					"target":{
						"node":36,
						"path":"rotation"
					}
				},
				{
					"sampler":113,
					"target":{
						"node":36,
						"path":"scale"
					}
				},
				{
					"sampler":114,
					"target":{
						"node":37,
						"path":"translation"
					}
				},
				{
					"sampler":115,
					"target":{
						"node":37,
						"path":"rotation"
					}
				},
				{
					"sampler":116,
					"target":{
						"node":37,
						"path":"scale"
					}
				},
				{
					"sampler":117,
					"target":{
						"node":38,
						"path":"translation"
					}
				},
				{
					"sampler":118,
					"target":{
						"node":38,
						"path":"rotation"
					}
				},
				{
					"sampler":119,
					"target":{
						"node":38,
						"path":"scale"
					}
				},
				{
					"sampler":120,
					"target":{
						"node":39,
						"path":"translation"
					}
				},
				{
					"sampler":121,
					"target":{
						"node":39,
						"path":"rotation"
					}
				},
				{
					"sampler":122,
					"target":{
						"node":39,
						"path":"scale"
					}
				},
				{
					"sampler":123,
					"target":{
						"node":40,
						"path":"translation"
					}
				},
				{
					"sampler":124,
					"target":{
						"node":40,
						"path":"rotation"
					}
				},
				{
					"sampler":125,
					"target":{
						"node":40,
						"path":"scale"
					}
				}
			],
			"name":"attack",
			"samplers":[
				{
					"input":24,
					"interpolation":"LINEAR",
					"output":25
				},
				{
					"input":26,
					"interpolation":"LINEAR",
					"output":27
				},
				{
					"input":24,
					"interpolation":"STEP",
					"output":28
				},
				{
					"input":24,
					"interpolation":"LINEAR",
					"output":29
				},
				{
					"input":24,
					"interpolation":"LINEAR",
					"output":30
				},
				{
					"input":24,
					"interpolation":"STEP",
					"output":28
				},
				{
					"input":24,
					"interpolation":"LINEAR",
					"output":31
				},
				{
					"input":24,
					"interpolation":"LINEAR",
					"output":30
				},
				{
					"input":24,
					"interpolation":"STEP",
					"output":28
				},
				{
					"input":24,
					"interpolation":"LINEAR",
					"output":32
				},
				{
					"input":24,
					"interpolation":"LINEAR",
					"output":30
				},
				{
					"input":24,
					"interpolation":"STEP",
					"output":28
				},
				{
					"input":24,
					"interpolation":"LINEAR",
					"output":33
				},
				{
					"input":24,
					"interpolation":"LINEAR",
					"output":34
				},
				{
					"input":24,
					"interpolation":"STEP",
					"output":28
				},
				{
					"input":24,
					"interpolation":"LINEAR",
					"output":35
				},
				{
					"input":24,
					"interpolation":"LINEAR",
					"output":36
				},
				{
					"input":24,
					"interpolation":"LINEAR",
					"output":37
				},
				{
					"input":24,
					"interpolation":"LINEAR",
					"output":38
				},
				{
					"input":24,
					"interpolation":"LINEAR",
					"output":39
				},
				{
					"input":24,
					"interpolation":"STEP",
					"output":40
				},
				{
					"input":24,
					"interpolation":"LINEAR",
					"output":41
				},
				{
					"input":24,
					"interpolation":"LINEAR",
					"output":42
				},
				{
					"input":24,
					"interpolation":"LINEAR",
					"output":43
				},
				{
					"input":24,
					"interpolation":"LINEAR",
					"output":44
				},
				{
					"input":24,
					"interpolation":"LINEAR",
					"output":45
				},
				{
					"input":24,
					"interpolation":"STEP",
					"output":46
				},
				{
					"input":24,
					"interpolation":"LINEAR",
					"output":47
				},
				{
					"input":24,
					"interpolation":"LINEAR",
					"output":48
				},
				{
					"input":24,
					"interpolation":"STEP",
					"output":49
				},
				{
					"input":24,
					"interpolation":"LINEAR",
					"output":50
				},
				{
					"input":24,
					"interpolation":"LINEAR",
					"output":51
				},
				{
					"input":24,
					"interpolation":"LINEAR",
					"output":52
				},
				{
					"input":24,
					"interpolation":"LINEAR",
					"output":53
				},
				{
					"input":24,
					"interpolation":"LINEAR",
					"output":54
				},
				{
					"input":24,
					"interpolation":"STEP",
					"output":55
				},
				{
					"input":24,
					"interpolation":"LINEAR",
					"output":56
				},
				{
					"input":24,
					"interpolation":"LINEAR",
					"output":57
				},
				{
					"input":24,
					"interpolation":"STEP",
					"output":58
				},
				{
					"input":24,
					"interpolation":"LINEAR",
					"output":59
				},
				{
					"input":24,
					"interpolation":"LINEAR",
					"output":60
				},
				{
					"input":24,
					"interpolation":"STEP",
					"output":61
				},
				{
					"input":24,
					"interpolation":"LINEAR",
					"output":62
				},
				{
					"input":24,
					"interpolation":"LINEAR",
					"output":63
				},
				{
					"input":24,
					"interpolation":"STEP",
					"output":28
				},
				{
					"input":24,
					"interpolation":"LINEAR",
					"output":64
				},
				{
					"input":24,
					"interpolation":"LINEAR",
					"output":65
				},
				{
					"input":24,
					"interpolation":"STEP",
					"output":28
				},
				{
					"input":24,
					"interpolation":"LINEAR",
					"output":66
				},
				{
					"input":24,
					"interpolation":"LINEAR",
					"output":67
				},
				{
					"input":24,
					"interpolation":"STEP",
					"output":68
				},
				{
					"input":24,
					"interpolation":"LINEAR",
					"output":69
				},
				{
					"input":24,
					"interpolation":"LINEAR",
					"output":70
				},
				{
					"input":24,
					"interpolation":"STEP",
					"output":71
				},
				{
					"input":24,
					"interpolation":"LINEAR",
					"output":72
				},
				{
					"input":24,
					"interpolation":"LINEAR",
					"output":73
				},
				{
					"input":24,
					"interpolation":"STEP",
					"output":74
				},
				{
					"input":24,
					"interpolation":"LINEAR",
					"output":75
				},
				{
					"input":24,
					"interpolation":"LINEAR",
					"output":76
				},
				{
					"input":24,
					"interpolation":"LINEAR",
					"output":77
				},
				{
					"input":24,
					"interpolation":"LINEAR",
					"output":78
				},
				{
					"input":24,
					"interpolation":"LINEAR",
					"output":79
				},
				{
					"input":24,
					"interpolation":"STEP",
					"output":80
				},
				{
					"input":24,
					"interpolation":"LINEAR",
					"output":81
				},
				{
					"input":24,
					"interpolation":"LINEAR",
					"output":82
				},
				{
					"input":24,
					"interpolation":"STEP",
					"output":83
				},
				{
					"input":24,
					"interpolation":"LINEAR",
					"output":84
				},
				{
					"input":24,
					"interpolation":"LINEAR",
					"output":85
				},
				{
					"input":24,
					"interpolation":"STEP",
					"output":86
				},
				{
					"input":24,
					"interpolation":"LINEAR",
					"output":87
				},
				{
					"input":24,
					"interpolation":"LINEAR",
					"output":88
				},
				{
					"input":24,
					"interpolation":"STEP",
					"output":89
				},
				{
					"input":24,
					"interpolation":"LINEAR",
					"output":90
				},
				{
					"input":24,
					"interpolation":"LINEAR",
					"output":91
				},
				{
					"input":24,
					"interpolation":"STEP",
					"output":92
				},
				{
					"input":24,
					"interpolation":"LINEAR",
					"output":93
				},
				{
					"input":24,
					"interpolation":"LINEAR",
					"output":94
				},
				{
					"input":24,
					"interpolation":"LINEAR",
					"output":95
				},
				{
					"input":24,
					"interpolation":"LINEAR",
					"output":96
				},
				{
					"input":24,
					"interpolation":"LINEAR",
					"output":97
				},
				{
					"input":24,
					"interpolation":"LINEAR",
					"output":98
				},
				{
					"input":24,
					"interpolation":"LINEAR",
					"output":99
				},
				{
					"input":24,
					"interpolation":"LINEAR",
					"output":100
				},
				{
					"input":24,
					"interpolation":"LINEAR",
					"output":101
				},
				{
					"input":24,
					"interpolation":"LINEAR",
					"output":102
				},
				{
					"input":24,
					"interpolation":"LINEAR",
					"output":103
				},
				{
					"input":24,
					"interpolation":"LINEAR",
					"output":104
				},
				{
					"input":24,
					"interpolation":"LINEAR",
					"output":105
				},
				{
					"input":24,
					"interpolation":"LINEAR",
					"output":106
				},
				{
					"input":24,
					"interpolation":"LINEAR",
					"output":71
				},
				{
					"input":24,
					"interpolation":"LINEAR",
					"output":107
				},
				{
					"input":24,
					"interpolation":"LINEAR",
					"output":108
				},
				{
					"input":24,
					"interpolation":"STEP",
					"output":109
				},
				{
					"input":24,
					"interpolation":"LINEAR",
					"output":110
				},
				{
					"input":24,
					"interpolation":"LINEAR",
					"output":111
				},
				{
					"input":24,
					"interpolation":"STEP",
					"output":112
				},
				{
					"input":24,
					"interpolation":"LINEAR",
					"output":113
				},
				{
					"input":24,
					"interpolation":"LINEAR",
					"output":114
				},
				{
					"input":24,
					"interpolation":"STEP",
					"output":115
				},
				{
					"input":24,
					"interpolation":"LINEAR",
					"output":116
				},
				{
					"input":24,
					"interpolation":"LINEAR",
					"output":117
				},
				{
					"input":24,
					"interpolation":"LINEAR",
					"output":118
				},
				{
					"input":24,
					"interpolation":"LINEAR",
					"output":119
				},
				{
					"input":24,
					"interpolation":"LINEAR",
					"output":120
				},
				{
					"input":24,
					"interpolation":"STEP",
					"output":121
				},
				{
					"input":24,
					"interpolation":"LINEAR",
					"output":122
				},
				{
					"input":24,
					"interpolation":"LINEAR",
					"output":123
				},
				{
					"input":24,
					"interpolation":"STEP",
					"output":28
				},
				{
					"input":24,
					"interpolation":"LINEAR",
					"output":124
				},
				{
					"input":26,
					"interpolation":"LINEAR",
					"output":125
				},
				{
					"input":24,
					"interpolation":"STEP",
					"output":126
				},
				{
					"input":24,
					"interpolation":"LINEAR",
					"output":127
				},
				{
					"input":24,
					"interpolation":"LINEAR",
					"output":128
				},
				{
					"input":24,
					"interpolation":"STEP",
					"output":129
				},
				{
					"input":24,
					"interpolation":"LINEAR",
					"output":130
				},
				{
					"input":24,
					"interpolation":"LINEAR",
					"output":131
				},
				{
					"input":24,
					"interpolation":"STEP",
					"output":28
				},
				{
					"input":24,
					"interpolation":"LINEAR",
					"output":132
				},
				{
					"input":24,
					"interpolation":"LINEAR",
					"output":133
				},
				{
					"input":24,
					"interpolation":"STEP",
					"output":134
				},
				{
					"input":24,
					"interpolation":"LINEAR",
					"output":135
				},
				{
					"input":24,
					"interpolation":"LINEAR",
					"output":136
				},
				{
					"input":24,
					"interpolation":"STEP",
					"output":28
				},
				{
					"input":24,
					"interpolation":"LINEAR",
					"output":137
				},
				{
					"input":24,
					"interpolation":"LINEAR",
					"output":138
				},
				{
					"input":24,
					"interpolation":"STEP",
					"output":28
				}
			]
		},
		{
			"channels":[
				{
					"sampler":0,
					"target":{
						"node":35,
						"path":"translation"
					}
				},
				{
					"sampler":1,
					"target":{
						"node":35,
						"path":"rotation"
					}
				},
				{
					"sampler":2,
					"target":{
						"node":35,
						"path":"scale"
					}
				},
				{
					"sampler":3,
					"target":{
						"node":2,
						"path":"translation"
					}
				},
				{
					"sampler":4,
					"target":{
						"node":2,
						"path":"rotation"
					}
				},
				{
					"sampler":5,
					"target":{
						"node":2,
						"path":"scale"
					}
				},
				{
					"sampler":6,
					"target":{
						"node":1,
						"path":"translation"
					}
				},
				{
					"sampler":7,
					"target":{
						"node":1,
						"path":"rotation"
					}
				},
				{
					"sampler":8,
					"target":{
						"node":1,
						"path":"scale"
					}
				},
				{
					"sampler":9,
					"target":{
						"node":0,
						"path":"translation"
					}
				},
				{
					"sampler":10,
					"target":{
						"node":0,
						"path":"rotation"
					}
				},
				{
					"sampler":11,
					"target":{
						"node":0,
						"path":"scale"
					}
				},
				{
					"sampler":12,
					"target":{
						"node":6,
						"path":"translation"
					}
				},
				{
					"sampler":13,
					"target":{
						"node":6,
						"path":"rotation"
					}
				},
				{
					"sampler":14,
					"target":{
						"node":6,
						"path":"scale"
					}
				},
				{
					"sampler":15,
					"target":{
						"node":5,
						"path":"translation"
					}
				},
				{
					"sampler":16,
					"target":{
						"node":5,
						"path":"rotation"
					}
				},
				{
					"sampler":17,
					"target":{
						"node":5,
						"path":"scale"
					}
				},
				{
					"sampler":18,
					"target":{
						"node":4,
						"path":"translation"
					}
				},
				{
					"sampler":19,
					"target":{
						"node":4,
						"path":"rotation"
					}
				},
				{
					"sampler":20,
					"target":{
						"node":4,
						"path":"scale"
					}
				},
				{
					"sampler":21,
					"target":{
						"node":3,
						"path":"translation"
					}
				},
				{
					"sampler":22,
					"target":{
						"node":3,
						"path":"rotation"
					}
				},
				{
					"sampler":23,
					"target":{
						"node":3,
						"path":"scale"
					}
				},
				{
					"sampler":24,
					"target":{
						"node":10,
						"path":"translation"
					}
				},
				{
					"sampler":25,
					"target":{
						"node":10,
						"path":"rotation"
					}
				},
				{
					"sampler":26,
					"target":{
						"node":10,
						"path":"scale"
					}
				},
				{
					"sampler":27,
					"target":{
						"node":9,
						"path":"translation"
					}
				},
				{
					"sampler":28,
					"target":{
						"node":9,
						"path":"rotation"
					}
				},
				{
					"sampler":29,
					"target":{
						"node":9,
						"path":"scale"
					}
				},
				{
					"sampler":30,
					"target":{
						"node":8,
						"path":"translation"
					}
				},
				{
					"sampler":31,
					"target":{
						"node":8,
						"path":"rotation"
					}
				},
				{
					"sampler":32,
					"target":{
						"node":8,
						"path":"scale"
					}
				},
				{
					"sampler":33,
					"target":{
						"node":7,
						"path":"translation"
					}
				},
				{
					"sampler":34,
					"target":{
						"node":7,
						"path":"rotation"
					}
				},
				{
					"sampler":35,
					"target":{
						"node":7,
						"path":"scale"
					}
				},
				{
					"sampler":36,
					"target":{
						"node":14,
						"path":"translation"
					}
				},
				{
					"sampler":37,
					"target":{
						"node":14,
						"path":"rotation"
					}
				},
				{
					"sampler":38,
					"target":{
						"node":14,
						"path":"scale"
					}
				},
				{
					"sampler":39,
					"target":{
						"node":13,
						"path":"translation"
					}
				},
				{
					"sampler":40,
					"target":{
						"node":13,
						"path":"rotation"
					}
				},
				{
					"sampler":41,
					"target":{
						"node":13,
						"path":"scale"
					}
				},
				{
					"sampler":42,
					"target":{
						"node":12,
						"path":"translation"
					}
				},
				{
					"sampler":43,
					"target":{
						"node":12,
						"path":"rotation"
					}
				},
				{
					"sampler":44,
					"target":{
						"node":12,
						"path":"scale"
					}
				},
				{
					"sampler":45,
					"target":{
						"node":11,
						"path":"translation"
					}
				},
				{
					"sampler":46,
					"target":{
						"node":11,
						"path":"rotation"
					}
				},
				{
					"sampler":47,
					"target":{
						"node":11,
						"path":"scale"
					}
				},
				{
					"sampler":48,
					"target":{
						"node":18,
						"path":"translation"
					}
				},
				{
					"sampler":49,
					"target":{
						"node":18,
						"path":"rotation"
					}
				},
				{
					"sampler":50,
					"target":{
						"node":18,
						"path":"scale"
					}
				},
				{
					"sampler":51,
					"target":{
						"node":17,
						"path":"translation"
					}
				},
				{
					"sampler":52,
					"target":{
						"node":17,
						"path":"rotation"
					}
				},
				{
					"sampler":53,
					"target":{
						"node":17,
						"path":"scale"
					}
				},
				{
					"sampler":54,
					"target":{
						"node":16,
						"path":"translation"
					}
				},
				{
					"sampler":55,
					"target":{
						"node":16,
						"path":"rotation"
					}
				},
				{
					"sampler":56,
					"target":{
						"node":16,
						"path":"scale"
					}
				},
				{
					"sampler":57,
					"target":{
						"node":15,
						"path":"translation"
					}
				},
				{
					"sampler":58,
					"target":{
						"node":15,
						"path":"rotation"
					}
				},
				{
					"sampler":59,
					"target":{
						"node":15,
						"path":"scale"
					}
				},
				{
					"sampler":60,
					"target":{
						"node":22,
						"path":"translation"
					}
				},
				{
					"sampler":61,
					"target":{
						"node":22,
						"path":"rotation"
					}
				},
				{
					"sampler":62,
					"target":{
						"node":22,
						"path":"scale"
					}
				},
				{
					"sampler":63,
					"target":{
						"node":21,
						"path":"translation"
					}
				},
				{
					"sampler":64,
					"target":{
						"node":21,
						"path":"rotation"
					}
				},
				{
					"sampler":65,
					"target":{
						"node":21,
						"path":"scale"
					}
				},
				{
					"sampler":66,
					"target":{
						"node":20,
						"path":"translation"
					}
				},
				{
					"sampler":67,
					"target":{
						"node":20,
						"path":"rotation"
					}
				},
				{
					"sampler":68,
					"target":{
						"node":20,
						"path":"scale"
					}
				},
				{
					"sampler":69,
					"target":{
						"node":19,
						"path":"translation"
					}
				},
				{
					"sampler":70,
					"target":{
						"node":19,
						"path":"rotation"
					}
				},
				{
					"sampler":71,
					"target":{
						"node":19,
						"path":"scale"
					}
				},
				{
					"sampler":72,
					"target":{
						"node":26,
						"path":"translation"
					}
				},
				{
					"sampler":73,
					"target":{
						"node":26,
						"path":"rotation"
					}
				},
				{
					"sampler":74,
					"target":{
						"node":26,
						"path":"scale"
					}
				},
				{
					"sampler":75,
					"target":{
						"node":25,
						"path":"translation"
					}
				},
				{
					"sampler":76,
					"target":{
						"node":25,
						"path":"rotation"
					}
				},
				{
					"sampler":77,
					"target":{
						"node":25,
						"path":"scale"
					}
				},
				{
					"sampler":78,
					"target":{
						"node":24,
						"path":"translation"
					}
				},
				{
					"sampler":79,
					"target":{
						"node":24,
						"path":"rotation"
					}
				},
				{
					"sampler":80,
					"target":{
						"node":24,
						"path":"scale"
					}
				},
				{
					"sampler":81,
					"target":{
						"node":23,
						"path":"translation"
					}
				},
				{
					"sampler":82,
					"target":{
						"node":23,
						"path":"rotation"
					}
				},
				{
					"sampler":83,
					"target":{
						"node":23,
						"path":"scale"
					}
				},
				{
					"sampler":84,
					"target":{
						"node":30,
						"path":"translation"
					}
				},
				{
					"sampler":85,
					"target":{
						"node":30,
						"path":"rotation"
					}
				},
				{
					"sampler":86,
					"target":{
						"node":30,
						"path":"scale"
					}
				},
				{
					"sampler":87,
					"target":{
						"node":29,
						"path":"translation"
					}
				},
				{
					"sampler":88,
					"target":{
						"node":29,
						"path":"rotation"
					}
				},
				{
					"sampler":89,
					"target":{
						"node":29,
						"path":"scale"
					}
				},
				{
					"sampler":90,
					"target":{
						"node":28,
						"path":"translation"
					}
				},
				{
					"sampler":91,
					"target":{
						"node":28,
						"path":"rotation"
					}
				},
				{
					"sampler":92,
					"target":{
						"node":28,
						"path":"scale"
					}
				},
				{
					"sampler":93,
					"target":{
						"node":27,
						"path":"translation"
					}
				},
				{
					"sampler":94,
					"target":{
						"node":27,
						"path":"rotation"
					}
				},
				{
					"sampler":95,
					"target":{
						"node":27,
						"path":"scale"
					}
				},
				{
					"sampler":96,
					"target":{
						"node":34,
						"path":"translation"
					}
				},
				{
					"sampler":97,
					"target":{
						"node":34,
						"path":"rotation"
					}
				},
				{
					"sampler":98,
					"target":{
						"node":34,
						"path":"scale"
					}
				},
				{
					"sampler":99,
					"target":{
						"node":33,
						"path":"translation"
					}
				},
				{
					"sampler":100,
					"target":{
						"node":33,
						"path":"rotation"
					}
				},
				{
					"sampler":101,
					"target":{
						"node":33,
						"path":"scale"
					}
				},
				{
					"sampler":102,
					"target":{
						"node":32,
						"path":"translation"
					}
				},
				{
					"sampler":103,
					"target":{
						"node":32,
						"path":"rotation"
					}
				},
				{
					"sampler":104,
					"target":{
						"node":32,
						"path":"scale"
					}
				},
				{
					"sampler":105,
					"target":{
						"node":31,
						"path":"translation"
					}
				},
				{
					"sampler":106,
					"target":{
						"node":31,
						"path":"rotation"
					}
				},
				{
					"sampler":107,
					"target":{
						"node":31,
						"path":"scale"
					}
				},
				{
					"sampler":108,
					"target":{
						"node":41,
						"path":"translation"
					}
				},
				{
					"sampler":109,
					"target":{
						"node":41,
						"path":"rotation"
					}
				},
				{
					"sampler":110,
					"target":{
						"node":41,
						"path":"scale"
					}
				},
				{
					"sampler":111,
					"target":{
						"node":36,
						"path":"translation"
					}
				},
				{
					"sampler":112,
					"target":{
						"node":36,
						"path":"rotation"
					}
				},
				{
					"sampler":113,
					"target":{
						"node":36,
						"path":"scale"
					}
				},
				{
					"sampler":114,
					"target":{
						"node":37,
						"path":"translation"
					}
				},
				{
					"sampler":115,
					"target":{
						"node":37,
						"path":"rotation"
					}
				},
				{
					"sampler":116,
					"target":{
						"node":37,
						"path":"scale"
					}
				},
				{
					"sampler":117,
					"target":{
						"node":38,
						"path":"translation"
					}
				},
				{
					"sampler":118,
					"target":{
						"node":38,
						"path":"rotation"
					}
				},
				{
					"sampler":119,
					"target":{
						"node":38,
						"path":"scale"
					}
				},
				{
					"sampler":120,
					"target":{
						"node":39,
						"path":"translation"
					}
				},
				{
					"sampler":121,
					"target":{
						"node":39,
						"path":"rotation"
					}
				},
				{
					"sampler":122,
					"target":{
						"node":39,
						"path":"scale"
					}
				},
				{
					"sampler":123,
					"target":{
						"node":40,
						"path":"translation"
					}
				},
				{
					"sampler":124,
					"target":{
						"node":40,
						"path":"rotation"
					}
				},
				{
					"sampler":125,
					"target":{
						"node":40,
						"path":"scale"
					}
				}
			],
			"name":"wait",
			"samplers":[
				{
					"input":24,
					"interpolation":"STEP",
					"output":139
				},
				{
					"input":24,
					"interpolation":"STEP",
					"output":140
				},
				{
					"input":24,
					"interpolation":"STEP",
					"output":28
				},
				{
					"input":24,
					"interpolation":"STEP",
					"output":141
				},
				{
					"input":24,
					"interpolation":"STEP",
					"output":140
				},
				{
					"input":24,
					"interpolation":"STEP",
					"output":28
				},
				{
					"input":24,
					"interpolation":"STEP",
					"output":142
				},
				{
					"input":24,
					"interpolation":"STEP",
					"output":140
				},
				{
					"input":24,
					"interpolation":"STEP",
					"output":28
				},
				{
					"input":24,
					"interpolation":"STEP",
					"output":143
				},
				{
					"input":24,
					"interpolation":"STEP",
					"output":140
				},
				{
					"input":24,
					"interpolation":"STEP",
					"output":28
				},
				{
					"input":24,
					"interpolation":"STEP",
					"output":141
				},
				{
					"input":24,
					"interpolation":"STEP",
					"output":144
				},
				{
					"input":24,
					"interpolation":"STEP",
					"output":28
				},
				{
					"input":24,
					"interpolation":"STEP",
					"output":145
				},
				{
					"input":26,
					"interpolation":"LINEAR",
					"output":146
				},
				{
					"input":24,
					"interpolation":"STEP",
					"output":126
				},
				{
					"input":24,
					"interpolation":"STEP",
					"output":147
				},
				{
					"input":24,
					"interpolation":"STEP",
					"output":148
				},
				{
					"input":24,
					"interpolation":"STEP",
					"output":149
				},
				{
					"input":24,
					"interpolation":"STEP",
					"output":150
				},
				{
					"input":26,
					"interpolation":"LINEAR",
					"output":151
				},
				{
					"input":24,
					"interpolation":"STEP",
					"output":28
				},
				{
					"input":24,
					"interpolation":"STEP",
					"output":141
				},
				{
					"input":24,
					"interpolation":"STEP",
					"output":152
				},
				{
					"input":24,
					"interpolation":"STEP",
					"output":126
				},
				{
					"input":24,
					"interpolation":"STEP",
					"output":153
				},
				{
					"input":26,
					"interpolation":"LINEAR",
					"output":154
				},
				{
					"input":24,
					"interpolation":"STEP",
					"output":28
				},
				{
					"input":24,
					"interpolation":"STEP",
					"output":155
				},
				{
					"input":24,
					"interpolation":"STEP",
					"output":156
				},
				{
					"input":24,
					"interpolation":"STEP",
					"output":28
				},
				{
					"input":24,
					"interpolation":"STEP",
					"output":157
				},
				{
					"input":24,
					"interpolation":"STEP",
					"output":158
				},
				{
					"input":24,
					"interpolation":"STEP",
					"output":28
				},
				{
					"input":24,
					"interpolation":"STEP",
					"output":141
				},
				{
					"input":24,
					"interpolation":"STEP",
					"output":159
				},
				{
					"input":24,
					"interpolation":"STEP",
					"output":160
				},
				{
					"input":24,
					"interpolation":"STEP",
					"output":161
				},
				{
					"input":26,
					"interpolation":"LINEAR",
					"output":162
				},
				{
					"input":24,
					"interpolation":"STEP",
					"output":149
				},
				{
					"input":24,
					"interpolation":"STEP",
					"output":163
				},
				{
					"input":24,
					"interpolation":"STEP",
					"output":164
				},
				{
					"input":24,
					"interpolation":"STEP",
					"output":28
				},
				{
					"input":24,
					"interpolation":"STEP",
					"output":165
				},
				{
					"input":24,
					"interpolation":"STEP",
					"output":166
				},
				{
					"input":24,
					"interpolation":"STEP",
					"output":28
				},
				{
					"input":24,
					"interpolation":"STEP",
					"output":141
				},
				{
					"input":24,
					"interpolation":"STEP",
					"output":67
				},
				{
					"input":24,
					"interpolation":"STEP",
					"output":28
				},
				{
					"input":24,
					"interpolation":"STEP",
					"output":167
				},
				{
					"input":26,
					"interpolation":"LINEAR",
					"output":168
				},
				{
					"input":24,
					"interpolation":"STEP",
					"output":169
				},
				{
					"input":24,
					"interpolation":"STEP",
					"output":170
				},
				{
					"input":24,
					"interpolation":"STEP",
					"output":171
				},
				{
					"input":24,
					"interpolation":"STEP",
					"output":149
				},
				{
					"input":24,
					"interpolation":"STEP",
					"output":172
				},
				{
					"input":24,
					"interpolation":"STEP",
					"output":173
				},
				{
					"input":24,
					"interpolation":"STEP",
					"output":160
				},
				{
					"input":24,
					"interpolation":"STEP",
					"output":141
				},
				{
					"input":24,
					"interpolation":"STEP",
					"output":174
				},
				{
					"input":24,
					"interpolation":"STEP",
					"output":175
				},
				{
					"input":24,
					"interpolation":"STEP",
					"output":176
				},
				{
					"input":26,
					"interpolation":"LINEAR",
					"output":177
				},
				{
					"input":24,
					"interpolation":"STEP",
					"output":28
				},
				{
					"input":24,
					"interpolation":"STEP",
					"output":178
				},
				{
					"input":24,
					"interpolation":"STEP",
					"output":179
				},
				{
					"input":24,
					"interpolation":"STEP",
					"output":180
				},
				{
					"input":24,
					"interpolation":"STEP",
					"output":181
				},
				{
					"input":24,
					"interpolation":"STEP",
					"output":182
				},
				{
					"input":24,
					"interpolation":"STEP",
					"output":183
				},
				{
					"input":24,
					"interpolation":"STEP",
					"output":141
				},
				{
					"input":24,
					"interpolation":"STEP",
					"output":184
				},
				{
					"input":24,
					"interpolation":"STEP",
					"output":185
				},
				{
					"input":24,
					"interpolation":"STEP",
					"output":186
				},
				{
					"input":26,
					"interpolation":"LINEAR",
					"output":187
				},
				{
					"input":24,
					"interpolation":"STEP",
					"output":28
				},
				{
					"input":24,
					"interpolation":"STEP",
					"output":188
				},
				{
					"input":24,
					"interpolation":"STEP",
					"output":189
				},
				{
					"input":24,
					"interpolation":"STEP",
					"output":190
				},
				{
					"input":24,
					"interpolation":"STEP",
					"output":191
				},
				{
					"input":26,
					"interpolation":"LINEAR",
					"output":192
				},
				{
					"input":24,
					"interpolation":"STEP",
					"output":169
				},
				{
					"input":24,
					"interpolation":"STEP",
					"output":141
				},
				{
					"input":24,
					"interpolation":"STEP",
					"output":193
				},
				{
					"input":24,
					"interpolation":"STEP",
					"output":126
				},
				{
					"input":24,
					"interpolation":"STEP",
					"output":194
				},
				{
					"input":26,
					"interpolation":"LINEAR",
					"output":195
				},
				{
					"input":24,
					"interpolation":"STEP",
					"output":28
				},
				{
					"input":24,
					"interpolation":"STEP",
					"output":196
				},
				{
					"input":24,
					"interpolation":"STEP",
					"output":197
				},
				{
					"input":24,
					"interpolation":"STEP",
					"output":198
				},
				{
					"input":24,
					"interpolation":"STEP",
					"output":199
				},
				{
					"input":24,
					"interpolation":"STEP",
					"output":200
				},
				{
					"input":24,
					"interpolation":"STEP",
					"output":201
				},
				{
					"input":24,
					"interpolation":"STEP",
					"output":141
				},
				{
					"input":24,
					"interpolation":"STEP",
					"output":114
				},
				{
					"input":24,
					"interpolation":"STEP",
					"output":202
				},
				{
					"input":24,
					"interpolation":"STEP",
					"output":203
				},
				{
					"input":26,
					"interpolation":"LINEAR",
					"output":204
				},
				{
					"input":24,
					"interpolation":"STEP",
					"output":205
				},
				{
					"input":24,
					"interpolation":"STEP",
					"output":206
				},
				{
					"input":24,
					"interpolation":"STEP",
					"output":207
				},
				{
					"input":24,
					"interpolation":"STEP",
					"output":208
				},
				{
					"input":24,
					"interpolation":"STEP",
					"output":209
				},
				{
					"input":24,
					"interpolation":"STEP",
					"output":210
				},
				{
					"input":24,
					"interpolation":"STEP",
					"output":28
				},
				{
					"input":24,
					"interpolation":"STEP",
					"output":139
				},
				{
					"input":24,
					"interpolation":"STEP",
					"output":211
				},
				{
					"input":24,
					"interpolation":"STEP",
					"output":126
				},
				{
					"input":24,
					"interpolation":"STEP",
					"output":212
				},
				{
					"input":24,
					"interpolation":"STEP",
					"output":213
				},
				{
					"input":24,
					"interpolation":"STEP",
					"output":214
				},
				{
					"input":24,
					"interpolation":"STEP",
					"output":215
				},
				{
					"input":24,
					"interpolation":"STEP",
					"output":216
				},
				{
					"input":24,
					"interpolation":"STEP",
					"output":28
				},
				{
					"input":24,
					"interpolation":"STEP",
					"output":217
				},
				{
					"input":24,
					"interpolation":"STEP",
					"output":218
				},
				{
					"input":24,
					"interpolation":"STEP",
					"output":149
				},
				{
					"input":24,
					"interpolation":"STEP",
					"output":219
				},
				{
					"input":24,
					"interpolation":"STEP",
					"output":220
				},
				{
					"input":24,
					"interpolation":"STEP",
					"output":28
				},
				{
					"input":24,
					"interpolation":"STEP",
					"output":221
				},
				{
					"input":24,
					"interpolation":"STEP",
					"output":222
				},
				{
					"input":24,
					"interpolation":"STEP",
					"output":28
				}
			]
		}
	],
	"materials":[
		{
			"doubleSided":true,
			"name":"\u30de\u30c6\u30ea\u30a2\u30eb.006",
			"pbrMetallicRoughness":{
				"baseColorFactor":[
					0,
					0,
					0,
					1
				],
				"metallicFactor":0,
				"roughnessFactor":0.5
			}
		},
		{
			"doubleSided":true,
			"name":"\u30de\u30c6\u30ea\u30a2\u30eb.004",
			"pbrMetallicRoughness":{
				"baseColorFactor":[
					0.8000074625015259,
					0.7686880826950073,
					0.0322069488465786,
					1
				],
				"metallicFactor":0,
				"roughnessFactor":0.5
			}
		},
		{
			"doubleSided":true,
			"name":"\u30de\u30c6\u30ea\u30a2\u30eb",
			"pbrMetallicRoughness":{
				"baseColorFactor":[
					0.800000011920929,
					0.800000011920929,
					0.800000011920929,
					1
				],
				"metallicFactor":0,
				"roughnessFactor":0.5
			}
		},
		{
			"doubleSided":true,
			"name":"\u30de\u30c6\u30ea\u30a2\u30eb.003",
			"pbrMetallicRoughness":{
				"baseColorFactor":[
					0,
					0,
					0,
					1
				],
				"metallicFactor":0,
				"roughnessFactor":0.5
			}
		}
	],
	"meshes":[
		{
			"name":"\u7403.006",
			"primitives":[
				{
					"attributes":{
						"POSITION":0,
						"NORMAL":1,
						"TEXCOORD_0":2,
						"JOINTS_0":3,
						"WEIGHTS_0":4
					},
					"indices":5,
					"material":0
				},
				{
					"attributes":{
						"POSITION":6,
						"NORMAL":7,
						"TEXCOORD_0":8,
						"JOINTS_0":9,
						"WEIGHTS_0":10
					},
					"indices":11,
					"material":1
				},
				{
					"attributes":{
						"POSITION":12,
						"NORMAL":13,
						"TEXCOORD_0":14,
						"JOINTS_0":15,
						"WEIGHTS_0":16
					},
					"indices":17,
					"material":2
				},
				{
					"attributes":{
						"POSITION":18,
						"NORMAL":19,
						"TEXCOORD_0":20,
						"JOINTS_0":21,
						"WEIGHTS_0":22
					},
					"indices":5,
					"material":3
				}
			]
		}
	],
	"skins":[
		{
			"inverseBindMatrices":23,
			"joints":[
				35,
				2,
				1,
				0,
				6,
				5,
				4,
				3,
				10,
				9,
				8,
				7,
				14,
				13,
				12,
				11,
				18,
				17,
				16,
				15,
				22,
				21,
				20,
				19,
				26,
				25,
				24,
				23,
				30,
				29,
				28,
				27,
				34,
				33,
				32,
				31,
				41,
				36,
				37,
				38,
				39,
				40
			],
			"name":"\u30a2\u30fc\u30de\u30c1\u30e5\u30a2"
		}
	],
	"accessors":[
		{
			"bufferView":0,
			"componentType":5126,
			"count":1984,
			"max":[
				0.17472781240940094,
				0.17472785711288452,
				0.5447277426719666
			],
			"min":[
				-0.1747276932001114,
				-0.17472785711288452,
				0.19527214765548706
			],
			"type":"VEC3"
		},
		{
			"bufferView":1,
			"componentType":5126,
			"count":1984,
			"type":"VEC3"
		},
		{
			"bufferView":2,
			"componentType":5126,
			"count":1984,
			"type":"VEC2"
		},
		{
			"bufferView":3,
			"componentType":5121,
			"count":1984,
			"type":"VEC4"
		},
		{
			"bufferView":4,
			"componentType":5126,
			"count":1984,
			"type":"VEC4"
		},
		{
			"bufferView":5,
			"componentType":5123,
			"count":2880,
			"type":"SCALAR"
		},
		{
			"bufferView":6,
			"componentType":5126,
			"count":128,
			"max":[
				0.8000001311302185,
				1.7000000476837158,
				0.800000011920929
			],
			"min":[
				-0.7999999523162842,
				0.09999991208314896,
				-0.8000000715255737
			],
			"type":"VEC3"
		},
		{
			"bufferView":7,
			"componentType":5126,
			"count":128,
			"type":"VEC3"
		},
		{
			"bufferView":8,
			"componentType":5126,
			"count":128,
			"type":"VEC2"
		},
		{
			"bufferView":9,
			"componentType":5121,
			"count":128,
			"type":"VEC4"
		},
		{
			"bufferView":10,
			"componentType":5126,
			"count":128,
			"type":"VEC4"
		},
		{
			"bufferView":11,
			"componentType":5123,
			"count":186,
			"type":"SCALAR"
		},
		{
			"bufferView":12,
			"componentType":5126,
			"count":1984,
			"max":[
				0.4499998986721039,
				0.45000001788139343,
				0.44999969005584717
			],
			"min":[
				-0.44999960064888,
				-0.45000001788139343,
				-0.4500000476837158
			],
			"type":"VEC3"
		},
		{
			"bufferView":13,
			"componentType":5126,
			"count":1984,
			"type":"VEC3"
		},
		{
			"bufferView":14,
			"componentType":5126,
			"count":1984,
			"type":"VEC2"
		},
		{
			"bufferView":15,
			"componentType":5121,
			"count":1984,
			"type":"VEC4"
		},
		{
			"bufferView":16,
			"componentType":5126,
			"count":1984,
			"type":"VEC4"
		},
		{
			"bufferView":17,
			"componentType":5123,
			"count":2880,
			"type":"SCALAR"
		},
		{
			"bufferView":18,
			"componentType":5126,
			"count":1984,
			"max":[
				0.17472781240940094,
				0.17472785711288452,
				-0.19527234137058258
			],
			"min":[
				-0.1747276932001114,
				-0.17472785711288452,
				-0.5447279214859009
			],
			"type":"VEC3"
		},
		{
			"bufferView":19,
			"componentType":5126,
			"count":1984,
			"type":"VEC3"
		},
		{
			"bufferView":20,
			"componentType":5126,
			"count":1984,
			"type":"VEC2"
		},
		{
			"bufferView":21,
			"componentType":5121,
			"count":1984,
			"type":"VEC4"
		},
		{
			"bufferView":22,
			"componentType":5126,
			"count":1984,
			"type":"VEC4"
		},
		{
			"bufferView":23,
			"componentType":5126,
			"count":42,
			"type":"MAT4"
		},
		{
			"bufferView":24,
			"componentType":5126,
			"count":2,
			"max":[
				2.5
			],
			"min":[
				0.041666666666666664
			],
			"type":"SCALAR"
		},
		{
			"bufferView":25,
			"componentType":5126,
			"count":2,
			"type":"VEC3"
		},
		{
			"bufferView":26,
			"componentType":5126,
			"count":60,
			"max":[
				2.5
			],
			"min":[
				0.041666666666666664
			],
			"type":"SCALAR"
		},
		{
			"bufferView":27,
			"componentType":5126,
			"count":60,
			"type":"VEC4"
		},
		{
			"bufferView":28,
			"componentType":5126,
			"count":2,
			"type":"VEC3"
		},
		{
			"bufferView":29,
			"componentType":5126,
			"count":2,
			"type":"VEC3"
		},
		{
			"bufferView":30,
			"componentType":5126,
			"count":2,
			"type":"VEC4"
		},
		{
			"bufferView":31,
			"componentType":5126,
			"count":2,
			"type":"VEC3"
		},
		{
			"bufferView":32,
			"componentType":5126,
			"count":2,
			"type":"VEC3"
		},
		{
			"bufferView":33,
			"componentType":5126,
			"count":2,
			"type":"VEC3"
		},
		{
			"bufferView":34,
			"componentType":5126,
			"count":2,
			"type":"VEC4"
		},
		{
			"bufferView":35,
			"componentType":5126,
			"count":2,
			"type":"VEC3"
		},
		{
			"bufferView":36,
			"componentType":5126,
			"count":2,
			"type":"VEC4"
		},
		{
			"bufferView":37,
			"componentType":5126,
			"count":2,
			"type":"VEC3"
		},
		{
			"bufferView":38,
			"componentType":5126,
			"count":2,
			"type":"VEC3"
		},
		{
			"bufferView":39,
			"componentType":5126,
			"count":2,
			"type":"VEC4"
		},
		{
			"bufferView":40,
			"componentType":5126,
			"count":2,
			"type":"VEC3"
		},
		{
			"bufferView":41,
			"componentType":5126,
			"count":2,
			"type":"VEC3"
		},
		{
			"bufferView":42,
			"componentType":5126,
			"count":2,
			"type":"VEC4"
		},
		{
			"bufferView":43,
			"componentType":5126,
			"count":2,
			"type":"VEC3"
		},
		{
			"bufferView":44,
			"componentType":5126,
			"count":2,
			"type":"VEC3"
		},
		{
			"bufferView":45,
			"componentType":5126,
			"count":2,
			"type":"VEC4"
		},
		{
			"bufferView":46,
			"componentType":5126,
			"count":2,
			"type":"VEC3"
		},
		{
			"bufferView":47,
			"componentType":5126,
			"count":2,
			"type":"VEC3"
		},
		{
			"bufferView":48,
			"componentType":5126,
			"count":2,
			"type":"VEC4"
		},
		{
			"bufferView":49,
			"componentType":5126,
			"count":2,
			"type":"VEC3"
		},
		{
			"bufferView":50,
			"componentType":5126,
			"count":2,
			"type":"VEC3"
		},
		{
			"bufferView":51,
			"componentType":5126,
			"count":2,
			"type":"VEC4"
		},
		{
			"bufferView":52,
			"componentType":5126,
			"count":2,
			"type":"VEC3"
		},
		{
			"bufferView":53,
			"componentType":5126,
			"count":2,
			"type":"VEC3"
		},
		{
			"bufferView":54,
			"componentType":5126,
			"count":2,
			"type":"VEC4"
		},
		{
			"bufferView":55,
			"componentType":5126,
			"count":2,
			"type":"VEC3"
		},
		{
			"bufferView":56,
			"componentType":5126,
			"count":2,
			"type":"VEC3"
		},
		{
			"bufferView":57,
			"componentType":5126,
			"count":2,
			"type":"VEC4"
		},
		{
			"bufferView":58,
			"componentType":5126,
			"count":2,
			"type":"VEC3"
		},
		{
			"bufferView":59,
			"componentType":5126,
			"count":2,
			"type":"VEC3"
		},
		{
			"bufferView":60,
			"componentType":5126,
			"count":2,
			"type":"VEC4"
		},
		{
			"bufferView":61,
			"componentType":5126,
			"count":2,
			"type":"VEC3"
		},
		{
			"bufferView":62,
			"componentType":5126,
			"count":2,
			"type":"VEC3"
		},
		{
			"bufferView":63,
			"componentType":5126,
			"count":2,
			"type":"VEC4"
		},
		{
			"bufferView":64,
			"componentType":5126,
			"count":2,
			"type":"VEC3"
		},
		{
			"bufferView":65,
			"componentType":5126,
			"count":2,
			"type":"VEC4"
		},
		{
			"bufferView":66,
			"componentType":5126,
			"count":2,
			"type":"VEC3"
		},
		{
			"bufferView":67,
			"componentType":5126,
			"count":2,
			"type":"VEC4"
		},
		{
			"bufferView":68,
			"componentType":5126,
			"count":2,
			"type":"VEC3"
		},
		{
			"bufferView":69,
			"componentType":5126,
			"count":2,
			"type":"VEC3"
		},
		{
			"bufferView":70,
			"componentType":5126,
			"count":2,
			"type":"VEC4"
		},
		{
			"bufferView":71,
			"componentType":5126,
			"count":2,
			"type":"VEC3"
		},
		{
			"bufferView":72,
			"componentType":5126,
			"count":2,
			"type":"VEC3"
		},
		{
			"bufferView":73,
			"componentType":5126,
			"count":2,
			"type":"VEC4"
		},
		{
			"bufferView":74,
			"componentType":5126,
			"count":2,
			"type":"VEC3"
		},
		{
			"bufferView":75,
			"componentType":5126,
			"count":2,
			"type":"VEC3"
		},
		{
			"bufferView":76,
			"componentType":5126,
			"count":2,
			"type":"VEC4"
		},
		{
			"bufferView":77,
			"componentType":5126,
			"count":2,
			"type":"VEC3"
		},
		{
			"bufferView":78,
			"componentType":5126,
			"count":2,
			"type":"VEC3"
		},
		{
			"bufferView":79,
			"componentType":5126,
			"count":2,
			"type":"VEC4"
		},
		{
			"bufferView":80,
			"componentType":5126,
			"count":2,
			"type":"VEC3"
		},
		{
			"bufferView":81,
			"componentType":5126,
			"count":2,
			"type":"VEC3"
		},
		{
			"bufferView":82,
			"componentType":5126,
			"count":2,
			"type":"VEC4"
		},
		{
			"bufferView":83,
			"componentType":5126,
			"count":2,
			"type":"VEC3"
		},
		{
			"bufferView":84,
			"componentType":5126,
			"count":2,
			"type":"VEC3"
		},
		{
			"bufferView":85,
			"componentType":5126,
			"count":2,
			"type":"VEC4"
		},
		{
			"bufferView":86,
			"componentType":5126,
			"count":2,
			"type":"VEC3"
		},
		{
			"bufferView":87,
			"componentType":5126,
			"count":2,
			"type":"VEC3"
		},
		{
			"bufferView":88,
			"componentType":5126,
			"count":2,
			"type":"VEC4"
		},
		{
			"bufferView":89,
			"componentType":5126,
			"count":2,
			"type":"VEC3"
		},
		{
			"bufferView":90,
			"componentType":5126,
			"count":2,
			"type":"VEC3"
		},
		{
			"bufferView":91,
			"componentType":5126,
			"count":2,
			"type":"VEC4"
		},
		{
			"bufferView":92,
			"componentType":5126,
			"count":2,
			"type":"VEC3"
		},
		{
			"bufferView":93,
			"componentType":5126,
			"count":2,
			"type":"VEC3"
		},
		{
			"bufferView":94,
			"componentType":5126,
			"count":2,
			"type":"VEC4"
		},
		{
			"bufferView":95,
			"componentType":5126,
			"count":2,
			"type":"VEC3"
		},
		{
			"bufferView":96,
			"componentType":5126,
			"count":2,
			"type":"VEC3"
		},
		{
			"bufferView":97,
			"componentType":5126,
			"count":2,
			"type":"VEC4"
		},
		{
			"bufferView":98,
			"componentType":5126,
			"count":2,
			"type":"VEC3"
		},
		{
			"bufferView":99,
			"componentType":5126,
			"count":2,
			"type":"VEC3"
		},
		{
			"bufferView":100,
			"componentType":5126,
			"count":2,
			"type":"VEC4"
		},
		{
			"bufferView":101,
			"componentType":5126,
			"count":2,
			"type":"VEC3"
		},
		{
			"bufferView":102,
			"componentType":5126,
			"count":2,
			"type":"VEC3"
		},
		{
			"bufferView":103,
			"componentType":5126,
			"count":2,
			"type":"VEC4"
		},
		{
			"bufferView":104,
			"componentType":5126,
			"count":2,
			"type":"VEC3"
		},
		{
			"bufferView":105,
			"componentType":5126,
			"count":2,
			"type":"VEC3"
		},
		{
			"bufferView":106,
			"componentType":5126,
			"count":2,
			"type":"VEC4"
		},
		{
			"bufferView":107,
			"componentType":5126,
			"count":2,
			"type":"VEC3"
		},
		{
			"bufferView":108,
			"componentType":5126,
			"count":2,
			"type":"VEC4"
		},
		{
			"bufferView":109,
			"componentType":5126,
			"count":2,
			"type":"VEC3"
		},
		{
			"bufferView":110,
			"componentType":5126,
			"count":2,
			"type":"VEC3"
		},
		{
			"bufferView":111,
			"componentType":5126,
			"count":2,
			"type":"VEC4"
		},
		{
			"bufferView":112,
			"componentType":5126,
			"count":2,
			"type":"VEC3"
		},
		{
			"bufferView":113,
			"componentType":5126,
			"count":2,
			"type":"VEC3"
		},
		{
			"bufferView":114,
			"componentType":5126,
			"count":2,
			"type":"VEC4"
		},
		{
			"bufferView":115,
			"componentType":5126,
			"count":2,
			"type":"VEC3"
		},
		{
			"bufferView":116,
			"componentType":5126,
			"count":2,
			"type":"VEC3"
		},
		{
			"bufferView":117,
			"componentType":5126,
			"count":2,
			"type":"VEC4"
		},
		{
			"bufferView":118,
			"componentType":5126,
			"count":2,
			"type":"VEC3"
		},
		{
			"bufferView":119,
			"componentType":5126,
			"count":2,
			"type":"VEC3"
		},
		{
			"bufferView":120,
			"componentType":5126,
			"count":2,
			"type":"VEC4"
		},
		{
			"bufferView":121,
			"componentType":5126,
			"count":2,
			"type":"VEC3"
		},
		{
			"bufferView":122,
			"componentType":5126,
			"count":2,
			"type":"VEC3"
		},
		{
			"bufferView":123,
			"componentType":5126,
			"count":2,
			"type":"VEC4"
		},
		{
			"bufferView":124,
			"componentType":5126,
			"count":2,
			"type":"VEC3"
		},
		{
			"bufferView":125,
			"componentType":5126,
			"count":60,
			"type":"VEC4"
		},
		{
			"bufferView":126,
			"componentType":5126,
			"count":2,
			"type":"VEC3"
		},
		{
			"bufferView":127,
			"componentType":5126,
			"count":2,
			"type":"VEC3"
		},
		{
			"bufferView":128,
			"componentType":5126,
			"count":2,
			"type":"VEC4"
		},
		{
			"bufferView":129,
			"componentType":5126,
			"count":2,
			"type":"VEC3"
		},
		{
			"bufferView":130,
			"componentType":5126,
			"count":2,
			"type":"VEC3"
		},
		{
			"bufferView":131,
			"componentType":5126,
			"count":2,
			"type":"VEC4"
		},
		{
			"bufferView":132,
			"componentType":5126,
			"count":2,
			"type":"VEC3"
		},
		{
			"bufferView":133,
			"componentType":5126,
			"count":2,
			"type":"VEC4"
		},
		{
			"bufferView":134,
			"componentType":5126,
			"count":2,
			"type":"VEC3"
		},
		{
			"bufferView":135,
			"componentType":5126,
			"count":2,
			"type":"VEC3"
		},
		{
			"bufferView":136,
			"componentType":5126,
			"count":2,
			"type":"VEC4"
		},
		{
			"bufferView":137,
			"componentType":5126,
			"count":2,
			"type":"VEC3"
		},
		{
			"bufferView":138,
			"componentType":5126,
			"count":2,
			"type":"VEC4"
		},
		{
			"bufferView":139,
			"componentType":5126,
			"count":2,
			"type":"VEC3"
		},
		{
			"bufferView":140,
			"componentType":5126,
			"count":2,
			"type":"VEC4"
		},
		{
			"bufferView":141,
			"componentType":5126,
			"count":2,
			"type":"VEC3"
		},
		{
			"bufferView":142,
			"componentType":5126,
			"count":2,
			"type":"VEC3"
		},
		{
			"bufferView":143,
			"componentType":5126,
			"count":2,
			"type":"VEC3"
		},
		{
			"bufferView":144,
			"componentType":5126,
			"count":2,
			"type":"VEC4"
		},
		{
			"bufferView":145,
			"componentType":5126,
			"count":2,
			"type":"VEC3"
		},
		{
			"bufferView":146,
			"componentType":5126,
			"count":60,
			"type":"VEC4"
		},
		{
			"bufferView":147,
			"componentType":5126,
			"count":2,
			"type":"VEC3"
		},
		{
			"bufferView":148,
			"componentType":5126,
			"count":2,
			"type":"VEC4"
		},
		{
			"bufferView":149,
			"componentType":5126,
			"count":2,
			"type":"VEC3"
		},
		{
			"bufferView":150,
			"componentType":5126,
			"count":2,
			"type":"VEC3"
		},
		{
			"bufferView":151,
			"componentType":5126,
			"count":60,
			"type":"VEC4"
		},
		{
			"bufferView":152,
			"componentType":5126,
			"count":2,
			"type":"VEC4"
		},
		{
			"bufferView":153,
			"componentType":5126,
			"count":2,
			"type":"VEC3"
		},
		{
			"bufferView":154,
			"componentType":5126,
			"count":60,
			"type":"VEC4"
		},
		{
			"bufferView":155,
			"componentType":5126,
			"count":2,
			"type":"VEC3"
		},
		{
			"bufferView":156,
			"componentType":5126,
			"count":2,
			"type":"VEC4"
		},
		{
			"bufferView":157,
			"componentType":5126,
			"count":2,
			"type":"VEC3"
		},
		{
			"bufferView":158,
			"componentType":5126,
			"count":2,
			"type":"VEC4"
		},
		{
			"bufferView":159,
			"componentType":5126,
			"count":2,
			"type":"VEC4"
		},
		{
			"bufferView":160,
			"componentType":5126,
			"count":2,
			"type":"VEC3"
		},
		{
			"bufferView":161,
			"componentType":5126,
			"count":2,
			"type":"VEC3"
		},
		{
			"bufferView":162,
			"componentType":5126,
			"count":60,
			"type":"VEC4"
		},
		{
			"bufferView":163,
			"componentType":5126,
			"count":2,
			"type":"VEC3"
		},
		{
			"bufferView":164,
			"componentType":5126,
			"count":2,
			"type":"VEC4"
		},
		{
			"bufferView":165,
			"componentType":5126,
			"count":2,
			"type":"VEC3"
		},
		{
			"bufferView":166,
			"componentType":5126,
			"count":2,
			"type":"VEC4"
		},
		{
			"bufferView":167,
			"componentType":5126,
			"count":2,
			"type":"VEC3"
		},
		{
			"bufferView":168,
			"componentType":5126,
			"count":60,
			"type":"VEC4"
		},
		{
			"bufferView":169,
			"componentType":5126,
			"count":2,
			"type":"VEC3"
		},
		{
			"bufferView":170,
			"componentType":5126,
			"count":2,
			"type":"VEC3"
		},
		{
			"bufferView":171,
			"componentType":5126,
			"count":2,
			"type":"VEC4"
		},
		{
			"bufferView":172,
			"componentType":5126,
			"count":2,
			"type":"VEC3"
		},
		{
			"bufferView":173,
			"componentType":5126,
			"count":2,
			"type":"VEC4"
		},
		{
			"bufferView":174,
			"componentType":5126,
			"count":2,
			"type":"VEC4"
		},
		{
			"bufferView":175,
			"componentType":5126,
			"count":2,
			"type":"VEC3"
		},
		{
			"bufferView":176,
			"componentType":5126,
			"count":2,
			"type":"VEC3"
		},
		{
			"bufferView":177,
			"componentType":5126,
			"count":60,
			"type":"VEC4"
		},
		{
			"bufferView":178,
			"componentType":5126,
			"count":2,
			"type":"VEC3"
		},
		{
			"bufferView":179,
			"componentType":5126,
			"count":2,
			"type":"VEC4"
		},
		{
			"bufferView":180,
			"componentType":5126,
			"count":2,
			"type":"VEC3"
		},
		{
			"bufferView":181,
			"componentType":5126,
			"count":2,
			"type":"VEC3"
		},
		{
			"bufferView":182,
			"componentType":5126,
			"count":2,
			"type":"VEC4"
		},
		{
			"bufferView":183,
			"componentType":5126,
			"count":2,
			"type":"VEC3"
		},
		{
			"bufferView":184,
			"componentType":5126,
			"count":2,
			"type":"VEC4"
		},
		{
			"bufferView":185,
			"componentType":5126,
			"count":2,
			"type":"VEC3"
		},
		{
			"bufferView":186,
			"componentType":5126,
			"count":2,
			"type":"VEC3"
		},
		{
			"bufferView":187,
			"componentType":5126,
			"count":60,
			"type":"VEC4"
		},
		{
			"bufferView":188,
			"componentType":5126,
			"count":2,
			"type":"VEC3"
		},
		{
			"bufferView":189,
			"componentType":5126,
			"count":2,
			"type":"VEC4"
		},
		{
			"bufferView":190,
			"componentType":5126,
			"count":2,
			"type":"VEC3"
		},
		{
			"bufferView":191,
			"componentType":5126,
			"count":2,
			"type":"VEC3"
		},
		{
			"bufferView":192,
			"componentType":5126,
			"count":60,
			"type":"VEC4"
		},
		{
			"bufferView":193,
			"componentType":5126,
			"count":2,
			"type":"VEC4"
		},
		{
			"bufferView":194,
			"componentType":5126,
			"count":2,
			"type":"VEC3"
		},
		{
			"bufferView":195,
			"componentType":5126,
			"count":60,
			"type":"VEC4"
		},
		{
			"bufferView":196,
			"componentType":5126,
			"count":2,
			"type":"VEC3"
		},
		{
			"bufferView":197,
			"componentType":5126,
			"count":2,
			"type":"VEC4"
		},
		{
			"bufferView":198,
			"componentType":5126,
			"count":2,
			"type":"VEC3"
		},
		{
			"bufferView":199,
			"componentType":5126,
			"count":2,
			"type":"VEC3"
		},
		{
			"bufferView":200,
			"componentType":5126,
			"count":2,
			"type":"VEC4"
		},
		{
			"bufferView":201,
			"componentType":5126,
			"count":2,
			"type":"VEC3"
		},
		{
			"bufferView":202,
			"componentType":5126,
			"count":2,
			"type":"VEC3"
		},
		{
			"bufferView":203,
			"componentType":5126,
			"count":2,
			"type":"VEC3"
		},
		{
			"bufferView":204,
			"componentType":5126,
			"count":60,
			"type":"VEC4"
		},
		{
			"bufferView":205,
			"componentType":5126,
			"count":2,
			"type":"VEC3"
		},
		{
			"bufferView":206,
			"componentType":5126,
			"count":2,
			"type":"VEC3"
		},
		{
			"bufferView":207,
			"componentType":5126,
			"count":2,
			"type":"VEC4"
		},
		{
			"bufferView":208,
			"componentType":5126,
			"count":2,
			"type":"VEC3"
		},
		{
			"bufferView":209,
			"componentType":5126,
			"count":2,
			"type":"VEC3"
		},
		{
			"bufferView":210,
			"componentType":5126,
			"count":2,
			"type":"VEC4"
		},
		{
			"bufferView":211,
			"componentType":5126,
			"count":2,
			"type":"VEC4"
		},
		{
			"bufferView":212,
			"componentType":5126,
			"count":2,
			"type":"VEC3"
		},
		{
			"bufferView":213,
			"componentType":5126,
			"count":2,
			"type":"VEC4"
		},
		{
			"bufferView":214,
			"componentType":5126,
			"count":2,
			"type":"VEC3"
		},
		{
			"bufferView":215,
			"componentType":5126,
			"count":2,
			"type":"VEC3"
		},
		{
			"bufferView":216,
			"componentType":5126,
			"count":2,
			"type":"VEC4"
		},
		{
			"bufferView":217,
			"componentType":5126,
			"count":2,
			"type":"VEC3"
		},
		{
			"bufferView":218,
			"componentType":5126,
			"count":2,
			"type":"VEC4"
		},
		{
			"bufferView":219,
			"componentType":5126,
			"count":2,
			"type":"VEC3"
		},
		{
			"bufferView":220,
			"componentType":5126,
			"count":2,
			"type":"VEC4"
		},
		{
			"bufferView":221,
			"componentType":5126,
			"count":2,
			"type":"VEC3"
		},
		{
			"bufferView":222,
			"componentType":5126,
			"count":2,
			"type":"VEC4"
		}
	],
	"bufferViews":[
		{
			"buffer":0,
			"byteLength":23808,
			"byteOffset":0,
			"target":34962
		},
		{
			"buffer":0,
			"byteLength":23808,
			"byteOffset":23808,
			"target":34962
		},
		{
			"buffer":0,
			"byteLength":15872,
			"byteOffset":47616,
			"target":34962
		},
		{
			"buffer":0,
			"byteLength":7936,
			"byteOffset":63488,
			"target":34962
		},
		{
			"buffer":0,
			"byteLength":31744,
			"byteOffset":71424,
			"target":34962
		},
		{
			"buffer":0,
			"byteLength":5760,
			"byteOffset":103168,
			"target":34963
		},
		{
			"buffer":0,
			"byteLength":1536,
			"byteOffset":108928,
			"target":34962
		},
		{
			"buffer":0,
			"byteLength":1536,
			"byteOffset":110464,
			"target":34962
		},
		{
			"buffer":0,
			"byteLength":1024,
			"byteOffset":112000,
			"target":34962
		},
		{
			"buffer":0,
			"byteLength":512,
			"byteOffset":113024,
			"target":34962
		},
		{
			"buffer":0,
			"byteLength":2048,
			"byteOffset":113536,
			"target":34962
		},
		{
			"buffer":0,
			"byteLength":372,
			"byteOffset":115584,
			"target":34963
		},
		{
			"buffer":0,
			"byteLength":23808,
			"byteOffset":115956,
			"target":34962
		},
		{
			"buffer":0,
			"byteLength":23808,
			"byteOffset":139764,
			"target":34962
		},
		{
			"buffer":0,
			"byteLength":15872,
			"byteOffset":163572,
			"target":34962
		},
		{
			"buffer":0,
			"byteLength":7936,
			"byteOffset":179444,
			"target":34962
		},
		{
			"buffer":0,
			"byteLength":31744,
			"byteOffset":187380,
			"target":34962
		},
		{
			"buffer":0,
			"byteLength":5760,
			"byteOffset":219124,
			"target":34963
		},
		{
			"buffer":0,
			"byteLength":23808,
			"byteOffset":224884,
			"target":34962
		},
		{
			"buffer":0,
			"byteLength":23808,
			"byteOffset":248692,
			"target":34962
		},
		{
			"buffer":0,
			"byteLength":15872,
			"byteOffset":272500,
			"target":34962
		},
		{
			"buffer":0,
			"byteLength":7936,
			"byteOffset":288372,
			"target":34962
		},
		{
			"buffer":0,
			"byteLength":31744,
			"byteOffset":296308,
			"target":34962
		},
		{
			"buffer":0,
			"byteLength":2688,
			"byteOffset":328052
		},
		{
			"buffer":0,
			"byteLength":8,
			"byteOffset":330740
		},
		{
			"buffer":0,
			"byteLength":24,
			"byteOffset":330748
		},
		{
			"buffer":0,
			"byteLength":240,
			"byteOffset":330772
		},
		{
			"buffer":0,
			"byteLength":960,
			"byteOffset":331012
		},
		{
			"buffer":0,
			"byteLength":24,
			"byteOffset":331972
		},
		{
			"buffer":0,
			"byteLength":24,
			"byteOffset":331996
		},
		{
			"buffer":0,
			"byteLength":32,
			"byteOffset":332020
		},
		{
			"buffer":0,
			"byteLength":24,
			"byteOffset":332052
		},
		{
			"buffer":0,
			"byteLength":24,
			"byteOffset":332076
		},
		{
			"buffer":0,
			"byteLength":24,
			"byteOffset":332100
		},
		{
			"buffer":0,
			"byteLength":32,
			"byteOffset":332124
		},
		{
			"buffer":0,
			"byteLength":24,
			"byteOffset":332156
		},
		{
			"buffer":0,
			"byteLength":32,
			"byteOffset":332180
		},
		{
			"buffer":0,
			"byteLength":24,
			"byteOffset":332212
		},
		{
			"buffer":0,
			"byteLength":24,
			"byteOffset":332236
		},
		{
			"buffer":0,
			"byteLength":32,
			"byteOffset":332260
		},
		{
			"buffer":0,
			"byteLength":24,
			"byteOffset":332292
		},
		{
			"buffer":0,
			"byteLength":24,
			"byteOffset":332316
		},
		{
			"buffer":0,
			"byteLength":32,
			"byteOffset":332340
		},
		{
			"buffer":0,
			"byteLength":24,
			"byteOffset":332372
		},
		{
			"buffer":0,
			"byteLength":24,
			"byteOffset":332396
		},
		{
			"buffer":0,
			"byteLength":32,
			"byteOffset":332420
		},
		{
			"buffer":0,
			"byteLength":24,
			"byteOffset":332452
		},
		{
			"buffer":0,
			"byteLength":24,
			"byteOffset":332476
		},
		{
			"buffer":0,
			"byteLength":32,
			"byteOffset":332500
		},
		{
			"buffer":0,
			"byteLength":24,
			"byteOffset":332532
		},
		{
			"buffer":0,
			"byteLength":24,
			"byteOffset":332556
		},
		{
			"buffer":0,
			"byteLength":32,
			"byteOffset":332580
		},
		{
			"buffer":0,
			"byteLength":24,
			"byteOffset":332612
		},
		{
			"buffer":0,
			"byteLength":24,
			"byteOffset":332636
		},
		{
			"buffer":0,
			"byteLength":32,
			"byteOffset":332660
		},
		{
			"buffer":0,
			"byteLength":24,
			"byteOffset":332692
		},
		{
			"buffer":0,
			"byteLength":24,
			"byteOffset":332716
		},
		{
			"buffer":0,
			"byteLength":32,
			"byteOffset":332740
		},
		{
			"buffer":0,
			"byteLength":24,
			"byteOffset":332772
		},
		{
			"buffer":0,
			"byteLength":24,
			"byteOffset":332796
		},
		{
			"buffer":0,
			"byteLength":32,
			"byteOffset":332820
		},
		{
			"buffer":0,
			"byteLength":24,
			"byteOffset":332852
		},
		{
			"buffer":0,
			"byteLength":24,
			"byteOffset":332876
		},
		{
			"buffer":0,
			"byteLength":32,
			"byteOffset":332900
		},
		{
			"buffer":0,
			"byteLength":24,
			"byteOffset":332932
		},
		{
			"buffer":0,
			"byteLength":32,
			"byteOffset":332956
		},
		{
			"buffer":0,
			"byteLength":24,
			"byteOffset":332988
		},
		{
			"buffer":0,
			"byteLength":32,
			"byteOffset":333012
		},
		{
			"buffer":0,
			"byteLength":24,
			"byteOffset":333044
		},
		{
			"buffer":0,
			"byteLength":24,
			"byteOffset":333068
		},
		{
			"buffer":0,
			"byteLength":32,
			"byteOffset":333092
		},
		{
			"buffer":0,
			"byteLength":24,
			"byteOffset":333124
		},
		{
			"buffer":0,
			"byteLength":24,
			"byteOffset":333148
		},
		{
			"buffer":0,
			"byteLength":32,
			"byteOffset":333172
		},
		{
			"buffer":0,
			"byteLength":24,
			"byteOffset":333204
		},
		{
			"buffer":0,
			"byteLength":24,
			"byteOffset":333228
		},
		{
			"buffer":0,
			"byteLength":32,
			"byteOffset":333252
		},
		{
			"buffer":0,
			"byteLength":24,
			"byteOffset":333284
		},
		{
			"buffer":0,
			"byteLength":24,
			"byteOffset":333308
		},
		{
			"buffer":0,
			"byteLength":32,
			"byteOffset":333332
		},
		{
			"buffer":0,
			"byteLength":24,
			"byteOffset":333364
		},
		{
			"buffer":0,
			"byteLength":24,
			"byteOffset":333388
		},
		{
			"buffer":0,
			"byteLength":32,
			"byteOffset":333412
		},
		{
			"buffer":0,
			"byteLength":24,
			"byteOffset":333444
		},
		{
			"buffer":0,
			"byteLength":24,
			"byteOffset":333468
		},
		{
			"buffer":0,
			"byteLength":32,
			"byteOffset":333492
		},
		{
			"buffer":0,
			"byteLength":24,
			"byteOffset":333524
		},
		{
			"buffer":0,
			"byteLength":24,
			"byteOffset":333548
		},
		{
			"buffer":0,
			"byteLength":32,
			"byteOffset":333572
		},
		{
			"buffer":0,
			"byteLength":24,
			"byteOffset":333604
		},
		{
			"buffer":0,
			"byteLength":24,
			"byteOffset":333628
		},
		{
			"buffer":0,
			"byteLength":32,
			"byteOffset":333652
		},
		{
			"buffer":0,
			"byteLength":24,
			"byteOffset":333684
		},
		{
			"buffer":0,
			"byteLength":24,
			"byteOffset":333708
		},
		{
			"buffer":0,
			"byteLength":32,
			"byteOffset":333732
		},
		{
			"buffer":0,
			"byteLength":24,
			"byteOffset":333764
		},
		{
			"buffer":0,
			"byteLength":24,
			"byteOffset":333788
		},
		{
			"buffer":0,
			"byteLength":32,
			"byteOffset":333812
		},
		{
			"buffer":0,
			"byteLength":24,
			"byteOffset":333844
		},
		{
			"buffer":0,
			"byteLength":24,
			"byteOffset":333868
		},
		{
			"buffer":0,
			"byteLength":32,
			"byteOffset":333892
		},
		{
			"buffer":0,
			"byteLength":24,
			"byteOffset":333924
		},
		{
			"buffer":0,
			"byteLength":24,
			"byteOffset":333948
		},
		{
			"buffer":0,
			"byteLength":32,
			"byteOffset":333972
		},
		{
			"buffer":0,
			"byteLength":24,
			"byteOffset":334004
		},
		{
			"buffer":0,
			"byteLength":24,
			"byteOffset":334028
		},
		{
			"buffer":0,
			"byteLength":32,
			"byteOffset":334052
		},
		{
			"buffer":0,
			"byteLength":24,
			"byteOffset":334084
		},
		{
			"buffer":0,
			"byteLength":32,
			"byteOffset":334108
		},
		{
			"buffer":0,
			"byteLength":24,
			"byteOffset":334140
		},
		{
			"buffer":0,
			"byteLength":24,
			"byteOffset":334164
		},
		{
			"buffer":0,
			"byteLength":32,
			"byteOffset":334188
		},
		{
			"buffer":0,
			"byteLength":24,
			"byteOffset":334220
		},
		{
			"buffer":0,
			"byteLength":24,
			"byteOffset":334244
		},
		{
			"buffer":0,
			"byteLength":32,
			"byteOffset":334268
		},
		{
			"buffer":0,
			"byteLength":24,
			"byteOffset":334300
		},
		{
			"buffer":0,
			"byteLength":24,
			"byteOffset":334324
		},
		{
			"buffer":0,
			"byteLength":32,
			"byteOffset":334348
		},
		{
			"buffer":0,
			"byteLength":24,
			"byteOffset":334380
		},
		{
			"buffer":0,
			"byteLength":24,
			"byteOffset":334404
		},
		{
			"buffer":0,
			"byteLength":32,
			"byteOffset":334428
		},
		{
			"buffer":0,
			"byteLength":24,
			"byteOffset":334460
		},
		{
			"buffer":0,
			"byteLength":24,
			"byteOffset":334484
		},
		{
			"buffer":0,
			"byteLength":32,
			"byteOffset":334508
		},
		{
			"buffer":0,
			"byteLength":24,
			"byteOffset":334540
		},
		{
			"buffer":0,
			"byteLength":960,
			"byteOffset":334564
		},
		{
			"buffer":0,
			"byteLength":24,
			"byteOffset":335524
		},
		{
			"buffer":0,
			"byteLength":24,
			"byteOffset":335548
		},
		{
			"buffer":0,
			"byteLength":32,
			"byteOffset":335572
		},
		{
			"buffer":0,
			"byteLength":24,
			"byteOffset":335604
		},
		{
			"buffer":0,
			"byteLength":24,
			"byteOffset":335628
		},
		{
			"buffer":0,
			"byteLength":32,
			"byteOffset":335652
		},
		{
			"buffer":0,
			"byteLength":24,
			"byteOffset":335684
		},
		{
			"buffer":0,
			"byteLength":32,
			"byteOffset":335708
		},
		{
			"buffer":0,
			"byteLength":24,
			"byteOffset":335740
		},
		{
			"buffer":0,
			"byteLength":24,
			"byteOffset":335764
		},
		{
			"buffer":0,
			"byteLength":32,
			"byteOffset":335788
		},
		{
			"buffer":0,
			"byteLength":24,
			"byteOffset":335820
		},
		{
			"buffer":0,
			"byteLength":32,
			"byteOffset":335844
		},
		{
			"buffer":0,
			"byteLength":24,
			"byteOffset":335876
		},
		{
			"buffer":0,
			"byteLength":32,
			"byteOffset":335900
		},
		{
			"buffer":0,
			"byteLength":24,
			"byteOffset":335932
		},
		{
			"buffer":0,
			"byteLength":24,
			"byteOffset":335956
		},
		{
			"buffer":0,
			"byteLength":24,
			"byteOffset":335980
		},
		{
			"buffer":0,
			"byteLength":32,
			"byteOffset":336004
		},
		{
			"buffer":0,
			"byteLength":24,
			"byteOffset":336036
		},
		{
			"buffer":0,
			"byteLength":960,
			"byteOffset":336060
		},
		{
			"buffer":0,
			"byteLength":24,
			"byteOffset":337020
		},
		{
			"buffer":0,
			"byteLength":32,
			"byteOffset":337044
		},
		{
			"buffer":0,
			"byteLength":24,
			"byteOffset":337076
		},
		{
			"buffer":0,
			"byteLength":24,
			"byteOffset":337100
		},
		{
			"buffer":0,
			"byteLength":960,
			"byteOffset":337124
		},
		{
			"buffer":0,
			"byteLength":32,
			"byteOffset":338084
		},
		{
			"buffer":0,
			"byteLength":24,
			"byteOffset":338116
		},
		{
			"buffer":0,
			"byteLength":960,
			"byteOffset":338140
		},
		{
			"buffer":0,
			"byteLength":24,
			"byteOffset":339100
		},
		{
			"buffer":0,
			"byteLength":32,
			"byteOffset":339124
		},
		{
			"buffer":0,
			"byteLength":24,
			"byteOffset":339156
		},
		{
			"buffer":0,
			"byteLength":32,
			"byteOffset":339180
		},
		{
			"buffer":0,
			"byteLength":32,
			"byteOffset":339212
		},
		{
			"buffer":0,
			"byteLength":24,
			"byteOffset":339244
		},
		{
			"buffer":0,
			"byteLength":24,
			"byteOffset":339268
		},
		{
			"buffer":0,
			"byteLength":960,
			"byteOffset":339292
		},
		{
			"buffer":0,
			"byteLength":24,
			"byteOffset":340252
		},
		{
			"buffer":0,
			"byteLength":32,
			"byteOffset":340276
		},
		{
			"buffer":0,
			"byteLength":24,
			"byteOffset":340308
		},
		{
			"buffer":0,
			"byteLength":32,
			"byteOffset":340332
		},
		{
			"buffer":0,
			"byteLength":24,
			"byteOffset":340364
		},
		{
			"buffer":0,
			"byteLength":960,
			"byteOffset":340388
		},
		{
			"buffer":0,
			"byteLength":24,
			"byteOffset":341348
		},
		{
			"buffer":0,
			"byteLength":24,
			"byteOffset":341372
		},
		{
			"buffer":0,
			"byteLength":32,
			"byteOffset":341396
		},
		{
			"buffer":0,
			"byteLength":24,
			"byteOffset":341428
		},
		{
			"buffer":0,
			"byteLength":32,
			"byteOffset":341452
		},
		{
			"buffer":0,
			"byteLength":32,
			"byteOffset":341484
		},
		{
			"buffer":0,
			"byteLength":24,
			"byteOffset":341516
		},
		{
			"buffer":0,
			"byteLength":24,
			"byteOffset":341540
		},
		{
			"buffer":0,
			"byteLength":960,
			"byteOffset":341564
		},
		{
			"buffer":0,
			"byteLength":24,
			"byteOffset":342524
		},
		{
			"buffer":0,
			"byteLength":32,
			"byteOffset":342548
		},
		{
			"buffer":0,
			"byteLength":24,
			"byteOffset":342580
		},
		{
			"buffer":0,
			"byteLength":24,
			"byteOffset":342604
		},
		{
			"buffer":0,
			"byteLength":32,
			"byteOffset":342628
		},
		{
			"buffer":0,
			"byteLength":24,
			"byteOffset":342660
		},
		{
			"buffer":0,
			"byteLength":32,
			"byteOffset":342684
		},
		{
			"buffer":0,
			"byteLength":24,
			"byteOffset":342716
		},
		{
			"buffer":0,
			"byteLength":24,
			"byteOffset":342740
		},
		{
			"buffer":0,
			"byteLength":960,
			"byteOffset":342764
		},
		{
			"buffer":0,
			"byteLength":24,
			"byteOffset":343724
		},
		{
			"buffer":0,
			"byteLength":32,
			"byteOffset":343748
		},
		{
			"buffer":0,
			"byteLength":24,
			"byteOffset":343780
		},
		{
			"buffer":0,
			"byteLength":24,
			"byteOffset":343804
		},
		{
			"buffer":0,
			"byteLength":960,
			"byteOffset":343828
		},
		{
			"buffer":0,
			"byteLength":32,
			"byteOffset":344788
		},
		{
			"buffer":0,
			"byteLength":24,
			"byteOffset":344820
		},
		{
			"buffer":0,
			"byteLength":960,
			"byteOffset":344844
		},
		{
			"buffer":0,
			"byteLength":24,
			"byteOffset":345804
		},
		{
			"buffer":0,
			"byteLength":32,
			"byteOffset":345828
		},
		{
			"buffer":0,
			"byteLength":24,
			"byteOffset":345860
		},
		{
			"buffer":0,
			"byteLength":24,
			"byteOffset":345884
		},
		{
			"buffer":0,
			"byteLength":32,
			"byteOffset":345908
		},
		{
			"buffer":0,
			"byteLength":24,
			"byteOffset":345940
		},
		{
			"buffer":0,
			"byteLength":24,
			"byteOffset":345964
		},
		{
			"buffer":0,
			"byteLength":24,
			"byteOffset":345988
		},
		{
			"buffer":0,
			"byteLength":960,
			"byteOffset":346012
		},
		{
			"buffer":0,
			"byteLength":24,
			"byteOffset":346972
		},
		{
			"buffer":0,
			"byteLength":24,
			"byteOffset":346996
		},
		{
			"buffer":0,
			"byteLength":32,
			"byteOffset":347020
		},
		{
			"buffer":0,
			"byteLength":24,
			"byteOffset":347052
		},
		{
			"buffer":0,
			"byteLength":24,
			"byteOffset":347076
		},
		{
			"buffer":0,
			"byteLength":32,
			"byteOffset":347100
		},
		{
			"buffer":0,
			"byteLength":32,
			"byteOffset":347132
		},
		{
			"buffer":0,
			"byteLength":24,
			"byteOffset":347164
		},
		{
			"buffer":0,
			"byteLength":32,
			"byteOffset":347188
		},
		{
			"buffer":0,
			"byteLength":24,
			"byteOffset":347220
		},
		{
			"buffer":0,
			"byteLength":24,
			"byteOffset":347244
		},
		{
			"buffer":0,
			"byteLength":32,
			"byteOffset":347268
		},
		{
			"buffer":0,
			"byteLength":24,
			"byteOffset":347300
		},
		{
			"buffer":0,
			"byteLength":32,
			"byteOffset":347324
		},
		{
			"buffer":0,
			"byteLength":24,
			"byteOffset":347356
		},
		{
			"buffer":0,
			"byteLength":32,
			"byteOffset":347380
		},
		{
			"buffer":0,
			"byteLength":24,
			"byteOffset":347412
		},
		{
			"buffer":0,
			"byteLength":32,
			"byteOffset":347436
		}
	],
	"buffers":[
		{
			"byteLength":347468,
			"uri":"weatherDoll.bin"
		}
	]
}
