{
	"asset":{
		"generator":"Khronos glTF Blender I/O v5.1.20",
		"version":"2.0"
	},
	"scene":0,
	"scenes":[
		{
			"name":"Scene",
			"nodes":[
				0,
				1,
				2
			]
		}
	],
	"nodes":[
		{
			"mesh":0,
			"name":"\u5186\u67f1",
			"scale":[
				1,
				2.8728017807006836,
				1
			]
		},
		{
			"mesh":1,
			"name":"\u7acb\u65b9\u4f53",
			"scale":[
				1,
				1,
				4.319797515869141
			],
			"translation":[
				0,
				3.8023972511291504,
				0
			]
		},
		{
			"mesh":2,
			"name":"\u7acb\u65b9\u4f53.001",
			"scale":[
				0.9422008991241455,
				8.15776538848877,
				2.5390820503234863
			],
			"translation":[
				0,
				12.886467933654785,
				0
			]
		}
	],
	"materials":[
		{
			"doubleSided":true,
			"name":"\u753b\u50cf\u30de\u30c6\u8336",
			"pbrMetallicRoughness":{
				"baseColorTexture":{
					"index":0
				},
				"metallicFactor":0,
				"roughnessFactor":0.5
			}
		}
	],
	"meshes":[
		{
			"name":"\u5186\u67f1",
			"primitives":[
				{
					"attributes":{
						"POSITION":0,
						"NORMAL":1,
						"TEXCOORD_0":2
					},
					"indices":3,
					"material":0
				}
			]
		},
		{
			"name":"\u7acb\u65b9\u4f53",
			"primitives":[
				{
					"attributes":{
						"POSITION":4,
						"NORMAL":5,
						"TEXCOORD_0":6
					},
					"indices":7,
					"material":0
				}
			]
		},
		{
			"name":"\u7acb\u65b9\u4f53.001",
			"primitives":[
				{
					"attributes":{
						"POSITION":8,
						"NORMAL":9,
						"TEXCOORD_0":10
					},
					"indices":11,
					"material":0
				}
			]
		}
	],
	"textures":[
		{
			"sampler":0,
			"source":0
		}
	],
	"images":[
		{
			"mimeType":"image/png",
			"name":"Sword",
			"uri":"Sword.png"
		}
	],
	"accessors":[
		{
			"bufferView":0,
			"componentType":5126,
			"count":1794,
			"max":[
				1,
				1,
				1.915095567703247
			],
			"min":[
				-1,
				-1.05085289478302,
				-1.7673391103744507
			],
			"type":"VEC3"
		},
		{
			"bufferView":1,
			"componentType":5126,
			"count":1794,
			"type":"VEC3"
		},
		{
			"bufferView":2,
			"componentType":5126,
			"count":1794,
			"type":"VEC2"
		},
		{
			"bufferView":3,
			"componentType":5123,
			"count":1908,
			"type":"SCALAR"
		},
		{
			"bufferView":4,
			"componentType":5126,
			"count":391,
			"max":[
				1.6024019718170166,
				1.476003885269165,
				1.5797820091247559
			],
			"min":[
				-1.792482852935791,
				-1.8296756744384766,
				-1.4392309188842773
			],
			"type":"VEC3"
		},
		{
			"bufferView":5,
			"componentType":5126,
			"count":391,
			"type":"VEC3"
		},
		{
			"bufferView":6,
			"componentType":5126,
			"count":391,
			"type":"VEC2"
		},
		{
			"bufferView":7,
			"componentType":5123,
			"count":432,
			"type":"SCALAR"
		},
		{
			"bufferView":8,
			"componentType":5126,
			"count":545,
			"max":[
				1,
				1.4610146284103394,
				1.7354841232299805
			],
			"min":[
				-1,
				-1,
				-1.7979390621185303
			],
			"type":"VEC3"
		},
		{
			"bufferView":9,
			"componentType":5126,
			"count":545,
			"type":"VEC3"
		},
		{
			"bufferView":10,
			"componentType":5126,
			"count":545,
			"type":"VEC2"
		},
		{
			"bufferView":11,
			"componentType":5123,
			"count":624,
			"type":"SCALAR"
		}
	],
	"bufferViews":[
		{
			"buffer":0,
			"byteLength":21528,
			"byteOffset":0,
			"target":34962
		},
		{
			"buffer":0,
			"byteLength":21528,
			"byteOffset":21528,
			"target":34962
		},
		{
			"buffer":0,
			"byteLength":14352,
			"byteOffset":43056,
			"target":34962
		},
		{
			"buffer":0,
			"byteLength":3816,
			"byteOffset":57408,
			"target":34963
		},
		{
			"buffer":0,
			"byteLength":4692,
			"byteOffset":61224,
			"target":34962
		},
		{
			"buffer":0,
			"byteLength":4692,
			"byteOffset":65916,
			"target":34962
		},
		{
			"buffer":0,
			"byteLength":3128,
			"byteOffset":70608,
			"target":34962
		},
		{
			"buffer":0,
			"byteLength":864,
			"byteOffset":73736,
			"target":34963
		},
		{
			"buffer":0,
			"byteLength":6540,
			"byteOffset":74600,
			"target":34962
		},
		{
			"buffer":0,
			"byteLength":6540,
			"byteOffset":81140,
			"target":34962
		},
		{
			"buffer":0,
			"byteLength":4360,
			"byteOffset":87680,
			"target":34962
		},
		{
			"buffer":0,
			"byteLength":1248,
			"byteOffset":92040,
			"target":34963
		}
	],
	"samplers":[
		{
			"magFilter":9729,
			"minFilter":9987
		}
	],
	"buffers":[
		{
			"byteLength":93288,
			"uri":"Sword.bin"
		}
	]
}
