# Blender 5.0.1
# www.blender.org
mtllib GrassBlade.mtl
o GrassBlade
v 0.000000 0.000000 -0.050000
v -0.000000 0.000000 0.050000
v 0.000000 1.000000 0.000000
v 0.000000 0.833333 -0.010919
v 0.000000 0.666667 -0.021194
v 0.000000 0.500000 -0.030233
v 0.000000 0.333333 -0.038372
v 0.000000 0.166667 -0.044818
v 0.000000 0.833333 0.010919
v 0.000000 0.666667 0.021194
v 0.000000 0.500000 0.030233
v 0.000000 0.333333 0.038372
v -0.000000 0.166667 0.044818
v -0.025000 0.000000 -0.000000
v -0.010000 0.666667 -0.000000
v -0.025000 0.166667 -0.000000
v -0.015000 0.500000 -0.000000
v -0.020000 0.333333 -0.000000
v -0.005000 0.833333 -0.000000
v 0.000000 0.083333 -0.047409
v -0.000000 0.083333 0.047409
v -0.025000 0.083333 -0.000000
v 0.000000 0.250000 -0.041595
v 0.000000 0.250000 0.041595
v -0.022500 0.250000 -0.000000
v 0.000000 0.416667 -0.034303
v 0.000000 0.416667 0.034303
v -0.017500 0.416667 -0.000000
v 0.000000 0.583333 -0.025714
v 0.000000 0.583333 0.025714
v -0.012500 0.583333 -0.000000
v 0.000000 0.750000 -0.016056
v 0.000000 0.750000 0.016056
v -0.007500 0.750000 -0.000000
v 0.000000 0.916667 -0.005459
v 0.000000 0.916667 0.005459
v -0.002500 0.916667 -0.000000
vn -0.8754 0.0119 0.4833
vn -0.8826 0.0047 0.4701
vn -0.8864 0.0098 0.4628
vn -0.9089 0.0273 -0.4162
vn -0.9087 0.0272 -0.4167
vn -0.9059 0.0267 -0.4227
vn -0.9056 0.0266 -0.4234
vn -0.8995 0.0256 -0.4362
vn -0.9035 0.0264 -0.4277
vn -0.8986 0.0250 -0.4380
vn -0.8911 0.0250 -0.4531
vn -0.8948 0.0249 -0.4457
vn -0.8899 0.0239 -0.4555
vn -0.8804 0.0237 -0.4736
vn -0.8853 0.0233 -0.4644
vn -0.8783 0.0211 -0.4777
vn -0.8870 0.0252 0.4610
vn -0.8899 0.0239 0.4555
vn -0.8911 0.0250 0.4531
vn -0.8826 0.0047 -0.4701
vn -0.8754 0.0119 -0.4833
vn -0.8864 0.0098 -0.4628
vn -0.8743 0.0106 0.4853
vn -0.8783 0.0211 0.4777
vn -0.8804 0.0237 0.4736
vn -0.9089 0.0273 0.4162
vn -0.9042 0.0268 0.4263
vn -0.9056 0.0266 0.4234
vn -0.9059 0.0267 0.4227
vn -0.8959 0.0258 0.4435
vn -0.8986 0.0250 0.4380
vn -0.8995 0.0256 0.4361
vn -0.8908 0.0088 -0.4542
vn -0.8943 0.0139 -0.4472
vn -0.8908 0.0088 0.4542
vn -0.8943 0.0139 0.4472
vn -0.8853 0.0233 0.4644
vn -0.8743 0.0106 -0.4853
vn -0.8948 0.0249 0.4457
vn -0.8870 0.0252 -0.4610
vn -0.9035 0.0264 0.4277
vn -0.8959 0.0258 -0.4435
vn -0.9087 0.0272 0.4167
vn -0.9042 0.0268 -0.4263
vt 0.106974 0.166587
vt 0.055879 0.083262
vt 0.109408 0.083319
vt 0.055820 0.832900
vt 0.049804 0.916468
vt 0.043797 0.833050
vt 0.055822 0.749447
vt 0.038087 0.749671
vt 0.055831 0.582616
vt 0.032381 0.666319
vt 0.027234 0.582988
vt 0.055844 0.415857
vt 0.022087 0.499674
vt 0.017342 0.416375
vt 0.055860 0.249202
vt 0.012596 0.333091
vt 0.008614 0.249819
vt 0.055852 0.332503
vt 0.094347 0.416382
vt 0.004764 0.166576
vt 0.002350 0.083306
vt 0.055869 0.166211
vt 0.103106 0.249828
vt 0.055824 0.999967
vt 0.055820 0.916393
vt 0.061835 0.916468
vt 0.055826 0.666021
vt 0.073557 0.749672
vt 0.055837 0.499229
vt 0.084428 0.582992
vt 0.055889 0.000033
vt 0.000033 0.000033
vt 0.111744 0.000048
vt 0.099107 0.333099
vt 0.089587 0.499680
vt 0.079271 0.666322
vt 0.067843 0.833050
s 1
f 13/1/1 22/2/2 21/3/3
f 19/4/4 35/5/4 4/6/5
f 34/7/6 4/6/5 32/8/7
f 31/9/8 5/10/9 29/11/10
f 28/12/11 6/13/12 26/14/13
f 25/15/14 7/16/15 23/17/16
f 18/18/17 27/19/18 28/12/19
f 22/2/20 8/20/21 20/21/22
f 16/22/23 24/23/24 25/15/25
f 3/24/26 37/25/26 36/26/26
f 15/27/27 33/28/28 34/7/29
f 17/29/30 30/30/31 31/9/32
f 14/31/33 20/21/22 1/32/34
f 21/3/3 14/31/35 2/33/36
f 25/15/25 12/34/37 18/18/17
f 16/22/38 23/17/16 8/20/21
f 28/12/19 11/35/39 17/29/30
f 18/18/40 26/14/13 7/16/15
f 31/9/32 10/36/41 15/27/27
f 17/29/42 29/11/10 6/13/12
f 34/7/29 9/37/43 19/4/26
f 15/27/44 32/8/7 5/10/9
f 36/26/26 19/4/26 9/37/43
f 35/5/4 37/25/4 3/24/4
f 13/1/1 16/22/23 22/2/2
f 19/4/4 37/25/4 35/5/4
f 34/7/6 19/4/4 4/6/5
f 31/9/8 15/27/44 5/10/9
f 28/12/11 17/29/42 6/13/12
f 25/15/14 18/18/40 7/16/15
f 18/18/17 12/34/37 27/19/18
f 22/2/20 16/22/38 8/20/21
f 16/22/23 13/1/1 24/23/24
f 15/27/27 10/36/41 33/28/28
f 17/29/30 11/35/39 30/30/31
f 14/31/33 22/2/20 20/21/22
f 21/3/3 22/2/2 14/31/35
f 25/15/25 24/23/24 12/34/37
f 16/22/38 25/15/14 23/17/16
f 28/12/19 27/19/18 11/35/39
f 18/18/40 28/12/11 26/14/13
f 31/9/32 30/30/31 10/36/41
f 17/29/42 31/9/8 29/11/10
f 34/7/29 33/28/28 9/37/43
f 15/27/44 34/7/6 32/8/7
f 36/26/26 37/25/26 19/4/26
