{
	"asset":{
		"generator":"Khronos glTF Blender I/O v4.5.51",
		"version":"2.0"
	},
	"scene":0,
	"scenes":[
		{
			"name":"Scene",
			"nodes":[
				17
			]
		}
	],
	"nodes":[
		{
			"name":"\u30dc\u30fc\u30f3.002",
			"rotation":[
				0,
				1.4210854715202004e-14,
				0,
				1
			],
			"translation":[
				0,
				0.868710458278656,
				0
			]
		},
		{
			"name":"\u30dc\u30fc\u30f3.012",
			"rotation":[
				0.6928318738937378,
				-9.85360712024274e-15,
				1.6518401935172733e-07,
				0.7210991382598877
			],
			"scale":[
				1,
				1,
				1.0000001192092896
			],
			"translation":[
				0,
				0.868710458278656,
				0
			]
		},
		{
			"name":"\u30dc\u30fc\u30f3.013",
			"rotation":[
				-0.7108578681945801,
				4.997783227035386e-15,
				-1.6948166603469872e-07,
				0.703335702419281
			],
			"translation":[
				0,
				0.868710458278656,
				0
			]
		},
		{
			"name":"\u30dc\u30fc\u30f3.014",
			"rotation":[
				-1.6462374219372577e-07,
				-4.43196457311501e-09,
				0.6937733888626099,
				0.7201933860778809
			],
			"scale":[
				1,
				0.9999999403953552,
				1
			],
			"translation":[
				0,
				0.868710458278656,
				0
			]
		},
		{
			"name":"\u30dc\u30fc\u30f3.015",
			"rotation":[
				1.1719313164348932e-07,
				-4.8935532959148986e-08,
				-0.7004052996635437,
				0.7137452960014343
			],
			"translation":[
				0,
				0.868710458278656,
				0
			]
		},
		{
			"children":[
				0,
				1,
				2,
				3,
				4
			],
			"name":"\u30dc\u30fc\u30f3.001",
			"rotation":[
				0,
				1.1920927533992653e-07,
				0,
				1
			],
			"scale":[
				1,
				0.9999999403953552,
				1
			],
			"translation":[
				0,
				0.934743344783783,
				0
			]
		},
		{
			"name":"\u30dc\u30fc\u30f3.008",
			"rotation":[
				0.01104728039354086,
				8.528151340669865e-08,
				-0.7070205211639404,
				0.7071067690849304
			],
			"translation":[
				0,
				0.0016454458236694336,
				0
			]
		},
		{
			"children":[
				6
			],
			"name":"\u30dc\u30fc\u30f3.007",
			"translation":[
				0,
				0.934743344783783,
				0
			]
		},
		{
			"name":"\u30dc\u30fc\u30f3.009",
			"rotation":[
				3.2551842110706275e-08,
				-2.781221297709635e-08,
				0.7203651070594788,
				0.6935951113700867
			],
			"translation":[
				0,
				0.934743344783783,
				0
			]
		},
		{
			"name":"\u30dc\u30fc\u30f3.010",
			"rotation":[
				0.7175474762916565,
				1.5469042431372107e-16,
				1.5472468944341546e-16,
				0.6965096592903137
			],
			"scale":[
				1,
				0.9999999403953552,
				0.9999999403953552
			],
			"translation":[
				0,
				0.934743344783783,
				0
			]
		},
		{
			"name":"\u30dc\u30fc\u30f3.011",
			"rotation":[
				-0.7097600102424622,
				-2.210652102003079e-21,
				0,
				0.704443633556366
			],
			"scale":[
				1,
				0.9999999403953552,
				0.9999999403953552
			],
			"translation":[
				0,
				0.934743344783783,
				0
			]
		},
		{
			"children":[
				5,
				7,
				8,
				9,
				10
			],
			"name":"\u30dc\u30fc\u30f3"
		},
		{
			"name":"\u30dc\u30fc\u30f3.003",
			"rotation":[
				-0.7037603855133057,
				0.004733365029096603,
				0.004689028486609459,
				0.7104062438011169
			],
			"scale":[
				1,
				0.9999999403953552,
				1
			]
		},
		{
			"name":"\u30dc\u30fc\u30f3.004",
			"rotation":[
				-0.007660289295017719,
				-0.6992468237876892,
				-0.7148000597953796,
				0.007493786979466677
			],
			"scale":[
				1.0000001192092896,
				1.0000001192092896,
				1.000000238418579
			]
		},
		{
			"name":"\u30dc\u30fc\u30f3.005",
			"rotation":[
				-0.4947373867034912,
				-0.5052078366279602,
				-0.505207896232605,
				0.4947373867034912
			],
			"scale":[
				0.9999999403953552,
				0.9999999403953552,
				1
			]
		},
		{
			"name":"\u30dc\u30fc\u30f3.006",
			"rotation":[
				-0.4952068626880646,
				0.5047476291656494,
				0.5047475099563599,
				0.4952068626880646
			]
		},
		{
			"mesh":0,
			"name":"\u7403",
			"skin":0
		},
		{
			"children":[
				16,
				11,
				12,
				13,
				14,
				15
			],
			"name":"\u30a2\u30fc\u30de\u30c1\u30e5\u30a2",
			"rotation":[
				0,
				0.7071068286895752,
				0,
				0.7071068286895752
			],
			"translation":[
				0,
				-0.8246565461158752,
				-0.21074092388153076
			]
		}
	],
	"animations":[
		{
			"channels":[
				{
					"sampler":0,
					"target":{
						"node":11,
						"path":"translation"
					}
				},
				{
					"sampler":1,
					"target":{
						"node":11,
						"path":"rotation"
					}
				},
				{
					"sampler":2,
					"target":{
						"node":11,
						"path":"scale"
					}
				},
				{
					"sampler":3,
					"target":{
						"node":5,
						"path":"translation"
					}
				},
				{
					"sampler":4,
					"target":{
						"node":5,
						"path":"rotation"
					}
				},
				{
					"sampler":5,
					"target":{
						"node":5,
						"path":"scale"
					}
				},
				{
					"sampler":6,
					"target":{
						"node":0,
						"path":"translation"
					}
				},
				{
					"sampler":7,
					"target":{
						"node":0,
						"path":"rotation"
					}
				},
				{
					"sampler":8,
					"target":{
						"node":0,
						"path":"scale"
					}
				},
				{
					"sampler":9,
					"target":{
						"node":1,
						"path":"translation"
					}
				},
				{
					"sampler":10,
					"target":{
						"node":1,
						"path":"rotation"
					}
				},
				{
					"sampler":11,
					"target":{
						"node":1,
						"path":"scale"
					}
				},
				{
					"sampler":12,
					"target":{
						"node":2,
						"path":"translation"
					}
				},
				{
					"sampler":13,
					"target":{
						"node":2,
						"path":"rotation"
					}
				},
				{
					"sampler":14,
					"target":{
						"node":2,
						"path":"scale"
					}
				},
				{
					"sampler":15,
					"target":{
						"node":3,
						"path":"translation"
					}
				},
				{
					"sampler":16,
					"target":{
						"node":3,
						"path":"rotation"
					}
				},
				{
					"sampler":17,
					"target":{
						"node":3,
						"path":"scale"
					}
				},
				{
					"sampler":18,
					"target":{
						"node":4,
						"path":"translation"
					}
				},
				{
					"sampler":19,
					"target":{
						"node":4,
						"path":"rotation"
					}
				},
				{
					"sampler":20,
					"target":{
						"node":4,
						"path":"scale"
					}
				},
				{
					"sampler":21,
					"target":{
						"node":7,
						"path":"translation"
					}
				},
				{
					"sampler":22,
					"target":{
						"node":7,
						"path":"rotation"
					}
				},
				{
					"sampler":23,
					"target":{
						"node":7,
						"path":"scale"
					}
				},
				{
					"sampler":24,
					"target":{
						"node":6,
						"path":"translation"
					}
				},
				{
					"sampler":25,
					"target":{
						"node":6,
						"path":"rotation"
					}
				},
				{
					"sampler":26,
					"target":{
						"node":6,
						"path":"scale"
					}
				},
				{
					"sampler":27,
					"target":{
						"node":8,
						"path":"translation"
					}
				},
				{
					"sampler":28,
					"target":{
						"node":8,
						"path":"rotation"
					}
				},
				{
					"sampler":29,
					"target":{
						"node":8,
						"path":"scale"
					}
				},
				{
					"sampler":30,
					"target":{
						"node":9,
						"path":"translation"
					}
				},
				{
					"sampler":31,
					"target":{
						"node":9,
						"path":"rotation"
					}
				},
				{
					"sampler":32,
					"target":{
						"node":9,
						"path":"scale"
					}
				},
				{
					"sampler":33,
					"target":{
						"node":10,
						"path":"translation"
					}
				},
				{
					"sampler":34,
					"target":{
						"node":10,
						"path":"rotation"
					}
				},
				{
					"sampler":35,
					"target":{
						"node":10,
						"path":"scale"
					}
				},
				{
					"sampler":36,
					"target":{
						"node":12,
						"path":"translation"
					}
				},
				{
					"sampler":37,
					"target":{
						"node":12,
						"path":"rotation"
					}
				},
				{
					"sampler":38,
					"target":{
						"node":12,
						"path":"scale"
					}
				},
				{
					"sampler":39,
					"target":{
						"node":13,
						"path":"translation"
					}
				},
				{
					"sampler":40,
					"target":{
						"node":13,
						"path":"rotation"
					}
				},
				{
					"sampler":41,
					"target":{
						"node":13,
						"path":"scale"
					}
				},
				{
					"sampler":42,
					"target":{
						"node":14,
						"path":"translation"
					}
				},
				{
					"sampler":43,
					"target":{
						"node":14,
						"path":"rotation"
					}
				},
				{
					"sampler":44,
					"target":{
						"node":14,
						"path":"scale"
					}
				},
				{
					"sampler":45,
					"target":{
						"node":15,
						"path":"translation"
					}
				},
				{
					"sampler":46,
					"target":{
						"node":15,
						"path":"rotation"
					}
				},
				{
					"sampler":47,
					"target":{
						"node":15,
						"path":"scale"
					}
				}
			],
			"name":"walk",
			"samplers":[
				{
					"input":7,
					"interpolation":"LINEAR",
					"output":8
				},
				{
					"input":7,
					"interpolation":"LINEAR",
					"output":9
				},
				{
					"input":7,
					"interpolation":"LINEAR",
					"output":10
				},
				{
					"input":11,
					"interpolation":"STEP",
					"output":12
				},
				{
					"input":7,
					"interpolation":"LINEAR",
					"output":13
				},
				{
					"input":11,
					"interpolation":"STEP",
					"output":14
				},
				{
					"input":11,
					"interpolation":"STEP",
					"output":15
				},
				{
					"input":7,
					"interpolation":"LINEAR",
					"output":16
				},
				{
					"input":11,
					"interpolation":"STEP",
					"output":17
				},
				{
					"input":11,
					"interpolation":"STEP",
					"output":15
				},
				{
					"input":7,
					"interpolation":"LINEAR",
					"output":18
				},
				{
					"input":7,
					"interpolation":"LINEAR",
					"output":19
				},
				{
					"input":11,
					"interpolation":"STEP",
					"output":15
				},
				{
					"input":7,
					"interpolation":"LINEAR",
					"output":20
				},
				{
					"input":7,
					"interpolation":"LINEAR",
					"output":21
				},
				{
					"input":11,
					"interpolation":"STEP",
					"output":15
				},
				{
					"input":11,
					"interpolation":"STEP",
					"output":22
				},
				{
					"input":7,
					"interpolation":"LINEAR",
					"output":23
				},
				{
					"input":11,
					"interpolation":"STEP",
					"output":24
				},
				{
					"input":11,
					"interpolation":"STEP",
					"output":25
				},
				{
					"input":7,
					"interpolation":"LINEAR",
					"output":26
				},
				{
					"input":11,
					"interpolation":"STEP",
					"output":27
				},
				{
					"input":11,
					"interpolation":"STEP",
					"output":28
				},
				{
					"input":11,
					"interpolation":"STEP",
					"output":17
				},
				{
					"input":11,
					"interpolation":"STEP",
					"output":29
				},
				{
					"input":11,
					"interpolation":"STEP",
					"output":30
				},
				{
					"input":7,
					"interpolation":"LINEAR",
					"output":31
				},
				{
					"input":11,
					"interpolation":"STEP",
					"output":27
				},
				{
					"input":11,
					"interpolation":"STEP",
					"output":32
				},
				{
					"input":7,
					"interpolation":"LINEAR",
					"output":33
				},
				{
					"input":11,
					"interpolation":"STEP",
					"output":34
				},
				{
					"input":7,
					"interpolation":"LINEAR",
					"output":35
				},
				{
					"input":7,
					"interpolation":"LINEAR",
					"output":36
				},
				{
					"input":11,
					"interpolation":"STEP",
					"output":27
				},
				{
					"input":7,
					"interpolation":"LINEAR",
					"output":37
				},
				{
					"input":7,
					"interpolation":"LINEAR",
					"output":38
				},
				{
					"input":7,
					"interpolation":"LINEAR",
					"output":39
				},
				{
					"input":7,
					"interpolation":"LINEAR",
					"output":40
				},
				{
					"input":7,
					"interpolation":"LINEAR",
					"output":41
				},
				{
					"input":7,
					"interpolation":"LINEAR",
					"output":42
				},
				{
					"input":7,
					"interpolation":"LINEAR",
					"output":43
				},
				{
					"input":7,
					"interpolation":"LINEAR",
					"output":44
				},
				{
					"input":7,
					"interpolation":"LINEAR",
					"output":45
				},
				{
					"input":7,
					"interpolation":"LINEAR",
					"output":46
				},
				{
					"input":7,
					"interpolation":"LINEAR",
					"output":47
				},
				{
					"input":7,
					"interpolation":"LINEAR",
					"output":48
				},
				{
					"input":7,
					"interpolation":"LINEAR",
					"output":49
				},
				{
					"input":7,
					"interpolation":"LINEAR",
					"output":50
				}
			]
		}
	],
	"materials":[
		{
			"doubleSided":true,
			"name":"\u30de\u30c6\u30ea\u30a2\u30eb.001",
			"pbrMetallicRoughness":{
				"metallicFactor":0,
				"roughnessFactor":0.5
			}
		}
	],
	"meshes":[
		{
			"name":"\u7403",
			"primitives":[
				{
					"attributes":{
						"POSITION":0,
						"NORMAL":1,
						"TEXCOORD_0":2,
						"JOINTS_0":3,
						"WEIGHTS_0":4
					},
					"indices":5,
					"material":0
				}
			]
		}
	],
	"skins":[
		{
			"inverseBindMatrices":6,
			"joints":[
				11,
				5,
				0,
				1,
				2,
				3,
				4,
				7,
				6,
				8,
				9,
				10,
				12,
				13,
				14,
				15
			],
			"name":"\u30a2\u30fc\u30de\u30c1\u30e5\u30a2"
		}
	],
	"accessors":[
		{
			"bufferView":0,
			"componentType":5126,
			"count":2813,
			"max":[
				1.4388209581375122,
				1.7135180234909058,
				1.1454291343688965
			],
			"min":[
				-1.2971141338348389,
				-1,
				-1.566910982131958
			],
			"type":"VEC3"
		},
		{
			"bufferView":1,
			"componentType":5126,
			"count":2813,
			"type":"VEC3"
		},
		{
			"bufferView":2,
			"componentType":5126,
			"count":2813,
			"type":"VEC2"
		},
		{
			"bufferView":3,
			"componentType":5121,
			"count":2813,
			"type":"VEC4"
		},
		{
			"bufferView":4,
			"componentType":5126,
			"count":2813,
			"type":"VEC4"
		},
		{
			"bufferView":5,
			"componentType":5123,
			"count":14118,
			"type":"SCALAR"
		},
		{
			"bufferView":6,
			"componentType":5126,
			"count":16,
			"type":"MAT4"
		},
		{
			"bufferView":7,
			"componentType":5126,
			"count":49,
			"max":[
				2
			],
			"min":[
				0
			],
			"type":"SCALAR"
		},
		{
			"bufferView":8,
			"componentType":5126,
			"count":49,
			"type":"VEC3"
		},
		{
			"bufferView":9,
			"componentType":5126,
			"count":49,
			"type":"VEC4"
		},
		{
			"bufferView":10,
			"componentType":5126,
			"count":49,
			"type":"VEC3"
		},
		{
			"bufferView":11,
			"componentType":5126,
			"count":2,
			"max":[
				2
			],
			"min":[
				0
			],
			"type":"SCALAR"
		},
		{
			"bufferView":12,
			"componentType":5126,
			"count":2,
			"type":"VEC3"
		},
		{
			"bufferView":13,
			"componentType":5126,
			"count":49,
			"type":"VEC4"
		},
		{
			"bufferView":14,
			"componentType":5126,
			"count":2,
			"type":"VEC3"
		},
		{
			"bufferView":15,
			"componentType":5126,
			"count":2,
			"type":"VEC3"
		},
		{
			"bufferView":16,
			"componentType":5126,
			"count":49,
			"type":"VEC4"
		},
		{
			"bufferView":17,
			"componentType":5126,
			"count":2,
			"type":"VEC3"
		},
		{
			"bufferView":18,
			"componentType":5126,
			"count":49,
			"type":"VEC4"
		},
		{
			"bufferView":19,
			"componentType":5126,
			"count":49,
			"type":"VEC3"
		},
		{
			"bufferView":20,
			"componentType":5126,
			"count":49,
			"type":"VEC4"
		},
		{
			"bufferView":21,
			"componentType":5126,
			"count":49,
			"type":"VEC3"
		},
		{
			"bufferView":22,
			"componentType":5126,
			"count":2,
			"type":"VEC4"
		},
		{
			"bufferView":23,
			"componentType":5126,
			"count":49,
			"type":"VEC3"
		},
		{
			"bufferView":24,
			"componentType":5126,
			"count":2,
			"type":"VEC3"
		},
		{
			"bufferView":25,
			"componentType":5126,
			"count":2,
			"type":"VEC4"
		},
		{
			"bufferView":26,
			"componentType":5126,
			"count":49,
			"type":"VEC3"
		},
		{
			"bufferView":27,
			"componentType":5126,
			"count":2,
			"type":"VEC3"
		},
		{
			"bufferView":28,
			"componentType":5126,
			"count":2,
			"type":"VEC4"
		},
		{
			"bufferView":29,
			"componentType":5126,
			"count":2,
			"type":"VEC3"
		},
		{
			"bufferView":30,
			"componentType":5126,
			"count":2,
			"type":"VEC4"
		},
		{
			"bufferView":31,
			"componentType":5126,
			"count":49,
			"type":"VEC3"
		},
		{
			"bufferView":32,
			"componentType":5126,
			"count":2,
			"type":"VEC4"
		},
		{
			"bufferView":33,
			"componentType":5126,
			"count":49,
			"type":"VEC3"
		},
		{
			"bufferView":34,
			"componentType":5126,
			"count":2,
			"type":"VEC3"
		},
		{
			"bufferView":35,
			"componentType":5126,
			"count":49,
			"type":"VEC4"
		},
		{
			"bufferView":36,
			"componentType":5126,
			"count":49,
			"type":"VEC3"
		},
		{
			"bufferView":37,
			"componentType":5126,
			"count":49,
			"type":"VEC4"
		},
		{
			"bufferView":38,
			"componentType":5126,
			"count":49,
			"type":"VEC3"
		},
		{
			"bufferView":39,
			"componentType":5126,
			"count":49,
			"type":"VEC3"
		},
		{
			"bufferView":40,
			"componentType":5126,
			"count":49,
			"type":"VEC4"
		},
		{
			"bufferView":41,
			"componentType":5126,
			"count":49,
			"type":"VEC3"
		},
		{
			"bufferView":42,
			"componentType":5126,
			"count":49,
			"type":"VEC3"
		},
		{
			"bufferView":43,
			"componentType":5126,
			"count":49,
			"type":"VEC4"
		},
		{
			"bufferView":44,
			"componentType":5126,
			"count":49,
			"type":"VEC3"
		},
		{
			"bufferView":45,
			"componentType":5126,
			"count":49,
			"type":"VEC3"
		},
		{
			"bufferView":46,
			"componentType":5126,
			"count":49,
			"type":"VEC4"
		},
		{
			"bufferView":47,
			"componentType":5126,
			"count":49,
			"type":"VEC3"
		},
		{
			"bufferView":48,
			"componentType":5126,
			"count":49,
			"type":"VEC3"
		},
		{
			"bufferView":49,
			"componentType":5126,
			"count":49,
			"type":"VEC4"
		},
		{
			"bufferView":50,
			"componentType":5126,
			"count":49,
			"type":"VEC3"
		}
	],
	"bufferViews":[
		{
			"buffer":0,
			"byteLength":33756,
			"byteOffset":0,
			"target":34962
		},
		{
			"buffer":0,
			"byteLength":33756,
			"byteOffset":33756,
			"target":34962
		},
		{
			"buffer":0,
			"byteLength":22504,
			"byteOffset":67512,
			"target":34962
		},
		{
			"buffer":0,
			"byteLength":11252,
			"byteOffset":90016,
			"target":34962
		},
		{
			"buffer":0,
			"byteLength":45008,
			"byteOffset":101268,
			"target":34962
		},
		{
			"buffer":0,
			"byteLength":28236,
			"byteOffset":146276,
			"target":34963
		},
		{
			"buffer":0,
			"byteLength":1024,
			"byteOffset":174512
		},
		{
			"buffer":0,
			"byteLength":196,
			"byteOffset":175536
		},
		{
			"buffer":0,
			"byteLength":588,
			"byteOffset":175732
		},
		{
			"buffer":0,
			"byteLength":784,
			"byteOffset":176320
		},
		{
			"buffer":0,
			"byteLength":588,
			"byteOffset":177104
		},
		{
			"buffer":0,
			"byteLength":8,
			"byteOffset":177692
		},
		{
			"buffer":0,
			"byteLength":24,
			"byteOffset":177700
		},
		{
			"buffer":0,
			"byteLength":784,
			"byteOffset":177724
		},
		{
			"buffer":0,
			"byteLength":24,
			"byteOffset":178508
		},
		{
			"buffer":0,
			"byteLength":24,
			"byteOffset":178532
		},
		{
			"buffer":0,
			"byteLength":784,
			"byteOffset":178556
		},
		{
			"buffer":0,
			"byteLength":24,
			"byteOffset":179340
		},
		{
			"buffer":0,
			"byteLength":784,
			"byteOffset":179364
		},
		{
			"buffer":0,
			"byteLength":588,
			"byteOffset":180148
		},
		{
			"buffer":0,
			"byteLength":784,
			"byteOffset":180736
		},
		{
			"buffer":0,
			"byteLength":588,
			"byteOffset":181520
		},
		{
			"buffer":0,
			"byteLength":32,
			"byteOffset":182108
		},
		{
			"buffer":0,
			"byteLength":588,
			"byteOffset":182140
		},
		{
			"buffer":0,
			"byteLength":24,
			"byteOffset":182728
		},
		{
			"buffer":0,
			"byteLength":32,
			"byteOffset":182752
		},
		{
			"buffer":0,
			"byteLength":588,
			"byteOffset":182784
		},
		{
			"buffer":0,
			"byteLength":24,
			"byteOffset":183372
		},
		{
			"buffer":0,
			"byteLength":32,
			"byteOffset":183396
		},
		{
			"buffer":0,
			"byteLength":24,
			"byteOffset":183428
		},
		{
			"buffer":0,
			"byteLength":32,
			"byteOffset":183452
		},
		{
			"buffer":0,
			"byteLength":588,
			"byteOffset":183484
		},
		{
			"buffer":0,
			"byteLength":32,
			"byteOffset":184072
		},
		{
			"buffer":0,
			"byteLength":588,
			"byteOffset":184104
		},
		{
			"buffer":0,
			"byteLength":24,
			"byteOffset":184692
		},
		{
			"buffer":0,
			"byteLength":784,
			"byteOffset":184716
		},
		{
			"buffer":0,
			"byteLength":588,
			"byteOffset":185500
		},
		{
			"buffer":0,
			"byteLength":784,
			"byteOffset":186088
		},
		{
			"buffer":0,
			"byteLength":588,
			"byteOffset":186872
		},
		{
			"buffer":0,
			"byteLength":588,
			"byteOffset":187460
		},
		{
			"buffer":0,
			"byteLength":784,
			"byteOffset":188048
		},
		{
			"buffer":0,
			"byteLength":588,
			"byteOffset":188832
		},
		{
			"buffer":0,
			"byteLength":588,
			"byteOffset":189420
		},
		{
			"buffer":0,
			"byteLength":784,
			"byteOffset":190008
		},
		{
			"buffer":0,
			"byteLength":588,
			"byteOffset":190792
		},
		{
			"buffer":0,
			"byteLength":588,
			"byteOffset":191380
		},
		{
			"buffer":0,
			"byteLength":784,
			"byteOffset":191968
		},
		{
			"buffer":0,
			"byteLength":588,
			"byteOffset":192752
		},
		{
			"buffer":0,
			"byteLength":588,
			"byteOffset":193340
		},
		{
			"buffer":0,
			"byteLength":784,
			"byteOffset":193928
		},
		{
			"buffer":0,
			"byteLength":588,
			"byteOffset":194712
		}
	],
	"buffers":[
		{
			"byteLength":195300,
			"uri":"slime.bin"
		}
	]
}
